<svg width="197" height="212" viewBox="0 0 197 212" fill="none" xmlns="http://www.w3.org/2000/svg">
<path d="M191.979 78.2467L182.995 108.327L150.512 108.675L139.93 108.79L114.818 109.06L104.24 109.175L79.1273 109.446L68.5496 109.56L43.437 109.837L32.8593 109.951L15.9081 110.131L12.6292 101.143L8.37565 89.5026L6.02656 83.0595L4.67908 78.2467L12.7415 44.046C13.5297 40.7043 15.0924 37.786 17.2028 35.7144C19.3132 33.6429 21.8616 32.5258 24.478 32.5255H171.165C173.705 32.5273 176.183 33.5818 178.259 35.5442C180.334 37.5065 181.905 40.2808 182.757 43.4865L183.692 47.0119L191.979 78.2467Z" fill="#95E0FD"/>
<path d="M192.508 77.8682H4.67908L4.67908 141.086H192.508V77.8682Z" fill="#95E0FD"/>
<path opacity="0.1" d="M192.564 77.8682H4.67908L4.67908 141.086H192.564V77.8682Z" fill="black"/>
<path d="M179.227 0H18.5554L18.5554 202.194H179.227V0Z" fill="#F2F2F2"/>
<path d="M168.971 42.9569H27.7111V57.7805H168.971V42.9569Z" fill="#E6E6E6"/>
<path d="M99.2132 14.6176H52.1264V29.4412H99.2132V14.6176Z" fill="#E6E6E6"/>
<path d="M167.828 65.9207H26.5679V80.7443H167.828V65.9207Z" fill="#E6E6E6"/>
<path d="M168.971 86.1197H27.7111V100.943H168.971V86.1197Z" fill="#E6E6E6"/>
<path d="M33.5995 26.4777C31.5762 26.4777 29.5983 25.8778 27.916 24.7537C26.2337 23.6296 24.9225 22.0319 24.1482 20.1626C23.3739 18.2933 23.1713 16.2364 23.566 14.2519C23.9608 12.2675 24.9351 10.4447 26.3658 9.01398C27.7965 7.58329 29.6193 6.60897 31.6037 6.21424C33.5882 5.81951 35.6451 6.0221 37.5144 6.79639C39.3837 7.57067 40.9814 8.88189 42.1055 10.5642C43.2296 12.2465 43.8295 14.2244 43.8295 16.2477C43.8265 18.9599 42.7477 21.5602 40.8299 23.4781C38.912 25.3959 36.3117 26.4747 33.5995 26.4777ZM33.5995 7.22119C31.8142 7.22119 30.0691 7.75059 28.5847 8.74244C27.1003 9.73428 25.9433 11.144 25.2601 12.7934C24.5769 14.4428 24.3982 16.2577 24.7464 18.0087C25.0947 19.7596 25.9544 21.368 27.2168 22.6304C28.4792 23.8928 30.0876 24.7525 31.8385 25.1008C33.5895 25.4491 35.4044 25.2703 37.0538 24.5871C38.7032 23.9039 40.1129 22.747 41.1048 21.2626C42.0966 19.7782 42.626 18.033 42.626 16.2477C42.6233 13.8545 41.6714 11.5602 39.9792 9.86798C38.287 8.17577 35.9927 7.22389 33.5995 7.22119Z" fill="#95E0FD"/>
<g filter="url(#filter0_d)">
<path d="M192.138 203.869H4.67908L4.67908 77.8682L28.9544 103.189L168.762 101.983L192.138 77.8682V203.869Z" fill="#95E0FD"/>
</g>
<path d="M60.893 20.1V25H60.382V22.739H57.316V25H56.798V20.1H57.316V22.284H60.382V20.1H60.893ZM65.1033 23.313H62.0233C62.0513 23.6957 62.1983 24.006 62.4643 24.244C62.7303 24.4773 63.0663 24.594 63.4723 24.594C63.701 24.594 63.911 24.5543 64.1023 24.475C64.2937 24.391 64.4593 24.2697 64.5993 24.111L64.8793 24.433C64.716 24.629 64.5107 24.7783 64.2633 24.881C64.0207 24.9837 63.7523 25.035 63.4583 25.035C63.0803 25.035 62.7443 24.9557 62.4503 24.797C62.161 24.6337 61.9347 24.4097 61.7713 24.125C61.608 23.8403 61.5263 23.5183 61.5263 23.159C61.5263 22.7997 61.6033 22.4777 61.7573 22.193C61.916 21.9083 62.1307 21.6867 62.4013 21.528C62.6767 21.3693 62.9847 21.29 63.3253 21.29C63.666 21.29 63.9717 21.3693 64.2423 21.528C64.513 21.6867 64.7253 21.9083 64.8793 22.193C65.0333 22.473 65.1103 22.795 65.1103 23.159L65.1033 23.313ZM63.3253 21.717C62.9707 21.717 62.672 21.8313 62.4293 22.06C62.1913 22.284 62.056 22.578 62.0233 22.942H64.6343C64.6017 22.578 64.464 22.284 64.2213 22.06C63.9833 21.8313 63.6847 21.717 63.3253 21.717ZM68.6576 21.318L66.8166 25.441C66.6673 25.7863 66.4946 26.0313 66.2986 26.176C66.1026 26.3207 65.8669 26.393 65.5916 26.393C65.4143 26.393 65.2486 26.365 65.0946 26.309C64.9406 26.253 64.8076 26.169 64.6956 26.057L64.9266 25.686C65.1133 25.8727 65.3373 25.966 65.5986 25.966C65.7666 25.966 65.9089 25.9193 66.0256 25.826C66.1469 25.7327 66.2589 25.574 66.3616 25.35L66.5226 24.993L64.8776 21.318H65.3956L66.7816 24.447L68.1676 21.318H68.6576ZM75.4036 20.1V25H74.9066V21.08L72.9816 24.377H72.7366L70.8116 21.101V25H70.3146V20.1H70.7416L72.8696 23.733L74.9766 20.1H75.4036ZM76.4051 21.318H76.9021V25H76.4051V21.318ZM76.6571 20.513C76.5544 20.513 76.4681 20.478 76.3981 20.408C76.3281 20.338 76.2931 20.254 76.2931 20.156C76.2931 20.0627 76.3281 19.981 76.3981 19.911C76.4681 19.841 76.5544 19.806 76.6571 19.806C76.7598 19.806 76.8461 19.841 76.9161 19.911C76.9861 19.9763 77.0211 20.0557 77.0211 20.149C77.0211 20.2517 76.9861 20.338 76.9161 20.408C76.8461 20.478 76.7598 20.513 76.6571 20.513ZM79.321 25.035C78.957 25.035 78.6303 24.9557 78.341 24.797C78.0563 24.6383 77.8323 24.4167 77.669 24.132C77.5057 23.8427 77.424 23.5183 77.424 23.159C77.424 22.7997 77.5057 22.4777 77.669 22.193C77.8323 21.9083 78.0563 21.6867 78.341 21.528C78.6303 21.3693 78.957 21.29 79.321 21.29C79.6383 21.29 79.9207 21.353 80.168 21.479C80.42 21.6003 80.6183 21.78 80.763 22.018L80.392 22.27C80.2707 22.088 80.1167 21.9527 79.93 21.864C79.7433 21.7707 79.5403 21.724 79.321 21.724C79.055 21.724 78.8147 21.7847 78.6 21.906C78.39 22.0227 78.2243 22.1907 78.103 22.41C77.9863 22.6293 77.928 22.879 77.928 23.159C77.928 23.4437 77.9863 23.6957 78.103 23.915C78.2243 24.1297 78.39 24.2977 78.6 24.419C78.8147 24.5357 79.055 24.594 79.321 24.594C79.5403 24.594 79.7433 24.5497 79.93 24.461C80.1167 24.3723 80.2707 24.237 80.392 24.055L80.763 24.307C80.6183 24.545 80.42 24.727 80.168 24.853C79.916 24.9743 79.6337 25.035 79.321 25.035ZM83.0706 21.29C83.5326 21.29 83.899 21.4253 84.1696 21.696C84.445 21.962 84.5826 22.3517 84.5826 22.865V25H84.0856V22.914C84.0856 22.5313 83.99 22.2397 83.7986 22.039C83.6073 21.8383 83.3343 21.738 82.9796 21.738C82.583 21.738 82.268 21.857 82.0346 22.095C81.806 22.3283 81.6916 22.6527 81.6916 23.068V25H81.1946V19.806H81.6916V21.962C81.827 21.7473 82.0136 21.5817 82.2516 21.465C82.4896 21.3483 82.7626 21.29 83.0706 21.29ZM86.7299 21.29C87.2106 21.29 87.5793 21.4113 87.8359 21.654C88.0926 21.892 88.2209 22.2467 88.2209 22.718V25H87.7449V24.426C87.6329 24.6173 87.4673 24.7667 87.2479 24.874C87.0333 24.9813 86.7766 25.035 86.4779 25.035C86.0673 25.035 85.7406 24.937 85.4979 24.741C85.2553 24.545 85.1339 24.286 85.1339 23.964C85.1339 23.6513 85.2459 23.3993 85.4699 23.208C85.6986 23.0167 86.0603 22.921 86.5549 22.921H87.7239V22.697C87.7239 22.3797 87.6353 22.1393 87.4579 21.976C87.2806 21.808 87.0216 21.724 86.6809 21.724C86.4476 21.724 86.2236 21.7637 86.0089 21.843C85.7943 21.9177 85.6099 22.0227 85.4559 22.158L85.2319 21.787C85.4186 21.6283 85.6426 21.507 85.9039 21.423C86.1653 21.3343 86.4406 21.29 86.7299 21.29ZM86.5549 24.643C86.8349 24.643 87.0753 24.58 87.2759 24.454C87.4766 24.3233 87.6259 24.1367 87.7239 23.894V23.292H86.5689C85.9389 23.292 85.6239 23.5113 85.6239 23.95C85.6239 24.1647 85.7056 24.335 85.8689 24.461C86.0323 24.5823 86.2609 24.643 86.5549 24.643ZM92.3005 23.313H89.2205C89.2485 23.6957 89.3955 24.006 89.6615 24.244C89.9275 24.4773 90.2635 24.594 90.6695 24.594C90.8982 24.594 91.1082 24.5543 91.2995 24.475C91.4909 24.391 91.6565 24.2697 91.7965 24.111L92.0765 24.433C91.9132 24.629 91.7079 24.7783 91.4605 24.881C91.2179 24.9837 90.9495 25.035 90.6555 25.035C90.2775 25.035 89.9415 24.9557 89.6475 24.797C89.3582 24.6337 89.1319 24.4097 88.9685 24.125C88.8052 23.8403 88.7235 23.5183 88.7235 23.159C88.7235 22.7997 88.8005 22.4777 88.9545 22.193C89.1132 21.9083 89.3279 21.6867 89.5985 21.528C89.8739 21.3693 90.1819 21.29 90.5225 21.29C90.8632 21.29 91.1689 21.3693 91.4395 21.528C91.7102 21.6867 91.9225 21.9083 92.0765 22.193C92.2305 22.473 92.3075 22.795 92.3075 23.159L92.3005 23.313ZM90.5225 21.717C90.1679 21.717 89.8692 21.8313 89.6265 22.06C89.3885 22.284 89.2532 22.578 89.2205 22.942H91.8315C91.7989 22.578 91.6612 22.284 91.4185 22.06C91.1805 21.8313 90.8819 21.717 90.5225 21.717ZM92.8291 19.806H93.3261V25H92.8291V19.806ZM94.142 20.1H94.73L94.625 23.53H94.24L94.142 20.1ZM94.436 25.035C94.3333 25.035 94.2447 25 94.17 24.93C94.1 24.8553 94.065 24.769 94.065 24.671C94.065 24.5683 94.1 24.4843 94.17 24.419C94.24 24.349 94.3287 24.314 94.436 24.314C94.5387 24.314 94.625 24.349 94.695 24.419C94.765 24.4843 94.8 24.5683 94.8 24.671C94.8 24.769 94.765 24.8553 94.695 24.93C94.625 25 94.5387 25.035 94.436 25.035Z" fill="black"/>
<path d="M32.9041 50.9177C33.2261 50.9877 33.4734 51.1277 33.6461 51.3377C33.8234 51.543 33.9121 51.809 33.9121 52.1357C33.9121 52.5557 33.7558 52.88 33.4431 53.1087C33.1351 53.3327 32.6778 53.4447 32.0711 53.4447H29.8171V48.5447H31.9311C32.4771 48.5447 32.8994 48.6543 33.1981 48.8737C33.5014 49.093 33.6531 49.4033 33.6531 49.8047C33.6531 50.0753 33.5854 50.3063 33.4501 50.4977C33.3194 50.6843 33.1374 50.8243 32.9041 50.9177ZM30.3351 48.9717V50.7497H31.8961C32.2928 50.7497 32.5984 50.675 32.8131 50.5257C33.0278 50.3717 33.1351 50.15 33.1351 49.8607C33.1351 49.5713 33.0278 49.352 32.8131 49.2027C32.5984 49.0487 32.2928 48.9717 31.8961 48.9717H30.3351ZM32.0641 53.0177C32.5028 53.0177 32.8341 52.943 33.0581 52.7937C33.2821 52.6443 33.3941 52.411 33.3941 52.0937C33.3941 51.4823 32.9508 51.1767 32.0641 51.1767H30.3351V53.0177H32.0641ZM37.7054 51.7577H34.6254C34.6534 52.1403 34.8004 52.4507 35.0664 52.6887C35.3324 52.922 35.6684 53.0387 36.0744 53.0387C36.3031 53.0387 36.5131 52.999 36.7044 52.9197C36.8958 52.8357 37.0614 52.7143 37.2014 52.5557L37.4814 52.8777C37.3181 53.0737 37.1128 53.223 36.8654 53.3257C36.6228 53.4283 36.3544 53.4797 36.0604 53.4797C35.6824 53.4797 35.3464 53.4003 35.0524 53.2417C34.7631 53.0783 34.5368 52.8543 34.3734 52.5697C34.2101 52.285 34.1284 51.963 34.1284 51.6037C34.1284 51.2443 34.2054 50.9223 34.3594 50.6377C34.5181 50.353 34.7328 50.1313 35.0034 49.9727C35.2788 49.814 35.5868 49.7347 35.9274 49.7347C36.2681 49.7347 36.5738 49.814 36.8444 49.9727C37.1151 50.1313 37.3274 50.353 37.4814 50.6377C37.6354 50.9177 37.7124 51.2397 37.7124 51.6037L37.7054 51.7577ZM35.9274 50.1617C35.5728 50.1617 35.2741 50.276 35.0314 50.5047C34.7934 50.7287 34.6581 51.0227 34.6254 51.3867H37.2364C37.2038 51.0227 37.0661 50.7287 36.8234 50.5047C36.5854 50.276 36.2868 50.1617 35.9274 50.1617ZM41.4401 51.7577H38.3601C38.3881 52.1403 38.5351 52.4507 38.8011 52.6887C39.0671 52.922 39.4031 53.0387 39.8091 53.0387C40.0377 53.0387 40.2477 52.999 40.4391 52.9197C40.6304 52.8357 40.7961 52.7143 40.9361 52.5557L41.2161 52.8777C41.0527 53.0737 40.8474 53.223 40.6001 53.3257C40.3574 53.4283 40.0891 53.4797 39.7951 53.4797C39.4171 53.4797 39.0811 53.4003 38.7871 53.2417C38.4977 53.0783 38.2714 52.8543 38.1081 52.5697C37.9447 52.285 37.8631 51.963 37.8631 51.6037C37.8631 51.2443 37.9401 50.9223 38.0941 50.6377C38.2527 50.353 38.4674 50.1313 38.7381 49.9727C39.0134 49.814 39.3214 49.7347 39.6621 49.7347C40.0027 49.7347 40.3084 49.814 40.5791 49.9727C40.8497 50.1313 41.0621 50.353 41.2161 50.6377C41.3701 50.9177 41.4471 51.2397 41.4471 51.6037L41.4401 51.7577ZM39.6621 50.1617C39.3074 50.1617 39.0087 50.276 38.7661 50.5047C38.5281 50.7287 38.3927 51.0227 38.3601 51.3867H40.9711C40.9384 51.0227 40.8007 50.7287 40.5581 50.5047C40.3201 50.276 40.0214 50.1617 39.6621 50.1617ZM43.8447 49.7347C44.3067 49.7347 44.673 49.87 44.9437 50.1407C45.219 50.4067 45.3567 50.7963 45.3567 51.3097V53.4447H44.8597V51.3587C44.8597 50.976 44.764 50.6843 44.5727 50.4837C44.3813 50.283 44.1083 50.1827 43.7537 50.1827C43.357 50.1827 43.042 50.3017 42.8087 50.5397C42.58 50.773 42.4657 51.0973 42.4657 51.5127V53.4447H41.9687V49.7627H42.4447V50.4417C42.58 50.2177 42.7667 50.045 43.0047 49.9237C43.2473 49.7977 43.5273 49.7347 43.8447 49.7347ZM49.434 49.7347C49.896 49.7347 50.2623 49.87 50.533 50.1407C50.8083 50.4067 50.946 50.7963 50.946 51.3097V53.4447H50.449V51.3587C50.449 50.976 50.3533 50.6843 50.162 50.4837C49.9707 50.283 49.6977 50.1827 49.343 50.1827C48.9463 50.1827 48.6313 50.3017 48.398 50.5397C48.1693 50.773 48.055 51.0973 48.055 51.5127V53.4447H47.558V48.2507H48.055V50.4067C48.1903 50.192 48.377 50.0263 48.615 49.9097C48.853 49.793 49.126 49.7347 49.434 49.7347ZM53.0933 49.7347C53.574 49.7347 53.9426 49.856 54.1993 50.0987C54.456 50.3367 54.5843 50.6913 54.5843 51.1627V53.4447H54.1083V52.8707C53.9963 53.062 53.8306 53.2113 53.6113 53.3187C53.3966 53.426 53.14 53.4797 52.8413 53.4797C52.4306 53.4797 52.104 53.3817 51.8613 53.1857C51.6186 52.9897 51.4973 52.7307 51.4973 52.4087C51.4973 52.096 51.6093 51.844 51.8333 51.6527C52.062 51.4613 52.4236 51.3657 52.9183 51.3657H54.0873V51.1417C54.0873 50.8243 53.9986 50.584 53.8213 50.4207C53.644 50.2527 53.385 50.1687 53.0443 50.1687C52.811 50.1687 52.587 50.2083 52.3723 50.2877C52.1576 50.3623 51.9733 50.4673 51.8193 50.6027L51.5953 50.2317C51.782 50.073 52.006 49.9517 52.2673 49.8677C52.5286 49.779 52.804 49.7347 53.0933 49.7347ZM52.9183 53.0877C53.1983 53.0877 53.4386 53.0247 53.6393 52.8987C53.84 52.768 53.9893 52.5813 54.0873 52.3387V51.7367H52.9323C52.3023 51.7367 51.9873 51.956 51.9873 52.3947C51.9873 52.6093 52.069 52.7797 52.2323 52.9057C52.3956 53.027 52.6243 53.0877 52.9183 53.0877ZM58.4699 49.7627L56.8319 53.4447H56.3209L54.6899 49.7627H55.2079L56.5869 52.8987L57.9799 49.7627H58.4699ZM58.6798 49.7627H59.1768V53.4447H58.6798V49.7627ZM58.9318 48.9577C58.8291 48.9577 58.7428 48.9227 58.6728 48.8527C58.6028 48.7827 58.5678 48.6987 58.5678 48.6007C58.5678 48.5073 58.6028 48.4257 58.6728 48.3557C58.7428 48.2857 58.8291 48.2507 58.9318 48.2507C59.0345 48.2507 59.1208 48.2857 59.1908 48.3557C59.2608 48.421 59.2958 48.5003 59.2958 48.5937C59.2958 48.6963 59.2608 48.7827 59.1908 48.8527C59.1208 48.9227 59.0345 48.9577 58.9318 48.9577ZM61.9457 49.7347C62.4077 49.7347 62.774 49.87 63.0447 50.1407C63.32 50.4067 63.4577 50.7963 63.4577 51.3097V53.4447H62.9607V51.3587C62.9607 50.976 62.865 50.6843 62.6737 50.4837C62.4823 50.283 62.2093 50.1827 61.8547 50.1827C61.458 50.1827 61.143 50.3017 60.9097 50.5397C60.681 50.773 60.5667 51.0973 60.5667 51.5127V53.4447H60.0697V49.7627H60.5457V50.4417C60.681 50.2177 60.8677 50.045 61.1057 49.9237C61.3483 49.7977 61.6283 49.7347 61.9457 49.7347ZM67.7397 49.7627V52.9967C67.7397 53.622 67.5857 54.084 67.2777 54.3827C66.9743 54.686 66.5147 54.8377 65.8987 54.8377C65.558 54.8377 65.2337 54.7863 64.9257 54.6837C64.6223 54.5857 64.375 54.448 64.1837 54.2707L64.4357 53.8927C64.613 54.0513 64.8277 54.175 65.0797 54.2637C65.3363 54.3523 65.6047 54.3967 65.8847 54.3967C66.3513 54.3967 66.6943 54.287 66.9137 54.0677C67.133 53.853 67.2427 53.517 67.2427 53.0597V52.5907C67.0887 52.824 66.8857 53.0013 66.6337 53.1227C66.3863 53.244 66.111 53.3047 65.8077 53.3047C65.4623 53.3047 65.1473 53.23 64.8627 53.0807C64.5827 52.9267 64.361 52.7143 64.1977 52.4437C64.039 52.1683 63.9597 51.858 63.9597 51.5127C63.9597 51.1673 64.039 50.8593 64.1977 50.5887C64.361 50.318 64.5827 50.108 64.8627 49.9587C65.1427 49.8093 65.4577 49.7347 65.8077 49.7347C66.1203 49.7347 66.4027 49.7977 66.6547 49.9237C66.9067 50.0497 67.1097 50.2317 67.2637 50.4697V49.7627H67.7397ZM65.8567 52.8637C66.1227 52.8637 66.363 52.8077 66.5777 52.6957C66.7923 52.579 66.958 52.418 67.0747 52.2127C67.196 52.0073 67.2567 51.774 67.2567 51.5127C67.2567 51.2513 67.196 51.0203 67.0747 50.8197C66.958 50.6143 66.7923 50.4557 66.5777 50.3437C66.3677 50.227 66.1273 50.1687 65.8567 50.1687C65.5907 50.1687 65.3503 50.2247 65.1357 50.3367C64.9257 50.4487 64.76 50.6073 64.6387 50.8127C64.522 51.018 64.4637 51.2513 64.4637 51.5127C64.4637 51.774 64.522 52.0073 64.6387 52.2127C64.76 52.418 64.9257 52.579 65.1357 52.6957C65.3503 52.8077 65.5907 52.8637 65.8567 52.8637ZM71.2695 49.7347C71.7502 49.7347 72.1189 49.856 72.3755 50.0987C72.6322 50.3367 72.7605 50.6913 72.7605 51.1627V53.4447H72.2845V52.8707C72.1725 53.062 72.0069 53.2113 71.7875 53.3187C71.5729 53.426 71.3162 53.4797 71.0175 53.4797C70.6069 53.4797 70.2802 53.3817 70.0375 53.1857C69.7949 52.9897 69.6735 52.7307 69.6735 52.4087C69.6735 52.096 69.7855 51.844 70.0095 51.6527C70.2382 51.4613 70.5999 51.3657 71.0945 51.3657H72.2635V51.1417C72.2635 50.8243 72.1749 50.584 71.9975 50.4207C71.8202 50.2527 71.5612 50.1687 71.2205 50.1687C70.9872 50.1687 70.7632 50.2083 70.5485 50.2877C70.3339 50.3623 70.1495 50.4673 69.9955 50.6027L69.7715 50.2317C69.9582 50.073 70.1822 49.9517 70.4435 49.8677C70.7049 49.779 70.9802 49.7347 71.2695 49.7347ZM71.0945 53.0877C71.3745 53.0877 71.6149 53.0247 71.8155 52.8987C72.0162 52.768 72.1655 52.5813 72.2635 52.3387V51.7367H71.1085C70.4785 51.7367 70.1635 51.956 70.1635 52.3947C70.1635 52.6093 70.2452 52.7797 70.4085 52.9057C70.5719 53.027 70.8005 53.0877 71.0945 53.0877ZM76.4885 53.4797C76.1245 53.4797 75.7978 53.4003 75.5085 53.2417C75.2238 53.083 74.9998 52.8613 74.8365 52.5767C74.6731 52.2873 74.5915 51.963 74.5915 51.6037C74.5915 51.2443 74.6731 50.9223 74.8365 50.6377C74.9998 50.353 75.2238 50.1313 75.5085 49.9727C75.7978 49.814 76.1245 49.7347 76.4885 49.7347C76.8058 49.7347 77.0881 49.7977 77.3355 49.9237C77.5875 50.045 77.7858 50.2247 77.9305 50.4627L77.5595 50.7147C77.4381 50.5327 77.2841 50.3973 77.0975 50.3087C76.9108 50.2153 76.7078 50.1687 76.4885 50.1687C76.2225 50.1687 75.9821 50.2293 75.7675 50.3507C75.5575 50.4673 75.3918 50.6353 75.2705 50.8547C75.1538 51.074 75.0955 51.3237 75.0955 51.6037C75.0955 51.8883 75.1538 52.1403 75.2705 52.3597C75.3918 52.5743 75.5575 52.7423 75.7675 52.8637C75.9821 52.9803 76.2225 53.0387 76.4885 53.0387C76.7078 53.0387 76.9108 52.9943 77.0975 52.9057C77.2841 52.817 77.4381 52.6817 77.5595 52.4997L77.9305 52.7517C77.7858 52.9897 77.5875 53.1717 77.3355 53.2977C77.0835 53.419 76.8011 53.4797 76.4885 53.4797ZM78.8928 50.4837C79.0095 50.2363 79.1821 50.0497 79.4108 49.9237C79.6441 49.7977 79.9311 49.7347 80.2718 49.7347V50.2177L80.1528 50.2107C79.7655 50.2107 79.4621 50.3297 79.2428 50.5677C79.0235 50.8057 78.9138 51.1393 78.9138 51.5687V53.4447H78.4168V49.7627H78.8928V50.4837ZM81.9628 49.7347C82.4435 49.7347 82.8122 49.856 83.0688 50.0987C83.3255 50.3367 83.4538 50.6913 83.4538 51.1627V53.4447H82.9778V52.8707C82.8658 53.062 82.7002 53.2113 82.4808 53.3187C82.2662 53.426 82.0095 53.4797 81.7108 53.4797C81.3002 53.4797 80.9735 53.3817 80.7308 53.1857C80.4882 52.9897 80.3668 52.7307 80.3668 52.4087C80.3668 52.096 80.4788 51.844 80.7028 51.6527C80.9315 51.4613 81.2932 51.3657 81.7878 51.3657H82.9568V51.1417C82.9568 50.8243 82.8682 50.584 82.6908 50.4207C82.5135 50.2527 82.2545 50.1687 81.9138 50.1687C81.6805 50.1687 81.4565 50.2083 81.2418 50.2877C81.0272 50.3623 80.8428 50.4673 80.6888 50.6027L80.4648 50.2317C80.6515 50.073 80.8755 49.9517 81.1368 49.8677C81.3982 49.779 81.6735 49.7347 81.9628 49.7347ZM81.7878 53.0877C82.0678 53.0877 82.3082 53.0247 82.5088 52.8987C82.7095 52.768 82.8588 52.5813 82.9568 52.3387V51.7367H81.8018C81.1718 51.7367 80.8568 51.956 80.8568 52.3947C80.8568 52.6093 80.9385 52.7797 81.1018 52.9057C81.2652 53.027 81.4938 53.0877 81.7878 53.0877ZM86.9107 53.0317V53.4447H83.9147V53.1157L86.2317 50.1827H83.9567V49.7627H86.8687V50.0917L84.5517 53.0317H86.9107ZM90.4246 49.7627L88.5836 53.8857C88.4342 54.231 88.2616 54.476 88.0656 54.6207C87.8696 54.7653 87.6339 54.8377 87.3586 54.8377C87.1812 54.8377 87.0156 54.8097 86.8616 54.7537C86.7076 54.6977 86.5746 54.6137 86.4626 54.5017L86.6936 54.1307C86.8802 54.3173 87.1042 54.4107 87.3656 54.4107C87.5336 54.4107 87.6759 54.364 87.7926 54.2707C87.9139 54.1773 88.0259 54.0187 88.1286 53.7947L88.2896 53.4377L86.6446 49.7627H87.1626L88.5486 52.8917L89.9346 49.7627H90.4246ZM95.0706 49.7627L93.2296 53.8857C93.0802 54.231 92.9076 54.476 92.7116 54.6207C92.5156 54.7653 92.2799 54.8377 92.0046 54.8377C91.8272 54.8377 91.6616 54.8097 91.5076 54.7537C91.3536 54.6977 91.2206 54.6137 91.1086 54.5017L91.3396 54.1307C91.5262 54.3173 91.7502 54.4107 92.0116 54.4107C92.1796 54.4107 92.3219 54.364 92.4386 54.2707C92.5599 54.1773 92.6719 54.0187 92.7746 53.7947L92.9356 53.4377L91.2906 49.7627H91.8086L93.1946 52.8917L94.5806 49.7627H95.0706ZM98.384 51.7577H95.304C95.332 52.1403 95.479 52.4507 95.745 52.6887C96.011 52.922 96.347 53.0387 96.753 53.0387C96.9816 53.0387 97.1916 52.999 97.383 52.9197C97.5743 52.8357 97.74 52.7143 97.88 52.5557L98.16 52.8777C97.9966 53.0737 97.7913 53.223 97.544 53.3257C97.3013 53.4283 97.033 53.4797 96.739 53.4797C96.361 53.4797 96.025 53.4003 95.731 53.2417C95.4416 53.0783 95.2153 52.8543 95.052 52.5697C94.8886 52.285 94.807 51.963 94.807 51.6037C94.807 51.2443 94.884 50.9223 95.038 50.6377C95.1966 50.353 95.4113 50.1313 95.682 49.9727C95.9573 49.814 96.2653 49.7347 96.606 49.7347C96.9466 49.7347 97.2523 49.814 97.523 49.9727C97.7936 50.1313 98.006 50.353 98.16 50.6377C98.314 50.9177 98.391 51.2397 98.391 51.6037L98.384 51.7577ZM96.606 50.1617C96.2513 50.1617 95.9526 50.276 95.71 50.5047C95.472 50.7287 95.3366 51.0227 95.304 51.3867H97.915C97.8823 51.0227 97.7446 50.7287 97.502 50.5047C97.264 50.276 96.9653 50.1617 96.606 50.1617ZM100.098 49.7347C100.579 49.7347 100.947 49.856 101.204 50.0987C101.461 50.3367 101.589 50.6913 101.589 51.1627V53.4447H101.113V52.8707C101.001 53.062 100.835 53.2113 100.616 53.3187C100.401 53.426 100.145 53.4797 99.846 53.4797C99.4354 53.4797 99.1087 53.3817 98.866 53.1857C98.6234 52.9897 98.502 52.7307 98.502 52.4087C98.502 52.096 98.614 51.844 98.838 51.6527C99.0667 51.4613 99.4284 51.3657 99.923 51.3657H101.092V51.1417C101.092 50.8243 101.003 50.584 100.826 50.4207C100.649 50.2527 100.39 50.1687 100.049 50.1687C99.8157 50.1687 99.5917 50.2083 99.377 50.2877C99.1624 50.3623 98.978 50.4673 98.824 50.6027L98.6 50.2317C98.7867 50.073 99.0107 49.9517 99.272 49.8677C99.5334 49.779 99.8087 49.7347 100.098 49.7347ZM99.923 53.0877C100.203 53.0877 100.443 53.0247 100.644 52.8987C100.845 52.768 100.994 52.5813 101.092 52.3387V51.7367H99.937C99.307 51.7367 98.992 51.956 98.992 52.3947C98.992 52.6093 99.0737 52.7797 99.237 52.9057C99.4004 53.027 99.629 53.0877 99.923 53.0877ZM102.925 50.4837C103.042 50.2363 103.214 50.0497 103.443 49.9237C103.676 49.7977 103.963 49.7347 104.304 49.7347V50.2177L104.185 50.2107C103.798 50.2107 103.494 50.3297 103.275 50.5677C103.056 50.8057 102.946 51.1393 102.946 51.5687V53.4447H102.449V49.7627H102.925V50.4837ZM104.692 48.5447H105.28L105.175 51.9747H104.79L104.692 48.5447ZM104.986 53.4797C104.883 53.4797 104.794 53.4447 104.72 53.3747C104.65 53.3 104.615 53.2137 104.615 53.1157C104.615 53.013 104.65 52.929 104.72 52.8637C104.79 52.7937 104.878 52.7587 104.986 52.7587C105.088 52.7587 105.175 52.7937 105.245 52.8637C105.315 52.929 105.35 53.013 105.35 53.1157C105.35 53.2137 105.315 53.3 105.245 53.3747C105.175 53.4447 105.088 53.4797 104.986 53.4797ZM111.639 48.5447V53.4447H111.128V51.1837H108.062V53.4447H107.544V48.5447H108.062V50.7287H111.128V48.5447H111.639ZM114.148 53.4797C113.794 53.4797 113.474 53.4003 113.189 53.2417C112.905 53.0783 112.681 52.8543 112.517 52.5697C112.354 52.285 112.272 51.963 112.272 51.6037C112.272 51.2443 112.354 50.9223 112.517 50.6377C112.681 50.353 112.905 50.1313 113.189 49.9727C113.474 49.814 113.794 49.7347 114.148 49.7347C114.503 49.7347 114.823 49.814 115.107 49.9727C115.392 50.1313 115.614 50.353 115.772 50.6377C115.936 50.9223 116.017 51.2443 116.017 51.6037C116.017 51.963 115.936 52.285 115.772 52.5697C115.614 52.8543 115.392 53.0783 115.107 53.2417C114.823 53.4003 114.503 53.4797 114.148 53.4797ZM114.148 53.0387C114.41 53.0387 114.643 52.9803 114.848 52.8637C115.058 52.7423 115.222 52.572 115.338 52.3527C115.455 52.1333 115.513 51.8837 115.513 51.6037C115.513 51.3237 115.455 51.074 115.338 50.8547C115.222 50.6353 115.058 50.4673 114.848 50.3507C114.643 50.2293 114.41 50.1687 114.148 50.1687C113.887 50.1687 113.651 50.2293 113.441 50.3507C113.236 50.4673 113.073 50.6353 112.951 50.8547C112.835 51.074 112.776 51.3237 112.776 51.6037C112.776 51.8837 112.835 52.1333 112.951 52.3527C113.073 52.572 113.236 52.7423 113.441 52.8637C113.651 52.9803 113.887 53.0387 114.148 53.0387ZM118.439 49.7347C118.784 49.7347 119.097 49.814 119.377 49.9727C119.657 50.1267 119.876 50.346 120.035 50.6307C120.194 50.9153 120.273 51.2397 120.273 51.6037C120.273 51.9723 120.194 52.299 120.035 52.5837C119.876 52.8683 119.657 53.09 119.377 53.2487C119.102 53.4027 118.789 53.4797 118.439 53.4797C118.14 53.4797 117.87 53.419 117.627 53.2977C117.389 53.1717 117.193 52.9897 117.039 52.7517V54.8027H116.542V49.7627H117.018V50.4907C117.167 50.248 117.363 50.0613 117.606 49.9307C117.853 49.8 118.131 49.7347 118.439 49.7347ZM118.404 53.0387C118.661 53.0387 118.894 52.9803 119.104 52.8637C119.314 52.7423 119.477 52.572 119.594 52.3527C119.715 52.1333 119.776 51.8837 119.776 51.6037C119.776 51.3237 119.715 51.0763 119.594 50.8617C119.477 50.6423 119.314 50.472 119.104 50.3507C118.894 50.2293 118.661 50.1687 118.404 50.1687C118.143 50.1687 117.907 50.2293 117.697 50.3507C117.492 50.472 117.328 50.6423 117.207 50.8617C117.09 51.0763 117.032 51.3237 117.032 51.6037C117.032 51.8837 117.09 52.1333 117.207 52.3527C117.328 52.572 117.492 52.7423 117.697 52.8637C117.907 52.9803 118.143 53.0387 118.404 53.0387ZM124.002 51.7577H120.922C120.95 52.1403 121.097 52.4507 121.363 52.6887C121.629 52.922 121.965 53.0387 122.371 53.0387C122.6 53.0387 122.81 52.999 123.001 52.9197C123.192 52.8357 123.358 52.7143 123.498 52.5557L123.778 52.8777C123.615 53.0737 123.409 53.223 123.162 53.3257C122.919 53.4283 122.651 53.4797 122.357 53.4797C121.979 53.4797 121.643 53.4003 121.349 53.2417C121.06 53.0783 120.833 52.8543 120.67 52.5697C120.507 52.285 120.425 51.963 120.425 51.6037C120.425 51.2443 120.502 50.9223 120.656 50.6377C120.815 50.353 121.029 50.1313 121.3 49.9727C121.575 49.814 121.883 49.7347 122.224 49.7347C122.565 49.7347 122.87 49.814 123.141 49.9727C123.412 50.1313 123.624 50.353 123.778 50.6377C123.932 50.9177 124.009 51.2397 124.009 51.6037L124.002 51.7577ZM122.224 50.1617C121.869 50.1617 121.571 50.276 121.328 50.5047C121.09 50.7287 120.955 51.0227 120.922 51.3867H123.533C123.5 51.0227 123.363 50.7287 123.12 50.5047C122.882 50.276 122.583 50.1617 122.224 50.1617ZM128.967 49.7627L127.126 53.8857C126.976 54.231 126.804 54.476 126.608 54.6207C126.412 54.7653 126.176 54.8377 125.901 54.8377C125.723 54.8377 125.558 54.8097 125.404 54.7537C125.25 54.6977 125.117 54.6137 125.005 54.5017L125.236 54.1307C125.422 54.3173 125.646 54.4107 125.908 54.4107C126.076 54.4107 126.218 54.364 126.335 54.2707C126.456 54.1773 126.568 54.0187 126.671 53.7947L126.832 53.4377L125.187 49.7627H125.705L127.091 52.8917L128.477 49.7627H128.967ZM130.579 53.4797C130.224 53.4797 129.905 53.4003 129.62 53.2417C129.335 53.0783 129.111 52.8543 128.948 52.5697C128.785 52.285 128.703 51.963 128.703 51.6037C128.703 51.2443 128.785 50.9223 128.948 50.6377C129.111 50.353 129.335 50.1313 129.62 49.9727C129.905 49.814 130.224 49.7347 130.579 49.7347C130.934 49.7347 131.253 49.814 131.538 49.9727C131.823 50.1313 132.044 50.353 132.203 50.6377C132.366 50.9223 132.448 51.2443 132.448 51.6037C132.448 51.963 132.366 52.285 132.203 52.5697C132.044 52.8543 131.823 53.0783 131.538 53.2417C131.253 53.4003 130.934 53.4797 130.579 53.4797ZM130.579 53.0387C130.84 53.0387 131.074 52.9803 131.279 52.8637C131.489 52.7423 131.652 52.572 131.769 52.3527C131.886 52.1333 131.944 51.8837 131.944 51.6037C131.944 51.3237 131.886 51.074 131.769 50.8547C131.652 50.6353 131.489 50.4673 131.279 50.3507C131.074 50.2293 130.84 50.1687 130.579 50.1687C130.318 50.1687 130.082 50.2293 129.872 50.3507C129.667 50.4673 129.503 50.6353 129.382 50.8547C129.265 51.074 129.207 51.3237 129.207 51.6037C129.207 51.8837 129.265 52.1333 129.382 52.3527C129.503 52.572 129.667 52.7423 129.872 52.8637C130.082 52.9803 130.318 53.0387 130.579 53.0387ZM136.291 49.7627V53.4447H135.815V52.7727C135.684 52.9967 135.504 53.1717 135.276 53.2977C135.047 53.419 134.786 53.4797 134.492 53.4797C134.011 53.4797 133.631 53.3467 133.351 53.0807C133.075 52.81 132.938 52.4157 132.938 51.8977V49.7627H133.435V51.8487C133.435 52.236 133.53 52.53 133.722 52.7307C133.913 52.9313 134.186 53.0317 134.541 53.0317C134.928 53.0317 135.234 52.915 135.458 52.6817C135.682 52.4437 135.794 52.1147 135.794 51.6947V49.7627H136.291ZM139.823 49.7347C140.303 49.7347 140.672 49.856 140.929 50.0987C141.185 50.3367 141.314 50.6913 141.314 51.1627V53.4447H140.838V52.8707C140.726 53.062 140.56 53.2113 140.341 53.3187C140.126 53.426 139.869 53.4797 139.571 53.4797C139.16 53.4797 138.833 53.3817 138.591 53.1857C138.348 52.9897 138.227 52.7307 138.227 52.4087C138.227 52.096 138.339 51.844 138.563 51.6527C138.791 51.4613 139.153 51.3657 139.648 51.3657H140.817V51.1417C140.817 50.8243 140.728 50.584 140.551 50.4207C140.373 50.2527 140.114 50.1687 139.774 50.1687C139.54 50.1687 139.316 50.2083 139.102 50.2877C138.887 50.3623 138.703 50.4673 138.549 50.6027L138.325 50.2317C138.511 50.073 138.735 49.9517 138.997 49.8677C139.258 49.779 139.533 49.7347 139.823 49.7347ZM139.648 53.0877C139.928 53.0877 140.168 53.0247 140.369 52.8987C140.569 52.768 140.719 52.5813 140.817 52.3387V51.7367H139.662C139.032 51.7367 138.717 51.956 138.717 52.3947C138.717 52.6093 138.798 52.7797 138.962 52.9057C139.125 53.027 139.354 53.0877 139.648 53.0877ZM142.65 50.4837C142.766 50.2363 142.939 50.0497 143.168 49.9237C143.401 49.7977 143.688 49.7347 144.029 49.7347V50.2177L143.91 50.2107C143.522 50.2107 143.219 50.3297 143 50.5677C142.78 50.8057 142.671 51.1393 142.671 51.5687V53.4447H142.174V49.7627H142.65V50.4837ZM147.61 51.7577H144.53C144.558 52.1403 144.705 52.4507 144.971 52.6887C145.237 52.922 145.573 53.0387 145.979 53.0387C146.208 53.0387 146.418 52.999 146.609 52.9197C146.801 52.8357 146.966 52.7143 147.106 52.5557L147.386 52.8777C147.223 53.0737 147.018 53.223 146.77 53.3257C146.528 53.4283 146.259 53.4797 145.965 53.4797C145.587 53.4797 145.251 53.4003 144.957 53.2417C144.668 53.0783 144.442 52.8543 144.278 52.5697C144.115 52.285 144.033 51.963 144.033 51.6037C144.033 51.2443 144.11 50.9223 144.264 50.6377C144.423 50.353 144.638 50.1313 144.908 49.9727C145.184 49.814 145.492 49.7347 145.832 49.7347C146.173 49.7347 146.479 49.814 146.749 49.9727C147.02 50.1313 147.232 50.353 147.386 50.6377C147.54 50.9177 147.617 51.2397 147.617 51.6037L147.61 51.7577ZM145.832 50.1617C145.478 50.1617 145.179 50.276 144.936 50.5047C144.698 50.7287 144.563 51.0227 144.53 51.3867H147.141C147.109 51.0227 146.971 50.7287 146.728 50.5047C146.49 50.276 146.192 50.1617 145.832 50.1617ZM152.841 48.2507V53.4447H152.365V52.7167C152.216 52.964 152.017 53.153 151.77 53.2837C151.527 53.4143 151.252 53.4797 150.944 53.4797C150.599 53.4797 150.286 53.4003 150.006 53.2417C149.726 53.083 149.507 52.8613 149.348 52.5767C149.189 52.292 149.11 51.9677 149.11 51.6037C149.11 51.2397 149.189 50.9153 149.348 50.6307C149.507 50.346 149.726 50.1267 150.006 49.9727C150.286 49.814 150.599 49.7347 150.944 49.7347C151.243 49.7347 151.511 49.7977 151.749 49.9237C151.992 50.045 152.19 50.2247 152.344 50.4627V48.2507H152.841ZM150.986 53.0387C151.243 53.0387 151.474 52.9803 151.679 52.8637C151.889 52.7423 152.052 52.572 152.169 52.3527C152.29 52.1333 152.351 51.8837 152.351 51.6037C152.351 51.3237 152.29 51.074 152.169 50.8547C152.052 50.6353 151.889 50.4673 151.679 50.3507C151.474 50.2293 151.243 50.1687 150.986 50.1687C150.725 50.1687 150.489 50.2293 150.279 50.3507C150.074 50.4673 149.91 50.6353 149.789 50.8547C149.672 51.074 149.614 51.3237 149.614 51.6037C149.614 51.8837 149.672 52.1333 149.789 52.3527C149.91 52.572 150.074 52.7423 150.279 52.8637C150.489 52.9803 150.725 53.0387 150.986 53.0387ZM155.24 53.4797C154.885 53.4797 154.566 53.4003 154.281 53.2417C153.996 53.0783 153.772 52.8543 153.609 52.5697C153.446 52.285 153.364 51.963 153.364 51.6037C153.364 51.2443 153.446 50.9223 153.609 50.6377C153.772 50.353 153.996 50.1313 154.281 49.9727C154.566 49.814 154.885 49.7347 155.24 49.7347C155.595 49.7347 155.914 49.814 156.199 49.9727C156.484 50.1313 156.705 50.353 156.864 50.6377C157.027 50.9223 157.109 51.2443 157.109 51.6037C157.109 51.963 157.027 52.285 156.864 52.5697C156.705 52.8543 156.484 53.0783 156.199 53.2417C155.914 53.4003 155.595 53.4797 155.24 53.4797ZM155.24 53.0387C155.501 53.0387 155.735 52.9803 155.94 52.8637C156.15 52.7423 156.313 52.572 156.43 52.3527C156.547 52.1333 156.605 51.8837 156.605 51.6037C156.605 51.3237 156.547 51.074 156.43 50.8547C156.313 50.6353 156.15 50.4673 155.94 50.3507C155.735 50.2293 155.501 50.1687 155.24 50.1687C154.979 50.1687 154.743 50.2293 154.533 50.3507C154.328 50.4673 154.164 50.6353 154.043 50.8547C153.926 51.074 153.868 51.3237 153.868 51.6037C153.868 51.8837 153.926 52.1333 154.043 52.3527C154.164 52.572 154.328 52.7423 154.533 52.8637C154.743 52.9803 154.979 53.0387 155.24 53.0387ZM157.634 49.7627H158.131V53.4447H157.634V49.7627ZM157.886 48.9577C157.783 48.9577 157.697 48.9227 157.627 48.8527C157.557 48.7827 157.522 48.6987 157.522 48.6007C157.522 48.5073 157.557 48.4257 157.627 48.3557C157.697 48.2857 157.783 48.2507 157.886 48.2507C157.988 48.2507 158.075 48.2857 158.145 48.3557C158.215 48.421 158.25 48.5003 158.25 48.5937C158.25 48.6963 158.215 48.7827 158.145 48.8527C158.075 48.9227 157.988 48.9577 157.886 48.9577ZM160.9 49.7347C161.362 49.7347 161.728 49.87 161.999 50.1407C162.274 50.4067 162.412 50.7963 162.412 51.3097V53.4447H161.915V51.3587C161.915 50.976 161.819 50.6843 161.628 50.4837C161.436 50.283 161.163 50.1827 160.809 50.1827C160.412 50.1827 160.097 50.3017 159.864 50.5397C159.635 50.773 159.521 51.0973 159.521 51.5127V53.4447H159.024V49.7627H159.5V50.4417C159.635 50.2177 159.822 50.045 160.06 49.9237C160.302 49.7977 160.582 49.7347 160.9 49.7347ZM166.694 49.7627V52.9967C166.694 53.622 166.54 54.084 166.232 54.3827C165.928 54.686 165.469 54.8377 164.853 54.8377C164.512 54.8377 164.188 54.7863 163.88 54.6837C163.576 54.5857 163.329 54.448 163.138 54.2707L163.39 53.8927C163.567 54.0513 163.782 54.175 164.034 54.2637C164.29 54.3523 164.559 54.3967 164.839 54.3967C165.305 54.3967 165.648 54.287 165.868 54.0677C166.087 53.853 166.197 53.517 166.197 53.0597V52.5907C166.043 52.824 165.84 53.0013 165.588 53.1227C165.34 53.244 165.065 53.3047 164.762 53.3047C164.416 53.3047 164.101 53.23 163.817 53.0807C163.537 52.9267 163.315 52.7143 163.152 52.4437C162.993 52.1683 162.914 51.858 162.914 51.5127C162.914 51.1673 162.993 50.8593 163.152 50.5887C163.315 50.318 163.537 50.108 163.817 49.9587C164.097 49.8093 164.412 49.7347 164.762 49.7347C165.074 49.7347 165.357 49.7977 165.609 49.9237C165.861 50.0497 166.064 50.2317 166.218 50.4697V49.7627H166.694ZM164.811 52.8637C165.077 52.8637 165.317 52.8077 165.532 52.6957C165.746 52.579 165.912 52.418 166.029 52.2127C166.15 52.0073 166.211 51.774 166.211 51.5127C166.211 51.2513 166.15 51.0203 166.029 50.8197C165.912 50.6143 165.746 50.4557 165.532 50.3437C165.322 50.227 165.081 50.1687 164.811 50.1687C164.545 50.1687 164.304 50.2247 164.09 50.3367C163.88 50.4487 163.714 50.6073 163.593 50.8127C163.476 51.018 163.418 51.2513 163.418 51.5127C163.418 51.774 163.476 52.0073 163.593 52.2127C163.714 52.418 163.88 52.579 164.09 52.6957C164.304 52.8077 164.545 52.8637 164.811 52.8637Z" fill="black"/>
<path d="M30.6782 14.1616L30.6782 15.1296L30.3862 15.1296L30.3862 14.1616L29.2662 12.3296L29.5822 12.3296L30.5422 13.9016L31.5022 12.3296L31.7982 12.3296L30.6782 14.1616ZM32.819 15.1496C32.6164 15.1496 32.4337 15.1043 32.271 15.0136C32.1084 14.9203 31.9804 14.7923 31.887 14.6296C31.7937 14.467 31.747 14.283 31.747 14.0776C31.747 13.8723 31.7937 13.6883 31.887 13.5256C31.9804 13.363 32.1084 13.2363 32.271 13.1456C32.4337 13.055 32.6164 13.0096 32.819 13.0096C33.0217 13.0096 33.2044 13.055 33.367 13.1456C33.5297 13.2363 33.6564 13.363 33.747 13.5256C33.8404 13.6883 33.887 13.8723 33.887 14.0776C33.887 14.283 33.8404 14.467 33.747 14.6296C33.6564 14.7923 33.5297 14.9203 33.367 15.0136C33.2044 15.1043 33.0217 15.1496 32.819 15.1496ZM32.819 14.8976C32.9684 14.8976 33.1017 14.8643 33.219 14.7976C33.339 14.7283 33.4324 14.631 33.499 14.5056C33.5657 14.3803 33.599 14.2376 33.599 14.0776C33.599 13.9176 33.5657 13.775 33.499 13.6496C33.4324 13.5243 33.339 13.4283 33.219 13.3616C33.1017 13.2923 32.9684 13.2576 32.819 13.2576C32.6697 13.2576 32.535 13.2923 32.415 13.3616C32.2977 13.4283 32.2044 13.5243 32.135 13.6496C32.0684 13.775 32.035 13.9176 32.035 14.0776C32.035 14.2376 32.0684 14.3803 32.135 14.5056C32.2044 14.631 32.2977 14.7283 32.415 14.7976C32.535 14.8643 32.6697 14.8976 32.819 14.8976ZM36.3628 13.0256L36.3628 15.1296L36.0908 15.1296L36.0908 14.7456C36.0162 14.8736 35.9135 14.9736 35.7828 15.0456C35.6522 15.115 35.5028 15.1496 35.3348 15.1496C35.0602 15.1496 34.8428 15.0736 34.6828 14.9216C34.5255 14.767 34.4468 14.5416 34.4468 14.2456L34.4468 13.0256L34.7308 13.0256L34.7308 14.2176C34.7308 14.439 34.7855 14.607 34.8948 14.7216C35.0042 14.8363 35.1602 14.8936 35.3628 14.8936C35.5842 14.8936 35.7588 14.827 35.8868 14.6936C36.0148 14.5576 36.0788 14.3696 36.0788 14.1296L36.0788 13.0256L36.3628 13.0256ZM37.4302 13.4376C37.4969 13.2963 37.5956 13.1896 37.7262 13.1176C37.8596 13.0456 38.0236 13.0096 38.2182 13.0096L38.2182 13.2856L38.1502 13.2816C37.9289 13.2816 37.7556 13.3496 37.6302 13.4856C37.5049 13.6216 37.4422 13.8123 37.4422 14.0576L37.4422 15.1296L37.1582 15.1296L37.1582 13.0256L37.4302 13.0256L37.4302 13.4376ZM29.23 17.3296L29.526 17.3296L29.526 19.8736L31.094 19.8736L31.094 20.1296L29.23 20.1296L29.23 17.3296ZM32.3542 20.1496C32.1515 20.1496 31.9688 20.1043 31.8062 20.0136C31.6435 19.9203 31.5155 19.7923 31.4222 19.6296C31.3288 19.467 31.2822 19.283 31.2822 19.0776C31.2822 18.8723 31.3288 18.6883 31.4222 18.5256C31.5155 18.363 31.6435 18.2363 31.8062 18.1456C31.9688 18.055 32.1515 18.0096 32.3542 18.0096C32.5568 18.0096 32.7395 18.055 32.9022 18.1456C33.0648 18.2363 33.1915 18.363 33.2822 18.5256C33.3755 18.6883 33.4222 18.8723 33.4222 19.0776C33.4222 19.283 33.3755 19.467 33.2822 19.6296C33.1915 19.7923 33.0648 19.9203 32.9022 20.0136C32.7395 20.1043 32.5568 20.1496 32.3542 20.1496ZM32.3542 19.8976C32.5035 19.8976 32.6368 19.8643 32.7542 19.7976C32.8742 19.7283 32.9675 19.631 33.0342 19.5056C33.1008 19.3803 33.1342 19.2376 33.1342 19.0776C33.1342 18.9176 33.1008 18.775 33.0342 18.6496C32.9675 18.5243 32.8742 18.4283 32.7542 18.3616C32.6368 18.2923 32.5035 18.2576 32.3542 18.2576C32.2048 18.2576 32.0702 18.2923 31.9502 18.3616C31.8328 18.4283 31.7395 18.5243 31.6702 18.6496C31.6035 18.775 31.5702 18.9176 31.5702 19.0776C31.5702 19.2376 31.6035 19.3803 31.6702 19.5056C31.7395 19.631 31.8328 19.7283 31.9502 19.7976C32.0702 19.8643 32.2048 19.8976 32.3542 19.8976ZM35.95 18.0256L35.95 19.8736C35.95 20.231 35.862 20.495 35.686 20.6656C35.5127 20.839 35.25 20.9256 34.898 20.9256C34.7033 20.9256 34.518 20.8963 34.342 20.8376C34.1687 20.7816 34.0273 20.703 33.918 20.6016L34.062 20.3856C34.1633 20.4763 34.286 20.547 34.43 20.5976C34.5767 20.6483 34.73 20.6736 34.89 20.6736C35.1567 20.6736 35.3527 20.611 35.478 20.4856C35.6033 20.363 35.666 20.171 35.666 19.9096L35.666 19.6416C35.578 19.775 35.462 19.8763 35.318 19.9456C35.1767 20.015 35.0193 20.0496 34.846 20.0496C34.6487 20.0496 34.4687 20.007 34.306 19.9216C34.146 19.8336 34.0193 19.7123 33.926 19.5576C33.8353 19.4003 33.79 19.223 33.79 19.0256C33.79 18.8283 33.8353 18.6523 33.926 18.4976C34.0193 18.343 34.146 18.223 34.306 18.1376C34.466 18.0523 34.646 18.0096 34.846 18.0096C35.0247 18.0096 35.186 18.0456 35.33 18.1176C35.474 18.1896 35.59 18.2936 35.678 18.4296L35.678 18.0256L35.95 18.0256ZM34.874 19.7976C35.026 19.7976 35.1633 19.7656 35.286 19.7016C35.4087 19.635 35.5033 19.543 35.57 19.4256C35.6393 19.3083 35.674 19.175 35.674 19.0256C35.674 18.8763 35.6393 18.7443 35.57 18.6296C35.5033 18.5123 35.4087 18.4216 35.286 18.3576C35.166 18.291 35.0287 18.2576 34.874 18.2576C34.722 18.2576 34.5847 18.2896 34.462 18.3536C34.342 18.4176 34.2473 18.5083 34.178 18.6256C34.1113 18.743 34.078 18.8763 34.078 19.0256C34.078 19.175 34.1113 19.3083 34.178 19.4256C34.2473 19.543 34.342 19.635 34.462 19.7016C34.5847 19.7656 34.722 19.7976 34.874 19.7976ZM37.6042 20.1496C37.4015 20.1496 37.2188 20.1043 37.0562 20.0136C36.8935 19.9203 36.7655 19.7923 36.6722 19.6296C36.5788 19.467 36.5322 19.283 36.5322 19.0776C36.5322 18.8723 36.5788 18.6883 36.6722 18.5256C36.7655 18.363 36.8935 18.2363 37.0562 18.1456C37.2188 18.055 37.4015 18.0096 37.6042 18.0096C37.8068 18.0096 37.9895 18.055 38.1522 18.1456C38.3148 18.2363 38.4415 18.363 38.5322 18.5256C38.6255 18.6883 38.6722 18.8723 38.6722 19.0776C38.6722 19.283 38.6255 19.467 38.5322 19.6296C38.4415 19.7923 38.3148 19.9203 38.1522 20.0136C37.9895 20.1043 37.8068 20.1496 37.6042 20.1496ZM37.6042 19.8976C37.7535 19.8976 37.8868 19.8643 38.0042 19.7976C38.1242 19.7283 38.2175 19.631 38.2842 19.5056C38.3508 19.3803 38.3842 19.2376 38.3842 19.0776C38.3842 18.9176 38.3508 18.775 38.2842 18.6496C38.2175 18.5243 38.1242 18.4283 38.0042 18.3616C37.8868 18.2923 37.7535 18.2576 37.6042 18.2576C37.4548 18.2576 37.3202 18.2923 37.2002 18.3616C37.0828 18.4283 36.9895 18.5243 36.9202 18.6496C36.8535 18.775 36.8202 18.9176 36.8202 19.0776C36.8202 19.2376 36.8535 19.3803 36.9202 19.5056C36.9895 19.631 37.0828 19.7283 37.2002 19.7976C37.3202 19.8643 37.4548 19.8976 37.6042 19.8976Z" fill="black"/>
<path d="M35.5521 71.9981L34.1591 75.6801H33.6901L32.5281 72.6631L31.3661 75.6801H30.8971L29.5111 71.9981H29.9871L31.1421 75.1271L32.3251 71.9981H32.7521L33.9281 75.1271L35.0971 71.9981H35.5521ZM38.9139 73.9931H35.8339C35.8619 74.3758 36.0089 74.6861 36.2749 74.9241C36.5409 75.1574 36.8769 75.2741 37.2829 75.2741C37.5116 75.2741 37.7216 75.2344 37.9129 75.1551C38.1042 75.0711 38.2699 74.9498 38.4099 74.7911L38.6899 75.1131C38.5266 75.3091 38.3212 75.4584 38.0739 75.5611C37.8312 75.6638 37.5629 75.7151 37.2689 75.7151C36.8909 75.7151 36.5549 75.6358 36.2609 75.4771C35.9716 75.3138 35.7452 75.0898 35.5819 74.8051C35.4186 74.5204 35.3369 74.1984 35.3369 73.8391C35.3369 73.4798 35.4139 73.1578 35.5679 72.8731C35.7266 72.5884 35.9412 72.3668 36.2119 72.2081C36.4872 72.0494 36.7952 71.9701 37.1359 71.9701C37.4766 71.9701 37.7822 72.0494 38.0529 72.2081C38.3236 72.3668 38.5359 72.5884 38.6899 72.8731C38.8439 73.1531 38.9209 73.4751 38.9209 73.8391L38.9139 73.9931ZM37.1359 72.3971C36.7812 72.3971 36.4826 72.5114 36.2399 72.7401C36.0019 72.9641 35.8666 73.2581 35.8339 73.6221H38.4449C38.4122 73.2581 38.2746 72.9641 38.0319 72.7401C37.7939 72.5114 37.4952 72.3971 37.1359 72.3971ZM39.4425 70.4861H39.9395V75.6801H39.4425V70.4861ZM40.8324 70.4861H41.3294V75.6801H40.8324V70.4861ZM42.2713 75.7151C42.1686 75.7151 42.08 75.6778 42.0053 75.6031C41.9353 75.5284 41.9003 75.4374 41.9003 75.3301C41.9003 75.2228 41.9353 75.1341 42.0053 75.0641C42.08 74.9894 42.1686 74.9521 42.2713 74.9521C42.374 74.9521 42.4626 74.9894 42.5373 75.0641C42.612 75.1341 42.6493 75.2228 42.6493 75.3301C42.6493 75.4374 42.612 75.5284 42.5373 75.6031C42.4626 75.6778 42.374 75.7151 42.2713 75.7151ZM51.3897 70.7801L49.7377 75.6801H49.1917L47.7567 71.5011L46.3147 75.6801H45.7757L44.1237 70.7801H44.6557L46.0697 74.9941L47.5327 70.7801H48.0157L49.4577 75.0151L50.8927 70.7801H51.3897ZM52.7522 71.9701C53.2329 71.9701 53.6015 72.0914 53.8582 72.3341C54.1149 72.5721 54.2432 72.9268 54.2432 73.3981V75.6801H53.7672V75.1061C53.6552 75.2974 53.4895 75.4468 53.2702 75.5541C53.0555 75.6614 52.7989 75.7151 52.5002 75.7151C52.0895 75.7151 51.7629 75.6171 51.5202 75.4211C51.2775 75.2251 51.1562 74.9661 51.1562 74.6441C51.1562 74.3314 51.2682 74.0794 51.4922 73.8881C51.7209 73.6968 52.0825 73.6011 52.5772 73.6011H53.7462V73.3771C53.7462 73.0598 53.6575 72.8194 53.4802 72.6561C53.3029 72.4881 53.0439 72.4041 52.7032 72.4041C52.4699 72.4041 52.2459 72.4438 52.0312 72.5231C51.8165 72.5978 51.6322 72.7028 51.4782 72.8381L51.2542 72.4671C51.4409 72.3084 51.6649 72.1871 51.9262 72.1031C52.1875 72.0144 52.4629 71.9701 52.7522 71.9701ZM52.5772 75.3231C52.8572 75.3231 53.0975 75.2601 53.2982 75.1341C53.4989 75.0034 53.6482 74.8168 53.7462 74.5741V73.9721H52.5912C51.9612 73.9721 51.6462 74.1914 51.6462 74.6301C51.6462 74.8448 51.7279 75.0151 51.8912 75.1411C52.0545 75.2624 52.2832 75.3231 52.5772 75.3231ZM56.9791 71.9701C57.4411 71.9701 57.8074 72.1054 58.0781 72.3761C58.3534 72.6421 58.4911 73.0318 58.4911 73.5451V75.6801H57.9941V73.5941C57.9941 73.2114 57.8984 72.9198 57.7071 72.7191C57.5158 72.5184 57.2428 72.4181 56.8881 72.4181C56.4914 72.4181 56.1764 72.5371 55.9431 72.7751C55.7144 73.0084 55.6001 73.3328 55.6001 73.7481V75.6801H55.1031V71.9981H55.5791V72.6771C55.7144 72.4531 55.9011 72.2804 56.1391 72.1591C56.3818 72.0331 56.6618 71.9701 56.9791 71.9701ZM61.2894 75.4561C61.1961 75.5401 61.0794 75.6054 60.9394 75.6521C60.8041 75.6941 60.6617 75.7151 60.5124 75.7151C60.1671 75.7151 59.9011 75.6218 59.7144 75.4351C59.5277 75.2484 59.4344 74.9848 59.4344 74.6441V72.4181H58.7764V71.9981H59.4344V71.1931H59.9314V71.9981H61.0514V72.4181H59.9314V74.6161C59.9314 74.8354 59.9851 75.0034 60.0924 75.1201C60.2044 75.2321 60.3631 75.2881 60.5684 75.2881C60.6711 75.2881 60.7691 75.2718 60.8624 75.2391C60.9604 75.2064 61.0444 75.1598 61.1144 75.0991L61.2894 75.4561ZM64.7803 73.9931H61.7003C61.7283 74.3758 61.8753 74.6861 62.1413 74.9241C62.4073 75.1574 62.7433 75.2741 63.1493 75.2741C63.3779 75.2741 63.5879 75.2344 63.7793 75.1551C63.9706 75.0711 64.1363 74.9498 64.2763 74.7911L64.5563 75.1131C64.3929 75.3091 64.1876 75.4584 63.9403 75.5611C63.6976 75.6638 63.4293 75.7151 63.1353 75.7151C62.7573 75.7151 62.4213 75.6358 62.1273 75.4771C61.8379 75.3138 61.6116 75.0898 61.4483 74.8051C61.2849 74.5204 61.2033 74.1984 61.2033 73.8391C61.2033 73.4798 61.2803 73.1578 61.4343 72.8731C61.5929 72.5884 61.8076 72.3668 62.0783 72.2081C62.3536 72.0494 62.6616 71.9701 63.0023 71.9701C63.3429 71.9701 63.6486 72.0494 63.9193 72.2081C64.1899 72.3668 64.4023 72.5884 64.5563 72.8731C64.7103 73.1531 64.7873 73.4751 64.7873 73.8391L64.7803 73.9931ZM63.0023 72.3971C62.6476 72.3971 62.3489 72.5114 62.1063 72.7401C61.8683 72.9641 61.7329 73.2581 61.7003 73.6221H64.3113C64.2786 73.2581 64.1409 72.9641 63.8983 72.7401C63.6603 72.5114 63.3616 72.3971 63.0023 72.3971ZM68.6689 70.4861V75.6801H68.1929V74.9521C68.0436 75.1994 67.8452 75.3884 67.5979 75.5191C67.3552 75.6498 67.0799 75.7151 66.7719 75.7151C66.4266 75.7151 66.1139 75.6358 65.8339 75.4771C65.5539 75.3184 65.3346 75.0968 65.1759 74.8121C65.0172 74.5274 64.9379 74.2031 64.9379 73.8391C64.9379 73.4751 65.0172 73.1508 65.1759 72.8661C65.3346 72.5814 65.5539 72.3621 65.8339 72.2081C66.1139 72.0494 66.4266 71.9701 66.7719 71.9701C67.0706 71.9701 67.3389 72.0331 67.5769 72.1591C67.8196 72.2804 68.0179 72.4601 68.1719 72.6981V70.4861H68.6689ZM66.8139 75.2741C67.0706 75.2741 67.3016 75.2158 67.5069 75.0991C67.7169 74.9778 67.8802 74.8074 67.9969 74.5881C68.1182 74.3688 68.1789 74.1191 68.1789 73.8391C68.1789 73.5591 68.1182 73.3094 67.9969 73.0901C67.8802 72.8708 67.7169 72.7028 67.5069 72.5861C67.3016 72.4648 67.0706 72.4041 66.8139 72.4041C66.5526 72.4041 66.3169 72.4648 66.1069 72.5861C65.9016 72.7028 65.7382 72.8708 65.6169 73.0901C65.5002 73.3094 65.4419 73.5591 65.4419 73.8391C65.4419 74.1191 65.5002 74.3688 65.6169 74.5881C65.7382 74.8074 65.9016 74.9778 66.1069 75.0991C66.3169 75.2158 66.5526 75.2741 66.8139 75.2741ZM72.8441 75.4561C72.7507 75.5401 72.6341 75.6054 72.4941 75.6521C72.3587 75.6941 72.2164 75.7151 72.0671 75.7151C71.7217 75.7151 71.4557 75.6218 71.2691 75.4351C71.0824 75.2484 70.9891 74.9848 70.9891 74.6441V72.4181H70.3311V71.9981H70.9891V71.1931H71.4861V71.9981H72.6061V72.4181H71.4861V74.6161C71.4861 74.8354 71.5397 75.0034 71.6471 75.1201C71.7591 75.2321 71.9177 75.2881 72.1231 75.2881C72.2257 75.2881 72.3237 75.2718 72.4171 75.2391C72.5151 75.2064 72.5991 75.1598 72.6691 75.0991L72.8441 75.4561ZM74.6339 75.7151C74.2793 75.7151 73.9596 75.6358 73.6749 75.4771C73.3903 75.3138 73.1663 75.0898 73.0029 74.8051C72.8396 74.5204 72.7579 74.1984 72.7579 73.8391C72.7579 73.4798 72.8396 73.1578 73.0029 72.8731C73.1663 72.5884 73.3903 72.3668 73.6749 72.2081C73.9596 72.0494 74.2793 71.9701 74.6339 71.9701C74.9886 71.9701 75.3083 72.0494 75.5929 72.2081C75.8776 72.3668 76.0993 72.5884 76.2579 72.8731C76.4213 73.1578 76.5029 73.4798 76.5029 73.8391C76.5029 74.1984 76.4213 74.5204 76.2579 74.8051C76.0993 75.0898 75.8776 75.3138 75.5929 75.4771C75.3083 75.6358 74.9886 75.7151 74.6339 75.7151ZM74.6339 75.2741C74.8953 75.2741 75.1286 75.2158 75.3339 75.0991C75.5439 74.9778 75.7073 74.8074 75.8239 74.5881C75.9406 74.3688 75.9989 74.1191 75.9989 73.8391C75.9989 73.5591 75.9406 73.3094 75.8239 73.0901C75.7073 72.8708 75.5439 72.7028 75.3339 72.5861C75.1286 72.4648 74.8953 72.4041 74.6339 72.4041C74.3726 72.4041 74.1369 72.4648 73.9269 72.5861C73.7216 72.7028 73.5583 72.8708 73.4369 73.0901C73.3203 73.3094 73.2619 73.5591 73.2619 73.8391C73.2619 74.1191 73.3203 74.3688 73.4369 74.5881C73.5583 74.8074 73.7216 74.9778 73.9269 75.0991C74.1369 75.2158 74.3726 75.2741 74.6339 75.2741ZM79.3566 75.7151C79.058 75.7151 78.771 75.6731 78.4956 75.5891C78.225 75.5004 78.0126 75.3908 77.8586 75.2601L78.0826 74.8681C78.2366 74.9894 78.4303 75.0898 78.6636 75.1691C78.897 75.2438 79.1396 75.2811 79.3916 75.2811C79.7276 75.2811 79.975 75.2298 80.1336 75.1271C80.297 75.0198 80.3786 74.8704 80.3786 74.6791C80.3786 74.5438 80.3343 74.4388 80.2456 74.3641C80.157 74.2848 80.045 74.2264 79.9096 74.1891C79.7743 74.1471 79.5946 74.1074 79.3706 74.0701C79.072 74.0141 78.8316 73.9581 78.6496 73.9021C78.4676 73.8414 78.3113 73.7411 78.1806 73.6011C78.0546 73.4611 77.9916 73.2674 77.9916 73.0201C77.9916 72.7121 78.12 72.4601 78.3766 72.2641C78.6333 72.0681 78.9903 71.9701 79.4476 71.9701C79.6856 71.9701 79.9236 72.0028 80.1616 72.0681C80.3996 72.1288 80.5956 72.2104 80.7496 72.3131L80.5326 72.7121C80.2293 72.5021 79.8676 72.3971 79.4476 72.3971C79.1303 72.3971 78.89 72.4531 78.7266 72.5651C78.568 72.6771 78.4886 72.8241 78.4886 73.0061C78.4886 73.1461 78.533 73.2581 78.6216 73.3421C78.715 73.4261 78.8293 73.4891 78.9646 73.5311C79.1 73.5684 79.2866 73.6081 79.5246 73.6501C79.8186 73.7061 80.0543 73.7621 80.2316 73.8181C80.409 73.8741 80.5606 73.9698 80.6866 74.1051C80.8126 74.2404 80.8756 74.4271 80.8756 74.6651C80.8756 74.9871 80.7403 75.2438 80.4696 75.4351C80.2036 75.6218 79.8326 75.7151 79.3566 75.7151ZM84.5104 73.9931H81.4304C81.4584 74.3758 81.6054 74.6861 81.8714 74.9241C82.1374 75.1574 82.4734 75.2741 82.8794 75.2741C83.1081 75.2741 83.3181 75.2344 83.5094 75.1551C83.7008 75.0711 83.8664 74.9498 84.0064 74.7911L84.2864 75.1131C84.1231 75.3091 83.9178 75.4584 83.6704 75.5611C83.4278 75.6638 83.1594 75.7151 82.8654 75.7151C82.4874 75.7151 82.1514 75.6358 81.8574 75.4771C81.5681 75.3138 81.3418 75.0898 81.1784 74.8051C81.0151 74.5204 80.9334 74.1984 80.9334 73.8391C80.9334 73.4798 81.0104 73.1578 81.1644 72.8731C81.3231 72.5884 81.5378 72.3668 81.8084 72.2081C82.0838 72.0494 82.3918 71.9701 82.7324 71.9701C83.0731 71.9701 83.3788 72.0494 83.6494 72.2081C83.9201 72.3668 84.1324 72.5884 84.2864 72.8731C84.4404 73.1531 84.5174 73.4751 84.5174 73.8391L84.5104 73.9931ZM82.7324 72.3971C82.3778 72.3971 82.0791 72.5114 81.8364 72.7401C81.5984 72.9641 81.4631 73.2581 81.4304 73.6221H84.0414C84.0088 73.2581 83.8711 72.9641 83.6284 72.7401C83.3904 72.5114 83.0918 72.3971 82.7324 72.3971ZM86.915 71.9701C87.377 71.9701 87.7434 72.1054 88.014 72.3761C88.2894 72.6421 88.427 73.0318 88.427 73.5451V75.6801H87.93V73.5941C87.93 73.2114 87.8344 72.9198 87.643 72.7191C87.4517 72.5184 87.1787 72.4181 86.824 72.4181C86.4274 72.4181 86.1124 72.5371 85.879 72.7751C85.6504 73.0084 85.536 73.3328 85.536 73.7481V75.6801H85.039V71.9981H85.515V72.6771C85.6504 72.4531 85.837 72.2804 86.075 72.1591C86.3177 72.0331 86.5977 71.9701 86.915 71.9701ZM92.66 70.4861V75.6801H92.184V74.9521C92.0347 75.1994 91.8364 75.3884 91.589 75.5191C91.3464 75.6498 91.071 75.7151 90.763 75.7151C90.4177 75.7151 90.105 75.6358 89.825 75.4771C89.545 75.3184 89.3257 75.0968 89.167 74.8121C89.0084 74.5274 88.929 74.2031 88.929 73.8391C88.929 73.4751 89.0084 73.1508 89.167 72.8661C89.3257 72.5814 89.545 72.3621 89.825 72.2081C90.105 72.0494 90.4177 71.9701 90.763 71.9701C91.0617 71.9701 91.33 72.0331 91.568 72.1591C91.8107 72.2804 92.009 72.4601 92.163 72.6981V70.4861H92.66ZM90.805 75.2741C91.0617 75.2741 91.2927 75.2158 91.498 75.0991C91.708 74.9778 91.8714 74.8074 91.988 74.5881C92.1094 74.3688 92.17 74.1191 92.17 73.8391C92.17 73.5591 92.1094 73.3094 91.988 73.0901C91.8714 72.8708 91.708 72.7028 91.498 72.5861C91.2927 72.4648 91.0617 72.4041 90.805 72.4041C90.5437 72.4041 90.308 72.4648 90.098 72.5861C89.8927 72.7028 89.7294 72.8708 89.608 73.0901C89.4914 73.3094 89.433 73.5591 89.433 73.8391C89.433 74.1191 89.4914 74.3688 89.608 74.5881C89.7294 74.8074 89.8927 74.9778 90.098 75.0991C90.308 75.2158 90.5437 75.2741 90.805 75.2741ZM97.9902 71.9981L96.1492 76.1211C95.9999 76.4664 95.8272 76.7114 95.6312 76.8561C95.4352 77.0008 95.1995 77.0731 94.9242 77.0731C94.7469 77.0731 94.5812 77.0451 94.4272 76.9891C94.2732 76.9331 94.1402 76.8491 94.0282 76.7371L94.2592 76.3661C94.4459 76.5528 94.6699 76.6461 94.9312 76.6461C95.0992 76.6461 95.2415 76.5994 95.3582 76.5061C95.4795 76.4128 95.5915 76.2541 95.6942 76.0301L95.8552 75.6731L94.2102 71.9981H94.7282L96.1142 75.1271L97.5002 71.9981H97.9902ZM99.6026 75.7151C99.2479 75.7151 98.9283 75.6358 98.6436 75.4771C98.3589 75.3138 98.1349 75.0898 97.9716 74.8051C97.8083 74.5204 97.7266 74.1984 97.7266 73.8391C97.7266 73.4798 97.8083 73.1578 97.9716 72.8731C98.1349 72.5884 98.3589 72.3668 98.6436 72.2081C98.9283 72.0494 99.2479 71.9701 99.6026 71.9701C99.9573 71.9701 100.277 72.0494 100.562 72.2081C100.846 72.3668 101.068 72.5884 101.227 72.8731C101.39 73.1578 101.472 73.4798 101.472 73.8391C101.472 74.1984 101.39 74.5204 101.227 74.8051C101.068 75.0898 100.846 75.3138 100.562 75.4771C100.277 75.6358 99.9573 75.7151 99.6026 75.7151ZM99.6026 75.2741C99.8639 75.2741 100.097 75.2158 100.303 75.0991C100.513 74.9778 100.676 74.8074 100.793 74.5881C100.909 74.3688 100.968 74.1191 100.968 73.8391C100.968 73.5591 100.909 73.3094 100.793 73.0901C100.676 72.8708 100.513 72.7028 100.303 72.5861C100.097 72.4648 99.8639 72.4041 99.6026 72.4041C99.3413 72.4041 99.1056 72.4648 98.8956 72.5861C98.6903 72.7028 98.5269 72.8708 98.4056 73.0901C98.2889 73.3094 98.2306 73.5591 98.2306 73.8391C98.2306 74.1191 98.2889 74.3688 98.4056 74.5881C98.5269 74.8074 98.6903 74.9778 98.8956 75.0991C99.1056 75.2158 99.3413 75.2741 99.6026 75.2741ZM105.314 71.9981V75.6801H104.838V75.0081C104.708 75.2321 104.528 75.4071 104.299 75.5331C104.071 75.6544 103.809 75.7151 103.515 75.7151C103.035 75.7151 102.654 75.5821 102.374 75.3161C102.099 75.0454 101.961 74.6511 101.961 74.1331V71.9981H102.458V74.0841C102.458 74.4714 102.554 74.7654 102.745 74.9661C102.937 75.1668 103.21 75.2671 103.564 75.2671C103.952 75.2671 104.257 75.1504 104.481 74.9171C104.705 74.6791 104.817 74.3501 104.817 73.9301V71.9981H105.314ZM109.497 75.4561C109.404 75.5401 109.287 75.6054 109.147 75.6521C109.012 75.6941 108.87 75.7151 108.72 75.7151C108.375 75.7151 108.109 75.6218 107.922 75.4351C107.736 75.2484 107.642 74.9848 107.642 74.6441V72.4181H106.984V71.9981H107.642V71.1931H108.139V71.9981H109.259V72.4181H108.139V74.6161C108.139 74.8354 108.193 75.0034 108.3 75.1201C108.412 75.2321 108.571 75.2881 108.776 75.2881C108.879 75.2881 108.977 75.2718 109.07 75.2391C109.168 75.2064 109.252 75.1598 109.322 75.0991L109.497 75.4561ZM111.788 71.9701C112.25 71.9701 112.616 72.1054 112.887 72.3761C113.162 72.6421 113.3 73.0318 113.3 73.5451V75.6801H112.803V73.5941C112.803 73.2114 112.707 72.9198 112.516 72.7191C112.325 72.5184 112.052 72.4181 111.697 72.4181C111.3 72.4181 110.985 72.5371 110.752 72.7751C110.523 73.0084 110.409 73.3328 110.409 73.7481V75.6801H109.912V70.4861H110.409V72.6421C110.544 72.4274 110.731 72.2618 110.969 72.1451C111.207 72.0284 111.48 71.9701 111.788 71.9701ZM114.159 71.9981H114.656V75.6801H114.159V71.9981ZM114.411 71.1931C114.309 71.1931 114.222 71.1581 114.152 71.0881C114.082 71.0181 114.047 70.9341 114.047 70.8361C114.047 70.7428 114.082 70.6611 114.152 70.5911C114.222 70.5211 114.309 70.4861 114.411 70.4861C114.514 70.4861 114.6 70.5211 114.67 70.5911C114.74 70.6564 114.775 70.7358 114.775 70.8291C114.775 70.9318 114.74 71.0181 114.67 71.0881C114.6 71.1581 114.514 71.1931 114.411 71.1931ZM116.536 75.7151C116.238 75.7151 115.951 75.6731 115.675 75.5891C115.405 75.5004 115.192 75.3908 115.038 75.2601L115.262 74.8681C115.416 74.9894 115.61 75.0898 115.843 75.1691C116.077 75.2438 116.319 75.2811 116.571 75.2811C116.907 75.2811 117.155 75.2298 117.313 75.1271C117.477 75.0198 117.558 74.8704 117.558 74.6791C117.558 74.5438 117.514 74.4388 117.425 74.3641C117.337 74.2848 117.225 74.2264 117.089 74.1891C116.954 74.1471 116.774 74.1074 116.55 74.0701C116.252 74.0141 116.011 73.9581 115.829 73.9021C115.647 73.8414 115.491 73.7411 115.36 73.6011C115.234 73.4611 115.171 73.2674 115.171 73.0201C115.171 72.7121 115.3 72.4601 115.556 72.2641C115.813 72.0681 116.17 71.9701 116.627 71.9701C116.865 71.9701 117.103 72.0028 117.341 72.0681C117.579 72.1288 117.775 72.2104 117.929 72.3131L117.712 72.7121C117.409 72.5021 117.047 72.3971 116.627 72.3971C116.31 72.3971 116.07 72.4531 115.906 72.5651C115.748 72.6771 115.668 72.8241 115.668 73.0061C115.668 73.1461 115.713 73.2581 115.801 73.3421C115.895 73.4261 116.009 73.4891 116.144 73.5311C116.28 73.5684 116.466 73.6081 116.704 73.6501C116.998 73.7061 117.234 73.7621 117.411 73.8181C117.589 73.8741 117.74 73.9698 117.866 74.1051C117.992 74.2404 118.055 74.4271 118.055 74.6651C118.055 74.9871 117.92 75.2438 117.649 75.4351C117.383 75.6218 117.012 75.7151 116.536 75.7151ZM121.352 75.7151C120.988 75.7151 120.661 75.6358 120.372 75.4771C120.087 75.3184 119.863 75.0968 119.7 74.8121C119.537 74.5228 119.455 74.1984 119.455 73.8391C119.455 73.4798 119.537 73.1578 119.7 72.8731C119.863 72.5884 120.087 72.3668 120.372 72.2081C120.661 72.0494 120.988 71.9701 121.352 71.9701C121.669 71.9701 121.952 72.0331 122.199 72.1591C122.451 72.2804 122.649 72.4601 122.794 72.6981L122.423 72.9501C122.302 72.7681 122.148 72.6328 121.961 72.5441C121.774 72.4508 121.571 72.4041 121.352 72.4041C121.086 72.4041 120.846 72.4648 120.631 72.5861C120.421 72.7028 120.255 72.8708 120.134 73.0901C120.017 73.3094 119.959 73.5591 119.959 73.8391C119.959 74.1238 120.017 74.3758 120.134 74.5951C120.255 74.8098 120.421 74.9778 120.631 75.0991C120.846 75.2158 121.086 75.2741 121.352 75.2741C121.571 75.2741 121.774 75.2298 121.961 75.1411C122.148 75.0524 122.302 74.9171 122.423 74.7351L122.794 74.9871C122.649 75.2251 122.451 75.4071 122.199 75.5331C121.947 75.6544 121.665 75.7151 121.352 75.7151ZM124.568 71.9701C125.049 71.9701 125.418 72.0914 125.674 72.3341C125.931 72.5721 126.059 72.9268 126.059 73.3981V75.6801H125.583V75.1061C125.471 75.2974 125.306 75.4468 125.086 75.5541C124.872 75.6614 124.615 75.7151 124.316 75.7151C123.906 75.7151 123.579 75.6171 123.336 75.4211C123.094 75.2251 122.972 74.9661 122.972 74.6441C122.972 74.3314 123.084 74.0794 123.308 73.8881C123.537 73.6968 123.899 73.6011 124.393 73.6011H125.562V73.3771C125.562 73.0598 125.474 72.8194 125.296 72.6561C125.119 72.4881 124.86 72.4041 124.519 72.4041C124.286 72.4041 124.062 72.4438 123.847 72.5231C123.633 72.5978 123.448 72.7028 123.294 72.8381L123.07 72.4671C123.257 72.3084 123.481 72.1871 123.742 72.1031C124.004 72.0144 124.279 71.9701 124.568 71.9701ZM124.393 75.3231C124.673 75.3231 124.914 75.2601 125.114 75.1341C125.315 75.0034 125.464 74.8168 125.562 74.5741V73.9721H124.407C123.777 73.9721 123.462 74.1914 123.462 74.6301C123.462 74.8448 123.544 75.0151 123.707 75.1411C123.871 75.2624 124.099 75.3231 124.393 75.3231ZM127.395 72.7191C127.512 72.4718 127.685 72.2851 127.913 72.1591C128.147 72.0331 128.434 71.9701 128.774 71.9701V72.4531L128.655 72.4461C128.268 72.4461 127.965 72.5651 127.745 72.8031C127.526 73.0411 127.416 73.3748 127.416 73.8041V75.6801H126.919V71.9981H127.395V72.7191ZM132.356 73.9931H129.276C129.304 74.3758 129.451 74.6861 129.717 74.9241C129.983 75.1574 130.319 75.2741 130.725 75.2741C130.954 75.2741 131.164 75.2344 131.355 75.1551C131.546 75.0711 131.712 74.9498 131.852 74.7911L132.132 75.1131C131.969 75.3091 131.763 75.4584 131.516 75.5611C131.273 75.6638 131.005 75.7151 130.711 75.7151C130.333 75.7151 129.997 75.6358 129.703 75.4771C129.414 75.3138 129.187 75.0898 129.024 74.8051C128.861 74.5204 128.779 74.1984 128.779 73.8391C128.779 73.4798 128.856 73.1578 129.01 72.8731C129.169 72.5884 129.383 72.3668 129.654 72.2081C129.929 72.0494 130.237 71.9701 130.578 71.9701C130.919 71.9701 131.224 72.0494 131.495 72.2081C131.766 72.3668 131.978 72.5884 132.132 72.8731C132.286 73.1531 132.363 73.4751 132.363 73.8391L132.356 73.9931ZM130.578 72.3971C130.223 72.3971 129.925 72.5114 129.682 72.7401C129.444 72.9641 129.309 73.2581 129.276 73.6221H131.887C131.854 73.2581 131.717 72.9641 131.474 72.7401C131.236 72.5114 130.937 72.3971 130.578 72.3971ZM136.124 71.9701C136.469 71.9701 136.782 72.0494 137.062 72.2081C137.342 72.3621 137.561 72.5814 137.72 72.8661C137.878 73.1508 137.958 73.4751 137.958 73.8391C137.958 74.2078 137.878 74.5344 137.72 74.8191C137.561 75.1038 137.342 75.3254 137.062 75.4841C136.786 75.6381 136.474 75.7151 136.124 75.7151C135.825 75.7151 135.554 75.6544 135.312 75.5331C135.074 75.4071 134.878 75.2251 134.724 74.9871V77.0381H134.227V71.9981H134.703V72.7261C134.852 72.4834 135.048 72.2968 135.291 72.1661C135.538 72.0354 135.816 71.9701 136.124 71.9701ZM136.089 75.2741C136.345 75.2741 136.579 75.2158 136.789 75.0991C136.999 74.9778 137.162 74.8074 137.279 74.5881C137.4 74.3688 137.461 74.1191 137.461 73.8391C137.461 73.5591 137.4 73.3118 137.279 73.0971C137.162 72.8778 136.999 72.7074 136.789 72.5861C136.579 72.4648 136.345 72.4041 136.089 72.4041C135.827 72.4041 135.592 72.4648 135.382 72.5861C135.176 72.7074 135.013 72.8778 134.892 73.0971C134.775 73.3118 134.717 73.5591 134.717 73.8391C134.717 74.1191 134.775 74.3688 134.892 74.5881C135.013 74.8074 135.176 74.9778 135.382 75.0991C135.592 75.2158 135.827 75.2741 136.089 75.2741ZM139.748 71.9701C140.229 71.9701 140.598 72.0914 140.854 72.3341C141.111 72.5721 141.239 72.9268 141.239 73.3981V75.6801H140.763V75.1061C140.651 75.2974 140.486 75.4468 140.266 75.5541C140.052 75.6614 139.795 75.7151 139.496 75.7151C139.086 75.7151 138.759 75.6171 138.516 75.4211C138.274 75.2251 138.152 74.9661 138.152 74.6441C138.152 74.3314 138.264 74.0794 138.488 73.8881C138.717 73.6968 139.079 73.6011 139.573 73.6011H140.742V73.3771C140.742 73.0598 140.654 72.8194 140.476 72.6561C140.299 72.4881 140.04 72.4041 139.699 72.4041C139.466 72.4041 139.242 72.4438 139.027 72.5231C138.813 72.5978 138.628 72.7028 138.474 72.8381L138.25 72.4671C138.437 72.3084 138.661 72.1871 138.922 72.1031C139.184 72.0144 139.459 71.9701 139.748 71.9701ZM139.573 75.3231C139.853 75.3231 140.094 75.2601 140.294 75.1341C140.495 75.0034 140.644 74.8168 140.742 74.5741V73.9721H139.587C138.957 73.9721 138.642 74.1914 138.642 74.6301C138.642 74.8448 138.724 75.0151 138.887 75.1411C139.051 75.2624 139.279 75.3231 139.573 75.3231ZM143.639 75.7151C143.275 75.7151 142.948 75.6358 142.659 75.4771C142.374 75.3184 142.15 75.0968 141.987 74.8121C141.824 74.5228 141.742 74.1984 141.742 73.8391C141.742 73.4798 141.824 73.1578 141.987 72.8731C142.15 72.5884 142.374 72.3668 142.659 72.2081C142.948 72.0494 143.275 71.9701 143.639 71.9701C143.956 71.9701 144.239 72.0331 144.486 72.1591C144.738 72.2804 144.936 72.4601 145.081 72.6981L144.71 72.9501C144.589 72.7681 144.435 72.6328 144.248 72.5441C144.061 72.4508 143.858 72.4041 143.639 72.4041C143.373 72.4041 143.133 72.4648 142.918 72.5861C142.708 72.7028 142.542 72.8708 142.421 73.0901C142.304 73.3094 142.246 73.5591 142.246 73.8391C142.246 74.1238 142.304 74.3758 142.421 74.5951C142.542 74.8098 142.708 74.9778 142.918 75.0991C143.133 75.2158 143.373 75.2741 143.639 75.2741C143.858 75.2741 144.061 75.2298 144.248 75.1411C144.435 75.0524 144.589 74.9171 144.71 74.7351L145.081 74.9871C144.936 75.2251 144.738 75.4071 144.486 75.5331C144.234 75.6544 143.952 75.7151 143.639 75.7151ZM146.877 73.8321L146.009 74.6301V75.6801H145.512V70.4861H146.009V74.0071L148.207 71.9981H148.823L147.248 73.5031L148.97 75.6801H148.361L146.877 73.8321ZM150.446 71.9701C150.927 71.9701 151.296 72.0914 151.552 72.3341C151.809 72.5721 151.937 72.9268 151.937 73.3981V75.6801H151.461V75.1061C151.349 75.2974 151.184 75.4468 150.964 75.5541C150.75 75.6614 150.493 75.7151 150.194 75.7151C149.784 75.7151 149.457 75.6171 149.214 75.4211C148.972 75.2251 148.85 74.9661 148.85 74.6441C148.85 74.3314 148.962 74.0794 149.186 73.8881C149.415 73.6968 149.777 73.6011 150.271 73.6011H151.44V73.3771C151.44 73.0598 151.352 72.8194 151.174 72.6561C150.997 72.4881 150.738 72.4041 150.397 72.4041C150.164 72.4041 149.94 72.4438 149.725 72.5231C149.511 72.5978 149.326 72.7028 149.172 72.8381L148.948 72.4671C149.135 72.3084 149.359 72.1871 149.62 72.1031C149.882 72.0144 150.157 71.9701 150.446 71.9701ZM150.271 75.3231C150.551 75.3231 150.792 75.2601 150.992 75.1341C151.193 75.0034 151.342 74.8168 151.44 74.5741V73.9721H150.285C149.655 73.9721 149.34 74.1914 149.34 74.6301C149.34 74.8448 149.422 75.0151 149.585 75.1411C149.749 75.2624 149.977 75.3231 150.271 75.3231ZM156.22 71.9981V75.2321C156.22 75.8574 156.066 76.3194 155.758 76.6181C155.454 76.9214 154.995 77.0731 154.379 77.0731C154.038 77.0731 153.714 77.0218 153.406 76.9191C153.102 76.8211 152.855 76.6834 152.664 76.5061L152.916 76.1281C153.093 76.2868 153.308 76.4104 153.56 76.4991C153.816 76.5878 154.085 76.6321 154.365 76.6321C154.831 76.6321 155.174 76.5224 155.394 76.3031C155.613 76.0884 155.723 75.7524 155.723 75.2951V74.8261C155.569 75.0594 155.366 75.2368 155.114 75.3581C154.866 75.4794 154.591 75.5401 154.288 75.5401C153.942 75.5401 153.627 75.4654 153.343 75.3161C153.063 75.1621 152.841 74.9498 152.678 74.6791C152.519 74.4038 152.44 74.0934 152.44 73.7481C152.44 73.4028 152.519 73.0948 152.678 72.8241C152.841 72.5534 153.063 72.3434 153.343 72.1941C153.623 72.0448 153.938 71.9701 154.288 71.9701C154.6 71.9701 154.883 72.0331 155.135 72.1591C155.387 72.2851 155.59 72.4671 155.744 72.7051V71.9981H156.22ZM154.337 75.0991C154.603 75.0991 154.843 75.0431 155.058 74.9311C155.272 74.8144 155.438 74.6534 155.555 74.4481C155.676 74.2428 155.737 74.0094 155.737 73.7481C155.737 73.4868 155.676 73.2558 155.555 73.0551C155.438 72.8498 155.272 72.6911 155.058 72.5791C154.848 72.4624 154.607 72.4041 154.337 72.4041C154.071 72.4041 153.83 72.4601 153.616 72.5721C153.406 72.6841 153.24 72.8428 153.119 73.0481C153.002 73.2534 152.944 73.4868 152.944 73.7481C152.944 74.0094 153.002 74.2428 153.119 74.4481C153.24 74.6534 153.406 74.8144 153.616 74.9311C153.83 75.0431 154.071 75.0991 154.337 75.0991ZM160.326 73.9931H157.246C157.274 74.3758 157.421 74.6861 157.687 74.9241C157.953 75.1574 158.289 75.2741 158.695 75.2741C158.923 75.2741 159.133 75.2344 159.325 75.1551C159.516 75.0711 159.682 74.9498 159.822 74.7911L160.102 75.1131C159.938 75.3091 159.733 75.4584 159.486 75.5611C159.243 75.6638 158.975 75.7151 158.681 75.7151C158.303 75.7151 157.967 75.6358 157.673 75.4771C157.383 75.3138 157.157 75.0898 156.994 74.8051C156.83 74.5204 156.749 74.1984 156.749 73.8391C156.749 73.4798 156.826 73.1578 156.98 72.8731C157.138 72.5884 157.353 72.3668 157.624 72.2081C157.899 72.0494 158.207 71.9701 158.548 71.9701C158.888 71.9701 159.194 72.0494 159.465 72.2081C159.735 72.3668 159.948 72.5884 160.102 72.8731C160.256 73.1531 160.333 73.4751 160.333 73.8391L160.326 73.9931ZM158.548 72.3971C158.193 72.3971 157.894 72.5114 157.652 72.7401C157.414 72.9641 157.278 73.2581 157.246 73.6221H159.857C159.824 73.2581 159.686 72.9641 159.444 72.7401C159.206 72.5114 158.907 72.3971 158.548 72.3971Z" fill="black"/>
<path d="M32.0871 96.3836C31.9937 96.4676 31.8771 96.5329 31.7371 96.5796C31.6017 96.6216 31.4594 96.6426 31.3101 96.6426C30.9647 96.6426 30.6987 96.5492 30.5121 96.3626C30.3254 96.1759 30.2321 95.9122 30.2321 95.5716V93.3456H29.5741V92.9256H30.2321V92.1206H30.7291V92.9256H31.8491V93.3456H30.7291V95.5436C30.7291 95.7629 30.7827 95.9309 30.8901 96.0476C31.0021 96.1596 31.1607 96.2156 31.3661 96.2156C31.4687 96.2156 31.5667 96.1992 31.6601 96.1666C31.7581 96.1339 31.8421 96.0872 31.9121 96.0266L32.0871 96.3836ZM33.8769 96.6426C33.5223 96.6426 33.2026 96.5632 32.9179 96.4046C32.6333 96.2412 32.4093 96.0172 32.2459 95.7326C32.0826 95.4479 32.0009 95.1259 32.0009 94.7666C32.0009 94.4072 32.0826 94.0852 32.2459 93.8006C32.4093 93.5159 32.6333 93.2942 32.9179 93.1356C33.2026 92.9769 33.5223 92.8976 33.8769 92.8976C34.2316 92.8976 34.5513 92.9769 34.8359 93.1356C35.1206 93.2942 35.3423 93.5159 35.5009 93.8006C35.6643 94.0852 35.7459 94.4072 35.7459 94.7666C35.7459 95.1259 35.6643 95.4479 35.5009 95.7326C35.3423 96.0172 35.1206 96.2412 34.8359 96.4046C34.5513 96.5632 34.2316 96.6426 33.8769 96.6426ZM33.8769 96.2016C34.1383 96.2016 34.3716 96.1432 34.5769 96.0266C34.7869 95.9052 34.9503 95.7349 35.0669 95.5156C35.1836 95.2962 35.2419 95.0466 35.2419 94.7666C35.2419 94.4866 35.1836 94.2369 35.0669 94.0176C34.9503 93.7982 34.7869 93.6302 34.5769 93.5136C34.3716 93.3922 34.1383 93.3316 33.8769 93.3316C33.6156 93.3316 33.3799 93.3922 33.1699 93.5136C32.9646 93.6302 32.8013 93.7982 32.6799 94.0176C32.5633 94.2369 32.5049 94.4866 32.5049 94.7666C32.5049 95.0466 32.5633 95.2962 32.6799 95.5156C32.8013 95.7349 32.9646 95.9052 33.1699 96.0266C33.3799 96.1432 33.6156 96.2016 33.8769 96.2016ZM38.5996 96.6426C38.301 96.6426 38.014 96.6006 37.7386 96.5166C37.468 96.4279 37.2556 96.3182 37.1016 96.1876L37.3256 95.7956C37.4796 95.9169 37.6733 96.0172 37.9066 96.0966C38.14 96.1712 38.3826 96.2086 38.6346 96.2086C38.9706 96.2086 39.218 96.1572 39.3766 96.0546C39.54 95.9472 39.6216 95.7979 39.6216 95.6066C39.6216 95.4712 39.5773 95.3662 39.4886 95.2916C39.4 95.2122 39.288 95.1539 39.1526 95.1166C39.0173 95.0746 38.8376 95.0349 38.6136 94.9976C38.315 94.9416 38.0746 94.8856 37.8926 94.8296C37.7106 94.7689 37.5543 94.6686 37.4236 94.5286C37.2976 94.3886 37.2346 94.1949 37.2346 93.9476C37.2346 93.6396 37.363 93.3876 37.6196 93.1916C37.8763 92.9956 38.2333 92.8976 38.6906 92.8976C38.9286 92.8976 39.1666 92.9302 39.4046 92.9956C39.6426 93.0562 39.8386 93.1379 39.9926 93.2406L39.7756 93.6396C39.4723 93.4296 39.1106 93.3246 38.6906 93.3246C38.3733 93.3246 38.133 93.3806 37.9696 93.4926C37.811 93.6046 37.7316 93.7516 37.7316 93.9336C37.7316 94.0736 37.776 94.1856 37.8646 94.2696C37.958 94.3536 38.0723 94.4166 38.2076 94.4586C38.343 94.4959 38.5296 94.5356 38.7676 94.5776C39.0616 94.6336 39.2973 94.6896 39.4746 94.7456C39.652 94.8016 39.8036 94.8972 39.9296 95.0326C40.0556 95.1679 40.1186 95.3546 40.1186 95.5926C40.1186 95.9146 39.9833 96.1712 39.7126 96.3626C39.4466 96.5492 39.0756 96.6426 38.5996 96.6426ZM42.4235 92.8976C42.8855 92.8976 43.2518 93.0329 43.5225 93.3036C43.7978 93.5696 43.9355 93.9592 43.9355 94.4726V96.6076H43.4385V94.5216C43.4385 94.1389 43.3428 93.8472 43.1515 93.6466C42.9601 93.4459 42.6871 93.3456 42.3325 93.3456C41.9358 93.3456 41.6208 93.4646 41.3875 93.7026C41.1588 93.9359 41.0445 94.2602 41.0445 94.6756V96.6076H40.5475V91.4136H41.0445V93.5696C41.1798 93.3549 41.3665 93.1892 41.6045 93.0726C41.8425 92.9559 42.1155 92.8976 42.4235 92.8976ZM46.3134 96.6426C45.9588 96.6426 45.6391 96.5632 45.3544 96.4046C45.0698 96.2412 44.8458 96.0172 44.6824 95.7326C44.5191 95.4479 44.4374 95.1259 44.4374 94.7666C44.4374 94.4072 44.5191 94.0852 44.6824 93.8006C44.8458 93.5159 45.0698 93.2942 45.3544 93.1356C45.6391 92.9769 45.9588 92.8976 46.3134 92.8976C46.6681 92.8976 46.9878 92.9769 47.2724 93.1356C47.5571 93.2942 47.7788 93.5159 47.9374 93.8006C48.1008 94.0852 48.1824 94.4072 48.1824 94.7666C48.1824 95.1259 48.1008 95.4479 47.9374 95.7326C47.7788 96.0172 47.5571 96.2412 47.2724 96.4046C46.9878 96.5632 46.6681 96.6426 46.3134 96.6426ZM46.3134 96.2016C46.5748 96.2016 46.8081 96.1432 47.0134 96.0266C47.2234 95.9052 47.3868 95.7349 47.5034 95.5156C47.6201 95.2962 47.6784 95.0466 47.6784 94.7666C47.6784 94.4866 47.6201 94.2369 47.5034 94.0176C47.3868 93.7982 47.2234 93.6302 47.0134 93.5136C46.8081 93.3922 46.5748 93.3316 46.3134 93.3316C46.0521 93.3316 45.8164 93.3922 45.6064 93.5136C45.4011 93.6302 45.2378 93.7982 45.1164 94.0176C44.9998 94.2369 44.9414 94.4866 44.9414 94.7666C44.9414 95.0466 44.9998 95.2962 45.1164 95.5156C45.2378 95.7349 45.4011 95.9052 45.6064 96.0266C45.8164 96.1432 46.0521 96.2016 46.3134 96.2016ZM54.0086 92.9256L52.6156 96.6076H52.1466L50.9846 93.5906L49.8226 96.6076H49.3536L47.9676 92.9256H48.4436L49.5986 96.0546L50.7816 92.9256H51.2086L52.3846 96.0546L53.5536 92.9256H54.0086ZM57.1139 96.6426C56.7593 96.6426 56.4396 96.5632 56.1549 96.4046C55.8703 96.2412 55.6463 96.0172 55.4829 95.7326C55.3196 95.4479 55.2379 95.1259 55.2379 94.7666C55.2379 94.4072 55.3196 94.0852 55.4829 93.8006C55.6463 93.5159 55.8703 93.2942 56.1549 93.1356C56.4396 92.9769 56.7593 92.8976 57.1139 92.8976C57.4686 92.8976 57.7883 92.9769 58.0729 93.1356C58.3576 93.2942 58.5793 93.5159 58.7379 93.8006C58.9013 94.0852 58.9829 94.4072 58.9829 94.7666C58.9829 95.1259 58.9013 95.4479 58.7379 95.7326C58.5793 96.0172 58.3576 96.2412 58.0729 96.4046C57.7883 96.5632 57.4686 96.6426 57.1139 96.6426ZM57.1139 96.2016C57.3753 96.2016 57.6086 96.1432 57.8139 96.0266C58.0239 95.9052 58.1873 95.7349 58.3039 95.5156C58.4206 95.2962 58.4789 95.0466 58.4789 94.7666C58.4789 94.4866 58.4206 94.2369 58.3039 94.0176C58.1873 93.7982 58.0239 93.6302 57.8139 93.5136C57.6086 93.3922 57.3753 93.3316 57.1139 93.3316C56.8526 93.3316 56.6169 93.3922 56.4069 93.5136C56.2016 93.6302 56.0383 93.7982 55.9169 94.0176C55.8003 94.2369 55.7419 94.4866 55.7419 94.7666C55.7419 95.0466 55.8003 95.2962 55.9169 95.5156C56.0383 95.7349 56.2016 95.9052 56.4069 96.0266C56.6169 96.1432 56.8526 96.2016 57.1139 96.2016ZM62.8256 92.9256V96.6076H62.3496V95.9356C62.2189 96.1596 62.0393 96.3346 61.8106 96.4606C61.5819 96.5819 61.3206 96.6426 61.0266 96.6426C60.5459 96.6426 60.1656 96.5096 59.8856 96.2436C59.6103 95.9729 59.4726 95.5786 59.4726 95.0606V92.9256H59.9696V95.0116C59.9696 95.3989 60.0653 95.6929 60.2566 95.8936C60.4479 96.0942 60.7209 96.1946 61.0756 96.1946C61.4629 96.1946 61.7686 96.0779 61.9926 95.8446C62.2166 95.6066 62.3286 95.2776 62.3286 94.8576V92.9256H62.8256ZM64.2036 93.6466C64.3202 93.3992 64.4929 93.2126 64.7216 93.0866C64.9549 92.9606 65.2419 92.8976 65.5826 92.8976V93.3806L65.4636 93.3736C65.0762 93.3736 64.7729 93.4926 64.5536 93.7306C64.3342 93.9686 64.2246 94.3022 64.2246 94.7316V96.6076H63.7276V92.9256H64.2036V93.6466ZM68.6772 92.8976C69.1578 92.8976 69.5265 93.0189 69.7832 93.2616C70.0398 93.4996 70.1682 93.8542 70.1682 94.3256V96.6076H69.6922V96.0336C69.5802 96.2249 69.4145 96.3742 69.1952 96.4816C68.9805 96.5889 68.7238 96.6426 68.4252 96.6426C68.0145 96.6426 67.6878 96.5446 67.4452 96.3486C67.2025 96.1526 67.0812 95.8936 67.0812 95.5716C67.0812 95.2589 67.1932 95.0069 67.4172 94.8156C67.6458 94.6242 68.0075 94.5286 68.5022 94.5286H69.6712V94.3046C69.6712 93.9872 69.5825 93.7469 69.4052 93.5836C69.2278 93.4156 68.9688 93.3316 68.6282 93.3316C68.3948 93.3316 68.1708 93.3712 67.9562 93.4506C67.7415 93.5252 67.5572 93.6302 67.4032 93.7656L67.1792 93.3946C67.3658 93.2359 67.5898 93.1146 67.8512 93.0306C68.1125 92.9419 68.3878 92.8976 68.6772 92.8976ZM68.5022 96.2506C68.7822 96.2506 69.0225 96.1876 69.2232 96.0616C69.4238 95.9309 69.5732 95.7442 69.6712 95.5016V94.8996H68.5162C67.8862 94.8996 67.5712 95.1189 67.5712 95.5576C67.5712 95.7722 67.6528 95.9426 67.8162 96.0686C67.9795 96.1899 68.2082 96.2506 68.5022 96.2506ZM72.9251 92.8976C73.2704 92.8976 73.5831 92.9769 73.8631 93.1356C74.1431 93.2896 74.3624 93.5089 74.5211 93.7936C74.6797 94.0782 74.7591 94.4026 74.7591 94.7666C74.7591 95.1352 74.6797 95.4619 74.5211 95.7466C74.3624 96.0312 74.1431 96.2529 73.8631 96.4116C73.5877 96.5656 73.2751 96.6426 72.9251 96.6426C72.6264 96.6426 72.3557 96.5819 72.1131 96.4606C71.8751 96.3346 71.6791 96.1526 71.5251 95.9146V97.9656H71.0281V92.9256H71.5041V93.6536C71.6534 93.4109 71.8494 93.2242 72.0921 93.0936C72.3394 92.9629 72.6171 92.8976 72.9251 92.8976ZM72.8901 96.2016C73.1467 96.2016 73.3801 96.1432 73.5901 96.0266C73.8001 95.9052 73.9634 95.7349 74.0801 95.5156C74.2014 95.2962 74.2621 95.0466 74.2621 94.7666C74.2621 94.4866 74.2014 94.2392 74.0801 94.0246C73.9634 93.8052 73.8001 93.6349 73.5901 93.5136C73.3801 93.3922 73.1467 93.3316 72.8901 93.3316C72.6287 93.3316 72.3931 93.3922 72.1831 93.5136C71.9777 93.6349 71.8144 93.8052 71.6931 94.0246C71.5764 94.2392 71.5181 94.4866 71.5181 94.7666C71.5181 95.0466 71.5764 95.2962 71.6931 95.5156C71.8144 95.7349 71.9777 95.9052 72.1831 96.0266C72.3931 96.1432 72.6287 96.2016 72.8901 96.2016ZM77.1792 92.8976C77.5246 92.8976 77.8372 92.9769 78.1172 93.1356C78.3972 93.2896 78.6166 93.5089 78.7752 93.7936C78.9339 94.0782 79.0132 94.4026 79.0132 94.7666C79.0132 95.1352 78.9339 95.4619 78.7752 95.7466C78.6166 96.0312 78.3972 96.2529 78.1172 96.4116C77.8419 96.5656 77.5292 96.6426 77.1792 96.6426C76.8806 96.6426 76.6099 96.5819 76.3672 96.4606C76.1292 96.3346 75.9332 96.1526 75.7792 95.9146V97.9656H75.2822V92.9256H75.7582V93.6536C75.9076 93.4109 76.1036 93.2242 76.3462 93.0936C76.5936 92.9629 76.8712 92.8976 77.1792 92.8976ZM77.1442 96.2016C77.4009 96.2016 77.6342 96.1432 77.8442 96.0266C78.0542 95.9052 78.2176 95.7349 78.3342 95.5156C78.4556 95.2962 78.5162 95.0466 78.5162 94.7666C78.5162 94.4866 78.4556 94.2392 78.3342 94.0246C78.2176 93.8052 78.0542 93.6349 77.8442 93.5136C77.6342 93.3922 77.4009 93.3316 77.1442 93.3316C76.8829 93.3316 76.6472 93.3922 76.4372 93.5136C76.2319 93.6349 76.0686 93.8052 75.9472 94.0246C75.8306 94.2392 75.7722 94.4866 75.7722 94.7666C75.7722 95.0466 75.8306 95.2962 75.9472 95.5156C76.0686 95.7349 76.2319 95.9052 76.4372 96.0266C76.6472 96.1432 76.8829 96.2016 77.1442 96.2016ZM80.0124 93.6466C80.129 93.3992 80.3017 93.2126 80.5304 93.0866C80.7637 92.9606 81.0507 92.8976 81.3914 92.8976V93.3806L81.2724 93.3736C80.885 93.3736 80.5817 93.4926 80.3624 93.7306C80.143 93.9686 80.0334 94.3022 80.0334 94.7316V96.6076H79.5364V92.9256H80.0124V93.6466ZM84.9731 94.9206H81.8931C81.9211 95.3032 82.0681 95.6136 82.3341 95.8516C82.6001 96.0849 82.9361 96.2016 83.3421 96.2016C83.5707 96.2016 83.7807 96.1619 83.9721 96.0826C84.1634 95.9986 84.3291 95.8772 84.4691 95.7186L84.7491 96.0406C84.5857 96.2366 84.3804 96.3859 84.1331 96.4886C83.8904 96.5912 83.6221 96.6426 83.3281 96.6426C82.9501 96.6426 82.6141 96.5632 82.3201 96.4046C82.0307 96.2412 81.8044 96.0172 81.6411 95.7326C81.4777 95.4479 81.3961 95.1259 81.3961 94.7666C81.3961 94.4072 81.4731 94.0852 81.6271 93.8006C81.7857 93.5159 82.0004 93.2942 82.2711 93.1356C82.5464 92.9769 82.8544 92.8976 83.1951 92.8976C83.5357 92.8976 83.8414 92.9769 84.1121 93.1356C84.3827 93.2942 84.5951 93.5159 84.7491 93.8006C84.9031 94.0806 84.9801 94.4026 84.9801 94.7666L84.9731 94.9206ZM83.1951 93.3246C82.8404 93.3246 82.5417 93.4389 82.2991 93.6676C82.0611 93.8916 81.9257 94.1856 81.8931 94.5496H84.5041C84.4714 94.1856 84.3337 93.8916 84.0911 93.6676C83.8531 93.4389 83.5544 93.3246 83.1951 93.3246ZM87.0277 96.6426C86.6637 96.6426 86.337 96.5632 86.0477 96.4046C85.763 96.2459 85.539 96.0242 85.3757 95.7396C85.2123 95.4502 85.1307 95.1259 85.1307 94.7666C85.1307 94.4072 85.2123 94.0852 85.3757 93.8006C85.539 93.5159 85.763 93.2942 86.0477 93.1356C86.337 92.9769 86.6637 92.8976 87.0277 92.8976C87.345 92.8976 87.6273 92.9606 87.8747 93.0866C88.1267 93.2079 88.325 93.3876 88.4697 93.6256L88.0987 93.8776C87.9773 93.6956 87.8233 93.5602 87.6367 93.4716C87.45 93.3782 87.247 93.3316 87.0277 93.3316C86.7617 93.3316 86.5213 93.3922 86.3067 93.5136C86.0967 93.6302 85.931 93.7982 85.8097 94.0176C85.693 94.2369 85.6347 94.4866 85.6347 94.7666C85.6347 95.0512 85.693 95.3032 85.8097 95.5226C85.931 95.7372 86.0967 95.9052 86.3067 96.0266C86.5213 96.1432 86.7617 96.2016 87.0277 96.2016C87.247 96.2016 87.45 96.1572 87.6367 96.0686C87.8233 95.9799 87.9773 95.8446 88.0987 95.6626L88.4697 95.9146C88.325 96.1526 88.1267 96.3346 87.8747 96.4606C87.6227 96.5819 87.3403 96.6426 87.0277 96.6426ZM88.956 92.9256H89.453V96.6076H88.956V92.9256ZM89.208 92.1206C89.1053 92.1206 89.019 92.0856 88.949 92.0156C88.879 91.9456 88.844 91.8616 88.844 91.7636C88.844 91.6702 88.879 91.5886 88.949 91.5186C89.019 91.4486 89.1053 91.4136 89.208 91.4136C89.3107 91.4136 89.397 91.4486 89.467 91.5186C89.537 91.5839 89.572 91.6632 89.572 91.7566C89.572 91.8592 89.537 91.9456 89.467 92.0156C89.397 92.0856 89.3107 92.1206 89.208 92.1206ZM91.6339 92.8976C92.1146 92.8976 92.4832 93.0189 92.7399 93.2616C92.9966 93.4996 93.1249 93.8542 93.1249 94.3256V96.6076H92.6489V96.0336C92.5369 96.2249 92.3712 96.3742 92.1519 96.4816C91.9372 96.5889 91.6806 96.6426 91.3819 96.6426C90.9712 96.6426 90.6446 96.5446 90.4019 96.3486C90.1592 96.1526 90.0379 95.8936 90.0379 95.5716C90.0379 95.2589 90.1499 95.0069 90.3739 94.8156C90.6026 94.6242 90.9642 94.5286 91.4589 94.5286H92.6279V94.3046C92.6279 93.9872 92.5392 93.7469 92.3619 93.5836C92.1846 93.4156 91.9256 93.3316 91.5849 93.3316C91.3516 93.3316 91.1276 93.3712 90.9129 93.4506C90.6982 93.5252 90.5139 93.6302 90.3599 93.7656L90.1359 93.3946C90.3226 93.2359 90.5466 93.1146 90.8079 93.0306C91.0692 92.9419 91.3446 92.8976 91.6339 92.8976ZM91.4589 96.2506C91.7389 96.2506 91.9792 96.1876 92.1799 96.0616C92.3806 95.9309 92.5299 95.7442 92.6279 95.5016V94.8996H91.4729C90.8429 94.8996 90.5279 95.1189 90.5279 95.5576C90.5279 95.7722 90.6096 95.9426 90.7729 96.0686C90.9362 96.1899 91.1649 96.2506 91.4589 96.2506ZM95.9238 96.3836C95.8305 96.4676 95.7138 96.5329 95.5738 96.5796C95.4385 96.6216 95.2961 96.6426 95.1468 96.6426C94.8015 96.6426 94.5355 96.5492 94.3488 96.3626C94.1621 96.1759 94.0688 95.9122 94.0688 95.5716V93.3456H93.4108V92.9256H94.0688V92.1206H94.5658V92.9256H95.6858V93.3456H94.5658V95.5436C94.5658 95.7629 94.6195 95.9309 94.7268 96.0476C94.8388 96.1596 94.9975 96.2156 95.2028 96.2156C95.3055 96.2156 95.4035 96.1992 95.4968 96.1666C95.5948 96.1339 95.6788 96.0872 95.7488 96.0266L95.9238 96.3836ZM96.3385 92.9256H96.8355V96.6076H96.3385V92.9256ZM96.5905 92.1206C96.4879 92.1206 96.4015 92.0856 96.3315 92.0156C96.2615 91.9456 96.2265 91.8616 96.2265 91.7636C96.2265 91.6702 96.2615 91.5886 96.3315 91.5186C96.4015 91.4486 96.4879 91.4136 96.5905 91.4136C96.6932 91.4136 96.7795 91.4486 96.8495 91.5186C96.9195 91.5839 96.9545 91.6632 96.9545 91.7566C96.9545 91.8592 96.9195 91.9456 96.8495 92.0156C96.7795 92.0856 96.6932 92.1206 96.5905 92.1206ZM99.2334 96.6426C98.8788 96.6426 98.5591 96.5632 98.2744 96.4046C97.9898 96.2412 97.7658 96.0172 97.6024 95.7326C97.4391 95.4479 97.3574 95.1259 97.3574 94.7666C97.3574 94.4072 97.4391 94.0852 97.6024 93.8006C97.7658 93.5159 97.9898 93.2942 98.2744 93.1356C98.5591 92.9769 98.8788 92.8976 99.2334 92.8976C99.5881 92.8976 99.9078 92.9769 100.192 93.1356C100.477 93.2942 100.699 93.5159 100.857 93.8006C101.021 94.0852 101.102 94.4072 101.102 94.7666C101.102 95.1259 101.021 95.4479 100.857 95.7326C100.699 96.0172 100.477 96.2412 100.192 96.4046C99.9078 96.5632 99.5881 96.6426 99.2334 96.6426ZM99.2334 96.2016C99.4948 96.2016 99.7281 96.1432 99.9334 96.0266C100.143 95.9052 100.307 95.7349 100.423 95.5156C100.54 95.2962 100.598 95.0466 100.598 94.7666C100.598 94.4866 100.54 94.2369 100.423 94.0176C100.307 93.7982 100.143 93.6302 99.9334 93.5136C99.7281 93.3922 99.4948 93.3316 99.2334 93.3316C98.9721 93.3316 98.7364 93.3922 98.5264 93.5136C98.3211 93.6302 98.1578 93.7982 98.0364 94.0176C97.9198 94.2369 97.8614 94.4866 97.8614 94.7666C97.8614 95.0466 97.9198 95.2962 98.0364 95.5156C98.1578 95.7349 98.3211 95.9052 98.5264 96.0266C98.7364 96.1432 98.9721 96.2016 99.2334 96.2016ZM103.503 92.8976C103.965 92.8976 104.331 93.0329 104.602 93.3036C104.877 93.5696 105.015 93.9592 105.015 94.4726V96.6076H104.518V94.5216C104.518 94.1389 104.422 93.8472 104.231 93.6466C104.04 93.4459 103.767 93.3456 103.412 93.3456C103.015 93.3456 102.7 93.4646 102.467 93.7026C102.238 93.9359 102.124 94.2602 102.124 94.6756V96.6076H101.627V92.9256H102.103V93.6046C102.238 93.3806 102.425 93.2079 102.663 93.0866C102.906 92.9606 103.186 92.8976 103.503 92.8976ZM105.923 96.6426C105.821 96.6426 105.732 96.6052 105.657 96.5306C105.587 96.4559 105.552 96.3649 105.552 96.2576C105.552 96.1502 105.587 96.0616 105.657 95.9916C105.732 95.9169 105.821 95.8796 105.923 95.8796C106.026 95.8796 106.115 95.9169 106.189 95.9916C106.264 96.0616 106.301 96.1502 106.301 96.2576C106.301 96.3649 106.264 96.4559 106.189 96.5306C106.115 96.6052 106.026 96.6426 105.923 96.6426ZM109.834 94.3046L108.833 95.3196V96.6076H108.315V91.7076H108.833V94.6686L111.71 91.7076H112.305L110.184 93.9266L112.452 96.6076H111.836L109.834 94.3046ZM115.731 94.9206H112.651C112.679 95.3032 112.826 95.6136 113.092 95.8516C113.358 96.0849 113.694 96.2016 114.1 96.2016C114.329 96.2016 114.539 96.1619 114.73 96.0826C114.922 95.9986 115.087 95.8772 115.227 95.7186L115.507 96.0406C115.344 96.2366 115.139 96.3859 114.891 96.4886C114.649 96.5912 114.38 96.6426 114.086 96.6426C113.708 96.6426 113.372 96.5632 113.078 96.4046C112.789 96.2412 112.563 96.0172 112.399 95.7326C112.236 95.4479 112.154 95.1259 112.154 94.7666C112.154 94.4072 112.231 94.0852 112.385 93.8006C112.544 93.5159 112.759 93.2942 113.029 93.1356C113.305 92.9769 113.613 92.8976 113.953 92.8976C114.294 92.8976 114.6 92.9769 114.87 93.1356C115.141 93.2942 115.353 93.5159 115.507 93.8006C115.661 94.0806 115.738 94.4026 115.738 94.7666L115.731 94.9206ZM113.953 93.3246C113.599 93.3246 113.3 93.4389 113.057 93.6676C112.819 93.8916 112.684 94.1856 112.651 94.5496H115.262C115.23 94.1856 115.092 93.8916 114.849 93.6676C114.611 93.4389 114.313 93.3246 113.953 93.3246ZM119.466 94.9206H116.386C116.414 95.3032 116.561 95.6136 116.827 95.8516C117.093 96.0849 117.429 96.2016 117.835 96.2016C118.064 96.2016 118.274 96.1619 118.465 96.0826C118.656 95.9986 118.822 95.8772 118.962 95.7186L119.242 96.0406C119.079 96.2366 118.873 96.3859 118.626 96.4886C118.383 96.5912 118.115 96.6426 117.821 96.6426C117.443 96.6426 117.107 96.5632 116.813 96.4046C116.524 96.2412 116.297 96.0172 116.134 95.7326C115.971 95.4479 115.889 95.1259 115.889 94.7666C115.889 94.4072 115.966 94.0852 116.12 93.8006C116.279 93.5159 116.493 93.2942 116.764 93.1356C117.039 92.9769 117.347 92.8976 117.688 92.8976C118.029 92.8976 118.334 92.9769 118.605 93.1356C118.876 93.2942 119.088 93.5159 119.242 93.8006C119.396 94.0806 119.473 94.4026 119.473 94.7666L119.466 94.9206ZM117.688 93.3246C117.333 93.3246 117.035 93.4389 116.792 93.6676C116.554 93.8916 116.419 94.1856 116.386 94.5496H118.997C118.964 94.1856 118.827 93.8916 118.584 93.6676C118.346 93.4389 118.047 93.3246 117.688 93.3246ZM121.892 92.8976C122.237 92.8976 122.55 92.9769 122.83 93.1356C123.11 93.2896 123.329 93.5089 123.488 93.7936C123.646 94.0782 123.726 94.4026 123.726 94.7666C123.726 95.1352 123.646 95.4619 123.488 95.7466C123.329 96.0312 123.11 96.2529 122.83 96.4116C122.554 96.5656 122.242 96.6426 121.892 96.6426C121.593 96.6426 121.322 96.5819 121.08 96.4606C120.842 96.3346 120.646 96.1526 120.492 95.9146V97.9656H119.995V92.9256H120.471V93.6536C120.62 93.4109 120.816 93.2242 121.059 93.0936C121.306 92.9629 121.584 92.8976 121.892 92.8976ZM121.857 96.2016C122.113 96.2016 122.347 96.1432 122.557 96.0266C122.767 95.9052 122.93 95.7349 123.047 95.5156C123.168 95.2962 123.229 95.0466 123.229 94.7666C123.229 94.4866 123.168 94.2392 123.047 94.0246C122.93 93.8052 122.767 93.6349 122.557 93.5136C122.347 93.3922 122.113 93.3316 121.857 93.3316C121.595 93.3316 121.36 93.3922 121.15 93.5136C120.944 93.6349 120.781 93.8052 120.66 94.0246C120.543 94.2392 120.485 94.4866 120.485 94.7666C120.485 95.0466 120.543 95.2962 120.66 95.5156C120.781 95.7349 120.944 95.9052 121.15 96.0266C121.36 96.1432 121.595 96.2016 121.857 96.2016ZM128.909 92.9256V96.6076H128.433V95.9356C128.302 96.1596 128.123 96.3346 127.894 96.4606C127.665 96.5819 127.404 96.6426 127.11 96.6426C126.629 96.6426 126.249 96.5096 125.969 96.2436C125.694 95.9729 125.556 95.5786 125.556 95.0606V92.9256H126.053V95.0116C126.053 95.3989 126.149 95.6929 126.34 95.8936C126.531 96.0942 126.804 96.1946 127.159 96.1946C127.546 96.1946 127.852 96.0779 128.076 95.8446C128.3 95.6066 128.412 95.2776 128.412 94.8576V92.9256H128.909ZM131.708 92.8976C132.053 92.8976 132.366 92.9769 132.646 93.1356C132.926 93.2896 133.145 93.5089 133.304 93.7936C133.463 94.0782 133.542 94.4026 133.542 94.7666C133.542 95.1352 133.463 95.4619 133.304 95.7466C133.145 96.0312 132.926 96.2529 132.646 96.4116C132.371 96.5656 132.058 96.6426 131.708 96.6426C131.409 96.6426 131.139 96.5819 130.896 96.4606C130.658 96.3346 130.462 96.1526 130.308 95.9146V97.9656H129.811V92.9256H130.287V93.6536C130.436 93.4109 130.632 93.2242 130.875 93.0936C131.122 92.9629 131.4 92.8976 131.708 92.8976ZM131.673 96.2016C131.93 96.2016 132.163 96.1432 132.373 96.0266C132.583 95.9052 132.746 95.7349 132.863 95.5156C132.984 95.2962 133.045 95.0466 133.045 94.7666C133.045 94.4866 132.984 94.2392 132.863 94.0246C132.746 93.8052 132.583 93.6349 132.373 93.5136C132.163 93.3922 131.93 93.3316 131.673 93.3316C131.412 93.3316 131.176 93.3922 130.966 93.5136C130.761 93.6349 130.597 93.8052 130.476 94.0246C130.359 94.2392 130.301 94.4866 130.301 94.7666C130.301 95.0466 130.359 95.2962 130.476 95.5156C130.597 95.7349 130.761 95.9052 130.966 96.0266C131.176 96.1432 131.412 96.2016 131.673 96.2016ZM137.346 96.3836C137.253 96.4676 137.136 96.5329 136.996 96.5796C136.861 96.6216 136.718 96.6426 136.569 96.6426C136.224 96.6426 135.958 96.5492 135.771 96.3626C135.584 96.1759 135.491 95.9122 135.491 95.5716V93.3456H134.833V92.9256H135.491V92.1206H135.988V92.9256H137.108V93.3456H135.988V95.5436C135.988 95.7629 136.042 95.9309 136.149 96.0476C136.261 96.1596 136.42 96.2156 136.625 96.2156C136.728 96.2156 136.826 96.1992 136.919 96.1666C137.017 96.1339 137.101 96.0872 137.171 96.0266L137.346 96.3836ZM139.637 92.8976C140.099 92.8976 140.465 93.0329 140.736 93.3036C141.011 93.5696 141.149 93.9592 141.149 94.4726V96.6076H140.652V94.5216C140.652 94.1389 140.556 93.8472 140.365 93.6466C140.173 93.4459 139.9 93.3456 139.546 93.3456C139.149 93.3456 138.834 93.4646 138.601 93.7026C138.372 93.9359 138.258 94.2602 138.258 94.6756V96.6076H137.761V91.4136H138.258V93.5696C138.393 93.3549 138.58 93.1892 138.818 93.0726C139.056 92.9559 139.329 92.8976 139.637 92.8976ZM145.228 94.9206H142.148C142.176 95.3032 142.323 95.6136 142.589 95.8516C142.855 96.0849 143.191 96.2016 143.597 96.2016C143.825 96.2016 144.035 96.1619 144.227 96.0826C144.418 95.9986 144.584 95.8772 144.724 95.7186L145.004 96.0406C144.84 96.2366 144.635 96.3859 144.388 96.4886C144.145 96.5912 143.877 96.6426 143.583 96.6426C143.205 96.6426 142.869 96.5632 142.575 96.4046C142.285 96.2412 142.059 96.0172 141.896 95.7326C141.732 95.4479 141.651 95.1259 141.651 94.7666C141.651 94.4072 141.728 94.0852 141.882 93.8006C142.04 93.5159 142.255 93.2942 142.526 93.1356C142.801 92.9769 143.109 92.8976 143.45 92.8976C143.79 92.8976 144.096 92.9769 144.367 93.1356C144.637 93.2942 144.85 93.5159 145.004 93.8006C145.158 94.0806 145.235 94.4026 145.235 94.7666L145.228 94.9206ZM143.45 93.3246C143.095 93.3246 142.796 93.4389 142.554 93.6676C142.316 93.8916 142.18 94.1856 142.148 94.5496H144.759C144.726 94.1856 144.588 93.8916 144.346 93.6676C144.108 93.4389 143.809 93.3246 143.45 93.3246ZM152.502 92.9256L151.109 96.6076H150.64L149.478 93.5906L148.316 96.6076H147.847L146.461 92.9256H146.937L148.092 96.0546L149.275 92.9256H149.702L150.878 96.0546L152.047 92.9256H152.502ZM154.163 96.6426C153.809 96.6426 153.489 96.5632 153.204 96.4046C152.92 96.2412 152.696 96.0172 152.532 95.7326C152.369 95.4479 152.287 95.1259 152.287 94.7666C152.287 94.4072 152.369 94.0852 152.532 93.8006C152.696 93.5159 152.92 93.2942 153.204 93.1356C153.489 92.9769 153.809 92.8976 154.163 92.8976C154.518 92.8976 154.838 92.9769 155.122 93.1356C155.407 93.2942 155.629 93.5159 155.787 93.8006C155.951 94.0852 156.032 94.4072 156.032 94.7666C156.032 95.1259 155.951 95.4479 155.787 95.7326C155.629 96.0172 155.407 96.2412 155.122 96.4046C154.838 96.5632 154.518 96.6426 154.163 96.6426ZM154.163 96.2016C154.425 96.2016 154.658 96.1432 154.863 96.0266C155.073 95.9052 155.237 95.7349 155.353 95.5156C155.47 95.2962 155.528 95.0466 155.528 94.7666C155.528 94.4866 155.47 94.2369 155.353 94.0176C155.237 93.7982 155.073 93.6302 154.863 93.5136C154.658 93.3922 154.425 93.3316 154.163 93.3316C153.902 93.3316 153.666 93.3922 153.456 93.5136C153.251 93.6302 153.088 93.7982 152.966 94.0176C152.85 94.2369 152.791 94.4866 152.791 94.7666C152.791 95.0466 152.85 95.2962 152.966 95.5156C153.088 95.7349 153.251 95.9052 153.456 96.0266C153.666 96.1432 153.902 96.2016 154.163 96.2016ZM157.033 93.6466C157.15 93.3992 157.322 93.2126 157.551 93.0866C157.784 92.9606 158.071 92.8976 158.412 92.8976V93.3806L158.293 93.3736C157.906 93.3736 157.602 93.4926 157.383 93.7306C157.164 93.9686 157.054 94.3022 157.054 94.7316V96.6076H156.557V92.9256H157.033V93.6466ZM160.187 94.7596L159.319 95.5576V96.6076H158.822V91.4136H159.319V94.9346L161.517 92.9256H162.133L160.558 94.4306L162.28 96.6076H161.671L160.187 94.7596ZM162.459 91.7076H163.047L162.942 95.1376H162.557L162.459 91.7076ZM162.753 96.6426C162.65 96.6426 162.562 96.6076 162.487 96.5376C162.417 96.4629 162.382 96.3766 162.382 96.2786C162.382 96.1759 162.417 96.0919 162.487 96.0266C162.557 95.9566 162.646 95.9216 162.753 95.9216C162.856 95.9216 162.942 95.9566 163.012 96.0266C163.082 96.0919 163.117 96.1759 163.117 96.2786C163.117 96.3766 163.082 96.4629 163.012 96.5376C162.942 96.6076 162.856 96.6426 162.753 96.6426Z" fill="black"/>
<defs>
<filter id="filter0_d" x="0.679077" y="77.8682" width="195.459" height="134.001" filterUnits="userSpaceOnUse" color-interpolation-filters="sRGB">
<feFlood flood-opacity="0" result="BackgroundImageFix"/>
<feColorMatrix in="SourceAlpha" type="matrix" values="0 0 0 0 0 0 0 0 0 0 0 0 0 0 0 0 0 0 127 0"/>
<feOffset dy="4"/>
<feGaussianBlur stdDeviation="2"/>
<feColorMatrix type="matrix" values="0 0 0 0 0 0 0 0 0 0 0 0 0 0 0 0 0 0 0.25 0"/>
<feBlend mode="normal" in2="BackgroundImageFix" result="effect1_dropShadow"/>
<feBlend mode="normal" in="SourceGraphic" in2="effect1_dropShadow" result="shape"/>
</filter>
</defs>
</svg>
