<svg width="299" height="310" viewBox="0 0 299 310" fill="none" xmlns="http://www.w3.org/2000/svg">
<g filter="url(#filter0_b)">
<path d="M267.369 9.6762e-06L0 29.5519L30.9876 309.911L298.357 280.359L267.369 9.6762e-06Z" fill="url(#paint0_linear)"/>
<path d="M264.481 3.60635L2.52386 32.56L32.6739 305.342L294.631 276.388L264.481 3.60635Z" fill="white"/>
<path d="M243.077 206.484L68.7997 225.746L72.8676 262.55L247.145 243.287L243.077 206.484Z" fill="#E5E5E5"/>
<path d="M77.2947 232.271L77.5968 235.004L81.1949 234.606L81.2652 235.243L77.6671 235.64L77.9934 238.592L77.2579 238.674L76.4888 231.716L81.2598 231.189L81.3301 231.825L77.2947 232.271ZM83.5127 233.726C83.6395 233.357 83.8554 233.065 84.1603 232.85C84.4719 232.634 84.8695 232.5 85.3532 232.447L85.429 233.132L85.259 233.141C84.709 233.202 84.2969 233.418 84.0229 233.791C83.7488 234.163 83.6454 234.654 83.7128 235.264L84.0072 237.928L83.3015 238.006L82.7237 232.777L83.3995 232.703L83.5127 233.726ZM89.3072 237.392C88.8036 237.448 88.3372 237.385 87.9081 237.205C87.4783 237.017 87.1251 236.734 86.8485 236.356C86.5719 235.977 86.4054 235.533 86.349 235.023C86.2926 234.512 86.358 234.042 86.5453 233.613C86.7325 233.183 87.0158 232.833 87.3951 232.563C87.7744 232.293 88.2158 232.13 88.7194 232.074C89.223 232.019 89.6894 232.081 90.1185 232.262C90.5476 232.442 90.8971 232.722 91.1671 233.102C91.4437 233.48 91.6102 233.925 91.6666 234.435C91.723 234.945 91.6576 235.415 91.4703 235.845C91.2897 236.274 91.0101 236.627 90.6315 236.904C90.2522 237.174 89.8108 237.336 89.3072 237.392ZM89.238 236.766C89.6091 236.725 89.9312 236.605 90.2045 236.408C90.4836 236.202 90.6888 235.935 90.82 235.605C90.9513 235.275 90.9949 234.912 90.951 234.514C90.907 234.116 90.785 233.771 90.5849 233.478C90.3848 233.185 90.1266 232.972 89.8101 232.839C89.4995 232.699 89.1586 232.65 88.7876 232.691C88.4165 232.732 88.0914 232.855 87.8122 233.06C87.539 233.258 87.3334 233.522 87.1956 233.853C87.0643 234.182 87.0207 234.546 87.0646 234.944C87.1086 235.341 87.2306 235.687 87.4307 235.98C87.6374 236.272 87.896 236.488 88.2066 236.628C88.5231 236.761 88.8669 236.807 89.238 236.766ZM99.3343 230.901C99.9903 230.829 100.525 230.961 100.938 231.297C101.357 231.633 101.607 232.169 101.689 232.905L102.024 235.936L101.318 236.014L100.991 233.052C100.931 232.509 100.752 232.109 100.456 231.854C100.166 231.597 99.7823 231.496 99.3052 231.548C98.7619 231.608 98.3532 231.825 98.0791 232.197C97.8043 232.563 97.6995 233.04 97.7646 233.63L98.0678 236.373L97.3621 236.451L97.0348 233.489C96.9747 232.946 96.7964 232.547 96.4999 232.291C96.2099 232.035 95.8231 231.933 95.3394 231.987C94.8027 232.046 94.3939 232.262 94.1132 232.635C93.8384 233.001 93.7336 233.479 93.7988 234.068L94.102 236.812L93.3963 236.89L92.8184 231.662L93.4943 231.587L93.5998 232.541C93.7502 232.203 93.9815 231.929 94.2938 231.72C94.606 231.511 94.9775 231.383 95.4082 231.335C95.8456 231.287 96.2335 231.338 96.5721 231.488C96.9173 231.638 97.1896 231.886 97.3889 232.233C97.5429 231.867 97.7883 231.568 98.1249 231.337C98.4673 231.098 98.8705 230.952 99.3343 230.901ZM103.903 234.682C104.055 234.665 104.187 234.704 104.298 234.799C104.408 234.888 104.472 235.008 104.489 235.161C104.498 235.24 104.494 235.328 104.478 235.424C104.468 235.518 104.447 235.628 104.414 235.753L104.148 237.17L103.671 237.223L103.849 235.745C103.74 235.723 103.647 235.673 103.571 235.594C103.494 235.509 103.449 235.403 103.435 235.277C103.419 235.125 103.454 234.993 103.543 234.883C103.63 234.766 103.75 234.699 103.903 234.682ZM85.0331 242.845L85.8022 249.802L85.0965 249.88L84.4812 244.314L82.2653 249.298L81.9174 249.336L78.67 244.987L79.2819 250.523L78.5762 250.601L77.8071 243.643L78.4135 243.576L82.0052 248.401L84.4268 242.912L85.0331 242.845ZM87.3422 244.34L88.0479 244.262L88.6257 249.49L87.92 249.568L87.3422 244.34ZM87.5737 243.157C87.4279 243.174 87.2998 243.137 87.1894 243.049C87.079 242.961 87.0162 242.847 87.0008 242.708C86.9861 242.575 87.023 242.454 87.1114 242.343C87.1998 242.233 87.3169 242.17 87.4627 242.154C87.6085 242.137 87.7366 242.174 87.8469 242.262C87.9566 242.344 88.0187 242.451 88.0334 242.583C88.0495 242.729 88.0134 242.857 87.9249 242.968C87.8365 243.078 87.7194 243.141 87.5737 243.157ZM92.7616 249.083C92.2448 249.14 91.7685 249.079 91.3328 248.899C90.9036 248.719 90.5508 248.439 90.2742 248.06C89.9969 247.675 89.83 247.227 89.7736 246.717C89.7172 246.207 89.7826 245.737 89.9699 245.307C90.1571 244.877 90.4404 244.527 90.8197 244.257C91.2056 243.987 91.657 243.823 92.1739 243.766C92.6245 243.716 93.0353 243.761 93.4062 243.901C93.7831 244.034 94.0929 244.258 94.3357 244.573L93.8484 244.989C93.6476 244.75 93.4077 244.582 93.1287 244.485C92.849 244.382 92.5534 244.348 92.242 244.382C91.8643 244.424 91.5326 244.548 91.2468 244.754C90.9669 244.952 90.7581 245.217 90.6202 245.547C90.489 245.877 90.4453 246.241 90.4893 246.638C90.5339 247.042 90.6563 247.391 90.8564 247.684C91.0624 247.97 91.324 248.182 91.6412 248.322C91.9643 248.454 92.3147 248.499 92.6924 248.457C93.0039 248.423 93.2851 248.328 93.5363 248.173C93.7874 248.018 93.9848 247.801 94.1286 247.524L94.6949 247.823C94.5268 248.184 94.2738 248.474 93.9357 248.692C93.597 248.904 93.2056 249.034 92.7616 249.083ZM98.1939 243.1C98.8499 243.028 99.3913 243.162 99.8181 243.504C100.251 243.839 100.507 244.371 100.588 245.099L100.923 248.131L100.217 248.209L99.89 245.247C99.8299 244.704 99.6483 244.304 99.3451 244.05C99.0419 243.795 98.6386 243.695 98.135 243.751C97.5717 243.813 97.1431 244.031 96.8492 244.406C96.5611 244.773 96.4497 245.252 96.5148 245.841L96.818 248.585L96.1123 248.663L95.2972 241.288L96.0029 241.21L96.3413 244.271C96.4997 243.945 96.7388 243.68 97.0584 243.477C97.378 243.274 97.7565 243.149 98.1939 243.1ZM107.146 245.018L102.773 245.502C102.872 246.041 103.13 246.458 103.545 246.755C103.959 247.044 104.455 247.157 105.031 247.093C105.356 247.057 105.648 246.968 105.907 246.826C106.165 246.676 106.382 246.478 106.555 246.231L107.004 246.644C106.802 246.948 106.534 247.192 106.199 247.377C105.871 247.561 105.498 247.676 105.08 247.722C104.544 247.781 104.054 247.721 103.612 247.542C103.175 247.355 102.819 247.073 102.542 246.694C102.266 246.316 102.099 245.871 102.043 245.361C101.986 244.851 102.045 244.382 102.219 243.953C102.4 243.524 102.67 243.176 103.029 242.908C103.395 242.639 103.82 242.478 104.304 242.425C104.787 242.372 105.234 242.436 105.643 242.619C106.052 242.802 106.389 243.083 106.652 243.463C106.915 243.837 107.075 244.282 107.132 244.799L107.146 245.018ZM104.371 243.031C103.867 243.087 103.461 243.296 103.152 243.659C102.85 244.014 102.704 244.453 102.714 244.975L106.422 244.565C106.318 244.054 106.077 243.658 105.697 243.378C105.323 243.09 104.881 242.975 104.371 243.031ZM108.042 239.879L108.748 239.801L109.563 247.176L108.857 247.254L108.042 239.879ZM110.711 239.584L111.417 239.506L112.232 246.881L111.526 246.959L110.711 239.584ZM118.483 243.765L114.11 244.249C114.21 244.788 114.467 245.205 114.882 245.502C115.296 245.791 115.792 245.904 116.368 245.84C116.693 245.804 116.985 245.715 117.244 245.572C117.503 245.423 117.719 245.225 117.893 244.978L118.341 245.391C118.14 245.695 117.872 245.939 117.536 246.124C117.208 246.308 116.835 246.423 116.418 246.469C115.881 246.528 115.391 246.468 114.949 246.289C114.512 246.102 114.156 245.82 113.879 245.441C113.603 245.063 113.436 244.618 113.38 244.108C113.323 243.598 113.382 243.129 113.556 242.7C113.737 242.271 114.007 241.923 114.366 241.655C114.732 241.386 115.157 241.225 115.641 241.172C116.125 241.118 116.571 241.183 116.98 241.366C117.39 241.549 117.726 241.83 117.989 242.21C118.252 242.584 118.412 243.029 118.469 243.546L118.483 243.765ZM115.708 241.778C115.204 241.834 114.798 242.043 114.49 242.406C114.187 242.761 114.041 243.2 114.052 243.722L117.759 243.312C117.655 242.8 117.414 242.405 117.034 242.125C116.66 241.837 116.218 241.722 115.708 241.778Z" fill="black"/>
<path d="M229.791 96.1916L56.5961 115.335L65.2104 193.272L238.405 174.129L229.791 96.1916Z" fill="#E5E5E5"/>
<path d="M68.8251 125.89C69.2933 125.939 69.6665 126.099 69.9446 126.37C70.2286 126.634 70.3963 126.998 70.4475 127.462C70.5134 128.058 70.3424 128.543 69.9343 128.917C69.5321 129.283 68.9003 129.514 68.0389 129.609L64.8384 129.963L64.0694 123.005L67.0711 122.674C67.8464 122.588 68.4633 122.677 68.9218 122.942C69.3869 123.206 69.651 123.622 69.7139 124.192C69.7564 124.577 69.6966 124.915 69.5345 125.208C69.3782 125.494 69.1418 125.721 68.8251 125.89ZM64.8719 123.53L65.1509 126.055L67.3674 125.81C67.9307 125.748 68.353 125.594 68.6344 125.348C68.915 125.096 69.0326 124.764 68.9872 124.353C68.9418 123.942 68.755 123.648 68.4267 123.469C68.0977 123.284 67.6516 123.223 67.0884 123.285L64.8719 123.53ZM67.9619 129.004C68.5848 128.935 69.0436 128.777 69.3382 128.53C69.6328 128.283 69.7552 127.934 69.7054 127.483C69.6095 126.615 68.932 126.251 67.673 126.39L65.218 126.661L65.5069 129.275L67.9619 129.004ZM76.4702 126.253L72.0969 126.736C72.1967 127.275 72.4541 127.693 72.8692 127.989C73.2835 128.278 73.7789 128.391 74.3554 128.327C74.6801 128.292 74.972 128.202 75.2313 128.06C75.4897 127.91 75.7059 127.712 75.8798 127.465L76.3279 127.878C76.1268 128.182 75.8587 128.426 75.5236 128.611C75.1951 128.795 74.8222 128.91 74.4047 128.956C73.868 129.015 73.3784 128.955 72.9361 128.776C72.4996 128.59 72.1431 128.307 71.8665 127.928C71.5899 127.55 71.4234 127.106 71.367 126.595C71.3106 126.085 71.3694 125.616 71.5434 125.187C71.724 124.758 71.994 124.41 72.3535 124.142C72.7195 123.874 73.1444 123.713 73.6281 123.659C74.1118 123.606 74.5583 123.67 74.9675 123.853C75.3768 124.036 75.713 124.317 75.9764 124.697C76.239 125.071 76.3989 125.516 76.456 126.033L76.4702 126.253ZM73.6951 124.265C73.1915 124.321 72.7854 124.53 72.4767 124.893C72.1739 125.249 72.0279 125.687 72.0386 126.209L75.7461 125.799C75.6425 125.288 75.4009 124.892 75.0212 124.612C74.6474 124.325 74.2054 124.209 73.6951 124.265ZM82.4689 125.59L78.0955 126.073C78.1953 126.612 78.4527 127.029 78.8678 127.326C79.2821 127.615 79.7775 127.728 80.354 127.664C80.6787 127.629 80.9706 127.539 81.2299 127.397C81.4884 127.247 81.7046 127.049 81.8785 126.802L82.3266 127.215C82.1254 127.519 81.8573 127.763 81.5222 127.948C81.1937 128.132 80.8208 128.247 80.4033 128.293C79.8666 128.352 79.3771 128.292 78.9347 128.113C78.4982 127.927 78.1417 127.644 77.8651 127.265C77.5885 126.887 77.422 126.443 77.3656 125.932C77.3092 125.422 77.368 124.953 77.542 124.524C77.7226 124.095 77.9927 123.747 78.3521 123.479C78.7181 123.211 79.143 123.05 79.6267 122.996C80.1105 122.943 80.5569 123.007 80.9662 123.19C81.3754 123.373 81.7117 123.654 81.975 124.034C82.2376 124.408 82.3975 124.853 82.4546 125.37L82.4689 125.59ZM79.6938 123.602C79.1902 123.658 78.784 123.867 78.4753 124.23C78.1725 124.585 78.0265 125.024 78.0373 125.546L81.7447 125.136C81.6412 124.625 81.3996 124.229 81.0198 123.949C80.646 123.661 80.204 123.546 79.6938 123.602ZM86.2615 122.263C86.9175 122.19 87.4589 122.325 87.8857 122.667C88.3184 123.001 88.575 123.533 88.6556 124.262L88.9907 127.293L88.285 127.371L87.9576 124.409C87.8975 123.866 87.7159 123.467 87.4127 123.212C87.1096 122.957 86.7062 122.858 86.2026 122.913C85.6393 122.975 85.2107 123.194 84.9168 123.568C84.6287 123.936 84.5173 124.414 84.5825 125.004L84.8857 127.747L84.18 127.825L83.6021 122.597L84.278 122.522L84.3846 123.486C84.5416 123.147 84.7795 122.873 85.0984 122.663C85.4232 122.446 85.8109 122.313 86.2615 122.263ZM94.7545 121.324C95.437 121.249 95.9796 121.363 96.3821 121.667C96.7839 121.965 97.0218 122.448 97.0958 123.118L97.4539 126.358L96.778 126.433L96.6879 125.618C96.5589 125.907 96.3471 126.145 96.0525 126.332C95.7646 126.518 95.4085 126.634 94.9845 126.681C94.4013 126.746 93.9221 126.658 93.5468 126.418C93.1715 126.177 92.9585 125.829 92.908 125.371C92.8589 124.927 92.9784 124.552 93.2664 124.245C93.5611 123.938 94.0596 123.745 94.762 123.667L96.4219 123.484L96.3868 123.166C96.337 122.715 96.1733 122.388 95.8959 122.184C95.6177 121.973 95.2368 121.895 94.7531 121.948C94.4218 121.985 94.1099 122.076 93.8176 122.222C93.5245 122.362 93.2792 122.54 93.0818 122.756L92.7055 122.265C92.9456 122.01 93.2447 121.803 93.6025 121.643C93.9597 121.476 94.3437 121.369 94.7545 121.324ZM95.0323 126.113C95.4299 126.069 95.7612 125.941 96.0264 125.731C96.2908 125.514 96.4735 125.225 96.5746 124.866L96.4801 124.011L94.8401 124.192C93.9456 124.291 93.5327 124.652 93.6016 125.275C93.6353 125.579 93.7779 125.808 94.0296 125.962C94.2806 126.108 94.6148 126.159 95.0323 126.113ZM104.144 125.669C103.627 125.726 103.151 125.665 102.715 125.485C102.286 125.304 101.933 125.024 101.657 124.646C101.38 124.261 101.213 123.813 101.156 123.303C101.1 122.793 101.165 122.322 101.353 121.893C101.54 121.463 101.823 121.113 102.202 120.843C102.588 120.572 103.04 120.408 103.557 120.351C104.007 120.301 104.418 120.347 104.789 120.487C105.166 120.619 105.476 120.843 105.718 121.159L105.231 121.575C105.03 121.335 104.79 121.167 104.511 121.071C104.232 120.967 103.936 120.933 103.625 120.967C103.247 121.009 102.915 121.133 102.629 121.339C102.35 121.538 102.141 121.802 102.003 122.133C101.872 122.462 101.828 122.826 101.872 123.224C101.917 123.628 102.039 123.977 102.239 124.27C102.445 124.555 102.707 124.768 103.024 124.907C103.347 125.039 103.697 125.084 104.075 125.043C104.387 125.008 104.668 124.913 104.919 124.758C105.17 124.603 105.368 124.387 105.511 124.109L106.078 124.409C105.91 124.769 105.656 125.059 105.318 125.277C104.98 125.489 104.588 125.62 104.144 125.669ZM107.784 120.96C107.911 120.591 108.127 120.299 108.431 120.084C108.743 119.868 109.141 119.734 109.624 119.681L109.7 120.366L109.53 120.375C108.98 120.436 108.568 120.652 108.294 121.025C108.02 121.397 107.917 121.888 107.984 122.498L108.278 125.162L107.573 125.24L106.995 120.011L107.671 119.937L107.784 120.96ZM112.721 119.338C113.404 119.263 113.946 119.377 114.349 119.681C114.751 119.979 114.989 120.463 115.063 121.132L115.421 124.372L114.745 124.447L114.655 123.632C114.526 123.921 114.314 124.159 114.019 124.346C113.731 124.532 113.375 124.649 112.951 124.695C112.368 124.76 111.889 124.672 111.514 124.432C111.138 124.192 110.925 123.843 110.875 123.386C110.826 122.942 110.945 122.566 111.233 122.259C111.528 121.952 112.026 121.759 112.729 121.682L114.389 121.498L114.354 121.18C114.304 120.729 114.14 120.402 113.863 120.198C113.584 119.987 113.204 119.909 112.72 119.962C112.389 119.999 112.077 120.09 111.784 120.237C111.491 120.376 111.246 120.554 111.049 120.771L110.672 120.279C110.912 120.024 111.211 119.817 111.569 119.657C111.926 119.49 112.31 119.384 112.721 119.338ZM112.999 124.127C113.397 124.083 113.728 123.956 113.993 123.745C114.258 123.528 114.44 123.24 114.541 122.88L114.447 122.025L112.807 122.206C111.912 122.305 111.499 122.666 111.568 123.289C111.602 123.594 111.745 123.823 111.996 123.976C112.247 124.123 112.582 124.173 112.999 124.127ZM120.96 123.166L121.025 123.753L116.771 124.223L116.719 123.756L119.549 119.227L116.319 119.585L116.253 118.988L120.387 118.531L120.439 118.998L117.611 123.537L120.96 123.166ZM126.132 117.896L124.165 124.039C124.007 124.553 123.801 124.928 123.545 125.164C123.289 125.401 122.966 125.54 122.575 125.583C122.323 125.611 122.084 125.598 121.856 125.542C121.629 125.487 121.427 125.388 121.25 125.247L121.52 124.684C121.814 124.92 122.147 125.017 122.518 124.976C122.757 124.95 122.951 124.861 123.103 124.71C123.26 124.559 123.394 124.316 123.505 123.982L123.677 123.449L120.765 118.489L121.5 118.408L123.96 122.634L125.436 117.973L126.132 117.896ZM134.121 117.013L132.154 123.157C131.996 123.67 131.789 124.045 131.534 124.281C131.278 124.518 130.955 124.657 130.564 124.701C130.312 124.728 130.072 124.715 129.845 124.659C129.617 124.604 129.415 124.506 129.239 124.364L129.508 123.801C129.803 124.037 130.136 124.134 130.507 124.093C130.745 124.067 130.94 123.978 131.091 123.827C131.249 123.676 131.383 123.433 131.493 123.099L131.666 122.567L128.753 117.606L129.489 117.525L131.948 121.751L133.425 117.09L134.121 117.013ZM139.834 119.249L135.461 119.732C135.561 120.271 135.818 120.689 136.233 120.985C136.648 121.275 137.143 121.388 137.72 121.324C138.044 121.288 138.336 121.199 138.595 121.056C138.854 120.907 139.07 120.709 139.244 120.461L139.692 120.875C139.491 121.178 139.223 121.423 138.888 121.607C138.559 121.791 138.186 121.906 137.769 121.952C137.232 122.012 136.743 121.952 136.3 121.773C135.864 121.586 135.507 121.304 135.231 120.925C134.954 120.546 134.788 120.102 134.731 119.592C134.675 119.082 134.734 118.612 134.908 118.184C135.088 117.755 135.358 117.406 135.718 117.139C136.084 116.87 136.509 116.709 136.992 116.656C137.476 116.602 137.922 116.667 138.332 116.85C138.741 117.032 139.077 117.314 139.341 117.694C139.603 118.067 139.763 118.512 139.82 119.029L139.834 119.249ZM137.059 117.262C136.556 117.318 136.15 117.527 135.841 117.89C135.538 118.245 135.392 118.684 135.403 119.206L139.11 118.796C139.007 118.284 138.765 117.888 138.385 117.608C138.012 117.321 137.569 117.206 137.059 117.262ZM142.646 116.031C143.329 115.955 143.872 116.07 144.274 116.374C144.676 116.672 144.914 117.155 144.988 117.824L145.346 121.065L144.67 121.139L144.58 120.324C144.451 120.613 144.239 120.852 143.944 121.038C143.657 121.224 143.3 121.341 142.876 121.388C142.293 121.452 141.814 121.364 141.439 121.124C141.063 120.884 140.85 120.535 140.8 120.078C140.751 119.634 140.87 119.259 141.158 118.952C141.453 118.644 141.952 118.452 142.654 118.374L144.314 118.191L144.279 117.872C144.229 117.422 144.065 117.095 143.788 116.89C143.51 116.68 143.129 116.601 142.645 116.655C142.314 116.691 142.002 116.783 141.71 116.929C141.416 117.069 141.171 117.247 140.974 117.463L140.597 116.971C140.838 116.717 141.137 116.509 141.494 116.349C141.852 116.182 142.236 116.076 142.646 116.031ZM142.924 120.819C143.322 120.775 143.653 120.648 143.918 120.438C144.183 120.221 144.365 119.932 144.467 119.572L144.372 118.717L142.732 118.899C141.838 118.997 141.425 119.358 141.494 119.981C141.527 120.286 141.67 120.515 141.922 120.668C142.173 120.815 142.507 120.865 142.924 120.819ZM147.474 116.574C147.601 116.204 147.817 115.912 148.121 115.697C148.433 115.482 148.831 115.347 149.314 115.294L149.39 115.979L149.22 115.988C148.67 116.049 148.258 116.266 147.984 116.638C147.71 117.01 147.607 117.501 147.674 118.111L147.968 120.775L147.263 120.853L146.685 115.625L147.361 115.55L147.474 116.574ZM150.374 113.466L151.209 113.374L151.598 118.261L151.051 118.321L150.374 113.466ZM151.566 120.427C151.42 120.444 151.288 120.408 151.171 120.32C151.06 120.225 150.997 120.108 150.982 119.969C150.966 119.823 151.002 119.698 151.091 119.594C151.18 119.484 151.3 119.42 151.452 119.404C151.598 119.388 151.726 119.424 151.837 119.512C151.946 119.594 152.009 119.708 152.025 119.853C152.041 119.993 152.005 120.121 151.917 120.238C151.828 120.348 151.711 120.411 151.566 120.427ZM161.63 112.222L162.399 119.18L161.673 119.26L161.319 116.049L156.965 116.531L157.32 119.741L156.584 119.822L155.815 112.865L156.551 112.783L156.894 115.885L161.247 115.403L160.904 112.302L161.63 112.222ZM166.663 118.759C166.16 118.814 165.693 118.752 165.264 118.571C164.834 118.384 164.481 118.101 164.205 117.723C163.928 117.344 163.761 116.9 163.705 116.389C163.649 115.879 163.714 115.409 163.901 114.979C164.089 114.549 164.372 114.199 164.751 113.93C165.13 113.66 165.572 113.497 166.076 113.441C166.579 113.385 167.045 113.448 167.475 113.629C167.904 113.809 168.253 114.089 168.523 114.468C168.8 114.847 168.966 115.291 169.023 115.802C169.079 116.312 169.014 116.782 168.826 117.212C168.646 117.641 168.366 117.994 167.988 118.27C167.608 118.54 167.167 118.703 166.663 118.759ZM166.594 118.133C166.965 118.091 167.287 117.972 167.561 117.774C167.84 117.569 168.045 117.301 168.176 116.972C168.307 116.642 168.351 116.278 168.307 115.881C168.263 115.483 168.141 115.138 167.941 114.845C167.741 114.552 167.483 114.339 167.166 114.206C166.856 114.066 166.515 114.016 166.144 114.057C165.773 114.098 165.447 114.221 165.168 114.427C164.895 114.625 164.69 114.889 164.552 115.219C164.42 115.549 164.377 115.913 164.421 116.31C164.465 116.708 164.587 117.053 164.787 117.346C164.993 117.639 165.252 117.855 165.563 117.995C165.879 118.128 166.223 118.174 166.594 118.133ZM172.864 112.691C173.354 112.637 173.81 112.7 174.233 112.882C174.655 113.056 175.001 113.333 175.271 113.713C175.541 114.092 175.704 114.54 175.761 115.057C175.819 115.58 175.758 116.057 175.577 116.486C175.396 116.915 175.12 117.264 174.747 117.533C174.38 117.795 173.948 117.953 173.451 118.008C173.027 118.055 172.634 118.012 172.27 117.877C171.912 117.736 171.605 117.508 171.349 117.194L171.671 120.107L170.965 120.185L170.175 113.028L170.85 112.954L170.965 113.987C171.139 113.619 171.388 113.323 171.712 113.1C172.042 112.875 172.426 112.739 172.864 112.691ZM173.333 117.388C173.697 117.347 174.019 117.228 174.299 117.029C174.578 116.824 174.783 116.557 174.915 116.227C175.052 115.896 175.099 115.532 175.055 115.135C175.012 114.737 174.887 114.396 174.681 114.11C174.481 113.817 174.222 113.6 173.905 113.461C173.587 113.322 173.247 113.272 172.882 113.313C172.511 113.354 172.186 113.477 171.907 113.682C171.634 113.886 171.429 114.154 171.291 114.484C171.159 114.808 171.115 115.168 171.159 115.565C171.203 115.963 171.325 116.308 171.525 116.602C171.732 116.894 171.991 117.11 172.301 117.25C172.618 117.383 172.961 117.429 173.333 117.388ZM181.776 114.613L177.403 115.097C177.503 115.636 177.76 116.053 178.175 116.349C178.589 116.639 179.085 116.752 179.661 116.688C179.986 116.652 180.278 116.563 180.537 116.42C180.796 116.271 181.012 116.073 181.186 115.826L181.634 116.239C181.433 116.543 181.165 116.787 180.83 116.972C180.501 117.155 180.128 117.27 179.711 117.317C179.174 117.376 178.684 117.316 178.242 117.137C177.806 116.95 177.449 116.668 177.172 116.289C176.896 115.911 176.729 115.466 176.673 114.956C176.617 114.446 176.675 113.976 176.849 113.548C177.03 113.119 177.3 112.771 177.659 112.503C178.025 112.234 178.45 112.073 178.934 112.02C179.418 111.966 179.864 112.031 180.274 112.214C180.683 112.397 181.019 112.678 181.282 113.058C181.545 113.432 181.705 113.877 181.762 114.394L181.776 114.613ZM179.001 112.626C178.498 112.682 178.091 112.891 177.783 113.254C177.48 113.609 177.334 114.048 177.345 114.57L181.052 114.16C180.949 113.648 180.707 113.253 180.327 112.973C179.953 112.685 179.511 112.57 179.001 112.626ZM189.904 110.848L187.937 116.991C187.779 117.505 187.572 117.88 187.317 118.116C187.061 118.352 186.738 118.492 186.347 118.535C186.095 118.563 185.856 118.549 185.628 118.494C185.401 118.438 185.199 118.34 185.022 118.198L185.292 117.635C185.586 117.871 185.919 117.969 186.29 117.927C186.529 117.901 186.723 117.813 186.874 117.662C187.032 117.51 187.166 117.267 187.277 116.933L187.449 116.401L184.537 111.441L185.272 111.36L187.731 115.585L189.208 110.924L189.904 110.848ZM193.473 115.795C192.969 115.851 192.503 115.789 192.074 115.608C191.644 115.421 191.291 115.138 191.014 114.759C190.737 114.381 190.571 113.936 190.514 113.426C190.458 112.916 190.523 112.446 190.711 112.016C190.898 111.586 191.181 111.236 191.561 110.966C191.94 110.696 192.381 110.534 192.885 110.478C193.389 110.422 193.855 110.485 194.284 110.665C194.713 110.846 195.063 111.126 195.333 111.505C195.609 111.884 195.776 112.328 195.832 112.838C195.888 113.349 195.823 113.819 195.636 114.248C195.455 114.678 195.176 115.03 194.797 115.307C194.418 115.577 193.976 115.74 193.473 115.795ZM193.403 115.169C193.775 115.128 194.097 115.009 194.37 114.811C194.649 114.606 194.854 114.338 194.986 114.008C195.117 113.679 195.16 113.315 195.116 112.917C195.072 112.52 194.95 112.175 194.75 111.881C194.55 111.588 194.292 111.375 193.976 111.243C193.665 111.103 193.324 111.053 192.953 111.094C192.582 111.135 192.257 111.258 191.978 111.464C191.704 111.661 191.499 111.926 191.361 112.256C191.23 112.586 191.186 112.949 191.23 113.347C191.274 113.745 191.396 114.09 191.596 114.383C191.803 114.675 192.062 114.892 192.372 115.032C192.689 115.164 193.032 115.21 193.403 115.169ZM201.695 109.544L202.273 114.772L201.597 114.847L201.492 113.893C201.341 114.232 201.114 114.508 200.809 114.723C200.503 114.931 200.142 115.058 199.724 115.105C199.042 115.18 198.481 115.051 198.041 114.717C197.608 114.376 197.351 113.838 197.269 113.102L196.934 110.071L197.64 109.993L197.967 112.955C198.028 113.505 198.21 113.907 198.513 114.162C198.816 114.417 199.22 114.516 199.723 114.461C200.273 114.4 200.689 114.186 200.971 113.82C201.251 113.447 201.359 112.962 201.293 112.366L200.99 109.622L201.695 109.544ZM208.098 108.796C208.78 108.721 209.323 108.835 209.725 109.14C210.127 109.437 210.365 109.921 210.439 110.59L210.797 113.83L210.121 113.905L210.031 113.09C209.902 113.379 209.69 113.617 209.396 113.804C209.108 113.99 208.752 114.107 208.327 114.154C207.744 114.218 207.265 114.13 206.89 113.89C206.514 113.65 206.302 113.301 206.251 112.844C206.202 112.4 206.321 112.024 206.609 111.718C206.904 111.41 207.403 111.217 208.105 111.14L209.765 110.956L209.73 110.638C209.68 110.188 209.516 109.86 209.239 109.656C208.961 109.446 208.58 109.367 208.096 109.42C207.765 109.457 207.453 109.548 207.161 109.695C206.867 109.835 206.622 110.013 206.425 110.229L206.048 109.737C206.289 109.483 206.588 109.275 206.946 109.115C207.303 108.948 207.687 108.842 208.098 108.796ZM208.375 113.585C208.773 113.541 209.104 113.414 209.369 113.203C209.634 112.986 209.817 112.698 209.918 112.338L209.823 111.483L208.183 111.664C207.289 111.763 206.876 112.124 206.945 112.747C206.978 113.052 207.121 113.281 207.373 113.434C207.624 113.581 207.958 113.631 208.375 113.585ZM212.925 109.339C213.052 108.97 213.268 108.678 213.572 108.463C213.884 108.247 214.282 108.113 214.765 108.059L214.841 108.745L214.671 108.754C214.121 108.815 213.709 109.031 213.435 109.404C213.161 109.776 213.058 110.267 213.125 110.877L213.419 113.541L212.714 113.619L212.136 108.39L212.812 108.316L212.925 109.339ZM220.864 110.293L216.491 110.776C216.591 111.315 216.848 111.733 217.263 112.029C217.678 112.319 218.173 112.432 218.749 112.368C219.074 112.332 219.366 112.243 219.625 112.1C219.884 111.951 220.1 111.752 220.274 111.505L220.722 111.918C220.521 112.222 220.253 112.467 219.918 112.651C219.589 112.835 219.216 112.95 218.799 112.996C218.262 113.056 217.773 112.996 217.33 112.816C216.894 112.63 216.537 112.347 216.261 111.969C215.984 111.59 215.818 111.146 215.761 110.636C215.705 110.125 215.764 109.656 215.938 109.228C216.118 108.799 216.388 108.45 216.748 108.182C217.114 107.914 217.539 107.753 218.022 107.699C218.506 107.646 218.952 107.711 219.362 107.894C219.771 108.076 220.107 108.358 220.371 108.738C220.633 109.111 220.793 109.556 220.85 110.073L220.864 110.293ZM218.089 108.306C217.586 108.361 217.18 108.571 216.871 108.933C216.568 109.289 216.422 109.728 216.433 110.25L220.14 109.84C220.037 109.328 219.795 108.932 219.415 108.652C219.041 108.365 218.599 108.249 218.089 108.306ZM67.4146 141.802C66.9905 141.848 66.5764 141.834 66.1722 141.758C65.774 141.674 65.4553 141.552 65.2161 141.391L65.4726 140.799C65.7103 140.947 66.0011 141.059 66.3449 141.135C66.6879 141.204 67.0383 141.219 67.3961 141.18C67.8732 141.127 68.2164 141.015 68.4256 140.845C68.6406 140.667 68.7332 140.442 68.7031 140.17C68.6819 139.978 68.6025 139.836 68.4648 139.744C68.3265 139.645 68.1583 139.58 67.9603 139.548C67.7615 139.51 67.5002 139.481 67.1763 139.464C66.7434 139.431 66.3933 139.389 66.1261 139.338C65.8582 139.281 65.6205 139.163 65.4129 138.984C65.2121 138.805 65.0922 138.54 65.0534 138.189C65.0051 137.752 65.1477 137.374 65.4814 137.055C65.8151 136.737 66.3066 136.541 66.956 136.47C67.294 136.432 67.637 136.441 67.9852 136.497C68.3327 136.546 68.6238 136.631 68.8586 136.752L68.6131 137.353C68.1494 137.102 67.6194 137.01 67.023 137.076C66.5724 137.126 66.24 137.243 66.0256 137.428C65.8179 137.612 65.7283 137.833 65.7569 138.091C65.7789 138.29 65.8594 138.442 65.9985 138.547C66.1442 138.652 66.3164 138.724 66.5152 138.762C66.7132 138.794 66.9845 138.821 67.329 138.843C67.7553 138.876 68.0987 138.919 68.3593 138.971C68.6199 139.022 68.8502 139.134 69.0504 139.307C69.2505 139.479 69.3693 139.734 69.4066 140.072C69.4572 140.529 69.3053 140.915 68.951 141.229C68.6026 141.536 68.0904 141.727 67.4146 141.802ZM73.5886 140.747C73.4693 140.881 73.3139 140.992 73.1224 141.08C72.9369 141.161 72.738 141.213 72.526 141.237C72.0357 141.291 71.6433 141.2 71.349 140.964C71.0546 140.728 70.8807 140.369 70.8272 139.885L70.4779 136.724L69.5436 136.828L69.4777 136.231L70.412 136.128L70.2856 134.985L70.9913 134.907L71.1177 136.05L72.708 135.874L72.7739 136.471L71.1836 136.646L71.5285 139.767C71.563 140.079 71.6655 140.309 71.8363 140.458C72.0129 140.599 72.2469 140.654 72.5385 140.621C72.6843 140.605 72.8209 140.567 72.9483 140.506C73.0823 140.444 73.1942 140.365 73.2841 140.267L73.5886 140.747ZM76.1551 135.453C76.8376 135.377 77.3801 135.492 77.7826 135.796C78.1844 136.094 78.4223 136.577 78.4963 137.247L78.8544 140.487L78.1786 140.562L78.0885 139.746C77.9595 140.036 77.7477 140.274 77.4531 140.461C77.1651 140.647 76.8091 140.763 76.385 140.81C75.8019 140.875 75.3227 140.787 74.9473 140.546C74.572 140.306 74.3591 139.957 74.3085 139.5C74.2595 139.056 74.3789 138.681 74.667 138.374C74.9616 138.066 75.4602 137.874 76.1626 137.796L77.8225 137.613L77.7873 137.295C77.7375 136.844 77.5739 136.517 77.2964 136.313C77.0183 136.102 76.6373 136.023 76.1536 136.077C75.8223 136.113 75.5105 136.205 75.2181 136.351C74.925 136.491 74.6797 136.669 74.4823 136.885L74.106 136.394C74.3462 136.139 74.6452 135.932 75.0031 135.771C75.3602 135.604 75.7442 135.498 76.1551 135.453ZM76.4328 140.241C76.8304 140.197 77.1618 140.07 77.4269 139.86C77.6913 139.643 77.8741 139.354 77.9752 138.994L77.8807 138.14L76.2407 138.321C75.3461 138.42 74.9333 138.781 75.0021 139.403C75.0358 139.708 75.1785 139.937 75.4302 140.091C75.6811 140.237 76.0154 140.288 76.4328 140.241ZM84.4895 134.572L82.5225 140.715C82.3647 141.229 82.1579 141.604 81.9023 141.84C81.6467 142.076 81.3235 142.216 80.9325 142.259C80.6807 142.287 80.4411 142.273 80.2136 142.218C79.9862 142.163 79.7841 142.064 79.6075 141.923L79.8773 141.36C80.1717 141.595 80.5044 141.693 80.8754 141.652C81.114 141.625 81.3088 141.537 81.4598 141.386C81.6174 141.234 81.7515 140.992 81.8622 140.657L82.0347 140.125L79.1222 135.165L79.8577 135.084L82.3168 139.309L83.7938 134.649L84.4895 134.572ZM85.4834 134.462L86.1891 134.384L86.767 139.612L86.0613 139.69L85.4834 134.462ZM85.7149 133.28C85.5691 133.296 85.441 133.259 85.3306 133.171C85.2203 133.083 85.1574 132.969 85.142 132.83C85.1273 132.697 85.1642 132.576 85.2526 132.465C85.341 132.355 85.4581 132.292 85.6039 132.276C85.7497 132.26 85.8778 132.296 85.9882 132.384C86.0978 132.466 86.16 132.573 86.1746 132.706C86.1907 132.851 86.1546 132.979 86.0662 133.09C85.9777 133.2 85.8607 133.263 85.7149 133.28ZM90.8121 133.833C91.4681 133.76 92.0095 133.895 92.4363 134.237C92.869 134.571 93.1256 135.103 93.2062 135.832L93.5412 138.864L92.8355 138.942L92.5082 135.98C92.4481 135.436 92.2665 135.037 91.9633 134.782C91.6602 134.527 91.2568 134.428 90.7532 134.483C90.1899 134.546 89.7613 134.764 89.4674 135.139C89.1793 135.506 89.0679 135.984 89.133 136.574L89.4362 139.317L88.7305 139.395L88.1527 134.167L88.8286 134.092L88.9351 135.056C89.0921 134.717 89.3301 134.443 89.649 134.233C89.9738 134.016 90.3615 133.883 90.8121 133.833ZM99.7392 132.886L100.247 137.478C100.345 138.366 100.199 139.047 99.8083 139.519C99.4252 139.997 98.7963 140.285 97.9216 140.381C97.4379 140.435 96.9693 140.413 96.5159 140.316C96.0698 140.224 95.697 140.067 95.3975 139.846L95.696 139.269C95.9727 139.467 96.2969 139.609 96.6686 139.695C97.047 139.781 97.435 139.801 97.8325 139.757C98.4952 139.684 98.965 139.475 99.242 139.129C99.5198 138.79 99.6227 138.295 99.551 137.646L99.4774 136.98C99.2953 137.335 99.0349 137.619 98.6961 137.831C98.364 138.042 97.9825 138.171 97.5518 138.219C97.0615 138.273 96.6025 138.217 96.1748 138.049C95.7531 137.875 95.405 137.608 95.1306 137.249C94.8621 136.883 94.7008 136.455 94.6466 135.965C94.5924 135.474 94.6567 135.024 94.8395 134.615C95.0289 134.205 95.3107 133.872 95.6849 133.616C96.059 133.36 96.4946 133.205 96.9915 133.15C97.4355 133.101 97.8463 133.146 98.2239 133.285C98.6015 133.425 98.9183 133.651 99.1743 133.965L99.0634 132.961L99.7392 132.886ZM97.5522 137.585C97.9299 137.543 98.2624 137.426 98.5496 137.233C98.8361 137.034 99.0461 136.779 99.1795 136.47C99.3196 136.159 99.3691 135.818 99.3281 135.447C99.287 135.076 99.1647 134.758 98.9609 134.492C98.763 134.218 98.5029 134.019 98.1805 133.894C97.864 133.761 97.5136 133.716 97.1292 133.758C96.7515 133.8 96.4191 133.917 96.1318 134.11C95.8512 134.302 95.6409 134.553 95.5008 134.864C95.3674 135.174 95.3212 135.514 95.3622 135.885C95.4032 136.257 95.5227 136.579 95.7206 136.852C95.9251 137.124 96.1856 137.327 96.5021 137.46C96.8245 137.585 97.1745 137.627 97.5522 137.585ZM106.299 137.504C105.875 137.551 105.461 137.536 105.057 137.46C104.658 137.377 104.34 137.254 104.1 137.093L104.357 136.501C104.595 136.649 104.885 136.761 105.229 136.837C105.572 136.907 105.923 136.922 106.28 136.882C106.758 136.829 107.101 136.718 107.31 136.547C107.525 136.369 107.617 136.144 107.587 135.872C107.566 135.68 107.487 135.538 107.349 135.446C107.211 135.347 107.043 135.282 106.845 135.25C106.646 135.212 106.384 135.184 106.061 135.166C105.628 135.133 105.278 135.091 105.01 135.04C104.742 134.983 104.505 134.865 104.297 134.687C104.096 134.508 103.977 134.242 103.938 133.891C103.889 133.454 104.032 133.076 104.366 132.757C104.699 132.439 105.191 132.244 105.84 132.172C106.178 132.134 106.521 132.144 106.87 132.199C107.217 132.248 107.508 132.333 107.743 132.455L107.497 133.055C107.034 132.805 106.504 132.712 105.907 132.778C105.457 132.828 105.124 132.945 104.91 133.13C104.702 133.314 104.613 133.535 104.641 133.793C104.663 133.992 104.744 134.144 104.883 134.25C105.028 134.354 105.201 134.426 105.399 134.464C105.598 134.496 105.869 134.523 106.213 134.545C106.64 134.579 106.983 134.621 107.244 134.673C107.504 134.725 107.735 134.837 107.935 135.009C108.135 135.181 108.254 135.436 108.291 135.774C108.341 136.232 108.19 136.617 107.835 136.931C107.487 137.238 106.975 137.429 106.299 137.504ZM111.001 131.601C111.684 131.526 112.226 131.64 112.629 131.945C113.031 132.242 113.269 132.726 113.343 133.395L113.701 136.635L113.025 136.71L112.935 135.895C112.806 136.184 112.594 136.422 112.299 136.609C112.011 136.795 111.655 136.912 111.231 136.959C110.648 137.023 110.169 136.935 109.794 136.695C109.418 136.455 109.205 136.106 109.155 135.649C109.106 135.205 109.225 134.829 109.513 134.523C109.808 134.215 110.307 134.022 111.009 133.945L112.669 133.761L112.634 133.443C112.584 132.993 112.42 132.665 112.143 132.461C111.865 132.25 111.484 132.172 111 132.225C110.669 132.262 110.357 132.353 110.064 132.5C109.771 132.639 109.526 132.817 109.329 133.034L108.952 132.542C109.193 132.288 109.492 132.08 109.849 131.92C110.207 131.753 110.591 131.647 111.001 131.601ZM111.279 136.39C111.677 136.346 112.008 136.219 112.273 136.008C112.538 135.791 112.72 135.503 112.822 135.143L112.727 134.288L111.087 134.469C110.193 134.568 109.78 134.929 109.848 135.552C109.882 135.857 110.025 136.086 110.277 136.239C110.528 136.386 110.862 136.436 111.279 136.39ZM116.592 129.404C116.288 129.438 116.065 129.546 115.924 129.729C115.79 129.912 115.741 130.165 115.777 130.49L115.845 131.106L117.455 130.928L117.521 131.525L115.931 131.7L116.443 136.332L115.737 136.41L115.225 131.778L114.291 131.882L114.225 131.285L115.159 131.182L115.088 130.536C115.035 130.059 115.129 129.666 115.37 129.358C115.617 129.049 115.993 128.866 116.497 128.811C116.695 128.789 116.891 128.797 117.083 128.837C117.274 128.869 117.439 128.931 117.576 129.023L117.396 129.577C117.172 129.427 116.904 129.369 116.592 129.404ZM123.186 133.162L118.813 133.646C118.912 134.185 119.17 134.602 119.585 134.898C119.999 135.188 120.495 135.301 121.071 135.237C121.396 135.201 121.688 135.112 121.947 134.969C122.205 134.82 122.422 134.622 122.596 134.374L123.044 134.788C122.842 135.092 122.574 135.336 122.239 135.521C121.911 135.704 121.538 135.819 121.12 135.866C120.584 135.925 120.094 135.865 119.652 135.686C119.215 135.499 118.859 135.217 118.582 134.838C118.306 134.46 118.139 134.015 118.083 133.505C118.026 132.995 118.085 132.525 118.259 132.097C118.44 131.668 118.71 131.32 119.069 131.052C119.435 130.783 119.86 130.622 120.344 130.569C120.828 130.515 121.274 130.58 121.683 130.763C122.092 130.946 122.429 131.227 122.692 131.607C122.955 131.981 123.115 132.426 123.172 132.942L123.186 133.162ZM120.411 131.175C119.907 131.231 119.501 131.44 119.192 131.803C118.89 132.158 118.744 132.597 118.754 133.119L122.462 132.709C122.358 132.197 122.117 131.801 121.737 131.522C121.363 131.234 120.921 131.119 120.411 131.175ZM129.641 134.924C129.137 134.979 128.671 134.917 128.242 134.736C127.812 134.549 127.459 134.266 127.182 133.888C126.906 133.509 126.739 133.065 126.683 132.554C126.626 132.044 126.692 131.574 126.879 131.144C127.066 130.714 127.349 130.365 127.729 130.095C128.108 129.825 128.549 129.662 129.053 129.606C129.557 129.551 130.023 129.613 130.452 129.794C130.881 129.974 131.231 130.254 131.501 130.633C131.777 131.012 131.944 131.456 132 131.967C132.057 132.477 131.991 132.947 131.804 133.377C131.623 133.806 131.344 134.159 130.965 134.435C130.586 134.705 130.144 134.868 129.641 134.924ZM129.572 134.298C129.943 134.257 130.265 134.137 130.538 133.939C130.817 133.734 131.022 133.467 131.154 133.137C131.285 132.807 131.329 132.443 131.285 132.046C131.241 131.648 131.119 131.303 130.919 131.01C130.719 130.717 130.46 130.504 130.144 130.371C129.833 130.231 129.492 130.181 129.121 130.222C128.75 130.263 128.425 130.387 128.146 130.592C127.873 130.79 127.667 131.054 127.529 131.384C127.398 131.714 127.354 132.078 127.398 132.475C127.442 132.873 127.564 133.218 127.764 133.511C127.971 133.804 128.23 134.02 128.54 134.16C128.857 134.293 129.201 134.339 129.572 134.298ZM137.863 128.673L138.441 133.901L137.765 133.975L137.66 133.021C137.51 133.36 137.282 133.637 136.977 133.851C136.671 134.06 136.31 134.187 135.892 134.233C135.21 134.308 134.649 134.179 134.21 133.845C133.776 133.504 133.519 132.966 133.437 132.23L133.102 129.199L133.808 129.121L134.135 132.083C134.196 132.633 134.378 133.035 134.681 133.29C134.985 133.545 135.388 133.645 135.892 133.589C136.442 133.528 136.857 133.315 137.139 132.948C137.419 132.575 137.527 132.09 137.461 131.494L137.158 128.751L137.863 128.673ZM143.136 133.06C143.016 133.194 142.861 133.305 142.67 133.393C142.484 133.474 142.285 133.526 142.073 133.55C141.583 133.604 141.19 133.513 140.896 133.277C140.602 133.042 140.428 132.682 140.374 132.198L140.025 129.037L139.091 129.141L139.025 128.544L139.959 128.441L139.833 127.298L140.539 127.22L140.665 128.363L142.255 128.187L142.321 128.784L140.731 128.959L141.076 132.08C141.11 132.392 141.213 132.622 141.383 132.771C141.56 132.912 141.794 132.967 142.086 132.935C142.231 132.918 142.368 132.88 142.495 132.819C142.629 132.757 142.741 132.678 142.831 132.581L143.136 133.06ZM149.775 132.326C149.656 132.46 149.5 132.571 149.309 132.659C149.123 132.74 148.924 132.792 148.712 132.816C148.222 132.87 147.83 132.779 147.535 132.544C147.241 132.308 147.067 131.948 147.014 131.464L146.664 128.304L145.73 128.407L145.664 127.81L146.598 127.707L146.472 126.564L147.178 126.486L147.304 127.629L148.894 127.453L148.96 128.05L147.37 128.226L147.715 131.347C147.749 131.658 147.852 131.888 148.023 132.037C148.199 132.178 148.433 132.233 148.725 132.201C148.871 132.185 149.007 132.146 149.135 132.085C149.269 132.023 149.381 131.944 149.471 131.847L149.775 132.326ZM153.176 126.94C153.832 126.867 154.374 127.002 154.801 127.344C155.233 127.678 155.49 128.21 155.571 128.939L155.906 131.97L155.2 132.048L154.873 129.087C154.812 128.543 154.631 128.144 154.328 127.889C154.025 127.634 153.621 127.535 153.118 127.59C152.554 127.653 152.126 127.871 151.832 128.245C151.544 128.613 151.432 129.091 151.497 129.681L151.801 132.424L151.095 132.502L150.28 125.127L150.985 125.049L151.324 128.11C151.482 127.784 151.721 127.52 152.041 127.317C152.361 127.114 152.739 126.988 153.176 126.94ZM162.128 128.858L157.755 129.341C157.855 129.88 158.112 130.298 158.527 130.594C158.942 130.884 159.437 130.997 160.014 130.933C160.338 130.897 160.63 130.808 160.889 130.665C161.148 130.516 161.364 130.317 161.538 130.07L161.986 130.483C161.785 130.787 161.517 131.032 161.182 131.216C160.853 131.4 160.48 131.515 160.063 131.561C159.526 131.621 159.037 131.561 158.594 131.382C158.158 131.195 157.801 130.912 157.525 130.534C157.248 130.155 157.082 129.711 157.025 129.201C156.969 128.691 157.028 128.221 157.202 127.793C157.382 127.364 157.652 127.015 158.012 126.748C158.378 126.479 158.803 126.318 159.286 126.265C159.77 126.211 160.217 126.276 160.626 126.459C161.035 126.641 161.371 126.923 161.635 127.303C161.897 127.676 162.057 128.121 162.114 128.638L162.128 128.858ZM159.353 126.871C158.85 126.927 158.444 127.136 158.135 127.499C157.832 127.854 157.686 128.293 157.697 128.815L161.404 128.405C161.301 127.893 161.059 127.497 160.679 127.217C160.306 126.93 159.864 126.814 159.353 126.871ZM164.051 126.814C164.178 126.445 164.393 126.153 164.698 125.938C165.01 125.722 165.408 125.588 165.891 125.535L165.967 126.22L165.797 126.229C165.247 126.29 164.835 126.506 164.561 126.879C164.287 127.251 164.183 127.742 164.251 128.352L164.545 131.016L163.84 131.094L163.262 125.865L163.938 125.791L164.051 126.814ZM171.99 127.768L167.617 128.251C167.717 128.79 167.974 129.208 168.389 129.504C168.804 129.794 169.299 129.907 169.875 129.843C170.2 129.807 170.492 129.718 170.751 129.575C171.01 129.426 171.226 129.227 171.4 128.98L171.848 129.393C171.647 129.697 171.379 129.942 171.044 130.126C170.715 130.31 170.342 130.425 169.925 130.471C169.388 130.531 168.898 130.471 168.456 130.292C168.02 130.105 167.663 129.822 167.387 129.444C167.11 129.065 166.943 128.621 166.887 128.111C166.831 127.6 166.889 127.131 167.063 126.703C167.244 126.274 167.514 125.925 167.873 125.657C168.24 125.389 168.664 125.228 169.148 125.175C169.632 125.121 170.078 125.186 170.488 125.369C170.897 125.551 171.233 125.833 171.496 126.213C171.759 126.586 171.919 127.031 171.976 127.548L171.99 127.768ZM169.215 125.781C168.712 125.837 168.305 126.046 167.997 126.409C167.694 126.764 167.548 127.203 167.559 127.725L171.266 127.315C171.163 126.803 170.921 126.407 170.541 126.127C170.167 125.84 169.725 125.724 169.215 125.781ZM173.776 130.046C173.631 130.062 173.499 130.023 173.381 129.928C173.27 129.833 173.206 129.71 173.189 129.557C173.172 129.405 173.208 129.273 173.297 129.163C173.391 129.045 173.511 128.978 173.657 128.962C173.802 128.946 173.934 128.985 174.052 129.079C174.169 129.167 174.236 129.287 174.253 129.44C174.27 129.592 174.231 129.727 174.137 129.845C174.042 129.963 173.922 130.029 173.776 130.046ZM187.341 121.453L185.764 128.67L184.989 128.756L182.296 123.047L180.904 129.207L180.139 129.292L177.024 122.594L177.779 122.51L180.448 128.272L181.864 122.059L182.55 121.983L185.262 127.77L186.635 121.531L187.341 121.453ZM190.158 122.852C190.841 122.777 191.383 122.891 191.786 123.196C192.187 123.493 192.425 123.977 192.499 124.646L192.857 127.886L192.182 127.961L192.091 127.146C191.962 127.435 191.751 127.673 191.456 127.86C191.168 128.046 190.812 128.163 190.388 128.21C189.805 128.274 189.326 128.186 188.95 127.946C188.575 127.706 188.362 127.357 188.312 126.9C188.262 126.456 188.382 126.08 188.67 125.774C188.965 125.466 189.463 125.273 190.166 125.196L191.825 125.012L191.79 124.694C191.741 124.244 191.577 123.916 191.299 123.712C191.021 123.501 190.64 123.423 190.157 123.476C189.825 123.513 189.513 123.604 189.221 123.751C188.928 123.89 188.683 124.068 188.485 124.285L188.109 123.793C188.349 123.539 188.648 123.331 189.006 123.171C189.363 123.004 189.747 122.898 190.158 122.852ZM190.436 127.641C190.833 127.597 191.165 127.47 191.43 127.259C191.694 127.042 191.877 126.754 191.978 126.394L191.884 125.539L190.244 125.72C189.349 125.819 188.936 126.18 189.005 126.803C189.039 127.108 189.182 127.337 189.433 127.49C189.684 127.637 190.018 127.687 190.436 127.641ZM196.856 122.112C197.512 122.04 198.053 122.174 198.48 122.516C198.913 122.851 199.169 123.382 199.25 124.111L199.585 127.143L198.879 127.221L198.552 124.259C198.492 123.715 198.31 123.316 198.007 123.061C197.704 122.806 197.3 122.707 196.797 122.762C196.234 122.825 195.805 123.043 195.511 123.418C195.223 123.785 195.112 124.263 195.177 124.853L195.48 127.596L194.774 127.674L194.196 122.446L194.872 122.372L194.979 123.336C195.136 122.996 195.374 122.722 195.693 122.512C196.017 122.295 196.405 122.162 196.856 122.112ZM204.219 126.309C204.1 126.442 203.944 126.554 203.753 126.642C203.567 126.723 203.368 126.775 203.156 126.798C202.666 126.852 202.274 126.762 201.979 126.526C201.685 126.29 201.511 125.93 201.458 125.447L201.108 122.286L200.174 122.389L200.108 121.793L201.042 121.69L200.916 120.547L201.622 120.469L201.748 121.612L203.338 121.436L203.404 122.032L201.814 122.208L202.159 125.329C202.193 125.64 202.296 125.871 202.467 126.019C202.643 126.161 202.877 126.215 203.169 126.183C203.315 126.167 203.451 126.128 203.579 126.067C203.713 126.006 203.825 125.926 203.914 125.829L204.219 126.309ZM209.642 123.606L205.268 124.09C205.368 124.629 205.626 125.046 206.041 125.343C206.455 125.632 206.95 125.745 207.527 125.681C207.852 125.645 208.144 125.556 208.403 125.413C208.661 125.264 208.878 125.066 209.051 124.819L209.5 125.232C209.298 125.536 209.03 125.78 208.695 125.965C208.367 126.149 207.994 126.264 207.576 126.31C207.04 126.369 206.55 126.309 206.108 126.13C205.671 125.943 205.315 125.661 205.038 125.282C204.761 124.904 204.595 124.459 204.539 123.949C204.482 123.439 204.541 122.97 204.715 122.541C204.896 122.112 205.166 121.764 205.525 121.496C205.891 121.227 206.316 121.066 206.8 121.013C207.283 120.96 207.73 121.024 208.139 121.207C208.548 121.39 208.885 121.671 209.148 122.051C209.411 122.425 209.57 122.87 209.628 123.387L209.642 123.606ZM206.867 121.619C206.363 121.675 205.957 121.884 205.648 122.247C205.346 122.602 205.2 123.041 205.21 123.563L208.918 123.153C208.814 122.642 208.573 122.246 208.193 121.966C207.819 121.678 207.377 121.563 206.867 121.619ZM215.309 117.94L216.124 125.315L215.448 125.389L215.334 124.356C215.161 124.73 214.909 125.03 214.578 125.254C214.254 125.478 213.873 125.614 213.436 125.662C212.945 125.716 212.489 125.653 212.067 125.471C211.644 125.29 211.298 125.01 211.028 124.63C210.758 124.251 210.594 123.803 210.537 123.286C210.48 122.769 210.542 122.296 210.722 121.867C210.903 121.438 211.18 121.092 211.554 120.83C211.926 120.56 212.358 120.399 212.848 120.344C213.272 120.298 213.663 120.345 214.021 120.486C214.384 120.621 214.694 120.845 214.95 121.158L214.603 118.018L215.309 117.94ZM213.426 125.029C213.791 124.989 214.11 124.87 214.383 124.672C214.662 124.467 214.867 124.199 214.998 123.87C215.136 123.539 215.183 123.175 215.139 122.777C215.095 122.38 214.97 122.035 214.763 121.743C214.563 121.449 214.305 121.236 213.988 121.104C213.678 120.964 213.34 120.914 212.976 120.954C212.605 120.995 212.28 121.118 212 121.324C211.727 121.521 211.522 121.786 211.384 122.116C211.253 122.446 211.209 122.809 211.253 123.207C211.297 123.605 211.419 123.95 211.619 124.243C211.826 124.535 212.084 124.752 212.395 124.892C212.711 125.024 213.055 125.07 213.426 125.029ZM70.044 153.212C69.9246 153.346 69.7692 153.457 69.5778 153.545C69.3922 153.626 69.1934 153.678 68.9813 153.701C68.491 153.756 68.0987 153.665 67.8043 153.429C67.51 153.193 67.336 152.834 67.2826 152.35L66.9332 149.189L65.9989 149.292L65.933 148.696L66.8673 148.593L66.741 147.45L67.4467 147.372L67.573 148.515L69.1633 148.339L69.2293 148.935L67.6389 149.111L67.9839 152.232C68.0183 152.544 68.1209 152.774 68.2916 152.923C68.4682 153.064 68.7023 153.119 68.9938 153.086C69.1396 153.07 69.2762 153.032 69.4036 152.971C69.5376 152.909 69.6496 152.829 69.7395 152.732L70.044 153.212ZM73.3219 153.222C72.8183 153.277 72.3519 153.215 71.9228 153.034C71.493 152.847 71.1398 152.564 70.8632 152.186C70.5866 151.807 70.4201 151.363 70.3637 150.852C70.3073 150.342 70.3727 149.872 70.5599 149.442C70.7472 149.012 71.0305 148.663 71.4098 148.393C71.7891 148.123 72.2305 147.96 72.7341 147.904C73.2377 147.848 73.7041 147.911 74.1332 148.092C74.5623 148.272 74.9118 148.552 75.1818 148.931C75.4584 149.31 75.6249 149.754 75.6813 150.265C75.7377 150.775 75.6723 151.245 75.485 151.675C75.3044 152.104 75.0248 152.457 74.6462 152.733C74.2669 153.003 73.8255 153.166 73.3219 153.222ZM73.2527 152.596C73.6237 152.555 73.9459 152.435 74.2191 152.237C74.4983 152.032 74.7035 151.764 74.8347 151.435C74.9659 151.105 75.0096 150.741 74.9656 150.344C74.9217 149.946 74.7997 149.601 74.5996 149.308C74.3995 149.015 74.1412 148.802 73.8247 148.669C73.5141 148.529 73.1733 148.479 72.8022 148.52C72.4312 148.561 72.1061 148.684 71.8269 148.89C71.5537 149.088 71.3481 149.352 71.2102 149.682C71.079 150.012 71.0354 150.376 71.0793 150.773C71.1233 151.171 71.2453 151.516 71.4453 151.809C71.6521 152.102 71.9107 152.318 72.2213 152.458C72.5378 152.591 72.8816 152.637 73.2527 152.596ZM85.9504 146.443C86.6064 146.371 87.1408 146.503 87.5536 146.84C87.973 147.176 88.2234 147.711 88.3047 148.447L88.6398 151.478L87.9341 151.556L87.6067 148.594C87.5466 148.051 87.3683 147.652 87.0718 147.396C86.7819 147.14 86.3984 147.038 85.9213 147.09C85.3779 147.15 84.9692 147.367 84.6951 147.739C84.4203 148.105 84.3155 148.583 84.3807 149.172L84.6839 151.916L83.9782 151.994L83.6508 149.032C83.5907 148.488 83.4124 148.089 83.1159 147.833C82.826 147.577 82.4391 147.475 81.9554 147.529C81.4187 147.588 81.01 147.804 80.7293 148.177C80.4544 148.543 80.3496 149.021 80.4148 149.611L80.718 152.354L80.0123 152.432L79.4345 147.204L80.1103 147.129L80.2158 148.083C80.3662 147.745 80.5975 147.471 80.9098 147.262C81.2221 147.053 81.5936 146.925 82.0243 146.877C82.4616 146.829 82.8496 146.88 83.1881 147.03C83.5333 147.18 83.8056 147.428 84.0049 147.775C84.159 147.409 84.4043 147.111 84.7409 146.879C85.0834 146.64 85.4865 146.495 85.9504 146.443ZM94.8605 148.366L90.4872 148.849C90.587 149.388 90.8444 149.806 91.2595 150.102C91.6738 150.392 92.1692 150.505 92.7457 150.441C93.0704 150.405 93.3623 150.316 93.6215 150.173C93.88 150.024 94.0962 149.826 94.2701 149.578L94.7182 149.992C94.5171 150.296 94.249 150.54 93.9139 150.724C93.5854 150.908 93.2125 151.023 92.795 151.069C92.2583 151.129 91.7687 151.069 91.3264 150.89C90.8899 150.703 90.5334 150.421 90.2568 150.042C89.9802 149.663 89.8137 149.219 89.7573 148.709C89.7009 148.199 89.7597 147.729 89.9337 147.301C90.1143 146.872 90.3843 146.523 90.7437 146.256C91.1098 145.987 91.5347 145.826 92.0184 145.773C92.5021 145.719 92.9486 145.784 93.3578 145.967C93.7671 146.149 94.1033 146.431 94.3667 146.811C94.6293 147.184 94.7892 147.629 94.8463 148.146L94.8605 148.366ZM92.0854 146.379C91.5818 146.435 91.1757 146.644 90.867 147.007C90.5642 147.362 90.4182 147.801 90.4289 148.323L94.1364 147.913C94.0328 147.401 93.7912 147.005 93.4115 146.725C93.0377 146.438 92.5956 146.323 92.0854 146.379ZM98.6532 145.039C99.3092 144.967 99.8506 145.101 100.277 145.443C100.71 145.778 100.967 146.309 101.047 147.038L101.382 150.07L100.677 150.148L100.349 147.186C100.289 146.643 100.108 146.243 99.8044 145.989C99.5012 145.734 99.0979 145.634 98.5943 145.69C98.031 145.752 97.6024 145.97 97.3085 146.345C97.0204 146.712 96.9089 147.191 96.9741 147.78L97.2773 150.524L96.5716 150.602L95.9938 145.373L96.6697 145.299L96.7762 146.263C96.9332 145.924 97.1712 145.649 97.4901 145.439C97.8149 145.223 98.2026 145.089 98.6532 145.039ZM106.016 149.236C105.897 149.37 105.742 149.481 105.55 149.569C105.365 149.65 105.166 149.702 104.954 149.725C104.463 149.78 104.071 149.689 103.777 149.453C103.482 149.217 103.308 148.858 103.255 148.374L102.906 145.213L101.971 145.316L101.905 144.72L102.84 144.617L102.713 143.474L103.419 143.396L103.545 144.539L105.136 144.363L105.202 144.959L103.611 145.135L103.956 148.256C103.991 148.568 104.093 148.798 104.264 148.947C104.441 149.088 104.675 149.143 104.966 149.11C105.112 149.094 105.249 149.056 105.376 148.995C105.51 148.933 105.622 148.853 105.712 148.756L106.016 149.236ZM106.758 144.184L107.464 144.106L108.042 149.334L107.336 149.412L106.758 144.184ZM106.99 143.001C106.844 143.017 106.716 142.981 106.606 142.893C106.495 142.804 106.432 142.69 106.417 142.551C106.402 142.419 106.439 142.297 106.528 142.187C106.616 142.077 106.733 142.013 106.879 141.997C107.025 141.981 107.153 142.017 107.263 142.106C107.373 142.187 107.435 142.295 107.45 142.427C107.466 142.573 107.429 142.701 107.341 142.811C107.253 142.922 107.136 142.985 106.99 143.001ZM112.148 148.93C111.644 148.986 111.178 148.924 110.749 148.743C110.319 148.556 109.966 148.273 109.689 147.894C109.413 147.516 109.246 147.071 109.19 146.561C109.133 146.051 109.199 145.581 109.386 145.151C109.573 144.721 109.857 144.371 110.236 144.101C110.615 143.831 111.057 143.668 111.56 143.613C112.064 143.557 112.53 143.62 112.959 143.8C113.388 143.981 113.738 144.261 114.008 144.64C114.284 145.019 114.451 145.463 114.507 145.973C114.564 146.483 114.498 146.953 114.311 147.383C114.13 147.812 113.851 148.165 113.472 148.442C113.093 148.712 112.652 148.875 112.148 148.93ZM112.079 148.304C112.45 148.263 112.772 148.144 113.045 147.946C113.324 147.741 113.53 147.473 113.661 147.143C113.792 146.814 113.836 146.45 113.792 146.052C113.748 145.655 113.626 145.309 113.426 145.016C113.226 144.723 112.967 144.51 112.651 144.378C112.34 144.237 111.999 144.188 111.628 144.229C111.257 144.27 110.932 144.393 110.653 144.598C110.38 144.796 110.174 145.06 110.036 145.391C109.905 145.721 109.861 146.084 109.905 146.482C109.949 146.879 110.071 147.225 110.271 147.518C110.478 147.81 110.737 148.027 111.047 148.167C111.364 148.299 111.708 148.345 112.079 148.304ZM118.319 142.866C118.975 142.793 119.516 142.928 119.943 143.27C120.375 143.604 120.632 144.136 120.713 144.865L121.048 147.896L120.342 147.974L120.015 145.012C119.955 144.469 119.773 144.07 119.47 143.815C119.167 143.56 118.763 143.46 118.26 143.516C117.696 143.578 117.268 143.797 116.974 144.171C116.686 144.539 116.574 145.017 116.64 145.607L116.943 148.35L116.237 148.428L115.659 143.2L116.335 143.125L116.442 144.089C116.599 143.75 116.837 143.476 117.155 143.266C117.48 143.049 117.868 142.916 118.319 142.866ZM124.945 140.423L125.681 140.342L126.45 147.299L125.714 147.381L124.945 140.423ZM138.261 140.702L136.861 146.149L136.195 146.222L134.072 142.121L132.895 146.587L132.229 146.66L129.683 141.65L130.359 141.575L132.49 145.837L133.679 141.208L134.285 141.141L136.446 145.4L137.615 140.773L138.261 140.702ZM140.993 140.36C141.675 140.284 142.218 140.399 142.62 140.703C143.022 141.001 143.26 141.484 143.334 142.153L143.692 145.393L143.016 145.468L142.926 144.653C142.797 144.942 142.585 145.18 142.291 145.367C142.003 145.553 141.647 145.67 141.223 145.717C140.64 145.781 140.16 145.693 139.785 145.453C139.41 145.213 139.197 144.864 139.146 144.407C139.097 143.963 139.217 143.588 139.505 143.281C139.799 142.973 140.298 142.781 141 142.703L142.66 142.519L142.625 142.201C142.575 141.751 142.412 141.423 142.134 141.219C141.856 141.009 141.475 140.93 140.991 140.984C140.66 141.02 140.348 141.112 140.056 141.258C139.763 141.398 139.517 141.576 139.32 141.792L138.944 141.3C139.184 141.046 139.483 140.838 139.841 140.678C140.198 140.511 140.582 140.405 140.993 140.36ZM141.271 145.148C141.668 145.104 142 144.977 142.265 144.767C142.529 144.549 142.712 144.261 142.813 143.901L142.718 143.046L141.078 143.228C140.184 143.326 139.771 143.687 139.84 144.31C139.874 144.615 140.016 144.844 140.268 144.997C140.519 145.144 140.853 145.194 141.271 145.148ZM147.016 145.076C146.592 145.123 146.178 145.109 145.774 145.033C145.375 144.949 145.057 144.827 144.817 144.665L145.074 144.074C145.312 144.222 145.602 144.334 145.946 144.41C146.289 144.479 146.64 144.494 146.997 144.455C147.475 144.402 147.818 144.29 148.027 144.12C148.242 143.942 148.335 143.717 148.304 143.445C148.283 143.253 148.204 143.111 148.066 143.019C147.928 142.92 147.76 142.855 147.562 142.823C147.363 142.784 147.102 142.756 146.778 142.738C146.345 142.706 145.995 142.664 145.727 142.613C145.46 142.555 145.222 142.438 145.014 142.259C144.813 142.08 144.694 141.815 144.655 141.464C144.606 141.027 144.749 140.649 145.083 140.33C145.416 140.011 145.908 139.816 146.557 139.745C146.895 139.707 147.238 139.716 147.587 139.772C147.934 139.82 148.225 139.906 148.46 140.027L148.214 140.628C147.751 140.377 147.221 140.285 146.624 140.351C146.174 140.401 145.841 140.518 145.627 140.703C145.419 140.886 145.33 141.108 145.358 141.366C145.38 141.565 145.461 141.717 145.6 141.822C145.746 141.927 145.918 141.998 146.117 142.037C146.315 142.069 146.586 142.096 146.93 142.118C147.357 142.151 147.7 142.194 147.961 142.246C148.221 142.297 148.452 142.409 148.652 142.582C148.852 142.754 148.971 143.009 149.008 143.347C149.059 143.804 148.907 144.19 148.552 144.504C148.204 144.811 147.692 145.002 147.016 145.076ZM155.791 143.734C155.672 143.868 155.517 143.979 155.325 144.067C155.14 144.148 154.941 144.201 154.729 144.224C154.238 144.278 153.846 144.187 153.552 143.952C153.257 143.716 153.083 143.356 153.03 142.872L152.681 139.712L151.746 139.815L151.68 139.219L152.615 139.115L152.488 137.972L153.194 137.894L153.32 139.037L154.911 138.862L154.977 139.458L153.386 139.634L153.731 142.755C153.766 143.066 153.868 143.296 154.039 143.445C154.216 143.586 154.45 143.641 154.741 143.609C154.887 143.593 155.024 143.554 155.151 143.493C155.285 143.431 155.397 143.352 155.487 143.255L155.791 143.734ZM159.193 138.348C159.849 138.275 160.39 138.41 160.817 138.752C161.25 139.086 161.506 139.618 161.587 140.347L161.922 143.379L161.216 143.457L160.889 140.495C160.829 139.951 160.647 139.552 160.344 139.297C160.041 139.042 159.637 138.943 159.134 138.998C158.571 139.061 158.142 139.279 157.848 139.654C157.56 140.021 157.448 140.499 157.514 141.089L157.817 143.832L157.111 143.91L156.296 136.535L157.002 136.457L157.34 139.519C157.499 139.193 157.738 138.928 158.057 138.725C158.377 138.522 158.755 138.396 159.193 138.348ZM163.26 137.939L163.966 137.861L164.543 143.089L163.838 143.167L163.26 137.939ZM163.491 136.756C163.346 136.772 163.218 136.736 163.107 136.648C162.997 136.559 162.934 136.445 162.919 136.306C162.904 136.174 162.941 136.052 163.029 135.942C163.118 135.832 163.235 135.768 163.38 135.752C163.526 135.736 163.654 135.772 163.765 135.861C163.874 135.942 163.936 136.05 163.951 136.182C163.967 136.328 163.931 136.456 163.843 136.566C163.754 136.677 163.637 136.74 163.491 136.756ZM168.589 137.309C169.245 137.237 169.786 137.372 170.213 137.713C170.646 138.048 170.902 138.58 170.983 139.309L171.318 142.34L170.612 142.418L170.285 139.456C170.225 138.913 170.043 138.514 169.74 138.259C169.437 138.004 169.033 137.904 168.53 137.96C167.966 138.022 167.538 138.241 167.244 138.615C166.956 138.982 166.844 139.461 166.91 140.051L167.213 142.794L166.507 142.872L165.929 137.644L166.605 137.569L166.712 138.533C166.869 138.194 167.107 137.919 167.426 137.71C167.75 137.493 168.138 137.359 168.589 137.309ZM174.882 139.29L173.775 140.559L173.939 142.05L173.234 142.128L172.419 134.753L173.124 134.675L173.677 139.675L176.483 136.477L177.357 136.381L175.357 138.765L178.144 141.586L177.279 141.681L174.882 139.29ZM178.548 136.249L179.253 136.171L179.831 141.399L179.126 141.477L178.548 136.249ZM178.779 135.066C178.633 135.082 178.505 135.046 178.395 134.958C178.285 134.87 178.222 134.756 178.206 134.617C178.192 134.484 178.229 134.363 178.317 134.252C178.405 134.142 178.522 134.079 178.668 134.062C178.814 134.046 178.942 134.083 179.052 134.171C179.162 134.253 179.224 134.36 179.239 134.492C179.255 134.638 179.219 134.766 179.13 134.877C179.042 134.987 178.925 135.05 178.779 135.066ZM183.876 135.62C184.532 135.547 185.074 135.682 185.501 136.024C185.933 136.358 186.19 136.89 186.27 137.619L186.606 140.65L185.9 140.728L185.572 137.766C185.512 137.223 185.331 136.824 185.028 136.569C184.724 136.314 184.321 136.214 183.817 136.27C183.254 136.332 182.826 136.551 182.532 136.925C182.244 137.293 182.132 137.771 182.197 138.361L182.501 141.104L181.795 141.182L181.217 135.954L181.893 135.879L181.999 136.843C182.156 136.504 182.394 136.23 182.713 136.02C183.038 135.803 183.426 135.67 183.876 135.62ZM192.804 134.673L193.311 139.265C193.409 140.153 193.263 140.833 192.873 141.306C192.489 141.784 191.861 142.072 190.986 142.168C190.502 142.222 190.034 142.2 189.58 142.102C189.134 142.011 188.761 141.854 188.462 141.632L188.76 141.056C189.037 141.254 189.361 141.395 189.733 141.482C190.111 141.567 190.499 141.588 190.897 141.544C191.559 141.471 192.029 141.262 192.306 140.916C192.584 140.576 192.687 140.082 192.615 139.433L192.542 138.767C192.36 139.122 192.099 139.406 191.76 139.618C191.428 139.829 191.047 139.958 190.616 140.006C190.126 140.06 189.667 140.003 189.239 139.836C188.817 139.661 188.469 139.395 188.195 139.036C187.926 138.67 187.765 138.242 187.711 137.751C187.657 137.261 187.721 136.811 187.904 136.402C188.093 135.992 188.375 135.659 188.749 135.403C189.123 135.147 189.559 134.992 190.056 134.937C190.5 134.888 190.911 134.933 191.288 135.072C191.666 135.212 191.983 135.438 192.239 135.752L192.128 134.748L192.804 134.673ZM190.616 139.372C190.994 139.33 191.327 139.213 191.614 139.02C191.9 138.821 192.11 138.566 192.244 138.256C192.384 137.946 192.433 137.605 192.392 137.234C192.351 136.863 192.229 136.544 192.025 136.278C191.827 136.005 191.567 135.806 191.245 135.681C190.928 135.548 190.578 135.503 190.194 135.545C189.816 135.587 189.483 135.704 189.196 135.897C188.916 136.089 188.705 136.34 188.565 136.651C188.432 136.961 188.385 137.301 188.427 137.672C188.468 138.043 188.587 138.366 188.785 138.639C188.989 138.911 189.25 139.114 189.566 139.247C189.889 139.372 190.239 139.414 190.616 139.372ZM200.099 139.209C199.595 139.265 199.129 139.202 198.7 139.022C198.27 138.835 197.917 138.552 197.64 138.173C197.363 137.795 197.197 137.35 197.14 136.84C197.084 136.33 197.149 135.86 197.337 135.43C197.524 135 197.807 134.65 198.187 134.38C198.566 134.11 199.007 133.947 199.511 133.892C200.015 133.836 200.481 133.898 200.91 134.079C201.339 134.26 201.689 134.54 201.959 134.919C202.235 135.298 202.402 135.742 202.458 136.252C202.514 136.762 202.449 137.232 202.262 137.662C202.081 138.091 201.802 138.444 201.423 138.721C201.044 138.991 200.602 139.154 200.099 139.209ZM200.029 138.583C200.401 138.542 200.723 138.423 200.996 138.225C201.275 138.02 201.48 137.752 201.611 137.422C201.743 137.093 201.786 136.729 201.742 136.331C201.698 135.934 201.576 135.588 201.376 135.295C201.176 135.002 200.918 134.789 200.602 134.656C200.291 134.516 199.95 134.467 199.579 134.508C199.208 134.549 198.883 134.672 198.604 134.877C198.33 135.075 198.125 135.339 197.987 135.67C197.856 136 197.812 136.363 197.856 136.761C197.9 137.158 198.022 137.504 198.222 137.797C198.429 138.089 198.687 138.306 198.998 138.446C199.315 138.578 199.658 138.624 200.029 138.583ZM205.163 131.687C204.858 131.721 204.635 131.83 204.494 132.013C204.36 132.195 204.311 132.449 204.347 132.774L204.415 133.39L206.025 133.212L206.091 133.808L204.501 133.984L205.013 138.616L204.307 138.694L203.795 134.062L202.861 134.165L202.795 133.569L203.729 133.466L203.658 132.82C203.605 132.343 203.699 131.95 203.94 131.641C204.188 131.332 204.563 131.15 205.067 131.094C205.266 131.072 205.461 131.081 205.653 131.12C205.845 131.153 206.009 131.215 206.147 131.307L205.966 131.86C205.742 131.711 205.474 131.653 205.163 131.687ZM72.4596 160.048L70.4926 166.191C70.3347 166.705 70.128 167.08 69.8724 167.316C69.6168 167.552 69.2935 167.692 68.9026 167.735C68.6508 167.763 68.4112 167.749 68.1837 167.694C67.9562 167.638 67.7542 167.54 67.5776 167.399L67.8474 166.836C68.1417 167.071 68.4744 167.169 68.8455 167.128C69.0841 167.101 69.2788 167.013 69.4299 166.862C69.5875 166.71 69.7216 166.467 69.8322 166.133L70.0048 165.601L67.0923 160.641L67.8278 160.56L70.2869 164.785L71.7638 160.125L72.4596 160.048ZM76.0282 164.996C75.5246 165.051 75.0583 164.989 74.6292 164.808C74.1993 164.621 73.8461 164.338 73.5695 163.959C73.2929 163.581 73.1264 163.137 73.07 162.626C73.0136 162.116 73.079 161.646 73.2663 161.216C73.4535 160.786 73.7368 160.436 74.1161 160.166C74.4954 159.897 74.9369 159.734 75.4405 159.678C75.9441 159.622 76.4104 159.685 76.8395 159.865C77.2686 160.046 77.6182 160.326 77.8881 160.705C78.1647 161.084 78.3312 161.528 78.3876 162.039C78.444 162.549 78.3786 163.019 78.1914 163.449C78.0107 163.878 77.7311 164.231 77.3526 164.507C76.9733 164.777 76.5318 164.94 76.0282 164.996ZM75.959 164.369C76.3301 164.328 76.6522 164.209 76.9255 164.011C77.2046 163.806 77.4098 163.538 77.541 163.209C77.6723 162.879 77.7159 162.515 77.672 162.118C77.628 161.72 77.506 161.375 77.3059 161.082C77.1059 160.788 76.8476 160.576 76.5311 160.443C76.2205 160.303 75.8797 160.253 75.5086 160.294C75.1375 160.335 74.8124 160.458 74.5333 160.664C74.26 160.862 74.0545 161.126 73.9166 161.456C73.7854 161.786 73.7417 162.15 73.7857 162.547C73.8296 162.945 73.9516 163.29 74.1517 163.583C74.3584 163.876 74.617 164.092 74.9276 164.232C75.2441 164.365 75.5879 164.41 75.959 164.369ZM84.2508 158.744L84.8286 163.973L84.1527 164.047L84.0473 163.093C83.8969 163.432 83.6692 163.708 83.3643 163.923C83.0587 164.131 82.6971 164.259 82.2797 164.305C81.5972 164.38 81.0362 164.251 80.5969 163.917C80.1635 163.576 79.9061 163.038 79.8248 162.302L79.4898 159.271L80.1955 159.193L80.5228 162.155C80.5836 162.705 80.7656 163.107 81.0688 163.362C81.372 163.617 81.7753 163.717 82.2789 163.661C82.8289 163.6 83.2446 163.386 83.5261 163.02C83.8068 162.647 83.9142 162.162 83.8483 161.566L83.5451 158.822L84.2508 158.744ZM86.8802 163.796C86.7344 163.812 86.6026 163.773 86.4849 163.679C86.3738 163.584 86.3098 163.46 86.293 163.308C86.2761 163.155 86.3119 163.024 86.4003 162.914C86.4946 162.796 86.6146 162.729 86.7604 162.713C86.9062 162.697 87.038 162.736 87.1557 162.83C87.2727 162.918 87.3396 163.038 87.3565 163.19C87.3733 163.343 87.3346 163.478 87.2403 163.595C87.146 163.713 87.026 163.78 86.8802 163.796ZM96.5116 162.037L96.5819 162.674L91.6619 163.217L90.8928 156.26L95.6638 155.732L95.7341 156.369L91.6987 156.815L91.9722 159.29L95.5703 158.892L95.6395 159.518L92.0414 159.916L92.3271 162.5L96.5116 162.037ZM100.243 156.937C100.899 156.864 101.441 156.999 101.867 157.341C102.3 157.675 102.557 158.207 102.637 158.936L102.972 161.967L102.267 162.045L101.939 159.083C101.879 158.54 101.698 158.141 101.395 157.886C101.091 157.631 100.688 157.531 100.184 157.587C99.6211 157.649 99.1925 157.868 98.8985 158.242C98.6105 158.609 98.499 159.088 98.5642 159.678L98.8674 162.421L98.1617 162.499L97.5839 157.271L98.2598 157.196L98.3663 158.16C98.5233 157.821 98.7613 157.546 99.0802 157.337C99.405 157.12 99.7927 156.986 100.243 156.937ZM104.332 163.819C104.113 163.843 103.904 163.836 103.706 163.798C103.501 163.767 103.329 163.702 103.191 163.603L103.38 163.039C103.605 163.195 103.887 163.255 104.225 163.217C104.503 163.186 104.706 163.08 104.834 162.898C104.968 162.716 105.017 162.462 104.981 162.138L104.36 156.522L105.066 156.444L105.687 162.06C105.741 162.55 105.651 162.952 105.418 163.266C105.184 163.581 104.822 163.765 104.332 163.819ZM104.591 155.329C104.445 155.345 104.317 155.309 104.206 155.221C104.096 155.132 104.033 155.019 104.018 154.88C104.003 154.747 104.04 154.626 104.128 154.515C104.217 154.405 104.334 154.342 104.48 154.325C104.625 154.309 104.753 154.345 104.864 154.434C104.973 154.516 105.036 154.623 105.05 154.755C105.066 154.901 105.03 155.029 104.942 155.14C104.853 155.25 104.736 155.313 104.591 155.329ZM109.758 161.268C109.255 161.323 108.788 161.261 108.359 161.08C107.929 160.893 107.576 160.61 107.3 160.231C107.023 159.853 106.857 159.408 106.8 158.898C106.744 158.388 106.809 157.918 106.996 157.488C107.184 157.058 107.467 156.708 107.846 156.438C108.226 156.168 108.667 156.006 109.171 155.95C109.674 155.894 110.141 155.957 110.57 156.137C110.999 156.318 111.348 156.598 111.618 156.977C111.895 157.356 112.061 157.8 112.118 158.31C112.174 158.821 112.109 159.291 111.921 159.721C111.741 160.15 111.461 160.502 111.083 160.779C110.703 161.049 110.262 161.212 109.758 161.268ZM109.689 160.641C110.06 160.6 110.382 160.481 110.656 160.283C110.935 160.078 111.14 159.81 111.271 159.481C111.402 159.151 111.446 158.787 111.402 158.39C111.358 157.992 111.236 157.647 111.036 157.353C110.836 157.06 110.578 156.847 110.261 156.715C109.951 156.575 109.61 156.525 109.239 156.566C108.868 156.607 108.543 156.73 108.263 156.936C107.99 157.133 107.785 157.398 107.647 157.728C107.515 158.058 107.472 158.421 107.516 158.819C107.56 159.217 107.682 159.562 107.882 159.855C108.089 160.148 108.347 160.364 108.658 160.504C108.974 160.637 109.318 160.682 109.689 160.641ZM117.517 155.068L115.55 161.211C115.392 161.725 115.186 162.1 114.93 162.336C114.674 162.572 114.351 162.712 113.96 162.755C113.708 162.783 113.469 162.769 113.241 162.714C113.014 162.658 112.812 162.56 112.635 162.418L112.905 161.855C113.199 162.091 113.532 162.189 113.903 162.148C114.142 162.121 114.336 162.033 114.487 161.882C114.645 161.73 114.779 161.487 114.89 161.153L115.062 160.621L112.15 155.661L112.885 155.58L115.345 159.805L116.821 155.145L117.517 155.068ZM123.097 159.793C122.673 159.84 122.259 159.825 121.855 159.749C121.457 159.666 121.138 159.544 120.899 159.382L121.155 158.79C121.393 158.939 121.684 159.051 122.028 159.127C122.371 159.196 122.721 159.211 123.079 159.171C123.556 159.119 123.899 159.007 124.108 158.836C124.323 158.658 124.416 158.433 124.386 158.162C124.365 157.97 124.285 157.827 124.148 157.735C124.009 157.637 123.841 157.571 123.643 157.54C123.444 157.501 123.183 157.473 122.859 157.455C122.426 157.423 122.076 157.381 121.809 157.33C121.541 157.272 121.303 157.154 121.096 156.976C120.895 156.797 120.775 156.532 120.736 156.181C120.688 155.743 120.83 155.365 121.164 155.047C121.498 154.728 121.989 154.533 122.639 154.461C122.977 154.424 123.32 154.433 123.668 154.488C124.015 154.537 124.307 154.622 124.541 154.744L124.296 155.345C123.832 155.094 123.302 155.002 122.706 155.068C122.255 155.117 121.923 155.235 121.708 155.419C121.501 155.603 121.411 155.824 121.44 156.083C121.462 156.282 121.542 156.434 121.681 156.539C121.827 156.644 121.999 156.715 122.198 156.754C122.396 156.785 122.667 156.812 123.012 156.835C123.438 156.868 123.781 156.911 124.042 156.962C124.303 157.014 124.533 157.126 124.733 157.298C124.933 157.471 125.052 157.726 125.089 158.064C125.14 158.521 124.988 158.907 124.634 159.221C124.285 159.528 123.773 159.718 123.097 159.793ZM128.696 159.174C128.192 159.23 127.726 159.168 127.297 158.987C126.867 158.8 126.514 158.517 126.237 158.138C125.96 157.76 125.794 157.315 125.738 156.805C125.681 156.295 125.747 155.825 125.934 155.395C126.121 154.965 126.404 154.615 126.784 154.345C127.163 154.075 127.604 153.912 128.108 153.857C128.612 153.801 129.078 153.864 129.507 154.044C129.936 154.225 130.286 154.505 130.556 154.884C130.832 155.263 130.999 155.707 131.055 156.217C131.112 156.728 131.046 157.198 130.859 157.627C130.678 158.057 130.399 158.409 130.02 158.686C129.641 158.956 129.199 159.119 128.696 159.174ZM128.627 158.548C128.998 158.507 129.32 158.388 129.593 158.19C129.872 157.985 130.077 157.717 130.209 157.387C130.34 157.058 130.383 156.694 130.34 156.296C130.296 155.899 130.174 155.553 129.974 155.26C129.773 154.967 129.515 154.754 129.199 154.622C128.888 154.482 128.547 154.432 128.176 154.473C127.805 154.514 127.48 154.637 127.201 154.842C126.928 155.04 126.722 155.304 126.584 155.635C126.453 155.965 126.409 156.328 126.453 156.726C126.497 157.124 126.619 157.469 126.819 157.762C127.026 158.054 127.285 158.271 127.595 158.411C127.912 158.543 128.255 158.589 128.627 158.548ZM138.723 152.684C139.379 152.611 139.913 152.743 140.326 153.08C140.746 153.416 140.996 153.951 141.077 154.687L141.412 157.719L140.707 157.797L140.379 154.835C140.319 154.291 140.141 153.892 139.844 153.636C139.554 153.38 139.171 153.278 138.694 153.331C138.15 153.391 137.742 153.607 137.468 153.979C137.193 154.345 137.088 154.823 137.153 155.413L137.456 158.156L136.751 158.234L136.423 155.272C136.363 154.728 136.185 154.329 135.888 154.073C135.599 153.817 135.212 153.716 134.728 153.769C134.191 153.828 133.783 154.045 133.502 154.418C133.227 154.783 133.122 155.261 133.187 155.851L133.491 158.594L132.785 158.672L132.207 153.444L132.883 153.369L132.988 154.323C133.139 153.985 133.37 153.711 133.682 153.502C133.995 153.293 134.366 153.165 134.797 153.117C135.234 153.069 135.622 153.12 135.961 153.271C136.306 153.42 136.578 153.668 136.777 154.015C136.932 153.65 137.177 153.351 137.513 153.119C137.856 152.88 138.259 152.735 138.723 152.684ZM147.633 154.606L143.26 155.09C143.36 155.629 143.617 156.046 144.032 156.342C144.446 156.632 144.942 156.745 145.518 156.681C145.843 156.645 146.135 156.556 146.394 156.413C146.653 156.264 146.869 156.066 147.043 155.819L147.491 156.232C147.29 156.536 147.022 156.78 146.686 156.965C146.358 157.148 145.985 157.263 145.568 157.31C145.031 157.369 144.541 157.309 144.099 157.13C143.662 156.943 143.306 156.661 143.029 156.282C142.753 155.904 142.586 155.459 142.53 154.949C142.473 154.439 142.532 153.97 142.706 153.541C142.887 153.112 143.157 152.764 143.516 152.496C143.882 152.227 144.307 152.066 144.791 152.013C145.275 151.959 145.721 152.024 146.13 152.207C146.54 152.39 146.876 152.671 147.139 153.051C147.402 153.425 147.562 153.87 147.619 154.387L147.633 154.606ZM144.858 152.619C144.354 152.675 143.948 152.884 143.64 153.247C143.337 153.602 143.191 154.041 143.201 154.563L146.909 154.153C146.805 153.641 146.564 153.246 146.184 152.966C145.81 152.678 145.368 152.563 144.858 152.619ZM156.208 150.791L156.716 155.383C156.814 156.271 156.668 156.951 156.277 157.424C155.894 157.902 155.265 158.19 154.391 158.286C153.907 158.34 153.438 158.318 152.985 158.22C152.539 158.129 152.166 157.972 151.866 157.75L152.165 157.174C152.442 157.371 152.766 157.513 153.138 157.6C153.516 157.685 153.904 157.706 154.301 157.662C154.964 157.589 155.434 157.379 155.711 157.034C155.989 156.694 156.092 156.2 156.02 155.551L155.946 154.885C155.764 155.24 155.504 155.524 155.165 155.736C154.833 155.947 154.451 156.076 154.021 156.124C153.53 156.178 153.071 156.121 152.644 155.954C152.222 155.779 151.874 155.513 151.6 155.154C151.331 154.788 151.17 154.36 151.116 153.869C151.061 153.379 151.126 152.929 151.308 152.52C151.498 152.11 151.78 151.777 152.154 151.521C152.528 151.265 152.964 151.11 153.461 151.055C153.904 151.006 154.315 151.051 154.693 151.19C155.07 151.329 155.387 151.556 155.643 151.87L155.532 150.866L156.208 150.791ZM154.021 155.49C154.399 155.448 154.731 155.331 155.019 155.138C155.305 154.939 155.515 154.684 155.648 154.374C155.789 154.064 155.838 153.723 155.797 153.352C155.756 152.981 155.634 152.662 155.43 152.396C155.232 152.123 154.972 151.924 154.649 151.799C154.333 151.666 153.983 151.621 153.598 151.663C153.22 151.705 152.888 151.822 152.601 152.015C152.32 152.207 152.11 152.458 151.97 152.769C151.836 153.079 151.79 153.419 151.831 153.79C151.872 154.161 151.992 154.483 152.19 154.757C152.394 155.029 152.655 155.232 152.971 155.364C153.293 155.49 153.643 155.532 154.021 155.49ZM160.902 155.615C160.398 155.67 159.932 155.608 159.503 155.427C159.073 155.24 158.72 154.957 158.443 154.579C158.167 154.2 158 153.756 157.944 153.245C157.887 152.735 157.953 152.265 158.14 151.835C158.327 151.405 158.611 151.056 158.99 150.786C159.369 150.516 159.811 150.353 160.314 150.297C160.818 150.241 161.284 150.304 161.713 150.485C162.142 150.665 162.492 150.945 162.762 151.324C163.039 151.703 163.205 152.147 163.261 152.658C163.318 153.168 163.252 153.638 163.065 154.068C162.885 154.497 162.605 154.85 162.226 155.126C161.847 155.396 161.406 155.559 160.902 155.615ZM160.833 154.989C161.204 154.948 161.526 154.828 161.799 154.63C162.078 154.425 162.284 154.157 162.415 153.828C162.546 153.498 162.59 153.134 162.546 152.737C162.502 152.339 162.38 151.994 162.18 151.701C161.98 151.408 161.721 151.195 161.405 151.062C161.094 150.922 160.753 150.872 160.382 150.913C160.011 150.954 159.686 151.077 159.407 151.283C159.134 151.481 158.928 151.745 158.79 152.075C158.659 152.405 158.615 152.769 158.659 153.166C158.703 153.564 158.825 153.909 159.025 154.202C159.232 154.495 159.491 154.711 159.801 154.851C160.118 154.984 160.462 155.03 160.833 154.989ZM167.134 154.926C166.63 154.982 166.164 154.919 165.735 154.739C165.305 154.551 164.951 154.268 164.675 153.89C164.398 153.511 164.232 153.067 164.175 152.557C164.119 152.046 164.184 151.576 164.372 151.146C164.559 150.717 164.842 150.367 165.221 150.097C165.601 149.827 166.042 149.664 166.546 149.608C167.049 149.553 167.516 149.615 167.945 149.796C168.374 149.976 168.724 150.256 168.993 150.636C169.27 151.014 169.437 151.459 169.493 151.969C169.549 152.479 169.484 152.949 169.297 153.379C169.116 153.808 168.836 154.161 168.458 154.437C168.079 154.707 167.637 154.87 167.134 154.926ZM167.064 154.3C167.435 154.259 167.758 154.139 168.031 153.941C168.31 153.736 168.515 153.469 168.646 153.139C168.778 152.809 168.821 152.446 168.777 152.048C168.733 151.65 168.611 151.305 168.411 151.012C168.211 150.719 167.953 150.506 167.636 150.373C167.326 150.233 166.985 150.184 166.614 150.225C166.243 150.266 165.918 150.389 165.639 150.594C165.365 150.792 165.16 151.056 165.022 151.386C164.891 151.716 164.847 152.08 164.891 152.477C164.935 152.875 165.057 153.22 165.257 153.514C165.464 153.806 165.722 154.022 166.033 154.162C166.349 154.295 166.693 154.341 167.064 154.3ZM175.178 146.521L175.994 153.896L175.318 153.971L175.203 152.937C175.03 153.312 174.778 153.611 174.448 153.836C174.124 154.059 173.743 154.195 173.306 154.244C172.815 154.298 172.359 154.234 171.936 154.053C171.514 153.872 171.168 153.591 170.898 153.212C170.628 152.833 170.464 152.385 170.407 151.868C170.35 151.351 170.412 150.878 170.592 150.449C170.773 150.02 171.05 149.674 171.423 149.411C171.796 149.142 172.227 148.98 172.718 148.926C173.142 148.879 173.533 148.927 173.89 149.068C174.254 149.202 174.564 149.426 174.82 149.74L174.473 146.599L175.178 146.521ZM173.296 153.611C173.66 153.571 173.979 153.452 174.252 153.254C174.532 153.048 174.737 152.781 174.868 152.451C175.006 152.121 175.053 151.757 175.009 151.359C174.965 150.962 174.84 150.617 174.633 150.324C174.433 150.031 174.175 149.818 173.858 149.685C173.547 149.545 173.21 149.496 172.846 149.536C172.474 149.577 172.149 149.7 171.87 149.905C171.597 150.103 171.391 150.367 171.254 150.698C171.122 151.027 171.079 151.391 171.123 151.789C171.167 152.186 171.289 152.532 171.489 152.825C171.695 153.117 171.954 153.333 172.265 153.473C172.581 153.606 172.925 153.652 173.296 153.611ZM177.381 148.451L178.087 148.373L178.665 153.601L177.959 153.679L177.381 148.451ZM177.613 147.268C177.467 147.284 177.339 147.248 177.228 147.16C177.118 147.072 177.055 146.958 177.04 146.819C177.025 146.686 177.062 146.565 177.15 146.454C177.239 146.344 177.356 146.281 177.502 146.264C177.647 146.248 177.776 146.285 177.886 146.373C177.996 146.455 178.058 146.562 178.072 146.694C178.088 146.84 178.052 146.968 177.964 147.079C177.875 147.189 177.758 147.252 177.613 147.268ZM184.916 150.486L180.542 150.969C180.642 151.508 180.9 151.925 181.315 152.222C181.729 152.511 182.224 152.624 182.801 152.56C183.126 152.525 183.418 152.435 183.677 152.293C183.935 152.143 184.152 151.945 184.325 151.698L184.774 152.111C184.572 152.415 184.304 152.659 183.969 152.844C183.641 153.028 183.268 153.143 182.85 153.189C182.314 153.248 181.824 153.188 181.382 153.009C180.945 152.823 180.589 152.54 180.312 152.161C180.035 151.783 179.869 151.338 179.813 150.828C179.756 150.318 179.815 149.849 179.989 149.42C180.17 148.991 180.44 148.643 180.799 148.375C181.165 148.107 181.59 147.946 182.074 147.892C182.557 147.839 183.004 147.903 183.413 148.086C183.822 148.269 184.159 148.55 184.422 148.93C184.685 149.304 184.844 149.749 184.902 150.266L184.916 150.486ZM182.141 148.498C181.637 148.554 181.231 148.763 180.922 149.126C180.619 149.481 180.473 149.92 180.484 150.442L184.192 150.032C184.088 149.521 183.846 149.125 183.467 148.845C183.093 148.557 182.651 148.442 182.141 148.498ZM188.034 152.616C187.61 152.663 187.196 152.648 186.792 152.572C186.393 152.489 186.075 152.366 185.835 152.205L186.092 151.613C186.33 151.761 186.62 151.873 186.964 151.949C187.307 152.019 187.658 152.034 188.015 151.994C188.493 151.941 188.836 151.83 189.045 151.659C189.26 151.481 189.352 151.256 189.322 150.984C189.301 150.792 189.222 150.65 189.084 150.558C188.946 150.459 188.778 150.394 188.58 150.362C188.381 150.324 188.119 150.296 187.796 150.278C187.363 150.245 187.013 150.203 186.745 150.153C186.477 150.095 186.24 149.977 186.032 149.799C185.831 149.62 185.712 149.355 185.673 149.003C185.624 148.566 185.767 148.188 186.101 147.87C186.434 147.551 186.926 147.356 187.575 147.284C187.913 147.247 188.256 147.256 188.605 147.311C188.952 147.36 189.243 147.445 189.478 147.567L189.232 148.167C188.769 147.917 188.239 147.824 187.642 147.89C187.192 147.94 186.859 148.057 186.645 148.242C186.437 148.426 186.348 148.647 186.376 148.906C186.398 149.104 186.479 149.256 186.618 149.362C186.764 149.466 186.936 149.538 187.134 149.576C187.333 149.608 187.604 149.635 187.948 149.657C188.375 149.691 188.718 149.733 188.979 149.785C189.239 149.837 189.47 149.949 189.67 150.121C189.87 150.293 189.989 150.549 190.026 150.887C190.076 151.344 189.925 151.729 189.57 152.044C189.222 152.35 188.71 152.541 188.034 152.616ZM196.234 151.71C195.73 151.765 195.264 151.703 194.835 151.522C194.405 151.335 194.052 151.052 193.775 150.673C193.498 150.295 193.332 149.85 193.275 149.34C193.219 148.83 193.285 148.36 193.472 147.93C193.659 147.5 193.942 147.15 194.322 146.88C194.701 146.61 195.142 146.448 195.646 146.392C196.15 146.336 196.616 146.399 197.045 146.579C197.474 146.76 197.824 147.04 198.094 147.419C198.37 147.798 198.537 148.242 198.593 148.752C198.65 149.263 198.584 149.733 198.397 150.163C198.216 150.592 197.937 150.945 197.558 151.221C197.179 151.491 196.737 151.654 196.234 151.71ZM196.164 151.083C196.536 151.042 196.858 150.923 197.131 150.725C197.41 150.52 197.615 150.252 197.747 149.923C197.878 149.593 197.921 149.229 197.877 148.832C197.834 148.434 197.712 148.089 197.511 147.795C197.311 147.502 197.053 147.289 196.737 147.157C196.426 147.017 196.085 146.967 195.714 147.008C195.343 147.049 195.018 147.172 194.739 147.378C194.465 147.575 194.26 147.84 194.122 148.17C193.991 148.5 193.947 148.864 193.991 149.261C194.035 149.659 194.157 150.004 194.357 150.297C194.564 150.59 194.823 150.806 195.133 150.946C195.45 151.079 195.793 151.124 196.164 151.083ZM202.404 145.645C203.06 145.572 203.602 145.707 204.029 146.049C204.461 146.383 204.718 146.915 204.798 147.644L205.134 150.676L204.428 150.754L204.1 147.792C204.04 147.248 203.859 146.849 203.556 146.594C203.252 146.339 202.849 146.24 202.345 146.295C201.782 146.358 201.354 146.576 201.06 146.951C200.772 147.318 200.66 147.796 200.725 148.386L201.028 151.129L200.323 151.207L199.745 145.979L200.421 145.904L200.527 146.869C200.684 146.529 200.922 146.255 201.241 146.045C201.566 145.828 201.954 145.695 202.404 145.645ZM215.589 144.188C216.245 144.115 216.779 144.247 217.192 144.584C217.611 144.92 217.862 145.456 217.943 146.191L218.278 149.223L217.573 149.301L217.245 146.339C217.185 145.795 217.007 145.396 216.71 145.14C216.42 144.884 216.037 144.782 215.56 144.835C215.016 144.895 214.608 145.111 214.334 145.483C214.059 145.849 213.954 146.327 214.019 146.917L214.322 149.66L213.617 149.738L213.289 146.776C213.229 146.233 213.051 145.833 212.754 145.577C212.464 145.321 212.078 145.22 211.594 145.273C211.057 145.332 210.648 145.549 210.368 145.922C210.093 146.288 209.988 146.765 210.053 147.355L210.356 150.098L209.651 150.176L209.073 144.948L209.749 144.873L209.854 145.828C210.005 145.489 210.236 145.215 210.548 145.006C210.861 144.797 211.232 144.669 211.663 144.622C212.1 144.573 212.488 144.624 212.827 144.775C213.172 144.924 213.444 145.173 213.643 145.519C213.797 145.154 214.043 144.855 214.379 144.623C214.722 144.384 215.125 144.239 215.589 144.188ZM224.499 146.11L220.126 146.594C220.225 147.133 220.483 147.55 220.898 147.847C221.312 148.136 221.808 148.249 222.384 148.185C222.709 148.149 223.001 148.06 223.26 147.918C223.518 147.768 223.735 147.57 223.909 147.323L224.357 147.736C224.156 148.04 223.887 148.284 223.552 148.469C223.224 148.653 222.851 148.768 222.433 148.814C221.897 148.873 221.407 148.813 220.965 148.634C220.528 148.447 220.172 148.165 219.895 147.786C219.619 147.408 219.452 146.963 219.396 146.453C219.339 145.943 219.398 145.474 219.572 145.045C219.753 144.616 220.023 144.268 220.382 144C220.748 143.731 221.173 143.57 221.657 143.517C222.141 143.464 222.587 143.528 222.996 143.711C223.405 143.894 223.742 144.175 224.005 144.555C224.268 144.929 224.428 145.374 224.485 145.891L224.499 146.11ZM221.724 144.123C221.22 144.179 220.814 144.388 220.505 144.751C220.203 145.106 220.057 145.545 220.067 146.067L223.775 145.657C223.671 145.146 223.43 144.75 223.05 144.47C222.676 144.182 222.234 144.067 221.724 144.123ZM225.332 141.4L226.167 141.308L226.556 146.195L226.009 146.255L225.332 141.4ZM226.524 148.362C226.378 148.378 226.247 148.342 226.13 148.254C226.018 148.159 225.955 148.042 225.94 147.903C225.924 147.757 225.96 147.632 226.049 147.529C226.138 147.418 226.258 147.355 226.411 147.338C226.556 147.322 226.684 147.358 226.795 147.446C226.904 147.528 226.967 147.642 226.983 147.788C226.999 147.927 226.963 148.055 226.875 148.172C226.787 148.282 226.669 148.346 226.524 148.362Z" fill="black"/>
<path d="M224.168 45.3156L50.9729 64.4586L53.605 88.2728L226.8 69.1299L224.168 45.3156Z" fill="#E5E5E5"/>
<path d="M64.4939 69.9426L65.2629 76.9003L64.5373 76.9805L64.1825 73.77L59.829 74.2512L60.1838 77.4616L59.4483 77.5429L58.6793 70.5853L59.4148 70.504L59.7576 73.6051L64.1111 73.1239L63.7683 70.0228L64.4939 69.9426ZM71.6723 73.7672L67.2989 74.2505C67.3987 74.7895 67.6562 75.2071 68.0712 75.5033C68.4855 75.7929 68.9809 75.9058 69.5574 75.8421C69.8821 75.8062 70.1741 75.7169 70.4333 75.5742C70.6918 75.4249 70.908 75.2266 71.0819 74.9794L71.53 75.3926C71.3288 75.6966 71.0607 75.9408 70.7256 76.1254C70.3972 76.3093 70.0242 76.4243 69.6068 76.4704C69.07 76.5298 68.5805 76.4699 68.1381 76.2907C67.7016 76.1042 67.3451 75.8216 67.0685 75.4431C66.7919 75.0645 66.6254 74.6201 66.569 74.1099C66.5126 73.5996 66.5714 73.1303 66.7454 72.702C66.926 72.2729 67.1961 71.9244 67.5555 71.6567C67.9215 71.3881 68.3464 71.2272 68.8302 71.1737C69.3139 71.1202 69.7603 71.1849 70.1696 71.3677C70.5788 71.5505 70.9151 71.832 71.1784 72.212C71.441 72.5854 71.6009 73.0305 71.658 73.5474L71.6723 73.7672ZM68.8972 71.78C68.3936 71.8357 67.9874 72.0449 67.6787 72.4077C67.376 72.7631 67.2299 73.2018 67.2407 73.7238L70.9481 73.314C70.8446 72.8023 70.603 72.4064 70.2233 72.1264C69.8494 71.8391 69.4074 71.7236 68.8972 71.78ZM77.1017 70.2997L75.1347 76.443C74.9768 76.9568 74.7701 77.3317 74.5145 77.5679C74.2589 77.8041 73.9356 77.9438 73.5447 77.987C73.2929 78.0148 73.0533 78.0011 72.8258 77.9457C72.5984 77.8904 72.3963 77.792 72.2197 77.6505L72.4895 77.0875C72.7838 77.3232 73.1165 77.4206 73.4876 77.3796C73.7262 77.3532 73.9209 77.2646 74.072 77.1138C74.2296 76.9622 74.3637 76.7194 74.4743 76.3852L74.6469 75.853L71.7344 70.8929L72.4699 70.8116L74.929 75.0371L76.4059 70.3766L77.1017 70.2997ZM87.8809 67.3577L88.6499 74.3153L87.9442 74.3933L87.329 68.8272L85.113 73.8108L84.7652 73.8493L81.5177 69.4997L82.1296 75.036L81.4239 75.114L80.6549 68.1564L81.2612 68.0894L84.8529 72.914L87.2745 67.4247L87.8809 67.3577ZM90.1899 68.8531L90.8956 68.7751L91.4735 74.0032L90.7678 74.0812L90.1899 68.8531ZM90.4214 67.6705C90.2756 67.6866 90.1475 67.6505 90.0371 67.5621C89.9268 67.4736 89.8639 67.3599 89.8485 67.2207C89.8338 67.0882 89.8707 66.9667 89.9591 66.8564C90.0475 66.746 90.1646 66.6827 90.3104 66.6666C90.4562 66.6505 90.5843 66.6866 90.6947 66.7751C90.8043 66.8568 90.8665 66.964 90.8811 67.0965C90.8972 67.2423 90.8611 67.3704 90.7727 67.4808C90.6842 67.5911 90.5672 67.6544 90.4214 67.6705ZM95.6093 73.5964C95.0925 73.6535 94.6162 73.5922 94.1805 73.4123C93.7514 73.2317 93.3985 72.9521 93.1219 72.5735C92.8446 72.1883 92.6777 71.7406 92.6213 71.2304C92.5649 70.7201 92.6304 70.2501 92.8176 69.8203C93.0048 69.3904 93.2881 69.0405 93.6674 68.7705C94.0533 68.4998 94.5047 68.3359 95.0216 68.2788C95.4722 68.229 95.883 68.2741 96.2539 68.4142C96.6308 68.547 96.9406 68.771 97.1834 69.0862L96.6961 69.5022C96.4953 69.2629 96.2554 69.0949 95.9764 68.9983C95.6967 68.895 95.4011 68.8606 95.0897 68.8951C94.712 68.9368 94.3803 69.0607 94.0945 69.2666C93.8146 69.4652 93.6058 69.7298 93.4679 70.0603C93.3367 70.39 93.293 70.7537 93.337 71.1513C93.3816 71.5555 93.504 71.9041 93.7041 72.1973C93.9101 72.483 94.1717 72.6956 94.4889 72.8349C94.812 72.9669 95.1624 73.012 95.5401 72.9702C95.8516 72.9358 96.1329 72.841 96.384 72.6858C96.6351 72.5306 96.8326 72.3143 96.9763 72.0368L97.5426 72.3364C97.3746 72.6971 97.1215 72.9866 96.7835 73.2051C96.4447 73.4169 96.0533 73.5474 95.6093 73.5964ZM101.042 67.6134C101.698 67.5409 102.239 67.6756 102.666 68.0174C103.098 68.3519 103.355 68.8836 103.436 69.6125L103.771 72.6441L103.065 72.7221L102.738 69.7601C102.678 69.2167 102.496 68.8176 102.193 68.5627C101.89 68.3078 101.486 68.2082 100.983 68.2638C100.419 68.3261 99.9908 68.5445 99.6969 68.9191C99.4088 69.2863 99.2974 69.7647 99.3625 70.3545L99.6658 73.0978L98.96 73.1758L98.1449 65.8007L98.8506 65.7227L99.189 68.784C99.3474 68.458 99.5865 68.1935 99.9061 67.9904C100.226 67.7874 100.604 67.6618 101.042 67.6134ZM106.933 66.9622C107.616 66.8868 108.158 67.0012 108.561 67.3055C108.963 67.6032 109.201 68.0866 109.274 68.7559L109.633 71.9961L108.957 72.0709L108.867 71.2558C108.738 71.5451 108.526 71.7831 108.231 71.9699C107.943 72.156 107.587 72.2725 107.163 72.3194C106.58 72.3838 106.101 72.296 105.726 72.0557C105.35 71.8155 105.137 71.4668 105.087 71.0096C105.038 70.5656 105.157 70.1902 105.445 69.8834C105.74 69.5758 106.238 69.3832 106.941 69.3056L108.601 69.1221L108.565 68.8041C108.516 68.3535 108.352 68.0261 108.075 67.822C107.796 67.6113 107.416 67.5327 106.932 67.5862C106.6 67.6228 106.289 67.7143 105.996 67.8606C105.703 68.0003 105.458 68.1783 105.261 68.3947L104.884 67.903C105.124 67.6484 105.423 67.441 105.781 67.2807C106.138 67.1138 106.522 67.0076 106.933 66.9622ZM107.211 71.7507C107.609 71.7068 107.94 71.5796 108.205 71.3692C108.47 71.1521 108.652 70.8637 108.753 70.5037L108.659 69.6489L107.019 69.8302C106.124 69.9291 105.711 70.2899 105.78 70.9128C105.814 71.2176 105.957 71.4467 106.208 71.5999C106.459 71.7466 106.794 71.7968 107.211 71.7507ZM115.856 68.8836L111.483 69.367C111.583 69.9059 111.84 70.3235 112.255 70.6197C112.67 70.9093 113.165 71.0222 113.741 70.9585C114.066 70.9226 114.358 70.8333 114.617 70.6906C114.876 70.5413 115.092 70.343 115.266 70.0958L115.714 70.509C115.513 70.813 115.245 71.0573 114.91 71.2419C114.581 71.4257 114.208 71.5407 113.791 71.5869C113.254 71.6462 112.765 71.5863 112.322 71.4071C111.886 71.2206 111.529 70.9381 111.253 70.5595C110.976 70.1809 110.809 69.7365 110.753 69.2263C110.697 68.7161 110.755 68.2468 110.929 67.8184C111.11 67.3893 111.38 67.0408 111.74 66.7731C112.106 66.5046 112.53 66.3436 113.014 66.2901C113.498 66.2366 113.944 66.3013 114.354 66.4841C114.763 66.667 115.099 66.9484 115.362 67.3284C115.625 67.7018 115.785 68.147 115.842 68.6638L115.856 68.8836ZM113.081 66.8964C112.578 66.9521 112.171 67.1613 111.863 67.5241C111.56 67.8795 111.414 68.3182 111.425 68.8402L115.132 68.4304C115.029 67.9187 114.787 67.5228 114.407 67.2428C114.033 66.9555 113.591 66.84 113.081 66.8964ZM116.752 63.744L117.458 63.666L118.273 71.0411L117.567 71.1191L116.752 63.744ZM120.202 69.7816C120.354 69.7648 120.486 69.8039 120.597 69.8989C120.708 69.9873 120.771 70.1077 120.788 70.2601C120.797 70.3396 120.793 70.4272 120.777 70.5229C120.767 70.6179 120.746 70.7276 120.713 70.852L120.447 72.2698L119.97 72.3225L120.148 70.8439C120.039 70.8225 119.946 70.7724 119.87 70.6936C119.794 70.6081 119.748 70.5025 119.735 70.3766C119.718 70.2242 119.753 70.0928 119.842 69.9824C119.93 69.8654 120.05 69.7984 120.202 69.7816Z" fill="black"/>
</g>
<defs>
<filter id="filter0_b" x="-4" y="-4" width="306.357" height="317.911" filterUnits="userSpaceOnUse" color-interpolation-filters="sRGB">
<feFlood flood-opacity="0" result="BackgroundImageFix"/>
<feGaussianBlur in="BackgroundImage" stdDeviation="2"/>
<feComposite in2="SourceAlpha" operator="in" result="effect1_backgroundBlur"/>
<feBlend mode="normal" in="SourceGraphic" in2="effect1_backgroundBlur" result="shape"/>
</filter>
<linearGradient id="paint0_linear" x1="164.67" y1="295.135" x2="133.683" y2="14.7762" gradientUnits="userSpaceOnUse">
<stop stop-color="#808080" stop-opacity="0.25"/>
<stop offset="0.54" stop-color="#808080" stop-opacity="0.12"/>
<stop offset="1" stop-color="#808080" stop-opacity="0.1"/>
</linearGradient>
</defs>
</svg>
