<svg width="264" height="212" viewBox="0 0 264 212" fill="none" xmlns="http://www.w3.org/2000/svg">
<path d="M260 78.3643L247.722 108.209L203.324 108.555L188.86 108.669L154.537 108.937L140.079 109.051L105.755 109.32L91.2978 109.433L56.9742 109.708L42.5166 109.821L19.3477 110L14.8662 101.082L9.05246 89.5323L5.84173 83.1395L4 78.3643L15.0197 44.4306C16.097 41.115 18.2329 38.2195 21.1174 36.1641C24.0019 34.1087 27.4849 33.0004 31.0611 33H231.551C235.024 33.0019 238.411 34.0481 241.247 35.9951C244.084 37.9422 246.232 40.6948 247.396 43.8755L248.673 47.3733L260 78.3643Z" fill="#95E0FD"/>
<path d="M260 78H4L4 141H260V78Z" fill="#95E0FD"/>
<path opacity="0.1" d="M261 78H4L4 141H261V78Z" fill="black"/>
<path d="M227 0H36V202H227V0Z" fill="#F2F2F2"/>
<path d="M215 43H47V58H215V43Z" fill="#E6E6E6"/>
<path d="M132 15H76V29H132V15Z" fill="#E6E6E6"/>
<path d="M213 66H46V81H213V66Z" fill="#E6E6E6"/>
<path d="M214 86H46V101H214V86Z" fill="#E6E6E6"/>
<path d="M56.23 26.4601C54.2067 26.4601 52.2289 25.8601 50.5465 24.736C48.8642 23.6119 47.553 22.0142 46.7787 20.1449C46.0044 18.2756 45.8018 16.2187 46.1966 14.2343C46.5913 12.2498 47.5656 10.427 48.9963 8.99631C50.427 7.56562 52.2498 6.5913 54.2343 6.19657C56.2187 5.80184 58.2756 6.00443 60.1449 6.77872C62.0142 7.55301 63.6119 8.86422 64.736 10.5465C65.8601 12.2289 66.4601 14.2067 66.4601 16.23C66.457 18.9423 65.3783 21.5426 63.4604 23.4604C61.5426 25.3782 58.9423 26.457 56.23 26.4601V26.4601ZM56.23 7.20352C54.4448 7.20352 52.6996 7.73292 51.2152 8.72477C49.7308 9.71661 48.5738 11.1264 47.8906 12.7757C47.2074 14.4251 47.0287 16.24 47.377 17.991C47.7253 19.742 48.585 21.3504 49.8473 22.6127C51.1097 23.8751 52.7181 24.7348 54.4691 25.0831C56.22 25.4314 58.0349 25.2526 59.6843 24.5694C61.3337 23.8862 62.7435 22.7293 63.7353 21.2449C64.7271 19.7605 65.2565 18.0153 65.2565 16.23C65.2538 13.8369 64.302 11.5425 62.6097 9.85031C60.9175 8.1581 58.6232 7.20622 56.23 7.20352V7.20352Z" fill="#95E0FD"/>
<g filter="url(#filter0_d)">
<path d="M260 204H4L4 78L37.1512 103.321L228.076 102.115L260 78V204Z" fill="#95E0FD"/>
</g>
<path d="M84.893 20.1V25H84.382V22.739H81.316V25H80.798V20.1H81.316V22.284H84.382V20.1H84.893ZM89.3833 23.313H86.3033C86.3313 23.6957 86.4783 24.006 86.7443 24.244C87.0103 24.4773 87.3463 24.594 87.7523 24.594C87.981 24.594 88.191 24.5543 88.3823 24.475C88.5737 24.391 88.7393 24.2697 88.8793 24.111L89.1593 24.433C88.996 24.629 88.7907 24.7783 88.5433 24.881C88.3007 24.9837 88.0323 25.035 87.7383 25.035C87.3603 25.035 87.0243 24.9557 86.7303 24.797C86.441 24.6337 86.2147 24.4097 86.0513 24.125C85.888 23.8403 85.8063 23.5183 85.8063 23.159C85.8063 22.7997 85.8833 22.4777 86.0373 22.193C86.196 21.9083 86.4107 21.6867 86.6813 21.528C86.9567 21.3693 87.2647 21.29 87.6053 21.29C87.946 21.29 88.2517 21.3693 88.5223 21.528C88.793 21.6867 89.0053 21.9083 89.1593 22.193C89.3133 22.473 89.3903 22.795 89.3903 23.159L89.3833 23.313ZM87.6053 21.717C87.2507 21.717 86.952 21.8313 86.7093 22.06C86.4713 22.284 86.336 22.578 86.3033 22.942H88.9143C88.8817 22.578 88.744 22.284 88.5013 22.06C88.2633 21.8313 87.9647 21.717 87.6053 21.717ZM93.2176 21.318L91.3766 25.441C91.2273 25.7863 91.0546 26.0313 90.8586 26.176C90.6626 26.3207 90.4269 26.393 90.1516 26.393C89.9743 26.393 89.8086 26.365 89.6546 26.309C89.5006 26.253 89.3676 26.169 89.2556 26.057L89.4866 25.686C89.6733 25.8727 89.8973 25.966 90.1586 25.966C90.3266 25.966 90.4689 25.9193 90.5856 25.826C90.7069 25.7327 90.8189 25.574 90.9216 25.35L91.0826 24.993L89.4376 21.318H89.9556L91.3416 24.447L92.7276 21.318H93.2176ZM100.524 20.1V25H100.027V21.08L98.1016 24.377H97.8566L95.9316 21.101V25H95.4346V20.1H95.8616L97.9896 23.733L100.097 20.1H100.524ZM101.805 21.318H102.302V25H101.805V21.318ZM102.057 20.513C101.954 20.513 101.868 20.478 101.798 20.408C101.728 20.338 101.693 20.254 101.693 20.156C101.693 20.0627 101.728 19.981 101.798 19.911C101.868 19.841 101.954 19.806 102.057 19.806C102.16 19.806 102.246 19.841 102.316 19.911C102.386 19.9763 102.421 20.0557 102.421 20.149C102.421 20.2517 102.386 20.338 102.316 20.408C102.246 20.478 102.16 20.513 102.057 20.513ZM105.001 25.035C104.637 25.035 104.31 24.9557 104.021 24.797C103.736 24.6383 103.512 24.4167 103.349 24.132C103.186 23.8427 103.104 23.5183 103.104 23.159C103.104 22.7997 103.186 22.4777 103.349 22.193C103.512 21.9083 103.736 21.6867 104.021 21.528C104.31 21.3693 104.637 21.29 105.001 21.29C105.318 21.29 105.601 21.353 105.848 21.479C106.1 21.6003 106.298 21.78 106.443 22.018L106.072 22.27C105.951 22.088 105.797 21.9527 105.61 21.864C105.423 21.7707 105.22 21.724 105.001 21.724C104.735 21.724 104.495 21.7847 104.28 21.906C104.07 22.0227 103.904 22.1907 103.783 22.41C103.666 22.6293 103.608 22.879 103.608 23.159C103.608 23.4437 103.666 23.6957 103.783 23.915C103.904 24.1297 104.07 24.2977 104.28 24.419C104.495 24.5357 104.735 24.594 105.001 24.594C105.22 24.594 105.423 24.5497 105.61 24.461C105.797 24.3723 105.951 24.237 106.072 24.055L106.443 24.307C106.298 24.545 106.1 24.727 105.848 24.853C105.596 24.9743 105.314 25.035 105.001 25.035ZM109.031 21.29C109.493 21.29 109.859 21.4253 110.13 21.696C110.405 21.962 110.543 22.3517 110.543 22.865V25H110.046V22.914C110.046 22.5313 109.95 22.2397 109.759 22.039C109.567 21.8383 109.294 21.738 108.94 21.738C108.543 21.738 108.228 21.857 107.995 22.095C107.766 22.3283 107.652 22.6527 107.652 23.068V25H107.155V19.806H107.652V21.962C107.787 21.7473 107.974 21.5817 108.212 21.465C108.45 21.3483 108.723 21.29 109.031 21.29ZM112.97 21.29C113.451 21.29 113.819 21.4113 114.076 21.654C114.333 21.892 114.461 22.2467 114.461 22.718V25H113.985V24.426C113.873 24.6173 113.707 24.7667 113.488 24.874C113.273 24.9813 113.017 25.035 112.718 25.035C112.307 25.035 111.981 24.937 111.738 24.741C111.495 24.545 111.374 24.286 111.374 23.964C111.374 23.6513 111.486 23.3993 111.71 23.208C111.939 23.0167 112.3 22.921 112.795 22.921H113.964V22.697C113.964 22.3797 113.875 22.1393 113.698 21.976C113.521 21.808 113.262 21.724 112.921 21.724C112.688 21.724 112.464 21.7637 112.249 21.843C112.034 21.9177 111.85 22.0227 111.696 22.158L111.472 21.787C111.659 21.6283 111.883 21.507 112.144 21.423C112.405 21.3343 112.681 21.29 112.97 21.29ZM112.795 24.643C113.075 24.643 113.315 24.58 113.516 24.454C113.717 24.3233 113.866 24.1367 113.964 23.894V23.292H112.809C112.179 23.292 111.864 23.5113 111.864 23.95C111.864 24.1647 111.946 24.335 112.109 24.461C112.272 24.5823 112.501 24.643 112.795 24.643ZM118.821 23.313H115.741C115.769 23.6957 115.916 24.006 116.182 24.244C116.448 24.4773 116.784 24.594 117.19 24.594C117.418 24.594 117.628 24.5543 117.82 24.475C118.011 24.391 118.177 24.2697 118.317 24.111L118.597 24.433C118.433 24.629 118.228 24.7783 117.981 24.881C117.738 24.9837 117.47 25.035 117.176 25.035C116.798 25.035 116.462 24.9557 116.168 24.797C115.878 24.6337 115.652 24.4097 115.489 24.125C115.325 23.8403 115.244 23.5183 115.244 23.159C115.244 22.7997 115.321 22.4777 115.475 22.193C115.633 21.9083 115.848 21.6867 116.119 21.528C116.394 21.3693 116.702 21.29 117.043 21.29C117.383 21.29 117.689 21.3693 117.96 21.528C118.23 21.6867 118.443 21.9083 118.597 22.193C118.751 22.473 118.828 22.795 118.828 23.159L118.821 23.313ZM117.043 21.717C116.688 21.717 116.389 21.8313 116.147 22.06C115.909 22.284 115.773 22.578 115.741 22.942H118.352C118.319 22.578 118.181 22.284 117.939 22.06C117.701 21.8313 117.402 21.717 117.043 21.717ZM119.629 19.806H120.126V25H119.629V19.806ZM121.222 20.1H121.81L121.705 23.53H121.32L121.222 20.1ZM121.516 25.035C121.413 25.035 121.325 25 121.25 24.93C121.18 24.8553 121.145 24.769 121.145 24.671C121.145 24.5683 121.18 24.4843 121.25 24.419C121.32 24.349 121.409 24.314 121.516 24.314C121.619 24.314 121.705 24.349 121.775 24.419C121.845 24.4843 121.88 24.5683 121.88 24.671C121.88 24.769 121.845 24.8553 121.775 24.93C121.705 25 121.619 25.035 121.516 25.035Z" fill="black"/>
<path d="M53.885 50.473C54.207 50.543 54.4543 50.683 54.627 50.893C54.8043 51.0983 54.893 51.3643 54.893 51.691C54.893 52.111 54.7367 52.4353 54.424 52.664C54.116 52.888 53.6587 53 53.052 53H50.798V48.1H52.912C53.458 48.1 53.8803 48.2097 54.179 48.429C54.4823 48.6483 54.634 48.9587 54.634 49.36C54.634 49.6307 54.5663 49.8617 54.431 50.053C54.3003 50.2397 54.1183 50.3797 53.885 50.473ZM51.316 48.527V50.305H52.877C53.2737 50.305 53.5793 50.2303 53.794 50.081C54.0087 49.927 54.116 49.7053 54.116 49.416C54.116 49.1267 54.0087 48.9073 53.794 48.758C53.5793 48.604 53.2737 48.527 52.877 48.527H51.316ZM53.045 52.573C53.4837 52.573 53.815 52.4983 54.039 52.349C54.263 52.1997 54.375 51.9663 54.375 51.649C54.375 51.0377 53.9317 50.732 53.045 50.732H51.316V52.573H53.045ZM58.9663 51.313H55.8863C55.9143 51.6957 56.0613 52.006 56.3273 52.244C56.5933 52.4773 56.9293 52.594 57.3353 52.594C57.564 52.594 57.774 52.5543 57.9653 52.475C58.1567 52.391 58.3223 52.2697 58.4623 52.111L58.7423 52.433C58.579 52.629 58.3737 52.7783 58.1263 52.881C57.8837 52.9837 57.6153 53.035 57.3213 53.035C56.9433 53.035 56.6073 52.9557 56.3133 52.797C56.024 52.6337 55.7977 52.4097 55.6343 52.125C55.471 51.8403 55.3893 51.5183 55.3893 51.159C55.3893 50.7997 55.4663 50.4777 55.6203 50.193C55.779 49.9083 55.9937 49.6867 56.2643 49.528C56.5397 49.3693 56.8477 49.29 57.1883 49.29C57.529 49.29 57.8347 49.3693 58.1053 49.528C58.376 49.6867 58.5883 49.9083 58.7423 50.193C58.8963 50.473 58.9733 50.795 58.9733 51.159L58.9663 51.313ZM57.1883 49.717C56.8337 49.717 56.535 49.8313 56.2923 50.06C56.0543 50.284 55.919 50.578 55.8863 50.942H58.4973C58.4647 50.578 58.327 50.284 58.0843 50.06C57.8463 49.8313 57.5477 49.717 57.1883 49.717ZM62.981 51.313H59.901C59.929 51.6957 60.076 52.006 60.342 52.244C60.608 52.4773 60.944 52.594 61.35 52.594C61.5786 52.594 61.7886 52.5543 61.98 52.475C62.1713 52.391 62.337 52.2697 62.477 52.111L62.757 52.433C62.5936 52.629 62.3883 52.7783 62.141 52.881C61.8983 52.9837 61.63 53.035 61.336 53.035C60.958 53.035 60.622 52.9557 60.328 52.797C60.0386 52.6337 59.8123 52.4097 59.649 52.125C59.4856 51.8403 59.404 51.5183 59.404 51.159C59.404 50.7997 59.481 50.4777 59.635 50.193C59.7936 49.9083 60.0083 49.6867 60.279 49.528C60.5543 49.3693 60.8623 49.29 61.203 49.29C61.5436 49.29 61.8493 49.3693 62.12 49.528C62.3906 49.6867 62.603 49.9083 62.757 50.193C62.911 50.473 62.988 50.795 62.988 51.159L62.981 51.313ZM61.203 49.717C60.8483 49.717 60.5496 49.8313 60.307 50.06C60.069 50.284 59.9336 50.578 59.901 50.942H62.512C62.4793 50.578 62.3416 50.284 62.099 50.06C61.861 49.8313 61.5623 49.717 61.203 49.717ZM65.6656 49.29C66.1276 49.29 66.4939 49.4253 66.7646 49.696C67.0399 49.962 67.1776 50.3517 67.1776 50.865V53H66.6806V50.914C66.6806 50.5313 66.5849 50.2397 66.3936 50.039C66.2022 49.8383 65.9292 49.738 65.5746 49.738C65.1779 49.738 64.8629 49.857 64.6296 50.095C64.4009 50.3283 64.2866 50.6527 64.2866 51.068V53H63.7896V49.318H64.2656V49.997C64.4009 49.773 64.5876 49.6003 64.8256 49.479C65.0682 49.353 65.3482 49.29 65.6656 49.29ZM71.8149 49.29C72.2769 49.29 72.6432 49.4253 72.9139 49.696C73.1892 49.962 73.3269 50.3517 73.3269 50.865V53H72.8299V50.914C72.8299 50.5313 72.7342 50.2397 72.5429 50.039C72.3516 49.8383 72.0786 49.738 71.7239 49.738C71.3272 49.738 71.0122 49.857 70.7789 50.095C70.5502 50.3283 70.4359 50.6527 70.4359 51.068V53H69.9389V47.806H70.4359V49.962C70.5712 49.7473 70.7579 49.5817 70.9959 49.465C71.2339 49.3483 71.5069 49.29 71.8149 49.29ZM75.7542 49.29C76.2349 49.29 76.6035 49.4113 76.8602 49.654C77.1169 49.892 77.2452 50.2467 77.2452 50.718V53H76.7692V52.426C76.6572 52.6173 76.4915 52.7667 76.2722 52.874C76.0575 52.9813 75.8009 53.035 75.5022 53.035C75.0915 53.035 74.7649 52.937 74.5222 52.741C74.2795 52.545 74.1582 52.286 74.1582 51.964C74.1582 51.6513 74.2702 51.3993 74.4942 51.208C74.7229 51.0167 75.0845 50.921 75.5792 50.921H76.7482V50.697C76.7482 50.3797 76.6595 50.1393 76.4822 49.976C76.3049 49.808 76.0459 49.724 75.7052 49.724C75.4719 49.724 75.2479 49.7637 75.0332 49.843C74.8185 49.9177 74.6342 50.0227 74.4802 50.158L74.2562 49.787C74.4429 49.6283 74.6669 49.507 74.9282 49.423C75.1895 49.3343 75.4649 49.29 75.7542 49.29ZM75.5792 52.643C75.8592 52.643 76.0995 52.58 76.3002 52.454C76.5009 52.3233 76.6502 52.1367 76.7482 51.894V51.292H75.5932C74.9632 51.292 74.6482 51.5113 74.6482 51.95C74.6482 52.1647 74.7299 52.335 74.8932 52.461C75.0565 52.5823 75.2852 52.643 75.5792 52.643ZM81.4108 49.318L79.7728 53H79.2618L77.6308 49.318H78.1488L79.5278 52.454L80.9208 49.318H81.4108ZM81.9007 49.318H82.3977V53H81.9007V49.318ZM82.1527 48.513C82.05 48.513 81.9637 48.478 81.8937 48.408C81.8237 48.338 81.7887 48.254 81.7887 48.156C81.7887 48.0627 81.8237 47.981 81.8937 47.911C81.9637 47.841 82.05 47.806 82.1527 47.806C82.2554 47.806 82.3417 47.841 82.4117 47.911C82.4817 47.9763 82.5167 48.0557 82.5167 48.149C82.5167 48.2517 82.4817 48.338 82.4117 48.408C82.3417 48.478 82.2554 48.513 82.1527 48.513ZM85.4466 49.29C85.9086 49.29 86.2749 49.4253 86.5456 49.696C86.8209 49.962 86.9586 50.3517 86.9586 50.865V53H86.4616V50.914C86.4616 50.5313 86.3659 50.2397 86.1746 50.039C85.9832 49.8383 85.7102 49.738 85.3556 49.738C84.9589 49.738 84.6439 49.857 84.4106 50.095C84.1819 50.3283 84.0676 50.6527 84.0676 51.068V53H83.5706V49.318H84.0466V49.997C84.1819 49.773 84.3686 49.6003 84.6066 49.479C84.8492 49.353 85.1292 49.29 85.4466 49.29ZM91.5206 49.318V52.552C91.5206 53.1773 91.3666 53.6393 91.0586 53.938C90.7552 54.2413 90.2956 54.393 89.6796 54.393C89.3389 54.393 89.0146 54.3417 88.7066 54.239C88.4032 54.141 88.1559 54.0033 87.9646 53.826L88.2166 53.448C88.3939 53.6067 88.6086 53.7303 88.8606 53.819C89.1172 53.9077 89.3856 53.952 89.6656 53.952C90.1322 53.952 90.4752 53.8423 90.6946 53.623C90.9139 53.4083 91.0236 53.0723 91.0236 52.615V52.146C90.8696 52.3793 90.6666 52.5567 90.4146 52.678C90.1672 52.7993 89.8919 52.86 89.5886 52.86C89.2432 52.86 88.9282 52.7853 88.6436 52.636C88.3636 52.482 88.1419 52.2697 87.9786 51.999C87.8199 51.7237 87.7406 51.4133 87.7406 51.068C87.7406 50.7227 87.8199 50.4147 87.9786 50.144C88.1419 49.8733 88.3636 49.6633 88.6436 49.514C88.9236 49.3647 89.2386 49.29 89.5886 49.29C89.9012 49.29 90.1836 49.353 90.4356 49.479C90.6876 49.605 90.8906 49.787 91.0446 50.025V49.318H91.5206ZM89.6376 52.419C89.9036 52.419 90.1439 52.363 90.3586 52.251C90.5732 52.1343 90.7389 51.9733 90.8556 51.768C90.9769 51.5627 91.0376 51.3293 91.0376 51.068C91.0376 50.8067 90.9769 50.5757 90.8556 50.375C90.7389 50.1697 90.5732 50.011 90.3586 49.899C90.1486 49.7823 89.9082 49.724 89.6376 49.724C89.3716 49.724 89.1312 49.78 88.9166 49.892C88.7066 50.004 88.5409 50.1627 88.4196 50.368C88.3029 50.5733 88.2446 50.8067 88.2446 51.068C88.2446 51.3293 88.3029 51.5627 88.4196 51.768C88.5409 51.9733 88.7066 52.1343 88.9166 52.251C89.1312 52.363 89.3716 52.419 89.6376 52.419ZM95.6104 49.29C96.0911 49.29 96.4597 49.4113 96.7164 49.654C96.9731 49.892 97.1014 50.2467 97.1014 50.718V53H96.6254V52.426C96.5134 52.6173 96.3477 52.7667 96.1284 52.874C95.9137 52.9813 95.6571 53.035 95.3584 53.035C94.9477 53.035 94.6211 52.937 94.3784 52.741C94.1357 52.545 94.0144 52.286 94.0144 51.964C94.0144 51.6513 94.1264 51.3993 94.3504 51.208C94.5791 51.0167 94.9407 50.921 95.4354 50.921H96.6044V50.697C96.6044 50.3797 96.5157 50.1393 96.3384 49.976C96.1611 49.808 95.9021 49.724 95.5614 49.724C95.3281 49.724 95.1041 49.7637 94.8894 49.843C94.6747 49.9177 94.4904 50.0227 94.3364 50.158L94.1124 49.787C94.2991 49.6283 94.5231 49.507 94.7844 49.423C95.0457 49.3343 95.3211 49.29 95.6104 49.29ZM95.4354 52.643C95.7154 52.643 95.9557 52.58 96.1564 52.454C96.3571 52.3233 96.5064 52.1367 96.6044 51.894V51.292H95.4494C94.8194 51.292 94.5044 51.5113 94.5044 51.95C94.5044 52.1647 94.5861 52.335 94.7494 52.461C94.9127 52.5823 95.1414 52.643 95.4354 52.643ZM101.389 53.035C101.025 53.035 100.699 52.9557 100.409 52.797C100.125 52.6383 99.9007 52.4167 99.7374 52.132C99.574 51.8427 99.4924 51.5183 99.4924 51.159C99.4924 50.7997 99.574 50.4777 99.7374 50.193C99.9007 49.9083 100.125 49.6867 100.409 49.528C100.699 49.3693 101.025 49.29 101.389 49.29C101.707 49.29 101.989 49.353 102.236 49.479C102.488 49.6003 102.687 49.78 102.831 50.018L102.46 50.27C102.339 50.088 102.185 49.9527 101.998 49.864C101.812 49.7707 101.609 49.724 101.389 49.724C101.123 49.724 100.883 49.7847 100.668 49.906C100.458 50.0227 100.293 50.1907 100.171 50.41C100.055 50.6293 99.9964 50.879 99.9964 51.159C99.9964 51.4437 100.055 51.6957 100.171 51.915C100.293 52.1297 100.458 52.2977 100.668 52.419C100.883 52.5357 101.123 52.594 101.389 52.594C101.609 52.594 101.812 52.5497 101.998 52.461C102.185 52.3723 102.339 52.237 102.46 52.055L102.831 52.307C102.687 52.545 102.488 52.727 102.236 52.853C101.984 52.9743 101.702 53.035 101.389 53.035ZM104.074 50.039C104.19 49.7917 104.363 49.605 104.592 49.479C104.825 49.353 105.112 49.29 105.453 49.29V49.773L105.334 49.766C104.946 49.766 104.643 49.885 104.424 50.123C104.204 50.361 104.095 50.6947 104.095 51.124V53H103.598V49.318H104.074V50.039ZM107.424 49.29C107.904 49.29 108.273 49.4113 108.53 49.654C108.786 49.892 108.915 50.2467 108.915 50.718V53H108.439V52.426C108.327 52.6173 108.161 52.7667 107.942 52.874C107.727 52.9813 107.47 53.035 107.172 53.035C106.761 53.035 106.434 52.937 106.192 52.741C105.949 52.545 105.828 52.286 105.828 51.964C105.828 51.6513 105.94 51.3993 106.164 51.208C106.392 51.0167 106.754 50.921 107.249 50.921H108.418V50.697C108.418 50.3797 108.329 50.1393 108.152 49.976C107.974 49.808 107.715 49.724 107.375 49.724C107.141 49.724 106.917 49.7637 106.703 49.843C106.488 49.9177 106.304 50.0227 106.15 50.158L105.926 49.787C106.112 49.6283 106.336 49.507 106.598 49.423C106.859 49.3343 107.134 49.29 107.424 49.29ZM107.249 52.643C107.529 52.643 107.769 52.58 107.97 52.454C108.17 52.3233 108.32 52.1367 108.418 51.894V51.292H107.263C106.633 51.292 106.318 51.5113 106.318 51.95C106.318 52.1647 106.399 52.335 106.563 52.461C106.726 52.5823 106.955 52.643 107.249 52.643ZM112.652 52.587V53H109.656V52.671L111.973 49.738H109.698V49.318H112.61V49.647L110.293 52.587H112.652ZM116.445 49.318L114.604 53.441C114.455 53.7863 114.282 54.0313 114.086 54.176C113.89 54.3207 113.655 54.393 113.379 54.393C113.202 54.393 113.036 54.365 112.882 54.309C112.728 54.253 112.595 54.169 112.483 54.057L112.714 53.686C112.901 53.8727 113.125 53.966 113.386 53.966C113.554 53.966 113.697 53.9193 113.813 53.826C113.935 53.7327 114.047 53.574 114.149 53.35L114.31 52.993L112.665 49.318H113.183L114.569 52.447L115.955 49.318H116.445ZM121.651 49.318L119.81 53.441C119.661 53.7863 119.488 54.0313 119.292 54.176C119.096 54.3207 118.861 54.393 118.585 54.393C118.408 54.393 118.242 54.365 118.088 54.309C117.934 54.253 117.801 54.169 117.689 54.057L117.92 53.686C118.107 53.8727 118.331 53.966 118.592 53.966C118.76 53.966 118.903 53.9193 119.019 53.826C119.141 53.7327 119.253 53.574 119.355 53.35L119.516 52.993L117.871 49.318H118.389L119.775 52.447L121.161 49.318H121.651ZM125.245 51.313H122.165C122.193 51.6957 122.34 52.006 122.606 52.244C122.872 52.4773 123.208 52.594 123.614 52.594C123.843 52.594 124.053 52.5543 124.244 52.475C124.435 52.391 124.601 52.2697 124.741 52.111L125.021 52.433C124.858 52.629 124.652 52.7783 124.405 52.881C124.162 52.9837 123.894 53.035 123.6 53.035C123.222 53.035 122.886 52.9557 122.592 52.797C122.303 52.6337 122.076 52.4097 121.913 52.125C121.75 51.8403 121.668 51.5183 121.668 51.159C121.668 50.7997 121.745 50.4777 121.899 50.193C122.058 49.9083 122.272 49.6867 122.543 49.528C122.818 49.3693 123.126 49.29 123.467 49.29C123.808 49.29 124.113 49.3693 124.384 49.528C124.655 49.6867 124.867 49.9083 125.021 50.193C125.175 50.473 125.252 50.795 125.252 51.159L125.245 51.313ZM123.467 49.717C123.112 49.717 122.814 49.8313 122.571 50.06C122.333 50.284 122.198 50.578 122.165 50.942H124.776C124.743 50.578 124.606 50.284 124.363 50.06C124.125 49.8313 123.826 49.717 123.467 49.717ZM127.239 49.29C127.72 49.29 128.088 49.4113 128.345 49.654C128.602 49.892 128.73 50.2467 128.73 50.718V53H128.254V52.426C128.142 52.6173 127.976 52.7667 127.757 52.874C127.542 52.9813 127.286 53.035 126.987 53.035C126.576 53.035 126.25 52.937 126.007 52.741C125.764 52.545 125.643 52.286 125.643 51.964C125.643 51.6513 125.755 51.3993 125.979 51.208C126.208 51.0167 126.569 50.921 127.064 50.921H128.233V50.697C128.233 50.3797 128.144 50.1393 127.967 49.976C127.79 49.808 127.531 49.724 127.19 49.724C126.957 49.724 126.733 49.7637 126.518 49.843C126.303 49.9177 126.119 50.0227 125.965 50.158L125.741 49.787C125.928 49.6283 126.152 49.507 126.413 49.423C126.674 49.3343 126.95 49.29 127.239 49.29ZM127.064 52.643C127.344 52.643 127.584 52.58 127.785 52.454C127.986 52.3233 128.135 52.1367 128.233 51.894V51.292H127.078C126.448 51.292 126.133 51.5113 126.133 51.95C126.133 52.1647 126.215 52.335 126.378 52.461C126.541 52.5823 126.77 52.643 127.064 52.643ZM130.346 50.039C130.463 49.7917 130.635 49.605 130.864 49.479C131.097 49.353 131.384 49.29 131.725 49.29V49.773L131.606 49.766C131.219 49.766 130.915 49.885 130.696 50.123C130.477 50.361 130.367 50.6947 130.367 51.124V53H129.87V49.318H130.346V50.039ZM132.392 48.1H132.98L132.875 51.53H132.49L132.392 48.1ZM132.686 53.035C132.584 53.035 132.495 53 132.42 52.93C132.35 52.8553 132.315 52.769 132.315 52.671C132.315 52.5683 132.35 52.4843 132.42 52.419C132.49 52.349 132.579 52.314 132.686 52.314C132.789 52.314 132.875 52.349 132.945 52.419C133.015 52.4843 133.05 52.5683 133.05 52.671C133.05 52.769 133.015 52.8553 132.945 52.93C132.875 53 132.789 53.035 132.686 53.035ZM139.9 48.1V53H139.389V50.739H136.323V53H135.805V48.1H136.323V50.284H139.389V48.1H139.9ZM142.689 53.035C142.334 53.035 142.015 52.9557 141.73 52.797C141.445 52.6337 141.221 52.4097 141.058 52.125C140.895 51.8403 140.813 51.5183 140.813 51.159C140.813 50.7997 140.895 50.4777 141.058 50.193C141.221 49.9083 141.445 49.6867 141.73 49.528C142.015 49.3693 142.334 49.29 142.689 49.29C143.044 49.29 143.363 49.3693 143.648 49.528C143.933 49.6867 144.154 49.9083 144.313 50.193C144.476 50.4777 144.558 50.7997 144.558 51.159C144.558 51.5183 144.476 51.8403 144.313 52.125C144.154 52.4097 143.933 52.6337 143.648 52.797C143.363 52.9557 143.044 53.035 142.689 53.035ZM142.689 52.594C142.95 52.594 143.184 52.5357 143.389 52.419C143.599 52.2977 143.762 52.1273 143.879 51.908C143.996 51.6887 144.054 51.439 144.054 51.159C144.054 50.879 143.996 50.6293 143.879 50.41C143.762 50.1907 143.599 50.0227 143.389 49.906C143.184 49.7847 142.95 49.724 142.689 49.724C142.428 49.724 142.192 49.7847 141.982 49.906C141.777 50.0227 141.613 50.1907 141.492 50.41C141.375 50.6293 141.317 50.879 141.317 51.159C141.317 51.439 141.375 51.6887 141.492 51.908C141.613 52.1273 141.777 52.2977 141.982 52.419C142.192 52.5357 142.428 52.594 142.689 52.594ZM147.26 49.29C147.605 49.29 147.918 49.3693 148.198 49.528C148.478 49.682 148.697 49.9013 148.856 50.186C149.014 50.4707 149.094 50.795 149.094 51.159C149.094 51.5277 149.014 51.8543 148.856 52.139C148.697 52.4237 148.478 52.6453 148.198 52.804C147.922 52.958 147.61 53.035 147.26 53.035C146.961 53.035 146.69 52.9743 146.448 52.853C146.21 52.727 146.014 52.545 145.86 52.307V54.358H145.363V49.318H145.839V50.046C145.988 49.8033 146.184 49.6167 146.427 49.486C146.674 49.3553 146.952 49.29 147.26 49.29ZM147.225 52.594C147.481 52.594 147.715 52.5357 147.925 52.419C148.135 52.2977 148.298 52.1273 148.415 51.908C148.536 51.6887 148.597 51.439 148.597 51.159C148.597 50.879 148.536 50.6317 148.415 50.417C148.298 50.1977 148.135 50.0273 147.925 49.906C147.715 49.7847 147.481 49.724 147.225 49.724C146.963 49.724 146.728 49.7847 146.518 49.906C146.312 50.0273 146.149 50.1977 146.028 50.417C145.911 50.6317 145.853 50.879 145.853 51.159C145.853 51.439 145.911 51.6887 146.028 51.908C146.149 52.1273 146.312 52.2977 146.518 52.419C146.728 52.5357 146.963 52.594 147.225 52.594ZM153.103 51.313H150.023C150.051 51.6957 150.198 52.006 150.464 52.244C150.73 52.4773 151.066 52.594 151.472 52.594C151.701 52.594 151.911 52.5543 152.102 52.475C152.293 52.391 152.459 52.2697 152.599 52.111L152.879 52.433C152.716 52.629 152.51 52.7783 152.263 52.881C152.02 52.9837 151.752 53.035 151.458 53.035C151.08 53.035 150.744 52.9557 150.45 52.797C150.161 52.6337 149.934 52.4097 149.771 52.125C149.608 51.8403 149.526 51.5183 149.526 51.159C149.526 50.7997 149.603 50.4777 149.757 50.193C149.916 49.9083 150.13 49.6867 150.401 49.528C150.676 49.3693 150.984 49.29 151.325 49.29C151.666 49.29 151.971 49.3693 152.242 49.528C152.513 49.6867 152.725 49.9083 152.879 50.193C153.033 50.473 153.11 50.795 153.11 51.159L153.103 51.313ZM151.325 49.717C150.97 49.717 150.672 49.8313 150.429 50.06C150.191 50.284 150.056 50.578 150.023 50.942H152.634C152.601 50.578 152.464 50.284 152.221 50.06C151.983 49.8313 151.684 49.717 151.325 49.717ZM158.628 49.318L156.787 53.441C156.637 53.7863 156.465 54.0313 156.269 54.176C156.073 54.3207 155.837 54.393 155.562 54.393C155.384 54.393 155.219 54.365 155.065 54.309C154.911 54.253 154.778 54.169 154.666 54.057L154.897 53.686C155.083 53.8727 155.307 53.966 155.569 53.966C155.737 53.966 155.879 53.9193 155.996 53.826C156.117 53.7327 156.229 53.574 156.332 53.35L156.493 52.993L154.848 49.318H155.366L156.752 52.447L158.138 49.318H158.628ZM160.52 53.035C160.165 53.035 159.846 52.9557 159.561 52.797C159.276 52.6337 159.052 52.4097 158.889 52.125C158.726 51.8403 158.644 51.5183 158.644 51.159C158.644 50.7997 158.726 50.4777 158.889 50.193C159.052 49.9083 159.276 49.6867 159.561 49.528C159.846 49.3693 160.165 49.29 160.52 49.29C160.875 49.29 161.194 49.3693 161.479 49.528C161.764 49.6867 161.985 49.9083 162.144 50.193C162.307 50.4777 162.389 50.7997 162.389 51.159C162.389 51.5183 162.307 51.8403 162.144 52.125C161.985 52.4097 161.764 52.6337 161.479 52.797C161.194 52.9557 160.875 53.035 160.52 53.035ZM160.52 52.594C160.781 52.594 161.015 52.5357 161.22 52.419C161.43 52.2977 161.593 52.1273 161.71 51.908C161.827 51.6887 161.885 51.439 161.885 51.159C161.885 50.879 161.827 50.6293 161.71 50.41C161.593 50.1907 161.43 50.0227 161.22 49.906C161.015 49.7847 160.781 49.724 160.52 49.724C160.259 49.724 160.023 49.7847 159.813 49.906C159.608 50.0227 159.444 50.1907 159.323 50.41C159.206 50.6293 159.148 50.879 159.148 51.159C159.148 51.439 159.206 51.6887 159.323 51.908C159.444 52.1273 159.608 52.2977 159.813 52.419C160.023 52.5357 160.259 52.594 160.52 52.594ZM166.512 49.318V53H166.036V52.328C165.905 52.552 165.725 52.727 165.497 52.853C165.268 52.9743 165.007 53.035 164.713 53.035C164.232 53.035 163.852 52.902 163.572 52.636C163.296 52.3653 163.159 51.971 163.159 51.453V49.318H163.656V51.404C163.656 51.7913 163.751 52.0853 163.943 52.286C164.134 52.4867 164.407 52.587 164.762 52.587C165.149 52.587 165.455 52.4703 165.679 52.237C165.903 51.999 166.015 51.67 166.015 51.25V49.318H166.512ZM170.604 49.29C171.084 49.29 171.453 49.4113 171.71 49.654C171.966 49.892 172.095 50.2467 172.095 50.718V53H171.619V52.426C171.507 52.6173 171.341 52.7667 171.122 52.874C170.907 52.9813 170.65 53.035 170.352 53.035C169.941 53.035 169.614 52.937 169.372 52.741C169.129 52.545 169.008 52.286 169.008 51.964C169.008 51.6513 169.12 51.3993 169.344 51.208C169.572 51.0167 169.934 50.921 170.429 50.921H171.598V50.697C171.598 50.3797 171.509 50.1393 171.332 49.976C171.154 49.808 170.895 49.724 170.555 49.724C170.321 49.724 170.097 49.7637 169.883 49.843C169.668 49.9177 169.484 50.0227 169.33 50.158L169.106 49.787C169.292 49.6283 169.516 49.507 169.778 49.423C170.039 49.3343 170.314 49.29 170.604 49.29ZM170.429 52.643C170.709 52.643 170.949 52.58 171.15 52.454C171.35 52.3233 171.5 52.1367 171.598 51.894V51.292H170.443C169.813 51.292 169.498 51.5113 169.498 51.95C169.498 52.1647 169.579 52.335 169.743 52.461C169.906 52.5823 170.135 52.643 170.429 52.643ZM173.711 50.039C173.827 49.7917 174 49.605 174.229 49.479C174.462 49.353 174.749 49.29 175.09 49.29V49.773L174.971 49.766C174.583 49.766 174.28 49.885 174.061 50.123C173.841 50.361 173.732 50.6947 173.732 51.124V53H173.235V49.318H173.711V50.039ZM178.951 51.313H175.871C175.899 51.6957 176.046 52.006 176.312 52.244C176.578 52.4773 176.914 52.594 177.32 52.594C177.549 52.594 177.759 52.5543 177.95 52.475C178.142 52.391 178.307 52.2697 178.447 52.111L178.727 52.433C178.564 52.629 178.359 52.7783 178.111 52.881C177.869 52.9837 177.6 53.035 177.306 53.035C176.928 53.035 176.592 52.9557 176.298 52.797C176.009 52.6337 175.783 52.4097 175.619 52.125C175.456 51.8403 175.374 51.5183 175.374 51.159C175.374 50.7997 175.451 50.4777 175.605 50.193C175.764 49.9083 175.979 49.6867 176.249 49.528C176.525 49.3693 176.833 49.29 177.173 49.29C177.514 49.29 177.82 49.3693 178.09 49.528C178.361 49.6867 178.573 49.9083 178.727 50.193C178.881 50.473 178.958 50.795 178.958 51.159L178.951 51.313ZM177.173 49.717C176.819 49.717 176.52 49.8313 176.277 50.06C176.039 50.284 175.904 50.578 175.871 50.942H178.482C178.45 50.578 178.312 50.284 178.069 50.06C177.831 49.8313 177.533 49.717 177.173 49.717ZM184.742 47.806V53H184.266V52.272C184.117 52.5193 183.918 52.7083 183.671 52.839C183.428 52.9697 183.153 53.035 182.845 53.035C182.5 53.035 182.187 52.9557 181.907 52.797C181.627 52.6383 181.408 52.4167 181.249 52.132C181.09 51.8473 181.011 51.523 181.011 51.159C181.011 50.795 181.09 50.4707 181.249 50.186C181.408 49.9013 181.627 49.682 181.907 49.528C182.187 49.3693 182.5 49.29 182.845 49.29C183.144 49.29 183.412 49.353 183.65 49.479C183.893 49.6003 184.091 49.78 184.245 50.018V47.806H184.742ZM182.887 52.594C183.144 52.594 183.375 52.5357 183.58 52.419C183.79 52.2977 183.953 52.1273 184.07 51.908C184.191 51.6887 184.252 51.439 184.252 51.159C184.252 50.879 184.191 50.6293 184.07 50.41C183.953 50.1907 183.79 50.0227 183.58 49.906C183.375 49.7847 183.144 49.724 182.887 49.724C182.626 49.724 182.39 49.7847 182.18 49.906C181.975 50.0227 181.811 50.1907 181.69 50.41C181.573 50.6293 181.515 50.879 181.515 51.159C181.515 51.439 181.573 51.6887 181.69 51.908C181.811 52.1273 181.975 52.2977 182.18 52.419C182.39 52.5357 182.626 52.594 182.887 52.594ZM187.421 53.035C187.066 53.035 186.747 52.9557 186.462 52.797C186.177 52.6337 185.953 52.4097 185.79 52.125C185.627 51.8403 185.545 51.5183 185.545 51.159C185.545 50.7997 185.627 50.4777 185.79 50.193C185.953 49.9083 186.177 49.6867 186.462 49.528C186.747 49.3693 187.066 49.29 187.421 49.29C187.776 49.29 188.095 49.3693 188.38 49.528C188.665 49.6867 188.886 49.9083 189.045 50.193C189.208 50.4777 189.29 50.7997 189.29 51.159C189.29 51.5183 189.208 51.8403 189.045 52.125C188.886 52.4097 188.665 52.6337 188.38 52.797C188.095 52.9557 187.776 53.035 187.421 53.035ZM187.421 52.594C187.682 52.594 187.916 52.5357 188.121 52.419C188.331 52.2977 188.494 52.1273 188.611 51.908C188.728 51.6887 188.786 51.439 188.786 51.159C188.786 50.879 188.728 50.6293 188.611 50.41C188.494 50.1907 188.331 50.0227 188.121 49.906C187.916 49.7847 187.682 49.724 187.421 49.724C187.16 49.724 186.924 49.7847 186.714 49.906C186.509 50.0227 186.345 50.1907 186.224 50.41C186.107 50.6293 186.049 50.879 186.049 51.159C186.049 51.439 186.107 51.6887 186.224 51.908C186.345 52.1273 186.509 52.2977 186.714 52.419C186.924 52.5357 187.16 52.594 187.421 52.594ZM190.095 49.318H190.592V53H190.095V49.318ZM190.347 48.513C190.244 48.513 190.158 48.478 190.088 48.408C190.018 48.338 189.983 48.254 189.983 48.156C189.983 48.0627 190.018 47.981 190.088 47.911C190.158 47.841 190.244 47.806 190.347 47.806C190.449 47.806 190.536 47.841 190.606 47.911C190.676 47.9763 190.711 48.0557 190.711 48.149C190.711 48.2517 190.676 48.338 190.606 48.408C190.536 48.478 190.449 48.513 190.347 48.513ZM193.641 49.29C194.103 49.29 194.469 49.4253 194.74 49.696C195.015 49.962 195.153 50.3517 195.153 50.865V53H194.656V50.914C194.656 50.5313 194.56 50.2397 194.369 50.039C194.177 49.8383 193.904 49.738 193.55 49.738C193.153 49.738 192.838 49.857 192.605 50.095C192.376 50.3283 192.262 50.6527 192.262 51.068V53H191.765V49.318H192.241V49.997C192.376 49.773 192.563 49.6003 192.801 49.479C193.043 49.353 193.323 49.29 193.641 49.29ZM199.715 49.318V52.552C199.715 53.1773 199.561 53.6393 199.253 53.938C198.949 54.2413 198.49 54.393 197.874 54.393C197.533 54.393 197.209 54.3417 196.901 54.239C196.597 54.141 196.35 54.0033 196.159 53.826L196.411 53.448C196.588 53.6067 196.803 53.7303 197.055 53.819C197.311 53.9077 197.58 53.952 197.86 53.952C198.326 53.952 198.669 53.8423 198.889 53.623C199.108 53.4083 199.218 53.0723 199.218 52.615V52.146C199.064 52.3793 198.861 52.5567 198.609 52.678C198.361 52.7993 198.086 52.86 197.783 52.86C197.437 52.86 197.122 52.7853 196.838 52.636C196.558 52.482 196.336 52.2697 196.173 51.999C196.014 51.7237 195.935 51.4133 195.935 51.068C195.935 50.7227 196.014 50.4147 196.173 50.144C196.336 49.8733 196.558 49.6633 196.838 49.514C197.118 49.3647 197.433 49.29 197.783 49.29C198.095 49.29 198.378 49.353 198.63 49.479C198.882 49.605 199.085 49.787 199.239 50.025V49.318H199.715ZM197.832 52.419C198.098 52.419 198.338 52.363 198.553 52.251C198.767 52.1343 198.933 51.9733 199.05 51.768C199.171 51.5627 199.232 51.3293 199.232 51.068C199.232 50.8067 199.171 50.5757 199.05 50.375C198.933 50.1697 198.767 50.011 198.553 49.899C198.343 49.7823 198.102 49.724 197.832 49.724C197.566 49.724 197.325 49.78 197.111 49.892C196.901 50.004 196.735 50.1627 196.614 50.368C196.497 50.5733 196.439 50.8067 196.439 51.068C196.439 51.3293 196.497 51.5627 196.614 51.768C196.735 51.9733 196.901 52.1343 197.111 52.251C197.325 52.363 197.566 52.419 197.832 52.419Z" fill="black"/>
<path d="M53.3088 14.144L53.3088 15.112L53.0168 15.112L53.0168 14.144L51.8968 12.312L52.2128 12.312L53.1728 13.884L54.1328 12.312L54.4288 12.312L53.3088 14.144ZM55.4495 15.132C55.2469 15.132 55.0642 15.0866 54.9015 14.996C54.7389 14.9026 54.6109 14.7746 54.5175 14.612C54.4242 14.4493 54.3775 14.2653 54.3775 14.06C54.3775 13.8546 54.4242 13.6706 54.5175 13.508C54.6109 13.3453 54.7389 13.2186 54.9015 13.128C55.0642 13.0373 55.2469 12.992 55.4495 12.992C55.6522 12.992 55.8349 13.0373 55.9975 13.128C56.1602 13.2186 56.2869 13.3453 56.3775 13.508C56.4709 13.6706 56.5175 13.8546 56.5175 14.06C56.5175 14.2653 56.4709 14.4493 56.3775 14.612C56.2869 14.7746 56.1602 14.9026 55.9975 14.996C55.8349 15.0866 55.6522 15.132 55.4495 15.132ZM55.4495 14.88C55.5989 14.88 55.7322 14.8466 55.8495 14.78C55.9695 14.7106 56.0629 14.6133 56.1295 14.488C56.1962 14.3626 56.2295 14.22 56.2295 14.06C56.2295 13.9 56.1962 13.7573 56.1295 13.632C56.0629 13.5066 55.9695 13.4106 55.8495 13.344C55.7322 13.2746 55.5989 13.24 55.4495 13.24C55.3002 13.24 55.1655 13.2746 55.0455 13.344C54.9282 13.4106 54.8349 13.5066 54.7655 13.632C54.6989 13.7573 54.6655 13.9 54.6655 14.06C54.6655 14.22 54.6989 14.3626 54.7655 14.488C54.8349 14.6133 54.9282 14.7106 55.0455 14.78C55.1655 14.8466 55.3002 14.88 55.4495 14.88ZM58.9934 13.008L58.9934 15.112L58.7214 15.112L58.7214 14.728C58.6467 14.856 58.544 14.956 58.4134 15.028C58.2827 15.0973 58.1334 15.132 57.9654 15.132C57.6907 15.132 57.4734 15.056 57.3134 14.904C57.156 14.7493 57.0774 14.524 57.0774 14.228L57.0774 13.008L57.3614 13.008L57.3614 14.2C57.3614 14.4213 57.416 14.5893 57.5254 14.704C57.6347 14.8186 57.7907 14.876 57.9934 14.876C58.2147 14.876 58.3894 14.8093 58.5174 14.676C58.6454 14.54 58.7094 14.352 58.7094 14.112L58.7094 13.008L58.9934 13.008ZM60.0608 13.42C60.1274 13.2786 60.2261 13.172 60.3568 13.1C60.4901 13.028 60.6541 12.992 60.8488 12.992L60.8488 13.268L60.7808 13.264C60.5594 13.264 60.3861 13.332 60.2608 13.468C60.1354 13.604 60.0728 13.7946 60.0728 14.04L60.0728 15.112L59.7888 15.112L59.7888 13.008L60.0608 13.008L60.0608 13.42ZM51.8605 17.312L52.1565 17.312L52.1565 19.856L53.7245 19.856L53.7245 20.112L51.8605 20.112L51.8605 17.312ZM54.9847 20.132C54.782 20.132 54.5994 20.0866 54.4367 19.996C54.274 19.9026 54.146 19.7746 54.0527 19.612C53.9594 19.4493 53.9127 19.2653 53.9127 19.06C53.9127 18.8546 53.9594 18.6706 54.0527 18.508C54.146 18.3453 54.274 18.2186 54.4367 18.128C54.5994 18.0373 54.782 17.992 54.9847 17.992C55.1874 17.992 55.37 18.0373 55.5327 18.128C55.6954 18.2186 55.822 18.3453 55.9127 18.508C56.006 18.6706 56.0527 18.8546 56.0527 19.06C56.0527 19.2653 56.006 19.4493 55.9127 19.612C55.822 19.7746 55.6954 19.9026 55.5327 19.996C55.37 20.0866 55.1874 20.132 54.9847 20.132ZM54.9847 19.88C55.134 19.88 55.2674 19.8466 55.3847 19.78C55.5047 19.7106 55.598 19.6133 55.6647 19.488C55.7314 19.3626 55.7647 19.22 55.7647 19.06C55.7647 18.9 55.7314 18.7573 55.6647 18.632C55.598 18.5066 55.5047 18.4106 55.3847 18.344C55.2674 18.2746 55.134 18.24 54.9847 18.24C54.8354 18.24 54.7007 18.2746 54.5807 18.344C54.4634 18.4106 54.37 18.5066 54.3007 18.632C54.234 18.7573 54.2007 18.9 54.2007 19.06C54.2007 19.22 54.234 19.3626 54.3007 19.488C54.37 19.6133 54.4634 19.7106 54.5807 19.78C54.7007 19.8466 54.8354 19.88 54.9847 19.88ZM58.5805 18.008L58.5805 19.856C58.5805 20.2133 58.4925 20.4773 58.3165 20.648C58.1432 20.8213 57.8805 20.908 57.5285 20.908C57.3338 20.908 57.1485 20.8786 56.9725 20.82C56.7992 20.764 56.6578 20.6853 56.5485 20.584L56.6925 20.368C56.7938 20.4586 56.9165 20.5293 57.0605 20.58C57.2072 20.6306 57.3605 20.656 57.5205 20.656C57.7872 20.656 57.9832 20.5933 58.1085 20.468C58.2338 20.3453 58.2965 20.1533 58.2965 19.892L58.2965 19.624C58.2085 19.7573 58.0925 19.8586 57.9485 19.928C57.8072 19.9973 57.6498 20.032 57.4765 20.032C57.2792 20.032 57.0992 19.9893 56.9365 19.904C56.7765 19.816 56.6498 19.6946 56.5565 19.54C56.4658 19.3826 56.4205 19.2053 56.4205 19.008C56.4205 18.8106 56.4658 18.6346 56.5565 18.48C56.6498 18.3253 56.7765 18.2053 56.9365 18.12C57.0965 18.0346 57.2765 17.992 57.4765 17.992C57.6552 17.992 57.8165 18.028 57.9605 18.1C58.1045 18.172 58.2205 18.276 58.3085 18.412L58.3085 18.008L58.5805 18.008ZM57.5045 19.78C57.6565 19.78 57.7938 19.748 57.9165 19.684C58.0392 19.6173 58.1338 19.5253 58.2005 19.408C58.2698 19.2906 58.3045 19.1573 58.3045 19.008C58.3045 18.8586 58.2698 18.7266 58.2005 18.612C58.1338 18.4946 58.0392 18.404 57.9165 18.34C57.7965 18.2733 57.6592 18.24 57.5045 18.24C57.3525 18.24 57.2152 18.272 57.0925 18.336C56.9725 18.4 56.8778 18.4906 56.8085 18.608C56.7418 18.7253 56.7085 18.8586 56.7085 19.008C56.7085 19.1573 56.7418 19.2906 56.8085 19.408C56.8778 19.5253 56.9725 19.6173 57.0925 19.684C57.2152 19.748 57.3525 19.78 57.5045 19.78ZM60.2347 20.132C60.032 20.132 59.8494 20.0866 59.6867 19.996C59.524 19.9026 59.396 19.7746 59.3027 19.612C59.2094 19.4493 59.1627 19.2653 59.1627 19.06C59.1627 18.8546 59.2094 18.6706 59.3027 18.508C59.396 18.3453 59.524 18.2186 59.6867 18.128C59.8494 18.0373 60.032 17.992 60.2347 17.992C60.4374 17.992 60.62 18.0373 60.7827 18.128C60.9454 18.2186 61.072 18.3453 61.1627 18.508C61.256 18.6706 61.3027 18.8546 61.3027 19.06C61.3027 19.2653 61.256 19.4493 61.1627 19.612C61.072 19.7746 60.9454 19.9026 60.7827 19.996C60.62 20.0866 60.4374 20.132 60.2347 20.132ZM60.2347 19.88C60.384 19.88 60.5174 19.8466 60.6347 19.78C60.7547 19.7106 60.848 19.6133 60.9147 19.488C60.9814 19.3626 61.0147 19.22 61.0147 19.06C61.0147 18.9 60.9814 18.7573 60.9147 18.632C60.848 18.5066 60.7547 18.4106 60.6347 18.344C60.5174 18.2746 60.384 18.24 60.2347 18.24C60.0854 18.24 59.9507 18.2746 59.8307 18.344C59.7134 18.4106 59.62 18.5066 59.5507 18.632C59.484 18.7573 59.4507 18.9 59.4507 19.06C59.4507 19.22 59.484 19.3626 59.5507 19.488C59.62 19.6133 59.7134 19.7106 59.8307 19.78C59.9507 19.8466 60.0854 19.88 60.2347 19.88Z" fill="black"/>
<path d="M56.097 72.318L54.704 76H54.235L53.073 72.983L51.911 76H51.442L50.056 72.318H50.532L51.687 75.447L52.87 72.318H53.297L54.473 75.447L55.642 72.318H56.097ZM59.7388 74.313H56.6588C56.6868 74.6957 56.8338 75.006 57.0998 75.244C57.3658 75.4773 57.7018 75.594 58.1078 75.594C58.3365 75.594 58.5465 75.5543 58.7378 75.475C58.9291 75.391 59.0948 75.2697 59.2348 75.111L59.5148 75.433C59.3515 75.629 59.1461 75.7783 58.8988 75.881C58.6561 75.9837 58.3878 76.035 58.0938 76.035C57.7158 76.035 57.3798 75.9557 57.0858 75.797C56.7965 75.6337 56.5701 75.4097 56.4068 75.125C56.2435 74.8403 56.1618 74.5183 56.1618 74.159C56.1618 73.7997 56.2388 73.4777 56.3928 73.193C56.5515 72.9083 56.7661 72.6867 57.0368 72.528C57.3121 72.3693 57.6201 72.29 57.9608 72.29C58.3015 72.29 58.6071 72.3693 58.8778 72.528C59.1485 72.6867 59.3608 72.9083 59.5148 73.193C59.6688 73.473 59.7458 73.795 59.7458 74.159L59.7388 74.313ZM57.9608 72.717C57.6061 72.717 57.3075 72.8313 57.0648 73.06C56.8268 73.284 56.6915 73.578 56.6588 73.942H59.2698C59.2371 73.578 59.0995 73.284 58.8568 73.06C58.6188 72.8313 58.3201 72.717 57.9608 72.717ZM60.5474 70.806H61.0444V76H60.5474V70.806ZM62.2173 70.806H62.7143V76H62.2173V70.806ZM63.9362 76.035C63.8335 76.035 63.7448 75.9977 63.6702 75.923C63.6002 75.8483 63.5652 75.7573 63.5652 75.65C63.5652 75.5427 63.6002 75.454 63.6702 75.384C63.7448 75.3093 63.8335 75.272 63.9362 75.272C64.0388 75.272 64.1275 75.3093 64.2022 75.384C64.2768 75.454 64.3142 75.5427 64.3142 75.65C64.3142 75.7573 64.2768 75.8483 64.2022 75.923C64.1275 75.9977 64.0388 76.035 63.9362 76.035ZM73.6146 71.1L71.9626 76H71.4166L69.9816 71.821L68.5396 76H68.0006L66.3486 71.1H66.8806L68.2946 75.314L69.7576 71.1H70.2406L71.6826 75.335L73.1176 71.1H73.6146ZM75.2571 72.29C75.7378 72.29 76.1064 72.4113 76.3631 72.654C76.6198 72.892 76.7481 73.2467 76.7481 73.718V76H76.2721V75.426C76.1601 75.6173 75.9944 75.7667 75.7751 75.874C75.5604 75.9813 75.3038 76.035 75.0051 76.035C74.5944 76.035 74.2678 75.937 74.0251 75.741C73.7824 75.545 73.6611 75.286 73.6611 74.964C73.6611 74.6513 73.7731 74.3993 73.9971 74.208C74.2258 74.0167 74.5874 73.921 75.0821 73.921H76.2511V73.697C76.2511 73.3797 76.1624 73.1393 75.9851 72.976C75.8078 72.808 75.5488 72.724 75.2081 72.724C74.9748 72.724 74.7508 72.7637 74.5361 72.843C74.3214 72.9177 74.1371 73.0227 73.9831 73.158L73.7591 72.787C73.9458 72.6283 74.1698 72.507 74.4311 72.423C74.6924 72.3343 74.9678 72.29 75.2571 72.29ZM75.0821 75.643C75.3621 75.643 75.6024 75.58 75.8031 75.454C76.0038 75.3233 76.1531 75.1367 76.2511 74.894V74.292H75.0961C74.4661 74.292 74.1511 74.5113 74.1511 74.95C74.1511 75.1647 74.2328 75.335 74.3961 75.461C74.5594 75.5823 74.7881 75.643 75.0821 75.643ZM79.764 72.29C80.226 72.29 80.5923 72.4253 80.863 72.696C81.1383 72.962 81.276 73.3517 81.276 73.865V76H80.779V73.914C80.779 73.5313 80.6833 73.2397 80.492 73.039C80.3007 72.8383 80.0277 72.738 79.673 72.738C79.2763 72.738 78.9613 72.857 78.728 73.095C78.4993 73.3283 78.385 73.6527 78.385 74.068V76H77.888V72.318H78.364V72.997C78.4993 72.773 78.686 72.6003 78.924 72.479C79.1667 72.353 79.4467 72.29 79.764 72.29ZM84.3543 75.776C84.261 75.86 84.1443 75.9253 84.0043 75.972C83.869 76.014 83.7266 76.035 83.5773 76.035C83.232 76.035 82.966 75.9417 82.7793 75.755C82.5926 75.5683 82.4993 75.3047 82.4993 74.964V72.738H81.8413V72.318H82.4993V71.513H82.9963V72.318H84.1163V72.738H82.9963V74.936C82.9963 75.1553 83.05 75.3233 83.1573 75.44C83.2693 75.552 83.428 75.608 83.6333 75.608C83.736 75.608 83.834 75.5917 83.9273 75.559C84.0253 75.5263 84.1093 75.4797 84.1793 75.419L84.3543 75.776ZM88.1252 74.313H85.0452C85.0732 74.6957 85.2202 75.006 85.4862 75.244C85.7522 75.4773 86.0882 75.594 86.4942 75.594C86.7228 75.594 86.9328 75.5543 87.1242 75.475C87.3155 75.391 87.4812 75.2697 87.6212 75.111L87.9012 75.433C87.7378 75.629 87.5325 75.7783 87.2852 75.881C87.0425 75.9837 86.7742 76.035 86.4802 76.035C86.1022 76.035 85.7662 75.9557 85.4722 75.797C85.1828 75.6337 84.9565 75.4097 84.7932 75.125C84.6298 74.8403 84.5482 74.5183 84.5482 74.159C84.5482 73.7997 84.6252 73.4777 84.7792 73.193C84.9378 72.9083 85.1525 72.6867 85.4232 72.528C85.6985 72.3693 86.0065 72.29 86.3472 72.29C86.6878 72.29 86.9935 72.3693 87.2642 72.528C87.5348 72.6867 87.7472 72.9083 87.9012 73.193C88.0552 73.473 88.1322 73.795 88.1322 74.159L88.1252 74.313ZM86.3472 72.717C85.9925 72.717 85.6938 72.8313 85.4512 73.06C85.2132 73.284 85.0778 73.578 85.0452 73.942H87.6562C87.6235 73.578 87.4858 73.284 87.2432 73.06C87.0052 72.8313 86.7065 72.717 86.3472 72.717ZM92.2938 70.806V76H91.8178V75.272C91.6684 75.5193 91.4701 75.7083 91.2228 75.839C90.9801 75.9697 90.7048 76.035 90.3968 76.035C90.0514 76.035 89.7388 75.9557 89.4588 75.797C89.1788 75.6383 88.9594 75.4167 88.8008 75.132C88.6421 74.8473 88.5628 74.523 88.5628 74.159C88.5628 73.795 88.6421 73.4707 88.8008 73.186C88.9594 72.9013 89.1788 72.682 89.4588 72.528C89.7388 72.3693 90.0514 72.29 90.3968 72.29C90.6954 72.29 90.9638 72.353 91.2018 72.479C91.4444 72.6003 91.6428 72.78 91.7968 73.018V70.806H92.2938ZM90.4388 75.594C90.6954 75.594 90.9264 75.5357 91.1318 75.419C91.3418 75.2977 91.5051 75.1273 91.6218 74.908C91.7431 74.6887 91.8038 74.439 91.8038 74.159C91.8038 73.879 91.7431 73.6293 91.6218 73.41C91.5051 73.1907 91.3418 73.0227 91.1318 72.906C90.9264 72.7847 90.6954 72.724 90.4388 72.724C90.1774 72.724 89.9418 72.7847 89.7318 72.906C89.5264 73.0227 89.3631 73.1907 89.2418 73.41C89.1251 73.6293 89.0668 73.879 89.0668 74.159C89.0668 74.439 89.1251 74.6887 89.2418 74.908C89.3631 75.1273 89.5264 75.2977 89.7318 75.419C89.9418 75.5357 90.1774 75.594 90.4388 75.594ZM97.029 75.776C96.9356 75.86 96.819 75.9253 96.679 75.972C96.5436 76.014 96.4013 76.035 96.252 76.035C95.9066 76.035 95.6406 75.9417 95.454 75.755C95.2673 75.5683 95.174 75.3047 95.174 74.964V72.738H94.516V72.318H95.174V71.513H95.671V72.318H96.791V72.738H95.671V74.936C95.671 75.1553 95.7246 75.3233 95.832 75.44C95.944 75.552 96.1026 75.608 96.308 75.608C96.4106 75.608 96.5086 75.5917 96.602 75.559C96.7 75.5263 96.784 75.4797 96.854 75.419L97.029 75.776ZM99.0988 76.035C98.7442 76.035 98.4245 75.9557 98.1398 75.797C97.8552 75.6337 97.6312 75.4097 97.4678 75.125C97.3045 74.8403 97.2228 74.5183 97.2228 74.159C97.2228 73.7997 97.3045 73.4777 97.4678 73.193C97.6312 72.9083 97.8552 72.6867 98.1398 72.528C98.4245 72.3693 98.7442 72.29 99.0988 72.29C99.4535 72.29 99.7732 72.3693 100.058 72.528C100.342 72.6867 100.564 72.9083 100.723 73.193C100.886 73.4777 100.968 73.7997 100.968 74.159C100.968 74.5183 100.886 74.8403 100.723 75.125C100.564 75.4097 100.342 75.6337 100.058 75.797C99.7732 75.9557 99.4535 76.035 99.0988 76.035ZM99.0988 75.594C99.3602 75.594 99.5935 75.5357 99.7988 75.419C100.009 75.2977 100.172 75.1273 100.289 74.908C100.405 74.6887 100.464 74.439 100.464 74.159C100.464 73.879 100.405 73.6293 100.289 73.41C100.172 73.1907 100.009 73.0227 99.7988 72.906C99.5935 72.7847 99.3602 72.724 99.0988 72.724C98.8375 72.724 98.6018 72.7847 98.3918 72.906C98.1865 73.0227 98.0232 73.1907 97.9018 73.41C97.7852 73.6293 97.7268 73.879 97.7268 74.159C97.7268 74.439 97.7852 74.6887 97.9018 74.908C98.0232 75.1273 98.1865 75.2977 98.3918 75.419C98.6018 75.5357 98.8375 75.594 99.0988 75.594ZM104.382 76.035C104.083 76.035 103.796 75.993 103.521 75.909C103.25 75.8203 103.038 75.7107 102.884 75.58L103.108 75.188C103.262 75.3093 103.455 75.4097 103.689 75.489C103.922 75.5637 104.165 75.601 104.417 75.601C104.753 75.601 105 75.5497 105.159 75.447C105.322 75.3397 105.404 75.1903 105.404 74.999C105.404 74.8637 105.359 74.7587 105.271 74.684C105.182 74.6047 105.07 74.5463 104.935 74.509C104.799 74.467 104.62 74.4273 104.396 74.39C104.097 74.334 103.857 74.278 103.675 74.222C103.493 74.1613 103.336 74.061 103.206 73.921C103.08 73.781 103.017 73.5873 103.017 73.34C103.017 73.032 103.145 72.78 103.402 72.584C103.658 72.388 104.015 72.29 104.473 72.29C104.711 72.29 104.949 72.3227 105.187 72.388C105.425 72.4487 105.621 72.5303 105.775 72.633L105.558 73.032C105.254 72.822 104.893 72.717 104.473 72.717C104.155 72.717 103.915 72.773 103.752 72.885C103.593 72.997 103.514 73.144 103.514 73.326C103.514 73.466 103.558 73.578 103.647 73.662C103.74 73.746 103.854 73.809 103.99 73.851C104.125 73.8883 104.312 73.928 104.55 73.97C104.844 74.026 105.079 74.082 105.257 74.138C105.434 74.194 105.586 74.2897 105.712 74.425C105.838 74.5603 105.901 74.747 105.901 74.985C105.901 75.307 105.765 75.5637 105.495 75.755C105.229 75.9417 104.858 76.035 104.382 76.035ZM109.815 74.313H106.735C106.763 74.6957 106.91 75.006 107.176 75.244C107.442 75.4773 107.778 75.594 108.184 75.594C108.413 75.594 108.623 75.5543 108.814 75.475C109.006 75.391 109.171 75.2697 109.311 75.111L109.591 75.433C109.428 75.629 109.223 75.7783 108.975 75.881C108.733 75.9837 108.464 76.035 108.17 76.035C107.792 76.035 107.456 75.9557 107.162 75.797C106.873 75.6337 106.647 75.4097 106.483 75.125C106.32 74.8403 106.238 74.5183 106.238 74.159C106.238 73.7997 106.315 73.4777 106.469 73.193C106.628 72.9083 106.843 72.6867 107.113 72.528C107.389 72.3693 107.697 72.29 108.037 72.29C108.378 72.29 108.684 72.3693 108.954 72.528C109.225 72.6867 109.437 72.9083 109.591 73.193C109.745 73.473 109.822 73.795 109.822 74.159L109.815 74.313ZM108.037 72.717C107.683 72.717 107.384 72.8313 107.141 73.06C106.903 73.284 106.768 73.578 106.735 73.942H109.346C109.314 73.578 109.176 73.284 108.933 73.06C108.695 72.8313 108.397 72.717 108.037 72.717ZM112.5 72.29C112.962 72.29 113.328 72.4253 113.599 72.696C113.874 72.962 114.012 73.3517 114.012 73.865V76H113.515V73.914C113.515 73.5313 113.419 73.2397 113.228 73.039C113.037 72.8383 112.764 72.738 112.409 72.738C112.012 72.738 111.697 72.857 111.464 73.095C111.235 73.3283 111.121 73.6527 111.121 74.068V76H110.624V72.318H111.1V72.997C111.235 72.773 111.422 72.6003 111.66 72.479C111.903 72.353 112.183 72.29 112.5 72.29ZM118.525 70.806V76H118.049V75.272C117.9 75.5193 117.701 75.7083 117.454 75.839C117.211 75.9697 116.936 76.035 116.628 76.035C116.283 76.035 115.97 75.9557 115.69 75.797C115.41 75.6383 115.191 75.4167 115.032 75.132C114.873 74.8473 114.794 74.523 114.794 74.159C114.794 73.795 114.873 73.4707 115.032 73.186C115.191 72.9013 115.41 72.682 115.69 72.528C115.97 72.3693 116.283 72.29 116.628 72.29C116.927 72.29 117.195 72.353 117.433 72.479C117.676 72.6003 117.874 72.78 118.028 73.018V70.806H118.525ZM116.67 75.594C116.927 75.594 117.158 75.5357 117.363 75.419C117.573 75.2977 117.736 75.1273 117.853 74.908C117.974 74.6887 118.035 74.439 118.035 74.159C118.035 73.879 117.974 73.6293 117.853 73.41C117.736 73.1907 117.573 73.0227 117.363 72.906C117.158 72.7847 116.927 72.724 116.67 72.724C116.409 72.724 116.173 72.7847 115.963 72.906C115.758 73.0227 115.594 73.1907 115.473 73.41C115.356 73.6293 115.298 73.879 115.298 74.159C115.298 74.439 115.356 74.6887 115.473 74.908C115.594 75.1273 115.758 75.2977 115.963 75.419C116.173 75.5357 116.409 75.594 116.67 75.594ZM124.415 72.318L122.574 76.441C122.425 76.7863 122.252 77.0313 122.056 77.176C121.86 77.3207 121.624 77.393 121.349 77.393C121.172 77.393 121.006 77.365 120.852 77.309C120.698 77.253 120.565 77.169 120.453 77.057L120.684 76.686C120.871 76.8727 121.095 76.966 121.356 76.966C121.524 76.966 121.666 76.9193 121.783 76.826C121.904 76.7327 122.016 76.574 122.119 76.35L122.28 75.993L120.635 72.318H121.153L122.539 75.447L123.925 72.318H124.415ZM126.307 76.035C125.953 76.035 125.633 75.9557 125.348 75.797C125.064 75.6337 124.84 75.4097 124.676 75.125C124.513 74.8403 124.431 74.5183 124.431 74.159C124.431 73.7997 124.513 73.4777 124.676 73.193C124.84 72.9083 125.064 72.6867 125.348 72.528C125.633 72.3693 125.953 72.29 126.307 72.29C126.662 72.29 126.982 72.3693 127.266 72.528C127.551 72.6867 127.773 72.9083 127.931 73.193C128.095 73.4777 128.176 73.7997 128.176 74.159C128.176 74.5183 128.095 74.8403 127.931 75.125C127.773 75.4097 127.551 75.6337 127.266 75.797C126.982 75.9557 126.662 76.035 126.307 76.035ZM126.307 75.594C126.569 75.594 126.802 75.5357 127.007 75.419C127.217 75.2977 127.381 75.1273 127.497 74.908C127.614 74.6887 127.672 74.439 127.672 74.159C127.672 73.879 127.614 73.6293 127.497 73.41C127.381 73.1907 127.217 73.0227 127.007 72.906C126.802 72.7847 126.569 72.724 126.307 72.724C126.046 72.724 125.81 72.7847 125.6 72.906C125.395 73.0227 125.232 73.1907 125.11 73.41C124.994 73.6293 124.935 73.879 124.935 74.159C124.935 74.439 124.994 74.6887 125.11 74.908C125.232 75.1273 125.395 75.2977 125.6 75.419C125.81 75.5357 126.046 75.594 126.307 75.594ZM132.299 72.318V76H131.823V75.328C131.692 75.552 131.513 75.727 131.284 75.853C131.055 75.9743 130.794 76.035 130.5 76.035C130.019 76.035 129.639 75.902 129.359 75.636C129.084 75.3653 128.946 74.971 128.946 74.453V72.318H129.443V74.404C129.443 74.7913 129.539 75.0853 129.73 75.286C129.921 75.4867 130.194 75.587 130.549 75.587C130.936 75.587 131.242 75.4703 131.466 75.237C131.69 74.999 131.802 74.67 131.802 74.25V72.318H132.299ZM137.042 75.776C136.949 75.86 136.832 75.9253 136.692 75.972C136.557 76.014 136.414 76.035 136.265 76.035C135.92 76.035 135.654 75.9417 135.467 75.755C135.28 75.5683 135.187 75.3047 135.187 74.964V72.738H134.529V72.318H135.187V71.513H135.684V72.318H136.804V72.738H135.684V74.936C135.684 75.1553 135.738 75.3233 135.845 75.44C135.957 75.552 136.116 75.608 136.321 75.608C136.424 75.608 136.522 75.5917 136.615 75.559C136.713 75.5263 136.797 75.4797 136.867 75.419L137.042 75.776ZM139.613 72.29C140.075 72.29 140.441 72.4253 140.712 72.696C140.987 72.962 141.125 73.3517 141.125 73.865V76H140.628V73.914C140.628 73.5313 140.532 73.2397 140.341 73.039C140.15 72.8383 139.877 72.738 139.522 72.738C139.125 72.738 138.81 72.857 138.577 73.095C138.348 73.3283 138.234 73.6527 138.234 74.068V76H137.737V70.806H138.234V72.962C138.369 72.7473 138.556 72.5817 138.794 72.465C139.032 72.3483 139.305 72.29 139.613 72.29ZM142.264 72.318H142.761V76H142.264V72.318ZM142.516 71.513C142.414 71.513 142.327 71.478 142.257 71.408C142.187 71.338 142.152 71.254 142.152 71.156C142.152 71.0627 142.187 70.981 142.257 70.911C142.327 70.841 142.414 70.806 142.516 70.806C142.619 70.806 142.705 70.841 142.775 70.911C142.845 70.9763 142.88 71.0557 142.88 71.149C142.88 71.2517 142.845 71.338 142.775 71.408C142.705 71.478 142.619 71.513 142.516 71.513ZM144.921 76.035C144.622 76.035 144.335 75.993 144.06 75.909C143.789 75.8203 143.577 75.7107 143.423 75.58L143.647 75.188C143.801 75.3093 143.995 75.4097 144.228 75.489C144.461 75.5637 144.704 75.601 144.956 75.601C145.292 75.601 145.539 75.5497 145.698 75.447C145.861 75.3397 145.943 75.1903 145.943 74.999C145.943 74.8637 145.899 74.7587 145.81 74.684C145.721 74.6047 145.609 74.5463 145.474 74.509C145.339 74.467 145.159 74.4273 144.935 74.39C144.636 74.334 144.396 74.278 144.214 74.222C144.032 74.1613 143.876 74.061 143.745 73.921C143.619 73.781 143.556 73.5873 143.556 73.34C143.556 73.032 143.684 72.78 143.941 72.584C144.198 72.388 144.555 72.29 145.012 72.29C145.25 72.29 145.488 72.3227 145.726 72.388C145.964 72.4487 146.16 72.5303 146.314 72.633L146.097 73.032C145.794 72.822 145.432 72.717 145.012 72.717C144.695 72.717 144.454 72.773 144.291 72.885C144.132 72.997 144.053 73.144 144.053 73.326C144.053 73.466 144.097 73.578 144.186 73.662C144.279 73.746 144.394 73.809 144.529 73.851C144.664 73.8883 144.851 73.928 145.089 73.97C145.383 74.026 145.619 74.082 145.796 74.138C145.973 74.194 146.125 74.2897 146.251 74.425C146.377 74.5603 146.44 74.747 146.44 74.985C146.44 75.307 146.305 75.5637 146.034 75.755C145.768 75.9417 145.397 76.035 144.921 76.035ZM150.297 76.035C149.933 76.035 149.606 75.9557 149.317 75.797C149.032 75.6383 148.808 75.4167 148.645 75.132C148.482 74.8427 148.4 74.5183 148.4 74.159C148.4 73.7997 148.482 73.4777 148.645 73.193C148.808 72.9083 149.032 72.6867 149.317 72.528C149.606 72.3693 149.933 72.29 150.297 72.29C150.614 72.29 150.897 72.353 151.144 72.479C151.396 72.6003 151.594 72.78 151.739 73.018L151.368 73.27C151.247 73.088 151.093 72.9527 150.906 72.864C150.719 72.7707 150.516 72.724 150.297 72.724C150.031 72.724 149.791 72.7847 149.576 72.906C149.366 73.0227 149.2 73.1907 149.079 73.41C148.962 73.6293 148.904 73.879 148.904 74.159C148.904 74.4437 148.962 74.6957 149.079 74.915C149.2 75.1297 149.366 75.2977 149.576 75.419C149.791 75.5357 150.031 75.594 150.297 75.594C150.516 75.594 150.719 75.5497 150.906 75.461C151.093 75.3723 151.247 75.237 151.368 75.055L151.739 75.307C151.594 75.545 151.396 75.727 151.144 75.853C150.892 75.9743 150.61 76.035 150.297 76.035ZM153.793 72.29C154.274 72.29 154.643 72.4113 154.899 72.654C155.156 72.892 155.284 73.2467 155.284 73.718V76H154.808V75.426C154.696 75.6173 154.531 75.7667 154.311 75.874C154.097 75.9813 153.84 76.035 153.541 76.035C153.131 76.035 152.804 75.937 152.561 75.741C152.319 75.545 152.197 75.286 152.197 74.964C152.197 74.6513 152.309 74.3993 152.533 74.208C152.762 74.0167 153.124 73.921 153.618 73.921H154.787V73.697C154.787 73.3797 154.699 73.1393 154.521 72.976C154.344 72.808 154.085 72.724 153.744 72.724C153.511 72.724 153.287 72.7637 153.072 72.843C152.858 72.9177 152.673 73.0227 152.519 73.158L152.295 72.787C152.482 72.6283 152.706 72.507 152.967 72.423C153.229 72.3343 153.504 72.29 153.793 72.29ZM153.618 75.643C153.898 75.643 154.139 75.58 154.339 75.454C154.54 75.3233 154.689 75.1367 154.787 74.894V74.292H153.632C153.002 74.292 152.687 74.5113 152.687 74.95C152.687 75.1647 152.769 75.335 152.932 75.461C153.096 75.5823 153.324 75.643 153.618 75.643ZM156.9 73.039C157.017 72.7917 157.19 72.605 157.418 72.479C157.652 72.353 157.939 72.29 158.279 72.29V72.773L158.16 72.766C157.773 72.766 157.47 72.885 157.25 73.123C157.031 73.361 156.921 73.6947 156.921 74.124V76H156.424V72.318H156.9V73.039ZM162.141 74.313H159.061C159.089 74.6957 159.236 75.006 159.502 75.244C159.768 75.4773 160.104 75.594 160.51 75.594C160.739 75.594 160.949 75.5543 161.14 75.475C161.331 75.391 161.497 75.2697 161.637 75.111L161.917 75.433C161.754 75.629 161.548 75.7783 161.301 75.881C161.058 75.9837 160.79 76.035 160.496 76.035C160.118 76.035 159.782 75.9557 159.488 75.797C159.199 75.6337 158.972 75.4097 158.809 75.125C158.646 74.8403 158.564 74.5183 158.564 74.159C158.564 73.7997 158.641 73.4777 158.795 73.193C158.954 72.9083 159.168 72.6867 159.439 72.528C159.714 72.3693 160.022 72.29 160.363 72.29C160.704 72.29 161.009 72.3693 161.28 72.528C161.551 72.6867 161.763 72.9083 161.917 73.193C162.071 73.473 162.148 73.795 162.148 74.159L162.141 74.313ZM160.363 72.717C160.008 72.717 159.71 72.8313 159.467 73.06C159.229 73.284 159.094 73.578 159.061 73.942H161.672C161.639 73.578 161.502 73.284 161.259 73.06C161.021 72.8313 160.722 72.717 160.363 72.717ZM166.469 72.29C166.814 72.29 167.127 72.3693 167.407 72.528C167.687 72.682 167.906 72.9013 168.065 73.186C168.223 73.4707 168.303 73.795 168.303 74.159C168.303 74.5277 168.223 74.8543 168.065 75.139C167.906 75.4237 167.687 75.6453 167.407 75.804C167.131 75.958 166.819 76.035 166.469 76.035C166.17 76.035 165.899 75.9743 165.657 75.853C165.419 75.727 165.223 75.545 165.069 75.307V77.358H164.572V72.318H165.048V73.046C165.197 72.8033 165.393 72.6167 165.636 72.486C165.883 72.3553 166.161 72.29 166.469 72.29ZM166.434 75.594C166.69 75.594 166.924 75.5357 167.134 75.419C167.344 75.2977 167.507 75.1273 167.624 74.908C167.745 74.6887 167.806 74.439 167.806 74.159C167.806 73.879 167.745 73.6317 167.624 73.417C167.507 73.1977 167.344 73.0273 167.134 72.906C166.924 72.7847 166.69 72.724 166.434 72.724C166.172 72.724 165.937 72.7847 165.727 72.906C165.521 73.0273 165.358 73.1977 165.237 73.417C165.12 73.6317 165.062 73.879 165.062 74.159C165.062 74.439 165.12 74.6887 165.237 74.908C165.358 75.1273 165.521 75.2977 165.727 75.419C165.937 75.5357 166.172 75.594 166.434 75.594ZM170.373 72.29C170.854 72.29 171.222 72.4113 171.479 72.654C171.736 72.892 171.864 73.2467 171.864 73.718V76H171.388V75.426C171.276 75.6173 171.11 75.7667 170.891 75.874C170.676 75.9813 170.42 76.035 170.121 76.035C169.71 76.035 169.384 75.937 169.141 75.741C168.898 75.545 168.777 75.286 168.777 74.964C168.777 74.6513 168.889 74.3993 169.113 74.208C169.342 74.0167 169.703 73.921 170.198 73.921H171.367V73.697C171.367 73.3797 171.278 73.1393 171.101 72.976C170.924 72.808 170.665 72.724 170.324 72.724C170.091 72.724 169.867 72.7637 169.652 72.843C169.437 72.9177 169.253 73.0227 169.099 73.158L168.875 72.787C169.062 72.6283 169.286 72.507 169.547 72.423C169.808 72.3343 170.084 72.29 170.373 72.29ZM170.198 75.643C170.478 75.643 170.718 75.58 170.919 75.454C171.12 75.3233 171.269 75.1367 171.367 74.894V74.292H170.212C169.582 74.292 169.267 74.5113 169.267 74.95C169.267 75.1647 169.349 75.335 169.512 75.461C169.675 75.5823 169.904 75.643 170.198 75.643ZM174.544 76.035C174.18 76.035 173.853 75.9557 173.564 75.797C173.279 75.6383 173.055 75.4167 172.892 75.132C172.728 74.8427 172.647 74.5183 172.647 74.159C172.647 73.7997 172.728 73.4777 172.892 73.193C173.055 72.9083 173.279 72.6867 173.564 72.528C173.853 72.3693 174.18 72.29 174.544 72.29C174.861 72.29 175.143 72.353 175.391 72.479C175.643 72.6003 175.841 72.78 175.986 73.018L175.615 73.27C175.493 73.088 175.339 72.9527 175.153 72.864C174.966 72.7707 174.763 72.724 174.544 72.724C174.278 72.724 174.037 72.7847 173.823 72.906C173.613 73.0227 173.447 73.1907 173.326 73.41C173.209 73.6293 173.151 73.879 173.151 74.159C173.151 74.4437 173.209 74.6957 173.326 74.915C173.447 75.1297 173.613 75.2977 173.823 75.419C174.037 75.5357 174.278 75.594 174.544 75.594C174.763 75.594 174.966 75.5497 175.153 75.461C175.339 75.3723 175.493 75.237 175.615 75.055L175.986 75.307C175.841 75.545 175.643 75.727 175.391 75.853C175.139 75.9743 174.856 76.035 174.544 76.035ZM178.062 74.152L177.194 74.95V76H176.697V70.806H177.194V74.327L179.392 72.318H180.008L178.433 73.823L180.155 76H179.546L178.062 74.152ZM181.911 72.29C182.392 72.29 182.76 72.4113 183.017 72.654C183.274 72.892 183.402 73.2467 183.402 73.718V76H182.926V75.426C182.814 75.6173 182.648 75.7667 182.429 75.874C182.214 75.9813 181.958 76.035 181.659 76.035C181.248 76.035 180.922 75.937 180.679 75.741C180.436 75.545 180.315 75.286 180.315 74.964C180.315 74.6513 180.427 74.3993 180.651 74.208C180.88 74.0167 181.241 73.921 181.736 73.921H182.905V73.697C182.905 73.3797 182.816 73.1393 182.639 72.976C182.462 72.808 182.203 72.724 181.862 72.724C181.629 72.724 181.405 72.7637 181.19 72.843C180.975 72.9177 180.791 73.0227 180.637 73.158L180.413 72.787C180.6 72.6283 180.824 72.507 181.085 72.423C181.346 72.3343 181.622 72.29 181.911 72.29ZM181.736 75.643C182.016 75.643 182.256 75.58 182.457 75.454C182.658 75.3233 182.807 75.1367 182.905 74.894V74.292H181.75C181.12 74.292 180.805 74.5113 180.805 74.95C180.805 75.1647 180.887 75.335 181.05 75.461C181.213 75.5823 181.442 75.643 181.736 75.643ZM187.965 72.318V75.552C187.965 76.1773 187.811 76.6393 187.503 76.938C187.199 77.2413 186.74 77.393 186.124 77.393C185.783 77.393 185.459 77.3417 185.151 77.239C184.847 77.141 184.6 77.0033 184.409 76.826L184.661 76.448C184.838 76.6067 185.053 76.7303 185.305 76.819C185.561 76.9077 185.83 76.952 186.11 76.952C186.576 76.952 186.919 76.8423 187.139 76.623C187.358 76.4083 187.468 76.0723 187.468 75.615V75.146C187.314 75.3793 187.111 75.5567 186.859 75.678C186.611 75.7993 186.336 75.86 186.033 75.86C185.687 75.86 185.372 75.7853 185.088 75.636C184.808 75.482 184.586 75.2697 184.423 74.999C184.264 74.7237 184.185 74.4133 184.185 74.068C184.185 73.7227 184.264 73.4147 184.423 73.144C184.586 72.8733 184.808 72.6633 185.088 72.514C185.368 72.3647 185.683 72.29 186.033 72.29C186.345 72.29 186.628 72.353 186.88 72.479C187.132 72.605 187.335 72.787 187.489 73.025V72.318H187.965ZM186.082 75.419C186.348 75.419 186.588 75.363 186.803 75.251C187.017 75.1343 187.183 74.9733 187.3 74.768C187.421 74.5627 187.482 74.3293 187.482 74.068C187.482 73.8067 187.421 73.5757 187.3 73.375C187.183 73.1697 187.017 73.011 186.803 72.899C186.593 72.7823 186.352 72.724 186.082 72.724C185.816 72.724 185.575 72.78 185.361 72.892C185.151 73.004 184.985 73.1627 184.864 73.368C184.747 73.5733 184.689 73.8067 184.689 74.068C184.689 74.3293 184.747 74.5627 184.864 74.768C184.985 74.9733 185.151 75.1343 185.361 75.251C185.575 75.363 185.816 75.419 186.082 75.419ZM192.351 74.313H189.271C189.299 74.6957 189.446 75.006 189.712 75.244C189.978 75.4773 190.314 75.594 190.72 75.594C190.948 75.594 191.158 75.5543 191.35 75.475C191.541 75.391 191.707 75.2697 191.847 75.111L192.127 75.433C191.963 75.629 191.758 75.7783 191.511 75.881C191.268 75.9837 191 76.035 190.706 76.035C190.328 76.035 189.992 75.9557 189.698 75.797C189.408 75.6337 189.182 75.4097 189.019 75.125C188.855 74.8403 188.774 74.5183 188.774 74.159C188.774 73.7997 188.851 73.4777 189.005 73.193C189.163 72.9083 189.378 72.6867 189.649 72.528C189.924 72.3693 190.232 72.29 190.573 72.29C190.913 72.29 191.219 72.3693 191.49 72.528C191.76 72.6867 191.973 72.9083 192.127 73.193C192.281 73.473 192.358 73.795 192.358 74.159L192.351 74.313ZM190.573 72.717C190.218 72.717 189.919 72.8313 189.677 73.06C189.439 73.284 189.303 73.578 189.271 73.942H191.882C191.849 73.578 191.711 73.284 191.469 73.06C191.231 72.8313 190.932 72.717 190.573 72.717Z" fill="black"/>
<path d="M52.632 96.776C52.5387 96.86 52.422 96.9253 52.282 96.972C52.1467 97.014 52.0043 97.035 51.855 97.035C51.5097 97.035 51.2437 96.9417 51.057 96.755C50.8703 96.5683 50.777 96.3047 50.777 95.964V93.738H50.119V93.318H50.777V92.513H51.274V93.318H52.394V93.738H51.274V95.936C51.274 96.1553 51.3277 96.3233 51.435 96.44C51.547 96.552 51.7057 96.608 51.911 96.608C52.0137 96.608 52.1117 96.5917 52.205 96.559C52.303 96.5263 52.387 96.4797 52.457 96.419L52.632 96.776ZM54.7019 97.035C54.3472 97.035 54.0275 96.9557 53.7429 96.797C53.4582 96.6337 53.2342 96.4097 53.0709 96.125C52.9075 95.8403 52.8259 95.5183 52.8259 95.159C52.8259 94.7997 52.9075 94.4777 53.0709 94.193C53.2342 93.9083 53.4582 93.6867 53.7429 93.528C54.0275 93.3693 54.3472 93.29 54.7019 93.29C55.0565 93.29 55.3762 93.3693 55.6609 93.528C55.9455 93.6867 56.1672 93.9083 56.3259 94.193C56.4892 94.4777 56.5709 94.7997 56.5709 95.159C56.5709 95.5183 56.4892 95.8403 56.3259 96.125C56.1672 96.4097 55.9455 96.6337 55.6609 96.797C55.3762 96.9557 55.0565 97.035 54.7019 97.035ZM54.7019 96.594C54.9632 96.594 55.1965 96.5357 55.4019 96.419C55.6119 96.2977 55.7752 96.1273 55.8919 95.908C56.0085 95.6887 56.0669 95.439 56.0669 95.159C56.0669 94.879 56.0085 94.6293 55.8919 94.41C55.7752 94.1907 55.6119 94.0227 55.4019 93.906C55.1965 93.7847 54.9632 93.724 54.7019 93.724C54.4405 93.724 54.2049 93.7847 53.9949 93.906C53.7895 94.0227 53.6262 94.1907 53.5049 94.41C53.3882 94.6293 53.3299 94.879 53.3299 95.159C53.3299 95.439 53.3882 95.6887 53.5049 95.908C53.6262 96.1273 53.7895 96.2977 53.9949 96.419C54.2049 96.5357 54.4405 96.594 54.7019 96.594ZM59.9846 97.035C59.6859 97.035 59.3989 96.993 59.1236 96.909C58.8529 96.8203 58.6406 96.7107 58.4866 96.58L58.7106 96.188C58.8646 96.3093 59.0582 96.4097 59.2916 96.489C59.5249 96.5637 59.7676 96.601 60.0196 96.601C60.3556 96.601 60.6029 96.5497 60.7616 96.447C60.9249 96.3397 61.0066 96.1903 61.0066 95.999C61.0066 95.8637 60.9622 95.7587 60.8736 95.684C60.7849 95.6047 60.6729 95.5463 60.5376 95.509C60.4022 95.467 60.2226 95.4273 59.9986 95.39C59.6999 95.334 59.4596 95.278 59.2776 95.222C59.0956 95.1613 58.9392 95.061 58.8086 94.921C58.6826 94.781 58.6196 94.5873 58.6196 94.34C58.6196 94.032 58.7479 93.78 59.0046 93.584C59.2612 93.388 59.6182 93.29 60.0756 93.29C60.3136 93.29 60.5516 93.3227 60.7896 93.388C61.0276 93.4487 61.2236 93.5303 61.3776 93.633L61.1606 94.032C60.8572 93.822 60.4956 93.717 60.0756 93.717C59.7582 93.717 59.5179 93.773 59.3546 93.885C59.1959 93.997 59.1166 94.144 59.1166 94.326C59.1166 94.466 59.1609 94.578 59.2496 94.662C59.3429 94.746 59.4572 94.809 59.5926 94.851C59.7279 94.8883 59.9146 94.928 60.1526 94.97C60.4466 95.026 60.6822 95.082 60.8596 95.138C61.0369 95.194 61.1886 95.2897 61.3146 95.425C61.4406 95.5603 61.5036 95.747 61.5036 95.985C61.5036 96.307 61.3682 96.5637 61.0976 96.755C60.8316 96.9417 60.4606 97.035 59.9846 97.035ZM64.0884 93.29C64.5504 93.29 64.9167 93.4253 65.1874 93.696C65.4627 93.962 65.6004 94.3517 65.6004 94.865V97H65.1034V94.914C65.1034 94.5313 65.0077 94.2397 64.8164 94.039C64.625 93.8383 64.352 93.738 63.9974 93.738C63.6007 93.738 63.2857 93.857 63.0524 94.095C62.8237 94.3283 62.7094 94.6527 62.7094 95.068V97H62.2124V91.806H62.7094V93.962C62.8447 93.7473 63.0314 93.5817 63.2694 93.465C63.5074 93.3483 63.7804 93.29 64.0884 93.29ZM68.2584 97.035C67.9037 97.035 67.584 96.9557 67.2994 96.797C67.0147 96.6337 66.7907 96.4097 66.6274 96.125C66.464 95.8403 66.3824 95.5183 66.3824 95.159C66.3824 94.7997 66.464 94.4777 66.6274 94.193C66.7907 93.9083 67.0147 93.6867 67.2994 93.528C67.584 93.3693 67.9037 93.29 68.2584 93.29C68.613 93.29 68.9327 93.3693 69.2174 93.528C69.502 93.6867 69.7237 93.9083 69.8824 94.193C70.0457 94.4777 70.1274 94.7997 70.1274 95.159C70.1274 95.5183 70.0457 95.8403 69.8824 96.125C69.7237 96.4097 69.502 96.6337 69.2174 96.797C68.9327 96.9557 68.613 97.035 68.2584 97.035ZM68.2584 96.594C68.5197 96.594 68.753 96.5357 68.9584 96.419C69.1684 96.2977 69.3317 96.1273 69.4484 95.908C69.565 95.6887 69.6234 95.439 69.6234 95.159C69.6234 94.879 69.565 94.6293 69.4484 94.41C69.3317 94.1907 69.1684 94.0227 68.9584 93.906C68.753 93.7847 68.5197 93.724 68.2584 93.724C67.997 93.724 67.7614 93.7847 67.5514 93.906C67.346 94.0227 67.1827 94.1907 67.0614 94.41C66.9447 94.6293 66.8864 94.879 66.8864 95.159C66.8864 95.439 66.9447 95.6887 67.0614 95.908C67.1827 96.1273 67.346 96.2977 67.5514 96.419C67.7614 96.5357 67.997 96.594 68.2584 96.594ZM76.2335 93.318L74.8405 97H74.3715L73.2095 93.983L72.0475 97H71.5785L70.1925 93.318H70.6685L71.8235 96.447L73.0065 93.318H73.4335L74.6095 96.447L75.7785 93.318H76.2335ZM79.8989 97.035C79.5442 97.035 79.2245 96.9557 78.9399 96.797C78.6552 96.6337 78.4312 96.4097 78.2679 96.125C78.1045 95.8403 78.0229 95.5183 78.0229 95.159C78.0229 94.7997 78.1045 94.4777 78.2679 94.193C78.4312 93.9083 78.6552 93.6867 78.9399 93.528C79.2245 93.3693 79.5442 93.29 79.8989 93.29C80.2535 93.29 80.5732 93.3693 80.8579 93.528C81.1425 93.6867 81.3642 93.9083 81.5229 94.193C81.6862 94.4777 81.7679 94.7997 81.7679 95.159C81.7679 95.5183 81.6862 95.8403 81.5229 96.125C81.3642 96.4097 81.1425 96.6337 80.8579 96.797C80.5732 96.9557 80.2535 97.035 79.8989 97.035ZM79.8989 96.594C80.1602 96.594 80.3935 96.5357 80.5989 96.419C80.8089 96.2977 80.9722 96.1273 81.0889 95.908C81.2055 95.6887 81.2639 95.439 81.2639 95.159C81.2639 94.879 81.2055 94.6293 81.0889 94.41C80.9722 94.1907 80.8089 94.0227 80.5989 93.906C80.3935 93.7847 80.1602 93.724 79.8989 93.724C79.6375 93.724 79.4019 93.7847 79.1919 93.906C78.9865 94.0227 78.8232 94.1907 78.7019 94.41C78.5852 94.6293 78.5269 94.879 78.5269 95.159C78.5269 95.439 78.5852 95.6887 78.7019 95.908C78.8232 96.1273 78.9865 96.2977 79.1919 96.419C79.4019 96.5357 79.6375 96.594 79.8989 96.594ZM85.8905 93.318V97H85.4145V96.328C85.2839 96.552 85.1042 96.727 84.8755 96.853C84.6469 96.9743 84.3855 97.035 84.0915 97.035C83.6109 97.035 83.2305 96.902 82.9505 96.636C82.6752 96.3653 82.5375 95.971 82.5375 95.453V93.318H83.0345V95.404C83.0345 95.7913 83.1302 96.0853 83.3215 96.286C83.5129 96.4867 83.7859 96.587 84.1405 96.587C84.5279 96.587 84.8335 96.4703 85.0575 96.237C85.2815 95.999 85.3935 95.67 85.3935 95.25V93.318H85.8905ZM87.5485 94.039C87.6652 93.7917 87.8378 93.605 88.0665 93.479C88.2998 93.353 88.5868 93.29 88.9275 93.29V93.773L88.8085 93.766C88.4212 93.766 88.1178 93.885 87.8985 94.123C87.6792 94.361 87.5695 94.6947 87.5695 95.124V97H87.0725V93.318H87.5485V94.039ZM92.5821 93.29C93.0628 93.29 93.4314 93.4113 93.6881 93.654C93.9448 93.892 94.0731 94.2467 94.0731 94.718V97H93.5971V96.426C93.4851 96.6173 93.3194 96.7667 93.1001 96.874C92.8854 96.9813 92.6288 97.035 92.3301 97.035C91.9194 97.035 91.5928 96.937 91.3501 96.741C91.1074 96.545 90.9861 96.286 90.9861 95.964C90.9861 95.6513 91.0981 95.3993 91.3221 95.208C91.5508 95.0167 91.9124 94.921 92.4071 94.921H93.5761V94.697C93.5761 94.3797 93.4874 94.1393 93.3101 93.976C93.1328 93.808 92.8738 93.724 92.5331 93.724C92.2998 93.724 92.0758 93.7637 91.8611 93.843C91.6464 93.9177 91.4621 94.0227 91.3081 94.158L91.0841 93.787C91.2708 93.6283 91.4948 93.507 91.7561 93.423C92.0174 93.3343 92.2928 93.29 92.5821 93.29ZM92.4071 96.643C92.6871 96.643 92.9274 96.58 93.1281 96.454C93.3288 96.3233 93.4781 96.1367 93.5761 95.894V95.292H92.4211C91.7911 95.292 91.4761 95.5113 91.4761 95.95C91.4761 96.1647 91.5578 96.335 91.7211 96.461C91.8844 96.5823 92.1131 96.643 92.4071 96.643ZM97.11 93.29C97.4553 93.29 97.768 93.3693 98.048 93.528C98.328 93.682 98.5473 93.9013 98.706 94.186C98.8647 94.4707 98.944 94.795 98.944 95.159C98.944 95.5277 98.8647 95.8543 98.706 96.139C98.5473 96.4237 98.328 96.6453 98.048 96.804C97.7727 96.958 97.46 97.035 97.11 97.035C96.8113 97.035 96.5407 96.9743 96.298 96.853C96.06 96.727 95.864 96.545 95.71 96.307V98.358H95.213V93.318H95.689V94.046C95.8383 93.8033 96.0343 93.6167 96.277 93.486C96.5243 93.3553 96.802 93.29 97.11 93.29ZM97.075 96.594C97.3317 96.594 97.565 96.5357 97.775 96.419C97.985 96.2977 98.1483 96.1273 98.265 95.908C98.3863 95.6887 98.447 95.439 98.447 95.159C98.447 94.879 98.3863 94.6317 98.265 94.417C98.1483 94.1977 97.985 94.0273 97.775 93.906C97.565 93.7847 97.3317 93.724 97.075 93.724C96.8137 93.724 96.578 93.7847 96.368 93.906C96.1627 94.0273 95.9993 94.1977 95.878 94.417C95.7613 94.6317 95.703 94.879 95.703 95.159C95.703 95.439 95.7613 95.6887 95.878 95.908C95.9993 96.1273 96.1627 96.2977 96.368 96.419C96.578 96.5357 96.8137 96.594 97.075 96.594ZM101.644 93.29C101.989 93.29 102.302 93.3693 102.582 93.528C102.862 93.682 103.081 93.9013 103.24 94.186C103.399 94.4707 103.478 94.795 103.478 95.159C103.478 95.5277 103.399 95.8543 103.24 96.139C103.081 96.4237 102.862 96.6453 102.582 96.804C102.307 96.958 101.994 97.035 101.644 97.035C101.345 97.035 101.075 96.9743 100.832 96.853C100.594 96.727 100.398 96.545 100.244 96.307V98.358H99.7471V93.318H100.223V94.046C100.372 93.8033 100.568 93.6167 100.811 93.486C101.058 93.3553 101.336 93.29 101.644 93.29ZM101.609 96.594C101.866 96.594 102.099 96.5357 102.309 96.419C102.519 96.2977 102.682 96.1273 102.799 95.908C102.92 95.6887 102.981 95.439 102.981 95.159C102.981 94.879 102.92 94.6317 102.799 94.417C102.682 94.1977 102.519 94.0273 102.309 93.906C102.099 93.7847 101.866 93.724 101.609 93.724C101.348 93.724 101.112 93.7847 100.902 93.906C100.697 94.0273 100.533 94.1977 100.412 94.417C100.295 94.6317 100.237 94.879 100.237 95.159C100.237 95.439 100.295 95.6887 100.412 95.908C100.533 96.1273 100.697 96.2977 100.902 96.419C101.112 96.5357 101.348 96.594 101.609 96.594ZM104.757 94.039C104.874 93.7917 105.047 93.605 105.275 93.479C105.509 93.353 105.796 93.29 106.136 93.29V93.773L106.017 93.766C105.63 93.766 105.327 93.885 105.107 94.123C104.888 94.361 104.778 94.6947 104.778 95.124V97H104.281V93.318H104.757V94.039ZM109.998 95.313H106.918C106.946 95.6957 107.093 96.006 107.359 96.244C107.625 96.4773 107.961 96.594 108.367 96.594C108.596 96.594 108.806 96.5543 108.997 96.475C109.188 96.391 109.354 96.2697 109.494 96.111L109.774 96.433C109.611 96.629 109.405 96.7783 109.158 96.881C108.915 96.9837 108.647 97.035 108.353 97.035C107.975 97.035 107.639 96.9557 107.345 96.797C107.056 96.6337 106.829 96.4097 106.666 96.125C106.503 95.8403 106.421 95.5183 106.421 95.159C106.421 94.7997 106.498 94.4777 106.652 94.193C106.811 93.9083 107.025 93.6867 107.296 93.528C107.571 93.3693 107.879 93.29 108.22 93.29C108.561 93.29 108.866 93.3693 109.137 93.528C109.408 93.6867 109.62 93.9083 109.774 94.193C109.928 94.473 110.005 94.795 110.005 95.159L109.998 95.313ZM108.22 93.717C107.865 93.717 107.567 93.8313 107.324 94.06C107.086 94.284 106.951 94.578 106.918 94.942H109.529C109.496 94.578 109.359 94.284 109.116 94.06C108.878 93.8313 108.579 93.717 108.22 93.717ZM112.333 97.035C111.969 97.035 111.642 96.9557 111.353 96.797C111.068 96.6383 110.844 96.4167 110.681 96.132C110.517 95.8427 110.436 95.5183 110.436 95.159C110.436 94.7997 110.517 94.4777 110.681 94.193C110.844 93.9083 111.068 93.6867 111.353 93.528C111.642 93.3693 111.969 93.29 112.333 93.29C112.65 93.29 112.932 93.353 113.18 93.479C113.432 93.6003 113.63 93.78 113.775 94.018L113.404 94.27C113.282 94.088 113.128 93.9527 112.942 93.864C112.755 93.7707 112.552 93.724 112.333 93.724C112.067 93.724 111.826 93.7847 111.612 93.906C111.402 94.0227 111.236 94.1907 111.115 94.41C110.998 94.6293 110.94 94.879 110.94 95.159C110.94 95.4437 110.998 95.6957 111.115 95.915C111.236 96.1297 111.402 96.2977 111.612 96.419C111.826 96.5357 112.067 96.594 112.333 96.594C112.552 96.594 112.755 96.5497 112.942 96.461C113.128 96.3723 113.282 96.237 113.404 96.055L113.775 96.307C113.63 96.545 113.432 96.727 113.18 96.853C112.928 96.9743 112.645 97.035 112.333 97.035ZM114.541 93.318H115.038V97H114.541V93.318ZM114.793 92.513C114.69 92.513 114.604 92.478 114.534 92.408C114.464 92.338 114.429 92.254 114.429 92.156C114.429 92.0627 114.464 91.981 114.534 91.911C114.604 91.841 114.69 91.806 114.793 91.806C114.896 91.806 114.982 91.841 115.052 91.911C115.122 91.9763 115.157 92.0557 115.157 92.149C115.157 92.2517 115.122 92.338 115.052 92.408C114.982 92.478 114.896 92.513 114.793 92.513ZM117.499 93.29C117.979 93.29 118.348 93.4113 118.605 93.654C118.861 93.892 118.99 94.2467 118.99 94.718V97H118.514V96.426C118.402 96.6173 118.236 96.7667 118.017 96.874C117.802 96.9813 117.545 97.035 117.247 97.035C116.836 97.035 116.509 96.937 116.267 96.741C116.024 96.545 115.903 96.286 115.903 95.964C115.903 95.6513 116.015 95.3993 116.239 95.208C116.467 95.0167 116.829 94.921 117.324 94.921H118.493V94.697C118.493 94.3797 118.404 94.1393 118.227 93.976C118.049 93.808 117.79 93.724 117.45 93.724C117.216 93.724 116.992 93.7637 116.778 93.843C116.563 93.9177 116.379 94.0227 116.225 94.158L116.001 93.787C116.187 93.6283 116.411 93.507 116.673 93.423C116.934 93.3343 117.209 93.29 117.499 93.29ZM117.324 96.643C117.604 96.643 117.844 96.58 118.045 96.454C118.245 96.3233 118.395 96.1367 118.493 95.894V95.292H117.338C116.708 95.292 116.393 95.5113 116.393 95.95C116.393 96.1647 116.474 96.335 116.638 96.461C116.801 96.5823 117.03 96.643 117.324 96.643ZM122.069 96.776C121.975 96.86 121.859 96.9253 121.719 96.972C121.583 97.014 121.441 97.035 121.292 97.035C120.946 97.035 120.68 96.9417 120.494 96.755C120.307 96.5683 120.214 96.3047 120.214 95.964V93.738H119.556V93.318H120.214V92.513H120.711V93.318H121.831V93.738H120.711V95.936C120.711 96.1553 120.764 96.3233 120.872 96.44C120.984 96.552 121.142 96.608 121.348 96.608C121.45 96.608 121.548 96.5917 121.642 96.559C121.74 96.5263 121.824 96.4797 121.894 96.419L122.069 96.776ZM122.763 93.318H123.26V97H122.763V93.318ZM123.015 92.513C122.913 92.513 122.826 92.478 122.756 92.408C122.686 92.338 122.651 92.254 122.651 92.156C122.651 92.0627 122.686 91.981 122.756 91.911C122.826 91.841 122.913 91.806 123.015 91.806C123.118 91.806 123.204 91.841 123.274 91.911C123.344 91.9763 123.379 92.0557 123.379 92.149C123.379 92.2517 123.344 92.338 123.274 92.408C123.204 92.478 123.118 92.513 123.015 92.513ZM125.938 97.035C125.584 97.035 125.264 96.9557 124.979 96.797C124.695 96.6337 124.471 96.4097 124.307 96.125C124.144 95.8403 124.062 95.5183 124.062 95.159C124.062 94.7997 124.144 94.4777 124.307 94.193C124.471 93.9083 124.695 93.6867 124.979 93.528C125.264 93.3693 125.584 93.29 125.938 93.29C126.293 93.29 126.613 93.3693 126.897 93.528C127.182 93.6867 127.404 93.9083 127.562 94.193C127.726 94.4777 127.807 94.7997 127.807 95.159C127.807 95.5183 127.726 95.8403 127.562 96.125C127.404 96.4097 127.182 96.6337 126.897 96.797C126.613 96.9557 126.293 97.035 125.938 97.035ZM125.938 96.594C126.2 96.594 126.433 96.5357 126.638 96.419C126.848 96.2977 127.012 96.1273 127.128 95.908C127.245 95.6887 127.303 95.439 127.303 95.159C127.303 94.879 127.245 94.6293 127.128 94.41C127.012 94.1907 126.848 94.0227 126.638 93.906C126.433 93.7847 126.2 93.724 125.938 93.724C125.677 93.724 125.441 93.7847 125.231 93.906C125.026 94.0227 124.863 94.1907 124.741 94.41C124.625 94.6293 124.566 94.879 124.566 95.159C124.566 95.439 124.625 95.6887 124.741 95.908C124.863 96.1273 125.026 96.2977 125.231 96.419C125.441 96.5357 125.677 96.594 125.938 96.594ZM130.488 93.29C130.95 93.29 131.316 93.4253 131.587 93.696C131.862 93.962 132 94.3517 132 94.865V97H131.503V94.914C131.503 94.5313 131.407 94.2397 131.216 94.039C131.025 93.8383 130.752 93.738 130.397 93.738C130 93.738 129.685 93.857 129.452 94.095C129.223 94.3283 129.109 94.6527 129.109 95.068V97H128.612V93.318H129.088V93.997C129.223 93.773 129.41 93.6003 129.648 93.479C129.891 93.353 130.171 93.29 130.488 93.29ZM133.188 97.035C133.086 97.035 132.997 96.9977 132.922 96.923C132.852 96.8483 132.817 96.7573 132.817 96.65C132.817 96.5427 132.852 96.454 132.922 96.384C132.997 96.3093 133.086 96.272 133.188 96.272C133.291 96.272 133.38 96.3093 133.454 96.384C133.529 96.454 133.566 96.5427 133.566 96.65C133.566 96.7573 133.529 96.8483 133.454 96.923C133.38 96.9977 133.291 97.035 133.188 97.035ZM137.659 94.697L136.658 95.712V97H136.14V92.1H136.658V95.061L139.535 92.1H140.13L138.009 94.319L140.277 97H139.661L137.659 94.697ZM143.836 95.313H140.756C140.784 95.6957 140.931 96.006 141.197 96.244C141.463 96.4773 141.799 96.594 142.205 96.594C142.434 96.594 142.644 96.5543 142.835 96.475C143.027 96.391 143.192 96.2697 143.332 96.111L143.612 96.433C143.449 96.629 143.244 96.7783 142.996 96.881C142.754 96.9837 142.485 97.035 142.191 97.035C141.813 97.035 141.477 96.9557 141.183 96.797C140.894 96.6337 140.668 96.4097 140.504 96.125C140.341 95.8403 140.259 95.5183 140.259 95.159C140.259 94.7997 140.336 94.4777 140.49 94.193C140.649 93.9083 140.864 93.6867 141.134 93.528C141.41 93.3693 141.718 93.29 142.058 93.29C142.399 93.29 142.705 93.3693 142.975 93.528C143.246 93.6867 143.458 93.9083 143.612 94.193C143.766 94.473 143.843 94.795 143.843 95.159L143.836 95.313ZM142.058 93.717C141.704 93.717 141.405 93.8313 141.162 94.06C140.924 94.284 140.789 94.578 140.756 94.942H143.367C143.335 94.578 143.197 94.284 142.954 94.06C142.716 93.8313 142.418 93.717 142.058 93.717ZM147.851 95.313H144.771C144.799 95.6957 144.946 96.006 145.212 96.244C145.478 96.4773 145.814 96.594 146.22 96.594C146.449 96.594 146.659 96.5543 146.85 96.475C147.041 96.391 147.207 96.2697 147.347 96.111L147.627 96.433C147.464 96.629 147.258 96.7783 147.011 96.881C146.768 96.9837 146.5 97.035 146.206 97.035C145.828 97.035 145.492 96.9557 145.198 96.797C144.909 96.6337 144.682 96.4097 144.519 96.125C144.356 95.8403 144.274 95.5183 144.274 95.159C144.274 94.7997 144.351 94.4777 144.505 94.193C144.664 93.9083 144.878 93.6867 145.149 93.528C145.424 93.3693 145.732 93.29 146.073 93.29C146.414 93.29 146.719 93.3693 146.99 93.528C147.261 93.6867 147.473 93.9083 147.627 94.193C147.781 94.473 147.858 94.795 147.858 95.159L147.851 95.313ZM146.073 93.717C145.718 93.717 145.42 93.8313 145.177 94.06C144.939 94.284 144.804 94.578 144.771 94.942H147.382C147.349 94.578 147.212 94.284 146.969 94.06C146.731 93.8313 146.432 93.717 146.073 93.717ZM150.557 93.29C150.902 93.29 151.215 93.3693 151.495 93.528C151.775 93.682 151.994 93.9013 152.153 94.186C152.311 94.4707 152.391 94.795 152.391 95.159C152.391 95.5277 152.311 95.8543 152.153 96.139C151.994 96.4237 151.775 96.6453 151.495 96.804C151.219 96.958 150.907 97.035 150.557 97.035C150.258 97.035 149.987 96.9743 149.745 96.853C149.507 96.727 149.311 96.545 149.157 96.307V98.358H148.66V93.318H149.136V94.046C149.285 93.8033 149.481 93.6167 149.724 93.486C149.971 93.3553 150.249 93.29 150.557 93.29ZM150.522 96.594C150.778 96.594 151.012 96.5357 151.222 96.419C151.432 96.2977 151.595 96.1273 151.712 95.908C151.833 95.6887 151.894 95.439 151.894 95.159C151.894 94.879 151.833 94.6317 151.712 94.417C151.595 94.1977 151.432 94.0273 151.222 93.906C151.012 93.7847 150.778 93.724 150.522 93.724C150.26 93.724 150.025 93.7847 149.815 93.906C149.609 94.0273 149.446 94.1977 149.325 94.417C149.208 94.6317 149.15 94.879 149.15 95.159C149.15 95.439 149.208 95.6887 149.325 95.908C149.446 96.1273 149.609 96.2977 149.815 96.419C150.025 96.5357 150.26 96.594 150.522 96.594ZM158.134 93.318V97H157.658V96.328C157.527 96.552 157.347 96.727 157.119 96.853C156.89 96.9743 156.629 97.035 156.335 97.035C155.854 97.035 155.474 96.902 155.194 96.636C154.918 96.3653 154.781 95.971 154.781 95.453V93.318H155.278V95.404C155.278 95.7913 155.373 96.0853 155.565 96.286C155.756 96.4867 156.029 96.587 156.384 96.587C156.771 96.587 157.077 96.4703 157.301 96.237C157.525 95.999 157.637 95.67 157.637 95.25V93.318H158.134ZM161.213 93.29C161.558 93.29 161.871 93.3693 162.151 93.528C162.431 93.682 162.65 93.9013 162.809 94.186C162.967 94.4707 163.047 94.795 163.047 95.159C163.047 95.5277 162.967 95.8543 162.809 96.139C162.65 96.4237 162.431 96.6453 162.151 96.804C161.875 96.958 161.563 97.035 161.213 97.035C160.914 97.035 160.643 96.9743 160.401 96.853C160.163 96.727 159.967 96.545 159.813 96.307V98.358H159.316V93.318H159.792V94.046C159.941 93.8033 160.137 93.6167 160.38 93.486C160.627 93.3553 160.905 93.29 161.213 93.29ZM161.178 96.594C161.434 96.594 161.668 96.5357 161.878 96.419C162.088 96.2977 162.251 96.1273 162.368 95.908C162.489 95.6887 162.55 95.439 162.55 95.159C162.55 94.879 162.489 94.6317 162.368 94.417C162.251 94.1977 162.088 94.0273 161.878 93.906C161.668 93.7847 161.434 93.724 161.178 93.724C160.916 93.724 160.681 93.7847 160.471 93.906C160.265 94.0273 160.102 94.1977 159.981 94.417C159.864 94.6317 159.806 94.879 159.806 95.159C159.806 95.439 159.864 95.6887 159.981 95.908C160.102 96.1273 160.265 96.2977 160.471 96.419C160.681 96.5357 160.916 96.594 161.178 96.594ZM167.411 96.776C167.318 96.86 167.201 96.9253 167.061 96.972C166.926 97.014 166.783 97.035 166.634 97.035C166.289 97.035 166.023 96.9417 165.836 96.755C165.649 96.5683 165.556 96.3047 165.556 95.964V93.738H164.898V93.318H165.556V92.513H166.053V93.318H167.173V93.738H166.053V95.936C166.053 96.1553 166.107 96.3233 166.214 96.44C166.326 96.552 166.485 96.608 166.69 96.608C166.793 96.608 166.891 96.5917 166.984 96.559C167.082 96.5263 167.166 96.4797 167.236 96.419L167.411 96.776ZM169.982 93.29C170.444 93.29 170.81 93.4253 171.081 93.696C171.356 93.962 171.494 94.3517 171.494 94.865V97H170.997V94.914C170.997 94.5313 170.901 94.2397 170.71 94.039C170.518 93.8383 170.245 93.738 169.891 93.738C169.494 93.738 169.179 93.857 168.946 94.095C168.717 94.3283 168.603 94.6527 168.603 95.068V97H168.106V91.806H168.603V93.962C168.738 93.7473 168.925 93.5817 169.163 93.465C169.401 93.3483 169.674 93.29 169.982 93.29ZM175.853 95.313H172.773C172.801 95.6957 172.948 96.006 173.214 96.244C173.48 96.4773 173.816 96.594 174.222 96.594C174.45 96.594 174.66 96.5543 174.852 96.475C175.043 96.391 175.209 96.2697 175.349 96.111L175.629 96.433C175.465 96.629 175.26 96.7783 175.013 96.881C174.77 96.9837 174.502 97.035 174.208 97.035C173.83 97.035 173.494 96.9557 173.2 96.797C172.91 96.6337 172.684 96.4097 172.521 96.125C172.357 95.8403 172.276 95.5183 172.276 95.159C172.276 94.7997 172.353 94.4777 172.507 94.193C172.665 93.9083 172.88 93.6867 173.151 93.528C173.426 93.3693 173.734 93.29 174.075 93.29C174.415 93.29 174.721 93.3693 174.992 93.528C175.262 93.6867 175.475 93.9083 175.629 94.193C175.783 94.473 175.86 94.795 175.86 95.159L175.853 95.313ZM174.075 93.717C173.72 93.717 173.421 93.8313 173.179 94.06C172.941 94.284 172.805 94.578 172.773 94.942H175.384C175.351 94.578 175.213 94.284 174.971 94.06C174.733 93.8313 174.434 93.717 174.075 93.717ZM183.687 93.318L182.294 97H181.825L180.663 93.983L179.501 97H179.032L177.646 93.318H178.122L179.277 96.447L180.46 93.318H180.887L182.063 96.447L183.232 93.318H183.687ZM185.628 97.035C185.273 97.035 184.954 96.9557 184.669 96.797C184.384 96.6337 184.16 96.4097 183.997 96.125C183.834 95.8403 183.752 95.5183 183.752 95.159C183.752 94.7997 183.834 94.4777 183.997 94.193C184.16 93.9083 184.384 93.6867 184.669 93.528C184.954 93.3693 185.273 93.29 185.628 93.29C185.983 93.29 186.302 93.3693 186.587 93.528C186.872 93.6867 187.093 93.9083 187.252 94.193C187.415 94.4777 187.497 94.7997 187.497 95.159C187.497 95.5183 187.415 95.8403 187.252 96.125C187.093 96.4097 186.872 96.6337 186.587 96.797C186.302 96.9557 185.983 97.035 185.628 97.035ZM185.628 96.594C185.889 96.594 186.123 96.5357 186.328 96.419C186.538 96.2977 186.701 96.1273 186.818 95.908C186.935 95.6887 186.993 95.439 186.993 95.159C186.993 94.879 186.935 94.6293 186.818 94.41C186.701 94.1907 186.538 94.0227 186.328 93.906C186.123 93.7847 185.889 93.724 185.628 93.724C185.367 93.724 185.131 93.7847 184.921 93.906C184.716 94.0227 184.552 94.1907 184.431 94.41C184.314 94.6293 184.256 94.879 184.256 95.159C184.256 95.439 184.314 95.6887 184.431 95.908C184.552 96.1273 184.716 96.2977 184.921 96.419C185.131 96.5357 185.367 96.594 185.628 96.594ZM188.778 94.039C188.894 93.7917 189.067 93.605 189.296 93.479C189.529 93.353 189.816 93.29 190.157 93.29V93.773L190.038 93.766C189.65 93.766 189.347 93.885 189.128 94.123C188.908 94.361 188.799 94.6947 188.799 95.124V97H188.302V93.318H188.778V94.039ZM192.212 95.152L191.344 95.95V97H190.847V91.806H191.344V95.327L193.542 93.318H194.158L192.583 94.823L194.305 97H193.696L192.212 95.152ZM194.764 92.1H195.352L195.247 95.53H194.862L194.764 92.1ZM195.058 97.035C194.955 97.035 194.866 97 194.792 96.93C194.722 96.8553 194.687 96.769 194.687 96.671C194.687 96.5683 194.722 96.4843 194.792 96.419C194.862 96.349 194.95 96.314 195.058 96.314C195.16 96.314 195.247 96.349 195.317 96.419C195.387 96.4843 195.422 96.5683 195.422 96.671C195.422 96.769 195.387 96.8553 195.317 96.93C195.247 97 195.16 97.035 195.058 97.035Z" fill="black"/>
<defs>
<filter id="filter0_d" x="0" y="78" width="264" height="134" filterUnits="userSpaceOnUse" color-interpolation-filters="sRGB">
<feFlood flood-opacity="0" result="BackgroundImageFix"/>
<feColorMatrix in="SourceAlpha" type="matrix" values="0 0 0 0 0 0 0 0 0 0 0 0 0 0 0 0 0 0 127 0"/>
<feOffset dy="4"/>
<feGaussianBlur stdDeviation="2"/>
<feColorMatrix type="matrix" values="0 0 0 0 0 0 0 0 0 0 0 0 0 0 0 0 0 0 0.25 0"/>
<feBlend mode="normal" in2="BackgroundImageFix" result="effect1_dropShadow"/>
<feBlend mode="normal" in="SourceGraphic" in2="effect1_dropShadow" result="shape"/>
</filter>
</defs>
</svg>
