<svg width="825" height="534" viewBox="0 0 825 534" fill="none" xmlns="http://www.w3.org/2000/svg">
<path d="M651.523 279.358L592.411 307.335L644.727 268.215C636.225 254.943 626.672 242.374 616.163 230.627L359.803 294.346L591.368 206.012C580.786 196.676 569.549 188.11 557.742 180.382L167.11 243.302C125.635 295.167 103.026 359.591 102.994 426H691C690.976 374.497 677.358 323.912 651.523 279.358V279.358Z" fill="#F2F2F2"/>
<path d="M525.771 162.217C466.63 133.453 399.557 125.333 335.26 139.154C270.963 152.975 213.151 187.94 171.054 238.466C263.404 218.232 424.194 183.204 525.771 162.217Z" fill="#F2F2F2"/>
<path d="M472.474 167.895C462.411 197.689 446.981 224.836 415.533 224.836C384.085 224.836 360.364 199.293 358.592 167.895C356.328 127.775 383.36 110.787 415.533 110.954C453.541 111.15 484.417 132.536 472.474 167.895Z" fill="#2F2E41"/>
<path d="M461.693 160.32H368.555V296.053H461.693V160.32Z" fill="#2F2E41"/>
<path d="M401.23 238.254C401.23 238.254 404.209 280.954 397.258 287.905C390.307 294.856 458.825 300.814 457.832 292.87C456.839 284.926 443.93 233.289 447.902 222.366C451.874 211.443 401.23 238.254 401.23 238.254Z" fill="#FFB8B8"/>
<path opacity="0.1" d="M401.23 238.254C401.23 238.254 404.209 280.954 397.258 287.905C390.307 294.856 458.825 300.814 457.832 292.87C456.839 284.926 443.93 233.289 447.902 222.366C451.874 211.443 401.23 238.254 401.23 238.254Z" fill="black"/>
<path d="M335.7 347.49L300.02 468.14L298.59 473H238.55C262.44 399.05 321.5 290 321.5 290L330.72 287.91L335.7 347.49Z" fill="#E85654"/>
<path opacity="0.1" d="M335.7 347.49L300.02 468.14L298.59 473H238.55C262.44 399.05 321.5 290 321.5 290L330.72 287.91L335.7 347.49Z" fill="black"/>
<path d="M413.146 253.149C437.826 253.149 457.832 233.143 457.832 208.464C457.832 183.785 437.826 163.778 413.146 163.778C388.467 163.778 368.461 183.785 368.461 208.464C368.461 233.143 388.467 253.149 413.146 253.149Z" fill="#FFB8B8"/>
<path d="M460.811 279.961C460.811 279.961 444.923 294.856 427.049 291.877C409.175 288.898 401.671 267.162 401.671 267.162L384.349 279.961C384.349 279.961 379.384 315.709 402.223 319.681C425.063 323.653 457.832 324.646 464.783 319.681C471.734 314.716 460.811 279.961 460.811 279.961Z" fill="#3F3D56"/>
<path d="M515.43 332.58L512.58 341.84L472.35 473H299.21C299.578 471.398 299.849 469.775 300.02 468.14C302.26 449.47 300.94 402.37 300.94 399.13C300.94 395.15 317.81 296.85 321.8 289.89C322.418 289.048 323.231 288.369 324.17 287.91C328.8 285.25 339.04 282.27 350.08 279.64C350.09 279.63 350.09 279.63 350.1 279.63C356.27 278.13 362.71 276.75 368.55 275.58H368.56C374.29 274.43 379.43 273.49 383.19 272.87C385.217 272.481 387.263 272.198 389.32 272.02C390.24 272.02 390.91 273.11 391.36 274.78C392.87 280.22 392.29 291.87 392.29 291.87C393.631 293.411 395.126 294.811 396.75 296.05C400.568 299.05 404.755 301.548 409.21 303.48C413.029 305.154 416.983 306.503 421.03 307.51H421.04C425.293 308.588 429.622 309.34 433.99 309.76C437.55 310.17 441.149 310.099 444.69 309.55H444.71C455.24 307.81 459.1 301.27 460.9 296.05C461.22 295.1 461.47 294.19 461.69 293.36C461.69 293.35 461.7 293.33 461.7 293.32C462.36 290.77 462.64 288.98 463.34 289.01H463.35C465.16 289.18 487.99 308.75 502.82 321.6C509.86 327.69 515.09 332.29 515.41 332.57L515.43 332.58Z" fill="#E85654"/>
<path opacity="0.1" d="M512.58 341.84L472.35 473H456.04C457.507 470.851 458.143 468.243 457.83 465.66C457.31 462 468.64 424.71 479.55 390.01C489.47 358.48 499.04 329.12 499.04 329.12L508.47 333.58C508.47 333.58 510.16 336.77 512.58 341.84Z" fill="black"/>
<path d="M541.25 460.68C539.29 461.17 539.5 466.99 539.39 473H462.33C463.268 471.839 463.968 470.506 464.39 469.075C464.812 467.644 464.948 466.143 464.79 464.66C464.28 461.15 471.88 424.96 479.55 390.01C485.58 362.37 491.66 335.5 493.77 326.15C494.29 323.89 494.57 322.67 494.57 322.67L495.48 323.1L495.5 323.11L515.41 332.57L515.43 332.58C515.43 332.58 546.21 391.18 536.29 405.08C526.35 418.98 526.35 418.98 530.32 425.94C534.29 432.88 545.21 459.69 541.25 460.68Z" fill="#E85654"/>
<path d="M415.533 122.941C427.947 122.941 438.01 112.878 438.01 100.465C438.01 88.051 427.947 77.9878 415.533 77.9878C403.119 77.9878 393.056 88.051 393.056 100.465C393.056 112.878 403.119 122.941 415.533 122.941Z" fill="#2F2E41"/>
<path d="M388.561 88.4768C388.561 82.905 390.631 77.5318 394.369 73.3997C398.107 69.2675 403.246 66.6709 408.79 66.1135C408.051 66.0401 407.301 66 406.542 66C400.581 66 394.864 68.3681 390.649 72.5833C386.434 76.7985 384.065 82.5156 384.065 88.4768C384.065 94.4381 386.434 100.155 390.649 104.37C394.864 108.586 400.581 110.954 406.542 110.954C407.301 110.954 408.051 110.914 408.79 110.84C403.246 110.283 398.107 107.686 394.369 103.554C390.631 99.4219 388.561 94.0487 388.561 88.4768V88.4768Z" fill="#2F2E41"/>
<path d="M398.999 152.163C398.999 152.163 398.53 149.551 380.174 156.434C361.819 163.318 350.816 214.114 359.994 243.942C363.692 255.963 360.683 264.629 355.773 270.693C337.345 293.449 344.599 327.628 371.441 339.33C372.199 339.66 372.972 339.987 373.76 340.31L385.233 347.193C385.233 347.193 370.608 327.95 377.927 303.334C384.283 282.361 385.067 260.094 380.204 238.725C379.365 235.121 378.411 231.405 377.327 227.613C368.149 195.49 372.613 199.2 404.736 167.077C404.736 167.077 423.091 180.844 439.153 187.728C455.214 194.611 468.981 201.494 457.508 224.439C446.036 247.384 418.502 268.034 436.858 297.862C455.214 327.69 457.508 316.218 455.214 327.69L452.919 339.162L466.686 325.395L457.508 343.751C457.508 343.751 487.336 343.751 496.514 320.806L501.103 325.395C501.103 325.395 519.459 293.273 485.042 263.445C485.042 263.445 473.57 256.562 489.631 233.617C505.692 210.672 493.357 161.341 472.707 152.164C452.057 142.986 398.999 152.163 398.999 152.163Z" fill="#2F2E41"/>
<path d="M413.147 296.659L374.916 362.877H383.853V371.814L427.303 296.659H413.147Z" fill="#3F3D56"/>
<path d="M16 16C18.2091 16 20 14.2091 20 12C20 9.79086 18.2091 8 16 8C13.7909 8 12 9.79086 12 12C12 14.2091 13.7909 16 16 16Z" fill="#E85654"/>
<path d="M27 16C29.2091 16 31 14.2091 31 12C31 9.79086 29.2091 8 27 8C24.7909 8 23 9.79086 23 12C23 14.2091 24.7909 16 27 16Z" fill="#E85654"/>
<path d="M38 16C40.2091 16 42 14.2091 42 12C42 9.79086 40.2091 8 38 8C35.7909 8 34 9.79086 34 12C34 14.2091 35.7909 16 38 16Z" fill="#E85654"/>
<path d="M825 534H0V0H825V534ZM1.77994 532H823.22V2H1.77994V532Z" fill="#2F2E41"/>
<path d="M823 20.0864H1V22.0864H823V20.0864Z" fill="#2F2E41"/>
<path d="M42 37H12V39H42V37Z" fill="#2F2E41"/>
<path d="M42 45H12V47H42V45Z" fill="#2F2E41"/>
<path d="M42 53H12V55H42V53Z" fill="#2F2E41"/>
<path d="M639 55H267V37H639V55ZM269 53H637V39H269V53Z" fill="#2F2E41"/>
<path d="M624 48.5C623.209 48.5 622.436 48.2654 621.778 47.8259C621.12 47.3864 620.607 46.7616 620.305 46.0307C620.002 45.2998 619.923 44.4956 620.077 43.7196C620.231 42.9437 620.612 42.231 621.172 41.6716C621.731 41.1122 622.444 40.7312 623.22 40.5769C623.996 40.4225 624.8 40.5017 625.531 40.8045C626.262 41.1072 626.886 41.6199 627.326 42.2777C627.765 42.9355 628 43.7089 628 44.5C627.999 45.5605 627.577 46.5773 626.827 47.3272C626.077 48.0771 625.061 48.4989 624 48.5V48.5ZM624 42.5C623.604 42.5 623.218 42.6173 622.889 42.8371C622.56 43.0568 622.304 43.3692 622.152 43.7346C622.001 44.1001 621.961 44.5022 622.038 44.8902C622.116 45.2781 622.306 45.6345 622.586 45.9142C622.866 46.1939 623.222 46.3844 623.61 46.4616C623.998 46.5387 624.4 46.4991 624.765 46.3478C625.131 46.1964 625.443 45.94 625.663 45.6111C625.883 45.2822 626 44.8956 626 44.5C625.999 43.9698 625.789 43.4614 625.414 43.0865C625.039 42.7115 624.53 42.5006 624 42.5Z" fill="#2F2E41"/>
<path d="M626.756 45.9595L625.363 47.395L629.304 51.2178L630.696 49.7823L626.756 45.9595Z" fill="#2F2E41"/>
<path d="M761 55H741V37H761V55ZM743 53H759V39H743V53Z" fill="#2F2E41"/>
<path d="M786 55H766V37H786V55ZM768 53H784V39H768V53Z" fill="#2F2E41"/>
<path d="M811 55H791V37H811V55ZM793 53H809V39H793V53Z" fill="#2F2E41"/>
<path d="M683 485H665V501H683V485Z" fill="#FF6584"/>
<path d="M708 485H690V501H708V485Z" fill="#F2F2F2"/>
<path d="M733 485H715V501H733V485Z" fill="#F2F2F2"/>
<path d="M732 474H50V86H732V474ZM52 472H730V88H52V472Z" fill="#2F2E41"/>
<path d="M153.614 438.376V447.771L138.007 438.246C137.924 438.197 137.829 438.171 137.733 438.171C137.637 438.17 137.542 438.195 137.458 438.243C137.374 438.29 137.305 438.359 137.256 438.443C137.208 438.526 137.182 438.62 137.182 438.717V459.308C137.182 459.404 137.208 459.498 137.256 459.582C137.305 459.665 137.374 459.734 137.458 459.782C137.542 459.829 137.637 459.854 137.733 459.854C137.829 459.853 137.924 459.827 138.007 459.778L153.614 450.253V459.648C153.614 459.721 153.643 459.79 153.694 459.841C153.745 459.892 153.814 459.921 153.886 459.921H158.727C158.8 459.921 158.869 459.892 158.92 459.841C158.971 459.79 159 459.721 159 459.648V438.376C159 438.303 158.971 438.234 158.92 438.183C158.869 438.132 158.8 438.103 158.727 438.103H153.886C153.814 438.103 153.745 438.132 153.694 438.183C153.643 438.234 153.614 438.303 153.614 438.376V438.376Z" fill="#3F3D56"/>
<path d="M111.993 459.921H107.643C107.571 459.922 107.5 459.908 107.433 459.881C107.366 459.854 107.305 459.814 107.254 459.763C107.203 459.712 107.162 459.652 107.134 459.586C107.106 459.519 107.091 459.448 107.091 459.376V438.649C107.091 438.576 107.106 438.505 107.134 438.439C107.162 438.372 107.203 438.312 107.254 438.261C107.305 438.211 107.366 438.171 107.433 438.143C107.5 438.116 107.571 438.103 107.643 438.103H111.993C112.065 438.103 112.137 438.116 112.203 438.143C112.27 438.171 112.331 438.211 112.382 438.261C112.434 438.312 112.474 438.372 112.502 438.439C112.53 438.505 112.545 438.576 112.545 438.649V459.376C112.545 459.448 112.53 459.519 112.502 459.586C112.474 459.652 112.434 459.712 112.382 459.763C112.331 459.814 112.27 459.854 112.203 459.881C112.137 459.908 112.065 459.922 111.993 459.921V459.921ZM123.993 459.921H119.643C119.571 459.922 119.5 459.908 119.433 459.881C119.366 459.854 119.305 459.814 119.254 459.763C119.203 459.712 119.162 459.652 119.134 459.586C119.106 459.519 119.091 459.448 119.091 459.376V438.649C119.091 438.576 119.106 438.505 119.134 438.439C119.162 438.372 119.203 438.312 119.254 438.261C119.305 438.211 119.366 438.171 119.433 438.143C119.5 438.116 119.571 438.103 119.643 438.103H123.993C124.065 438.103 124.137 438.116 124.203 438.143C124.27 438.171 124.331 438.211 124.382 438.261C124.434 438.312 124.474 438.372 124.502 438.439C124.53 438.505 124.545 438.576 124.545 438.649V459.376C124.545 459.448 124.53 459.519 124.502 459.586C124.474 459.652 124.434 459.712 124.382 459.763C124.331 459.814 124.27 459.854 124.203 459.881C124.137 459.908 124.065 459.922 123.993 459.921V459.921Z" fill="#3F3D56"/>
<path d="M79 438.669V459.355C78.9947 459.451 79.0153 459.547 79.0598 459.632C79.1043 459.717 79.1709 459.788 79.2526 459.838C79.3343 459.889 79.4281 459.916 79.5241 459.917C79.62 459.919 79.7145 459.894 79.7977 459.846L96.1954 449.503C96.2757 449.45 96.3414 449.377 96.3869 449.292C96.4324 449.207 96.4562 449.112 96.4562 449.016C96.4562 448.919 96.4324 448.824 96.3869 448.739C96.3414 448.654 96.2757 448.582 96.1954 448.528L79.7977 438.185C79.7153 438.136 79.6211 438.11 79.5251 438.11C79.4291 438.11 79.335 438.137 79.2529 438.187C79.1709 438.236 79.104 438.308 79.0594 438.393C79.0148 438.478 78.9943 438.573 79 438.669V438.669Z" fill="#E85654"/>
<path d="M699.5 424H82.5V428H699.5V424Z" fill="#2F2E41"/>
<path d="M190 424H82.5V428H190V424Z" fill="#E85654"/>
<path d="M334 487H51V498H334V487Z" fill="#F2F2F2"/>
<path d="M113 512H51V523H113V512Z" fill="#F2F2F2"/>
<path d="M722.475 433.732L721.214 431.474C716.772 423.351 713.817 418.054 715.446 413.26C715.74 412.343 716.215 411.494 716.843 410.763C717.471 410.033 718.239 409.436 719.102 409.007C719.965 408.579 720.905 408.328 721.867 408.269C722.828 408.211 723.792 408.346 724.701 408.666C725.775 409.038 726.756 409.639 727.574 410.427C728.393 411.216 729.031 412.173 729.443 413.233C730.415 412.644 731.504 412.273 732.633 412.147C733.763 412.02 734.907 412.141 735.985 412.502C736.901 412.801 737.747 413.281 738.474 413.914C739.201 414.546 739.793 415.318 740.216 416.183C740.64 417.049 740.885 417.991 740.937 418.952C740.99 419.914 740.849 420.877 740.523 421.784C738.894 426.577 733.323 428.976 724.851 432.71L722.475 433.732Z" fill="#FF6584"/>
<path d="M744.399 386.675L742.803 384.64C737.153 377.305 733.411 372.532 734.276 367.543C734.424 366.591 734.761 365.679 735.268 364.859C735.775 364.04 736.441 363.331 737.227 362.774C738.013 362.217 738.903 361.823 739.843 361.615C740.784 361.408 741.757 361.392 742.704 361.567C743.823 361.768 744.886 362.209 745.817 362.861C746.748 363.513 747.527 364.359 748.098 365.342C748.967 364.609 749.985 364.074 751.082 363.774C752.178 363.473 753.327 363.415 754.448 363.604C755.399 363.757 756.31 364.1 757.126 364.612C757.942 365.124 758.647 365.794 759.2 366.584C759.752 367.373 760.14 368.265 760.342 369.207C760.543 370.149 760.554 371.122 760.373 372.068C759.508 377.056 754.377 380.292 746.588 385.296L744.399 386.675Z" fill="#FF6584"/>
<path d="M676.291 467.122L675.16 464.796C671.183 456.435 668.531 450.98 670.428 446.286C670.773 445.387 671.295 444.566 671.963 443.872C672.631 443.178 673.432 442.625 674.318 442.246C675.203 441.867 676.156 441.669 677.12 441.665C678.083 441.661 679.037 441.85 679.926 442.221C680.978 442.653 681.923 443.308 682.697 444.142C683.47 444.975 684.052 445.967 684.403 447.048C685.407 446.515 686.515 446.206 687.65 446.144C688.786 446.081 689.921 446.267 690.977 446.687C691.874 447.038 692.692 447.565 693.382 448.237C694.072 448.91 694.62 449.714 694.994 450.602C695.367 451.489 695.559 452.443 695.557 453.407C695.556 454.37 695.361 455.323 694.985 456.21C693.088 460.904 687.39 462.985 678.721 466.235L676.291 467.122Z" fill="#FF6584"/>
<mask id="path-46-outside-1" maskUnits="userSpaceOnUse" x="78.052" y="371.444" width="644" height="41" fill="black">
<rect fill="white" x="78.052" y="371.444" width="644" height="41"/>
<path d="M102.552 403L102.48 391.516L97.008 400.732H93.264L87.792 391.912V403H80.052V377.8H87.036L95.244 391.228L103.236 377.8H110.22L110.292 403H102.552Z"/>
<path d="M124.768 382.948C128.224 382.948 130.864 383.728 132.688 385.288C134.512 386.824 135.424 389.2 135.424 392.416V403H127.864V400.408C126.928 402.376 125.068 403.36 122.284 403.36C120.724 403.36 119.392 403.096 118.288 402.568C117.208 402.016 116.38 401.284 115.804 400.372C115.252 399.436 114.976 398.392 114.976 397.24C114.976 395.296 115.72 393.82 117.208 392.812C118.696 391.804 120.952 391.3 123.976 391.3H127.252C126.988 389.764 125.752 388.996 123.544 388.996C122.656 388.996 121.756 389.14 120.844 389.428C119.932 389.692 119.152 390.064 118.504 390.544L115.912 385.18C117.04 384.484 118.396 383.944 119.98 383.56C121.588 383.152 123.184 382.948 124.768 382.948ZM124.732 398.464C125.308 398.464 125.824 398.308 126.28 397.996C126.736 397.684 127.072 397.216 127.288 396.592V395.224H125.272C123.616 395.224 122.788 395.776 122.788 396.88C122.788 397.336 122.956 397.72 123.292 398.032C123.652 398.32 124.132 398.464 124.732 398.464Z"/>
<path d="M148.48 385.432C149.92 383.776 152.044 382.948 154.852 382.948V390.148C154.204 390.052 153.604 390.004 153.052 390.004C150.268 390.004 148.876 391.42 148.876 394.252V403H140.74V383.308H148.48V385.432Z"/>
<path d="M168.39 396.952L167.094 398.356V403H158.958V376.288H167.094V389.032L172.746 383.308H182.358L174.222 391.84L183.006 403H173.178L168.39 396.952Z"/>
<path d="M190.445 394.072C191.837 394.072 192.977 394.492 193.865 395.332C194.753 396.172 195.197 397.288 195.197 398.68C195.197 399.304 195.113 399.928 194.945 400.552C194.777 401.176 194.393 402.124 193.793 403.396L191.273 408.76H186.233L188.033 402.676C187.289 402.316 186.713 401.8 186.305 401.128C185.897 400.432 185.693 399.616 185.693 398.68C185.693 397.288 186.137 396.172 187.025 395.332C187.913 394.492 189.053 394.072 190.445 394.072Z"/>
<path d="M233.052 393.136C233.052 393.256 233.016 393.892 232.944 395.044H219.264C219.552 395.788 220.032 396.364 220.704 396.772C221.376 397.156 222.216 397.348 223.224 397.348C224.088 397.348 224.808 397.24 225.384 397.024C225.984 396.808 226.632 396.436 227.328 395.908L231.576 400.192C229.656 402.304 226.788 403.36 222.972 403.36C220.596 403.36 218.508 402.928 216.708 402.064C214.908 401.176 213.516 399.952 212.532 398.392C211.548 396.832 211.056 395.08 211.056 393.136C211.056 391.168 211.536 389.416 212.496 387.88C213.48 386.32 214.812 385.108 216.492 384.244C218.196 383.38 220.104 382.948 222.216 382.948C224.208 382.948 226.02 383.344 227.652 384.136C229.308 384.928 230.616 386.092 231.576 387.628C232.56 389.164 233.052 391 233.052 393.136ZM222.288 388.492C221.448 388.492 220.752 388.72 220.2 389.176C219.648 389.632 219.288 390.28 219.12 391.12H225.456C225.288 390.304 224.928 389.668 224.376 389.212C223.824 388.732 223.128 388.492 222.288 388.492Z"/>
<path d="M251.1 382.948C253.524 382.948 255.468 383.68 256.932 385.144C258.42 386.608 259.164 388.816 259.164 391.768V403H251.028V393.172C251.028 390.916 250.224 389.788 248.616 389.788C247.704 389.788 246.96 390.112 246.384 390.76C245.832 391.384 245.556 392.38 245.556 393.748V403H237.42V383.308H245.16V385.252C245.928 384.484 246.816 383.908 247.824 383.524C248.832 383.14 249.924 382.948 251.1 382.948Z"/>
<path d="M264.317 410.344C262.229 410.344 260.561 410.02 259.313 409.372L261.257 403.72C261.833 404.032 262.445 404.188 263.093 404.188C263.597 404.188 264.005 403.996 264.317 403.612C264.629 403.252 264.785 402.688 264.785 401.92V383.308H272.921V401.992C272.921 404.56 272.153 406.588 270.617 408.076C269.105 409.588 267.005 410.344 264.317 410.344ZM268.853 381.724C267.389 381.724 266.201 381.34 265.289 380.572C264.401 379.78 263.957 378.784 263.957 377.584C263.957 376.384 264.401 375.4 265.289 374.632C266.201 373.84 267.389 373.444 268.853 373.444C270.341 373.444 271.529 373.816 272.417 374.56C273.305 375.304 273.749 376.264 273.749 377.44C273.749 378.688 273.305 379.72 272.417 380.536C271.529 381.328 270.341 381.724 268.853 381.724Z"/>
<path d="M288.724 403.36C286.54 403.36 284.572 402.928 282.82 402.064C281.092 401.176 279.736 399.964 278.752 398.428C277.768 396.868 277.276 395.104 277.276 393.136C277.276 391.168 277.768 389.416 278.752 387.88C279.736 386.32 281.092 385.108 282.82 384.244C284.572 383.38 286.54 382.948 288.724 382.948C290.932 382.948 292.9 383.38 294.628 384.244C296.38 385.108 297.736 386.32 298.696 387.88C299.68 389.416 300.172 391.168 300.172 393.136C300.172 395.104 299.68 396.868 298.696 398.428C297.736 399.964 296.38 401.176 294.628 402.064C292.9 402.928 290.932 403.36 288.724 403.36ZM288.724 397.024C289.66 397.024 290.428 396.688 291.028 396.016C291.628 395.32 291.928 394.36 291.928 393.136C291.928 391.912 291.628 390.964 291.028 390.292C290.428 389.62 289.66 389.284 288.724 389.284C287.788 389.284 287.02 389.62 286.42 390.292C285.82 390.964 285.52 391.912 285.52 393.136C285.52 394.36 285.82 395.32 286.42 396.016C287.02 396.688 287.788 397.024 288.724 397.024Z"/>
<path d="M325.915 383.308L317.815 403.396C316.783 405.964 315.499 407.764 313.963 408.796C312.427 409.828 310.543 410.344 308.311 410.344C307.207 410.344 306.091 410.176 304.963 409.84C303.859 409.528 302.983 409.108 302.335 408.58L305.035 403C305.443 403.312 305.899 403.564 306.403 403.756C306.931 403.948 307.435 404.044 307.915 404.044C308.803 404.044 309.475 403.78 309.931 403.252L301.651 383.308H310.003L314.071 393.856L318.211 383.308H325.915Z"/>
<path d="M356.06 402.316C354.836 403.012 353.168 403.36 351.056 403.36C348.296 403.36 346.172 402.7 344.684 401.38C343.196 400.036 342.452 398.032 342.452 395.368V390.328H339.752V384.388H342.452V378.88H350.588V384.388H354.62V390.328H350.588V395.296C350.588 395.896 350.744 396.364 351.056 396.7C351.368 397.036 351.776 397.204 352.28 397.204C352.976 397.204 353.588 397.024 354.116 396.664L356.06 402.316Z"/>
<path d="M373.591 382.948C376.015 382.948 377.959 383.68 379.423 385.144C380.911 386.608 381.655 388.816 381.655 391.768V403H373.519V393.172C373.519 390.916 372.715 389.788 371.107 389.788C370.195 389.788 369.451 390.112 368.875 390.76C368.323 391.384 368.047 392.38 368.047 393.748V403H359.911V376.288H368.047V384.892C369.559 383.596 371.407 382.948 373.591 382.948Z"/>
<path d="M408.292 393.136C408.292 393.256 408.256 393.892 408.184 395.044H394.504C394.792 395.788 395.272 396.364 395.944 396.772C396.616 397.156 397.456 397.348 398.464 397.348C399.328 397.348 400.048 397.24 400.624 397.024C401.224 396.808 401.872 396.436 402.568 395.908L406.816 400.192C404.896 402.304 402.028 403.36 398.212 403.36C395.836 403.36 393.748 402.928 391.948 402.064C390.148 401.176 388.756 399.952 387.772 398.392C386.788 396.832 386.296 395.08 386.296 393.136C386.296 391.168 386.776 389.416 387.736 387.88C388.72 386.32 390.052 385.108 391.732 384.244C393.436 383.38 395.344 382.948 397.456 382.948C399.448 382.948 401.26 383.344 402.892 384.136C404.548 384.928 405.856 386.092 406.816 387.628C407.8 389.164 408.292 391 408.292 393.136ZM397.528 388.492C396.688 388.492 395.992 388.72 395.44 389.176C394.888 389.632 394.528 390.28 394.36 391.12H400.696C400.528 390.304 400.168 389.668 399.616 389.212C399.064 388.732 398.368 388.492 397.528 388.492Z"/>
<path d="M435.836 403.36C433.604 403.36 431.6 402.928 429.824 402.064C428.072 401.2 426.692 399.988 425.684 398.428C424.7 396.868 424.208 395.104 424.208 393.136C424.208 391.168 424.7 389.416 425.684 387.88C426.692 386.32 428.072 385.108 429.824 384.244C431.6 383.38 433.604 382.948 435.836 382.948C438.236 382.948 440.288 383.464 441.992 384.496C443.696 385.528 444.872 386.956 445.52 388.78L439.22 391.876C438.452 390.148 437.312 389.284 435.8 389.284C434.84 389.284 434.036 389.62 433.388 390.292C432.764 390.964 432.452 391.912 432.452 393.136C432.452 394.384 432.764 395.344 433.388 396.016C434.036 396.688 434.84 397.024 435.8 397.024C437.312 397.024 438.452 396.16 439.22 394.432L445.52 397.528C444.872 399.352 443.696 400.78 441.992 401.812C440.288 402.844 438.236 403.36 435.836 403.36Z"/>
<path d="M458.021 382.948C461.477 382.948 464.117 383.728 465.941 385.288C467.765 386.824 468.677 389.2 468.677 392.416V403H461.117V400.408C460.181 402.376 458.321 403.36 455.537 403.36C453.977 403.36 452.645 403.096 451.541 402.568C450.461 402.016 449.633 401.284 449.057 400.372C448.505 399.436 448.229 398.392 448.229 397.24C448.229 395.296 448.973 393.82 450.461 392.812C451.949 391.804 454.205 391.3 457.229 391.3H460.505C460.241 389.764 459.005 388.996 456.797 388.996C455.909 388.996 455.009 389.14 454.097 389.428C453.185 389.692 452.405 390.064 451.757 390.544L449.165 385.18C450.293 384.484 451.649 383.944 453.233 383.56C454.841 383.152 456.437 382.948 458.021 382.948ZM457.985 398.464C458.561 398.464 459.077 398.308 459.533 397.996C459.989 397.684 460.325 397.216 460.541 396.592V395.224H458.525C456.869 395.224 456.041 395.776 456.041 396.88C456.041 397.336 456.209 397.72 456.545 398.032C456.905 398.32 457.385 398.464 457.985 398.464Z"/>
<path d="M481.733 385.432C483.173 383.776 485.297 382.948 488.105 382.948V390.148C487.457 390.052 486.857 390.004 486.305 390.004C483.521 390.004 482.129 391.42 482.129 394.252V403H473.993V383.308H481.733V385.432Z"/>
<path d="M512.987 393.136C512.987 393.256 512.951 393.892 512.879 395.044H499.199C499.487 395.788 499.967 396.364 500.639 396.772C501.311 397.156 502.151 397.348 503.159 397.348C504.023 397.348 504.743 397.24 505.319 397.024C505.919 396.808 506.567 396.436 507.263 395.908L511.511 400.192C509.591 402.304 506.723 403.36 502.907 403.36C500.531 403.36 498.443 402.928 496.643 402.064C494.843 401.176 493.451 399.952 492.467 398.392C491.483 396.832 490.991 395.08 490.991 393.136C490.991 391.168 491.471 389.416 492.431 387.88C493.415 386.32 494.747 385.108 496.427 384.244C498.131 383.38 500.039 382.948 502.151 382.948C504.143 382.948 505.955 383.344 507.587 384.136C509.243 384.928 510.551 386.092 511.511 387.628C512.495 389.164 512.987 391 512.987 393.136ZM502.223 388.492C501.383 388.492 500.687 388.72 500.135 389.176C499.583 389.632 499.223 390.28 499.055 391.12H505.391C505.223 390.304 504.863 389.668 504.311 389.212C503.759 388.732 503.063 388.492 502.223 388.492Z"/>
<path d="M543.088 382.948C544.816 382.948 546.4 383.368 547.84 384.208C549.304 385.024 550.456 386.212 551.296 387.772C552.16 389.332 552.592 391.132 552.592 393.172C552.592 395.212 552.16 397.012 551.296 398.572C550.456 400.108 549.304 401.296 547.84 402.136C546.4 402.952 544.816 403.36 543.088 403.36C540.904 403.36 539.236 402.796 538.084 401.668V409.984H529.948V383.308H537.688V384.928C538.864 383.608 540.664 382.948 543.088 382.948ZM541.144 397.024C542.08 397.024 542.848 396.688 543.448 396.016C544.048 395.344 544.348 394.396 544.348 393.172C544.348 391.948 544.048 391 543.448 390.328C542.848 389.632 542.08 389.284 541.144 389.284C540.208 389.284 539.44 389.632 538.84 390.328C538.24 391 537.94 391.948 537.94 393.172C537.94 394.396 538.24 395.344 538.84 396.016C539.44 396.688 540.208 397.024 541.144 397.024Z"/>
<path d="M565.283 382.948C568.739 382.948 571.379 383.728 573.203 385.288C575.027 386.824 575.939 389.2 575.939 392.416V403H568.379V400.408C567.443 402.376 565.583 403.36 562.799 403.36C561.239 403.36 559.907 403.096 558.803 402.568C557.723 402.016 556.895 401.284 556.319 400.372C555.767 399.436 555.491 398.392 555.491 397.24C555.491 395.296 556.235 393.82 557.723 392.812C559.211 391.804 561.467 391.3 564.491 391.3H567.767C567.503 389.764 566.267 388.996 564.059 388.996C563.171 388.996 562.271 389.14 561.359 389.428C560.447 389.692 559.666 390.064 559.018 390.544L556.427 385.18C557.555 384.484 558.911 383.944 560.495 383.56C562.103 383.152 563.699 382.948 565.283 382.948ZM565.247 398.464C565.823 398.464 566.338 398.308 566.794 397.996C567.25 397.684 567.587 397.216 567.803 396.592V395.224H565.786C564.13 395.224 563.303 395.776 563.303 396.88C563.303 397.336 563.471 397.72 563.807 398.032C564.167 398.32 564.647 398.464 565.247 398.464Z"/>
<path d="M592.19 403.36C589.958 403.36 587.954 402.928 586.178 402.064C584.426 401.2 583.046 399.988 582.038 398.428C581.054 396.868 580.562 395.104 580.562 393.136C580.562 391.168 581.054 389.416 582.038 387.88C583.046 386.32 584.426 385.108 586.178 384.244C587.954 383.38 589.958 382.948 592.19 382.948C594.59 382.948 596.642 383.464 598.346 384.496C600.05 385.528 601.226 386.956 601.874 388.78L595.574 391.876C594.806 390.148 593.666 389.284 592.154 389.284C591.194 389.284 590.39 389.62 589.742 390.292C589.118 390.964 588.806 391.912 588.806 393.136C588.806 394.384 589.118 395.344 589.742 396.016C590.39 396.688 591.194 397.024 592.154 397.024C593.666 397.024 594.806 396.16 595.574 394.432L601.874 397.528C601.226 399.352 600.05 400.78 598.346 401.812C596.642 402.844 594.59 403.36 592.19 403.36Z"/>
<path d="M614.987 396.952L613.691 398.356V403H605.555V376.288H613.691V389.032L619.343 383.308H628.955L620.819 391.84L629.603 403H619.775L614.987 396.952Z"/>
<path d="M641.487 382.948C644.943 382.948 647.583 383.728 649.407 385.288C651.231 386.824 652.143 389.2 652.143 392.416V403H644.583V400.408C643.647 402.376 641.787 403.36 639.003 403.36C637.443 403.36 636.111 403.096 635.007 402.568C633.927 402.016 633.099 401.284 632.523 400.372C631.971 399.436 631.695 398.392 631.695 397.24C631.695 395.296 632.439 393.82 633.927 392.812C635.415 391.804 637.671 391.3 640.695 391.3H643.971C643.707 389.764 642.471 388.996 640.263 388.996C639.375 388.996 638.475 389.14 637.563 389.428C636.651 389.692 635.871 390.064 635.223 390.544L632.631 385.18C633.759 384.484 635.115 383.944 636.699 383.56C638.307 383.152 639.903 382.948 641.487 382.948ZM641.451 398.464C642.027 398.464 642.543 398.308 642.999 397.996C643.455 397.684 643.791 397.216 644.007 396.592V395.224H641.991C640.335 395.224 639.507 395.776 639.507 396.88C639.507 397.336 639.675 397.72 640.011 398.032C640.371 398.32 640.851 398.464 641.451 398.464Z"/>
<path d="M679.807 383.308V399.076C679.807 402.82 678.763 405.628 676.675 407.5C674.611 409.396 671.659 410.344 667.819 410.344C665.851 410.344 664.015 410.128 662.311 409.696C660.607 409.288 659.155 408.688 657.955 407.896L660.691 402.352C661.459 402.928 662.431 403.396 663.607 403.756C664.783 404.116 665.911 404.296 666.991 404.296C668.623 404.296 669.811 403.948 670.555 403.252C671.299 402.556 671.671 401.536 671.671 400.192V399.832C670.447 401.224 668.635 401.92 666.235 401.92C664.555 401.92 662.983 401.536 661.519 400.768C660.079 399.976 658.927 398.86 658.063 397.42C657.199 395.956 656.767 394.288 656.767 392.416C656.767 390.544 657.199 388.888 658.063 387.448C658.927 386.008 660.079 384.904 661.519 384.136C662.983 383.344 664.555 382.948 666.235 382.948C668.923 382.948 670.867 383.812 672.067 385.54V383.308H679.807ZM668.395 395.584C669.355 395.584 670.147 395.296 670.771 394.72C671.419 394.12 671.743 393.352 671.743 392.416C671.743 391.48 671.419 390.724 670.771 390.148C670.147 389.572 669.355 389.284 668.395 389.284C667.411 389.284 666.595 389.572 665.947 390.148C665.323 390.724 665.011 391.48 665.011 392.416C665.011 393.352 665.335 394.12 665.983 394.72C666.631 395.296 667.435 395.584 668.395 395.584Z"/>
<path d="M706.157 393.136C706.157 393.256 706.121 393.892 706.049 395.044H692.369C692.657 395.788 693.137 396.364 693.809 396.772C694.481 397.156 695.321 397.348 696.329 397.348C697.193 397.348 697.913 397.24 698.489 397.024C699.089 396.808 699.737 396.436 700.433 395.908L704.681 400.192C702.761 402.304 699.893 403.36 696.077 403.36C693.701 403.36 691.613 402.928 689.813 402.064C688.013 401.176 686.621 399.952 685.637 398.392C684.653 396.832 684.161 395.08 684.161 393.136C684.161 391.168 684.641 389.416 685.601 387.88C686.585 386.32 687.917 385.108 689.597 384.244C691.301 383.38 693.209 382.948 695.321 382.948C697.313 382.948 699.125 383.344 700.757 384.136C702.413 384.928 703.721 386.092 704.681 387.628C705.665 389.164 706.157 391 706.157 393.136ZM695.393 388.492C694.553 388.492 693.857 388.72 693.305 389.176C692.753 389.632 692.393 390.28 692.225 391.12H698.561C698.393 390.304 698.033 389.668 697.481 389.212C696.929 388.732 696.233 388.492 695.393 388.492Z"/>
<path d="M709.516 377.8H719.236L717.616 393.352H711.136L709.516 377.8ZM714.376 403.36C712.984 403.36 711.844 402.94 710.956 402.1C710.068 401.26 709.624 400.24 709.624 399.04C709.624 397.816 710.068 396.808 710.956 396.016C711.844 395.2 712.984 394.792 714.376 394.792C715.768 394.792 716.908 395.2 717.796 396.016C718.684 396.808 719.128 397.816 719.128 399.04C719.128 400.24 718.684 401.26 717.796 402.1C716.908 402.94 715.768 403.36 714.376 403.36Z"/>
</mask>
<path d="M102.552 403L102.48 391.516L97.008 400.732H93.264L87.792 391.912V403H80.052V377.8H87.036L95.244 391.228L103.236 377.8H110.22L110.292 403H102.552Z" fill="white"/>
<path d="M124.768 382.948C128.224 382.948 130.864 383.728 132.688 385.288C134.512 386.824 135.424 389.2 135.424 392.416V403H127.864V400.408C126.928 402.376 125.068 403.36 122.284 403.36C120.724 403.36 119.392 403.096 118.288 402.568C117.208 402.016 116.38 401.284 115.804 400.372C115.252 399.436 114.976 398.392 114.976 397.24C114.976 395.296 115.72 393.82 117.208 392.812C118.696 391.804 120.952 391.3 123.976 391.3H127.252C126.988 389.764 125.752 388.996 123.544 388.996C122.656 388.996 121.756 389.14 120.844 389.428C119.932 389.692 119.152 390.064 118.504 390.544L115.912 385.18C117.04 384.484 118.396 383.944 119.98 383.56C121.588 383.152 123.184 382.948 124.768 382.948ZM124.732 398.464C125.308 398.464 125.824 398.308 126.28 397.996C126.736 397.684 127.072 397.216 127.288 396.592V395.224H125.272C123.616 395.224 122.788 395.776 122.788 396.88C122.788 397.336 122.956 397.72 123.292 398.032C123.652 398.32 124.132 398.464 124.732 398.464Z" fill="white"/>
<path d="M148.48 385.432C149.92 383.776 152.044 382.948 154.852 382.948V390.148C154.204 390.052 153.604 390.004 153.052 390.004C150.268 390.004 148.876 391.42 148.876 394.252V403H140.74V383.308H148.48V385.432Z" fill="white"/>
<path d="M168.39 396.952L167.094 398.356V403H158.958V376.288H167.094V389.032L172.746 383.308H182.358L174.222 391.84L183.006 403H173.178L168.39 396.952Z" fill="white"/>
<path d="M190.445 394.072C191.837 394.072 192.977 394.492 193.865 395.332C194.753 396.172 195.197 397.288 195.197 398.68C195.197 399.304 195.113 399.928 194.945 400.552C194.777 401.176 194.393 402.124 193.793 403.396L191.273 408.76H186.233L188.033 402.676C187.289 402.316 186.713 401.8 186.305 401.128C185.897 400.432 185.693 399.616 185.693 398.68C185.693 397.288 186.137 396.172 187.025 395.332C187.913 394.492 189.053 394.072 190.445 394.072Z" fill="white"/>
<path d="M233.052 393.136C233.052 393.256 233.016 393.892 232.944 395.044H219.264C219.552 395.788 220.032 396.364 220.704 396.772C221.376 397.156 222.216 397.348 223.224 397.348C224.088 397.348 224.808 397.24 225.384 397.024C225.984 396.808 226.632 396.436 227.328 395.908L231.576 400.192C229.656 402.304 226.788 403.36 222.972 403.36C220.596 403.36 218.508 402.928 216.708 402.064C214.908 401.176 213.516 399.952 212.532 398.392C211.548 396.832 211.056 395.08 211.056 393.136C211.056 391.168 211.536 389.416 212.496 387.88C213.48 386.32 214.812 385.108 216.492 384.244C218.196 383.38 220.104 382.948 222.216 382.948C224.208 382.948 226.02 383.344 227.652 384.136C229.308 384.928 230.616 386.092 231.576 387.628C232.56 389.164 233.052 391 233.052 393.136ZM222.288 388.492C221.448 388.492 220.752 388.72 220.2 389.176C219.648 389.632 219.288 390.28 219.12 391.12H225.456C225.288 390.304 224.928 389.668 224.376 389.212C223.824 388.732 223.128 388.492 222.288 388.492Z" fill="white"/>
<path d="M251.1 382.948C253.524 382.948 255.468 383.68 256.932 385.144C258.42 386.608 259.164 388.816 259.164 391.768V403H251.028V393.172C251.028 390.916 250.224 389.788 248.616 389.788C247.704 389.788 246.96 390.112 246.384 390.76C245.832 391.384 245.556 392.38 245.556 393.748V403H237.42V383.308H245.16V385.252C245.928 384.484 246.816 383.908 247.824 383.524C248.832 383.14 249.924 382.948 251.1 382.948Z" fill="white"/>
<path d="M264.317 410.344C262.229 410.344 260.561 410.02 259.313 409.372L261.257 403.72C261.833 404.032 262.445 404.188 263.093 404.188C263.597 404.188 264.005 403.996 264.317 403.612C264.629 403.252 264.785 402.688 264.785 401.92V383.308H272.921V401.992C272.921 404.56 272.153 406.588 270.617 408.076C269.105 409.588 267.005 410.344 264.317 410.344ZM268.853 381.724C267.389 381.724 266.201 381.34 265.289 380.572C264.401 379.78 263.957 378.784 263.957 377.584C263.957 376.384 264.401 375.4 265.289 374.632C266.201 373.84 267.389 373.444 268.853 373.444C270.341 373.444 271.529 373.816 272.417 374.56C273.305 375.304 273.749 376.264 273.749 377.44C273.749 378.688 273.305 379.72 272.417 380.536C271.529 381.328 270.341 381.724 268.853 381.724Z" fill="white"/>
<path d="M288.724 403.36C286.54 403.36 284.572 402.928 282.82 402.064C281.092 401.176 279.736 399.964 278.752 398.428C277.768 396.868 277.276 395.104 277.276 393.136C277.276 391.168 277.768 389.416 278.752 387.88C279.736 386.32 281.092 385.108 282.82 384.244C284.572 383.38 286.54 382.948 288.724 382.948C290.932 382.948 292.9 383.38 294.628 384.244C296.38 385.108 297.736 386.32 298.696 387.88C299.68 389.416 300.172 391.168 300.172 393.136C300.172 395.104 299.68 396.868 298.696 398.428C297.736 399.964 296.38 401.176 294.628 402.064C292.9 402.928 290.932 403.36 288.724 403.36ZM288.724 397.024C289.66 397.024 290.428 396.688 291.028 396.016C291.628 395.32 291.928 394.36 291.928 393.136C291.928 391.912 291.628 390.964 291.028 390.292C290.428 389.62 289.66 389.284 288.724 389.284C287.788 389.284 287.02 389.62 286.42 390.292C285.82 390.964 285.52 391.912 285.52 393.136C285.52 394.36 285.82 395.32 286.42 396.016C287.02 396.688 287.788 397.024 288.724 397.024Z" fill="white"/>
<path d="M325.915 383.308L317.815 403.396C316.783 405.964 315.499 407.764 313.963 408.796C312.427 409.828 310.543 410.344 308.311 410.344C307.207 410.344 306.091 410.176 304.963 409.84C303.859 409.528 302.983 409.108 302.335 408.58L305.035 403C305.443 403.312 305.899 403.564 306.403 403.756C306.931 403.948 307.435 404.044 307.915 404.044C308.803 404.044 309.475 403.78 309.931 403.252L301.651 383.308H310.003L314.071 393.856L318.211 383.308H325.915Z" fill="white"/>
<path d="M356.06 402.316C354.836 403.012 353.168 403.36 351.056 403.36C348.296 403.36 346.172 402.7 344.684 401.38C343.196 400.036 342.452 398.032 342.452 395.368V390.328H339.752V384.388H342.452V378.88H350.588V384.388H354.62V390.328H350.588V395.296C350.588 395.896 350.744 396.364 351.056 396.7C351.368 397.036 351.776 397.204 352.28 397.204C352.976 397.204 353.588 397.024 354.116 396.664L356.06 402.316Z" fill="white"/>
<path d="M373.591 382.948C376.015 382.948 377.959 383.68 379.423 385.144C380.911 386.608 381.655 388.816 381.655 391.768V403H373.519V393.172C373.519 390.916 372.715 389.788 371.107 389.788C370.195 389.788 369.451 390.112 368.875 390.76C368.323 391.384 368.047 392.38 368.047 393.748V403H359.911V376.288H368.047V384.892C369.559 383.596 371.407 382.948 373.591 382.948Z" fill="white"/>
<path d="M408.292 393.136C408.292 393.256 408.256 393.892 408.184 395.044H394.504C394.792 395.788 395.272 396.364 395.944 396.772C396.616 397.156 397.456 397.348 398.464 397.348C399.328 397.348 400.048 397.24 400.624 397.024C401.224 396.808 401.872 396.436 402.568 395.908L406.816 400.192C404.896 402.304 402.028 403.36 398.212 403.36C395.836 403.36 393.748 402.928 391.948 402.064C390.148 401.176 388.756 399.952 387.772 398.392C386.788 396.832 386.296 395.08 386.296 393.136C386.296 391.168 386.776 389.416 387.736 387.88C388.72 386.32 390.052 385.108 391.732 384.244C393.436 383.38 395.344 382.948 397.456 382.948C399.448 382.948 401.26 383.344 402.892 384.136C404.548 384.928 405.856 386.092 406.816 387.628C407.8 389.164 408.292 391 408.292 393.136ZM397.528 388.492C396.688 388.492 395.992 388.72 395.44 389.176C394.888 389.632 394.528 390.28 394.36 391.12H400.696C400.528 390.304 400.168 389.668 399.616 389.212C399.064 388.732 398.368 388.492 397.528 388.492Z" fill="white"/>
<path d="M435.836 403.36C433.604 403.36 431.6 402.928 429.824 402.064C428.072 401.2 426.692 399.988 425.684 398.428C424.7 396.868 424.208 395.104 424.208 393.136C424.208 391.168 424.7 389.416 425.684 387.88C426.692 386.32 428.072 385.108 429.824 384.244C431.6 383.38 433.604 382.948 435.836 382.948C438.236 382.948 440.288 383.464 441.992 384.496C443.696 385.528 444.872 386.956 445.52 388.78L439.22 391.876C438.452 390.148 437.312 389.284 435.8 389.284C434.84 389.284 434.036 389.62 433.388 390.292C432.764 390.964 432.452 391.912 432.452 393.136C432.452 394.384 432.764 395.344 433.388 396.016C434.036 396.688 434.84 397.024 435.8 397.024C437.312 397.024 438.452 396.16 439.22 394.432L445.52 397.528C444.872 399.352 443.696 400.78 441.992 401.812C440.288 402.844 438.236 403.36 435.836 403.36Z" fill="white"/>
<path d="M458.021 382.948C461.477 382.948 464.117 383.728 465.941 385.288C467.765 386.824 468.677 389.2 468.677 392.416V403H461.117V400.408C460.181 402.376 458.321 403.36 455.537 403.36C453.977 403.36 452.645 403.096 451.541 402.568C450.461 402.016 449.633 401.284 449.057 400.372C448.505 399.436 448.229 398.392 448.229 397.24C448.229 395.296 448.973 393.82 450.461 392.812C451.949 391.804 454.205 391.3 457.229 391.3H460.505C460.241 389.764 459.005 388.996 456.797 388.996C455.909 388.996 455.009 389.14 454.097 389.428C453.185 389.692 452.405 390.064 451.757 390.544L449.165 385.18C450.293 384.484 451.649 383.944 453.233 383.56C454.841 383.152 456.437 382.948 458.021 382.948ZM457.985 398.464C458.561 398.464 459.077 398.308 459.533 397.996C459.989 397.684 460.325 397.216 460.541 396.592V395.224H458.525C456.869 395.224 456.041 395.776 456.041 396.88C456.041 397.336 456.209 397.72 456.545 398.032C456.905 398.32 457.385 398.464 457.985 398.464Z" fill="white"/>
<path d="M481.733 385.432C483.173 383.776 485.297 382.948 488.105 382.948V390.148C487.457 390.052 486.857 390.004 486.305 390.004C483.521 390.004 482.129 391.42 482.129 394.252V403H473.993V383.308H481.733V385.432Z" fill="white"/>
<path d="M512.987 393.136C512.987 393.256 512.951 393.892 512.879 395.044H499.199C499.487 395.788 499.967 396.364 500.639 396.772C501.311 397.156 502.151 397.348 503.159 397.348C504.023 397.348 504.743 397.24 505.319 397.024C505.919 396.808 506.567 396.436 507.263 395.908L511.511 400.192C509.591 402.304 506.723 403.36 502.907 403.36C500.531 403.36 498.443 402.928 496.643 402.064C494.843 401.176 493.451 399.952 492.467 398.392C491.483 396.832 490.991 395.08 490.991 393.136C490.991 391.168 491.471 389.416 492.431 387.88C493.415 386.32 494.747 385.108 496.427 384.244C498.131 383.38 500.039 382.948 502.151 382.948C504.143 382.948 505.955 383.344 507.587 384.136C509.243 384.928 510.551 386.092 511.511 387.628C512.495 389.164 512.987 391 512.987 393.136ZM502.223 388.492C501.383 388.492 500.687 388.72 500.135 389.176C499.583 389.632 499.223 390.28 499.055 391.12H505.391C505.223 390.304 504.863 389.668 504.311 389.212C503.759 388.732 503.063 388.492 502.223 388.492Z" fill="white"/>
<path d="M543.088 382.948C544.816 382.948 546.4 383.368 547.84 384.208C549.304 385.024 550.456 386.212 551.296 387.772C552.16 389.332 552.592 391.132 552.592 393.172C552.592 395.212 552.16 397.012 551.296 398.572C550.456 400.108 549.304 401.296 547.84 402.136C546.4 402.952 544.816 403.36 543.088 403.36C540.904 403.36 539.236 402.796 538.084 401.668V409.984H529.948V383.308H537.688V384.928C538.864 383.608 540.664 382.948 543.088 382.948ZM541.144 397.024C542.08 397.024 542.848 396.688 543.448 396.016C544.048 395.344 544.348 394.396 544.348 393.172C544.348 391.948 544.048 391 543.448 390.328C542.848 389.632 542.08 389.284 541.144 389.284C540.208 389.284 539.44 389.632 538.84 390.328C538.24 391 537.94 391.948 537.94 393.172C537.94 394.396 538.24 395.344 538.84 396.016C539.44 396.688 540.208 397.024 541.144 397.024Z" fill="white"/>
<path d="M565.283 382.948C568.739 382.948 571.379 383.728 573.203 385.288C575.027 386.824 575.939 389.2 575.939 392.416V403H568.379V400.408C567.443 402.376 565.583 403.36 562.799 403.36C561.239 403.36 559.907 403.096 558.803 402.568C557.723 402.016 556.895 401.284 556.319 400.372C555.767 399.436 555.491 398.392 555.491 397.24C555.491 395.296 556.235 393.82 557.723 392.812C559.211 391.804 561.467 391.3 564.491 391.3H567.767C567.503 389.764 566.267 388.996 564.059 388.996C563.171 388.996 562.271 389.14 561.359 389.428C560.447 389.692 559.666 390.064 559.018 390.544L556.427 385.18C557.555 384.484 558.911 383.944 560.495 383.56C562.103 383.152 563.699 382.948 565.283 382.948ZM565.247 398.464C565.823 398.464 566.338 398.308 566.794 397.996C567.25 397.684 567.587 397.216 567.803 396.592V395.224H565.786C564.13 395.224 563.303 395.776 563.303 396.88C563.303 397.336 563.471 397.72 563.807 398.032C564.167 398.32 564.647 398.464 565.247 398.464Z" fill="white"/>
<path d="M592.19 403.36C589.958 403.36 587.954 402.928 586.178 402.064C584.426 401.2 583.046 399.988 582.038 398.428C581.054 396.868 580.562 395.104 580.562 393.136C580.562 391.168 581.054 389.416 582.038 387.88C583.046 386.32 584.426 385.108 586.178 384.244C587.954 383.38 589.958 382.948 592.19 382.948C594.59 382.948 596.642 383.464 598.346 384.496C600.05 385.528 601.226 386.956 601.874 388.78L595.574 391.876C594.806 390.148 593.666 389.284 592.154 389.284C591.194 389.284 590.39 389.62 589.742 390.292C589.118 390.964 588.806 391.912 588.806 393.136C588.806 394.384 589.118 395.344 589.742 396.016C590.39 396.688 591.194 397.024 592.154 397.024C593.666 397.024 594.806 396.16 595.574 394.432L601.874 397.528C601.226 399.352 600.05 400.78 598.346 401.812C596.642 402.844 594.59 403.36 592.19 403.36Z" fill="white"/>
<path d="M614.987 396.952L613.691 398.356V403H605.555V376.288H613.691V389.032L619.343 383.308H628.955L620.819 391.84L629.603 403H619.775L614.987 396.952Z" fill="white"/>
<path d="M641.487 382.948C644.943 382.948 647.583 383.728 649.407 385.288C651.231 386.824 652.143 389.2 652.143 392.416V403H644.583V400.408C643.647 402.376 641.787 403.36 639.003 403.36C637.443 403.36 636.111 403.096 635.007 402.568C633.927 402.016 633.099 401.284 632.523 400.372C631.971 399.436 631.695 398.392 631.695 397.24C631.695 395.296 632.439 393.82 633.927 392.812C635.415 391.804 637.671 391.3 640.695 391.3H643.971C643.707 389.764 642.471 388.996 640.263 388.996C639.375 388.996 638.475 389.14 637.563 389.428C636.651 389.692 635.871 390.064 635.223 390.544L632.631 385.18C633.759 384.484 635.115 383.944 636.699 383.56C638.307 383.152 639.903 382.948 641.487 382.948ZM641.451 398.464C642.027 398.464 642.543 398.308 642.999 397.996C643.455 397.684 643.791 397.216 644.007 396.592V395.224H641.991C640.335 395.224 639.507 395.776 639.507 396.88C639.507 397.336 639.675 397.72 640.011 398.032C640.371 398.32 640.851 398.464 641.451 398.464Z" fill="white"/>
<path d="M679.807 383.308V399.076C679.807 402.82 678.763 405.628 676.675 407.5C674.611 409.396 671.659 410.344 667.819 410.344C665.851 410.344 664.015 410.128 662.311 409.696C660.607 409.288 659.155 408.688 657.955 407.896L660.691 402.352C661.459 402.928 662.431 403.396 663.607 403.756C664.783 404.116 665.911 404.296 666.991 404.296C668.623 404.296 669.811 403.948 670.555 403.252C671.299 402.556 671.671 401.536 671.671 400.192V399.832C670.447 401.224 668.635 401.92 666.235 401.92C664.555 401.92 662.983 401.536 661.519 400.768C660.079 399.976 658.927 398.86 658.063 397.42C657.199 395.956 656.767 394.288 656.767 392.416C656.767 390.544 657.199 388.888 658.063 387.448C658.927 386.008 660.079 384.904 661.519 384.136C662.983 383.344 664.555 382.948 666.235 382.948C668.923 382.948 670.867 383.812 672.067 385.54V383.308H679.807ZM668.395 395.584C669.355 395.584 670.147 395.296 670.771 394.72C671.419 394.12 671.743 393.352 671.743 392.416C671.743 391.48 671.419 390.724 670.771 390.148C670.147 389.572 669.355 389.284 668.395 389.284C667.411 389.284 666.595 389.572 665.947 390.148C665.323 390.724 665.011 391.48 665.011 392.416C665.011 393.352 665.335 394.12 665.983 394.72C666.631 395.296 667.435 395.584 668.395 395.584Z" fill="white"/>
<path d="M706.157 393.136C706.157 393.256 706.121 393.892 706.049 395.044H692.369C692.657 395.788 693.137 396.364 693.809 396.772C694.481 397.156 695.321 397.348 696.329 397.348C697.193 397.348 697.913 397.24 698.489 397.024C699.089 396.808 699.737 396.436 700.433 395.908L704.681 400.192C702.761 402.304 699.893 403.36 696.077 403.36C693.701 403.36 691.613 402.928 689.813 402.064C688.013 401.176 686.621 399.952 685.637 398.392C684.653 396.832 684.161 395.08 684.161 393.136C684.161 391.168 684.641 389.416 685.601 387.88C686.585 386.32 687.917 385.108 689.597 384.244C691.301 383.38 693.209 382.948 695.321 382.948C697.313 382.948 699.125 383.344 700.757 384.136C702.413 384.928 703.721 386.092 704.681 387.628C705.665 389.164 706.157 391 706.157 393.136ZM695.393 388.492C694.553 388.492 693.857 388.72 693.305 389.176C692.753 389.632 692.393 390.28 692.225 391.12H698.561C698.393 390.304 698.033 389.668 697.481 389.212C696.929 388.732 696.233 388.492 695.393 388.492Z" fill="white"/>
<path d="M709.516 377.8H719.236L717.616 393.352H711.136L709.516 377.8ZM714.376 403.36C712.984 403.36 711.844 402.94 710.956 402.1C710.068 401.26 709.624 400.24 709.624 399.04C709.624 397.816 710.068 396.808 710.956 396.016C711.844 395.2 712.984 394.792 714.376 394.792C715.768 394.792 716.908 395.2 717.796 396.016C718.684 396.808 719.128 397.816 719.128 399.04C719.128 400.24 718.684 401.26 717.796 402.1C716.908 402.94 715.768 403.36 714.376 403.36Z" fill="white"/>
<path d="M102.552 403L102.48 391.516L97.008 400.732H93.264L87.792 391.912V403H80.052V377.8H87.036L95.244 391.228L103.236 377.8H110.22L110.292 403H102.552Z" stroke="black" stroke-width="4" mask="url(#path-46-outside-1)"/>
<path d="M124.768 382.948C128.224 382.948 130.864 383.728 132.688 385.288C134.512 386.824 135.424 389.2 135.424 392.416V403H127.864V400.408C126.928 402.376 125.068 403.36 122.284 403.36C120.724 403.36 119.392 403.096 118.288 402.568C117.208 402.016 116.38 401.284 115.804 400.372C115.252 399.436 114.976 398.392 114.976 397.24C114.976 395.296 115.72 393.82 117.208 392.812C118.696 391.804 120.952 391.3 123.976 391.3H127.252C126.988 389.764 125.752 388.996 123.544 388.996C122.656 388.996 121.756 389.14 120.844 389.428C119.932 389.692 119.152 390.064 118.504 390.544L115.912 385.18C117.04 384.484 118.396 383.944 119.98 383.56C121.588 383.152 123.184 382.948 124.768 382.948ZM124.732 398.464C125.308 398.464 125.824 398.308 126.28 397.996C126.736 397.684 127.072 397.216 127.288 396.592V395.224H125.272C123.616 395.224 122.788 395.776 122.788 396.88C122.788 397.336 122.956 397.72 123.292 398.032C123.652 398.32 124.132 398.464 124.732 398.464Z" stroke="black" stroke-width="4" mask="url(#path-46-outside-1)"/>
<path d="M148.48 385.432C149.92 383.776 152.044 382.948 154.852 382.948V390.148C154.204 390.052 153.604 390.004 153.052 390.004C150.268 390.004 148.876 391.42 148.876 394.252V403H140.74V383.308H148.48V385.432Z" stroke="black" stroke-width="4" mask="url(#path-46-outside-1)"/>
<path d="M168.39 396.952L167.094 398.356V403H158.958V376.288H167.094V389.032L172.746 383.308H182.358L174.222 391.84L183.006 403H173.178L168.39 396.952Z" stroke="black" stroke-width="4" mask="url(#path-46-outside-1)"/>
<path d="M190.445 394.072C191.837 394.072 192.977 394.492 193.865 395.332C194.753 396.172 195.197 397.288 195.197 398.68C195.197 399.304 195.113 399.928 194.945 400.552C194.777 401.176 194.393 402.124 193.793 403.396L191.273 408.76H186.233L188.033 402.676C187.289 402.316 186.713 401.8 186.305 401.128C185.897 400.432 185.693 399.616 185.693 398.68C185.693 397.288 186.137 396.172 187.025 395.332C187.913 394.492 189.053 394.072 190.445 394.072Z" stroke="black" stroke-width="4" mask="url(#path-46-outside-1)"/>
<path d="M233.052 393.136C233.052 393.256 233.016 393.892 232.944 395.044H219.264C219.552 395.788 220.032 396.364 220.704 396.772C221.376 397.156 222.216 397.348 223.224 397.348C224.088 397.348 224.808 397.24 225.384 397.024C225.984 396.808 226.632 396.436 227.328 395.908L231.576 400.192C229.656 402.304 226.788 403.36 222.972 403.36C220.596 403.36 218.508 402.928 216.708 402.064C214.908 401.176 213.516 399.952 212.532 398.392C211.548 396.832 211.056 395.08 211.056 393.136C211.056 391.168 211.536 389.416 212.496 387.88C213.48 386.32 214.812 385.108 216.492 384.244C218.196 383.38 220.104 382.948 222.216 382.948C224.208 382.948 226.02 383.344 227.652 384.136C229.308 384.928 230.616 386.092 231.576 387.628C232.56 389.164 233.052 391 233.052 393.136ZM222.288 388.492C221.448 388.492 220.752 388.72 220.2 389.176C219.648 389.632 219.288 390.28 219.12 391.12H225.456C225.288 390.304 224.928 389.668 224.376 389.212C223.824 388.732 223.128 388.492 222.288 388.492Z" stroke="black" stroke-width="4" mask="url(#path-46-outside-1)"/>
<path d="M251.1 382.948C253.524 382.948 255.468 383.68 256.932 385.144C258.42 386.608 259.164 388.816 259.164 391.768V403H251.028V393.172C251.028 390.916 250.224 389.788 248.616 389.788C247.704 389.788 246.96 390.112 246.384 390.76C245.832 391.384 245.556 392.38 245.556 393.748V403H237.42V383.308H245.16V385.252C245.928 384.484 246.816 383.908 247.824 383.524C248.832 383.14 249.924 382.948 251.1 382.948Z" stroke="black" stroke-width="4" mask="url(#path-46-outside-1)"/>
<path d="M264.317 410.344C262.229 410.344 260.561 410.02 259.313 409.372L261.257 403.72C261.833 404.032 262.445 404.188 263.093 404.188C263.597 404.188 264.005 403.996 264.317 403.612C264.629 403.252 264.785 402.688 264.785 401.92V383.308H272.921V401.992C272.921 404.56 272.153 406.588 270.617 408.076C269.105 409.588 267.005 410.344 264.317 410.344ZM268.853 381.724C267.389 381.724 266.201 381.34 265.289 380.572C264.401 379.78 263.957 378.784 263.957 377.584C263.957 376.384 264.401 375.4 265.289 374.632C266.201 373.84 267.389 373.444 268.853 373.444C270.341 373.444 271.529 373.816 272.417 374.56C273.305 375.304 273.749 376.264 273.749 377.44C273.749 378.688 273.305 379.72 272.417 380.536C271.529 381.328 270.341 381.724 268.853 381.724Z" stroke="black" stroke-width="4" mask="url(#path-46-outside-1)"/>
<path d="M288.724 403.36C286.54 403.36 284.572 402.928 282.82 402.064C281.092 401.176 279.736 399.964 278.752 398.428C277.768 396.868 277.276 395.104 277.276 393.136C277.276 391.168 277.768 389.416 278.752 387.88C279.736 386.32 281.092 385.108 282.82 384.244C284.572 383.38 286.54 382.948 288.724 382.948C290.932 382.948 292.9 383.38 294.628 384.244C296.38 385.108 297.736 386.32 298.696 387.88C299.68 389.416 300.172 391.168 300.172 393.136C300.172 395.104 299.68 396.868 298.696 398.428C297.736 399.964 296.38 401.176 294.628 402.064C292.9 402.928 290.932 403.36 288.724 403.36ZM288.724 397.024C289.66 397.024 290.428 396.688 291.028 396.016C291.628 395.32 291.928 394.36 291.928 393.136C291.928 391.912 291.628 390.964 291.028 390.292C290.428 389.62 289.66 389.284 288.724 389.284C287.788 389.284 287.02 389.62 286.42 390.292C285.82 390.964 285.52 391.912 285.52 393.136C285.52 394.36 285.82 395.32 286.42 396.016C287.02 396.688 287.788 397.024 288.724 397.024Z" stroke="black" stroke-width="4" mask="url(#path-46-outside-1)"/>
<path d="M325.915 383.308L317.815 403.396C316.783 405.964 315.499 407.764 313.963 408.796C312.427 409.828 310.543 410.344 308.311 410.344C307.207 410.344 306.091 410.176 304.963 409.84C303.859 409.528 302.983 409.108 302.335 408.58L305.035 403C305.443 403.312 305.899 403.564 306.403 403.756C306.931 403.948 307.435 404.044 307.915 404.044C308.803 404.044 309.475 403.78 309.931 403.252L301.651 383.308H310.003L314.071 393.856L318.211 383.308H325.915Z" stroke="black" stroke-width="4" mask="url(#path-46-outside-1)"/>
<path d="M356.06 402.316C354.836 403.012 353.168 403.36 351.056 403.36C348.296 403.36 346.172 402.7 344.684 401.38C343.196 400.036 342.452 398.032 342.452 395.368V390.328H339.752V384.388H342.452V378.88H350.588V384.388H354.62V390.328H350.588V395.296C350.588 395.896 350.744 396.364 351.056 396.7C351.368 397.036 351.776 397.204 352.28 397.204C352.976 397.204 353.588 397.024 354.116 396.664L356.06 402.316Z" stroke="black" stroke-width="4" mask="url(#path-46-outside-1)"/>
<path d="M373.591 382.948C376.015 382.948 377.959 383.68 379.423 385.144C380.911 386.608 381.655 388.816 381.655 391.768V403H373.519V393.172C373.519 390.916 372.715 389.788 371.107 389.788C370.195 389.788 369.451 390.112 368.875 390.76C368.323 391.384 368.047 392.38 368.047 393.748V403H359.911V376.288H368.047V384.892C369.559 383.596 371.407 382.948 373.591 382.948Z" stroke="black" stroke-width="4" mask="url(#path-46-outside-1)"/>
<path d="M408.292 393.136C408.292 393.256 408.256 393.892 408.184 395.044H394.504C394.792 395.788 395.272 396.364 395.944 396.772C396.616 397.156 397.456 397.348 398.464 397.348C399.328 397.348 400.048 397.24 400.624 397.024C401.224 396.808 401.872 396.436 402.568 395.908L406.816 400.192C404.896 402.304 402.028 403.36 398.212 403.36C395.836 403.36 393.748 402.928 391.948 402.064C390.148 401.176 388.756 399.952 387.772 398.392C386.788 396.832 386.296 395.08 386.296 393.136C386.296 391.168 386.776 389.416 387.736 387.88C388.72 386.32 390.052 385.108 391.732 384.244C393.436 383.38 395.344 382.948 397.456 382.948C399.448 382.948 401.26 383.344 402.892 384.136C404.548 384.928 405.856 386.092 406.816 387.628C407.8 389.164 408.292 391 408.292 393.136ZM397.528 388.492C396.688 388.492 395.992 388.72 395.44 389.176C394.888 389.632 394.528 390.28 394.36 391.12H400.696C400.528 390.304 400.168 389.668 399.616 389.212C399.064 388.732 398.368 388.492 397.528 388.492Z" stroke="black" stroke-width="4" mask="url(#path-46-outside-1)"/>
<path d="M435.836 403.36C433.604 403.36 431.6 402.928 429.824 402.064C428.072 401.2 426.692 399.988 425.684 398.428C424.7 396.868 424.208 395.104 424.208 393.136C424.208 391.168 424.7 389.416 425.684 387.88C426.692 386.32 428.072 385.108 429.824 384.244C431.6 383.38 433.604 382.948 435.836 382.948C438.236 382.948 440.288 383.464 441.992 384.496C443.696 385.528 444.872 386.956 445.52 388.78L439.22 391.876C438.452 390.148 437.312 389.284 435.8 389.284C434.84 389.284 434.036 389.62 433.388 390.292C432.764 390.964 432.452 391.912 432.452 393.136C432.452 394.384 432.764 395.344 433.388 396.016C434.036 396.688 434.84 397.024 435.8 397.024C437.312 397.024 438.452 396.16 439.22 394.432L445.52 397.528C444.872 399.352 443.696 400.78 441.992 401.812C440.288 402.844 438.236 403.36 435.836 403.36Z" stroke="black" stroke-width="4" mask="url(#path-46-outside-1)"/>
<path d="M458.021 382.948C461.477 382.948 464.117 383.728 465.941 385.288C467.765 386.824 468.677 389.2 468.677 392.416V403H461.117V400.408C460.181 402.376 458.321 403.36 455.537 403.36C453.977 403.36 452.645 403.096 451.541 402.568C450.461 402.016 449.633 401.284 449.057 400.372C448.505 399.436 448.229 398.392 448.229 397.24C448.229 395.296 448.973 393.82 450.461 392.812C451.949 391.804 454.205 391.3 457.229 391.3H460.505C460.241 389.764 459.005 388.996 456.797 388.996C455.909 388.996 455.009 389.14 454.097 389.428C453.185 389.692 452.405 390.064 451.757 390.544L449.165 385.18C450.293 384.484 451.649 383.944 453.233 383.56C454.841 383.152 456.437 382.948 458.021 382.948ZM457.985 398.464C458.561 398.464 459.077 398.308 459.533 397.996C459.989 397.684 460.325 397.216 460.541 396.592V395.224H458.525C456.869 395.224 456.041 395.776 456.041 396.88C456.041 397.336 456.209 397.72 456.545 398.032C456.905 398.32 457.385 398.464 457.985 398.464Z" stroke="black" stroke-width="4" mask="url(#path-46-outside-1)"/>
<path d="M481.733 385.432C483.173 383.776 485.297 382.948 488.105 382.948V390.148C487.457 390.052 486.857 390.004 486.305 390.004C483.521 390.004 482.129 391.42 482.129 394.252V403H473.993V383.308H481.733V385.432Z" stroke="black" stroke-width="4" mask="url(#path-46-outside-1)"/>
<path d="M512.987 393.136C512.987 393.256 512.951 393.892 512.879 395.044H499.199C499.487 395.788 499.967 396.364 500.639 396.772C501.311 397.156 502.151 397.348 503.159 397.348C504.023 397.348 504.743 397.24 505.319 397.024C505.919 396.808 506.567 396.436 507.263 395.908L511.511 400.192C509.591 402.304 506.723 403.36 502.907 403.36C500.531 403.36 498.443 402.928 496.643 402.064C494.843 401.176 493.451 399.952 492.467 398.392C491.483 396.832 490.991 395.08 490.991 393.136C490.991 391.168 491.471 389.416 492.431 387.88C493.415 386.32 494.747 385.108 496.427 384.244C498.131 383.38 500.039 382.948 502.151 382.948C504.143 382.948 505.955 383.344 507.587 384.136C509.243 384.928 510.551 386.092 511.511 387.628C512.495 389.164 512.987 391 512.987 393.136ZM502.223 388.492C501.383 388.492 500.687 388.72 500.135 389.176C499.583 389.632 499.223 390.28 499.055 391.12H505.391C505.223 390.304 504.863 389.668 504.311 389.212C503.759 388.732 503.063 388.492 502.223 388.492Z" stroke="black" stroke-width="4" mask="url(#path-46-outside-1)"/>
<path d="M543.088 382.948C544.816 382.948 546.4 383.368 547.84 384.208C549.304 385.024 550.456 386.212 551.296 387.772C552.16 389.332 552.592 391.132 552.592 393.172C552.592 395.212 552.16 397.012 551.296 398.572C550.456 400.108 549.304 401.296 547.84 402.136C546.4 402.952 544.816 403.36 543.088 403.36C540.904 403.36 539.236 402.796 538.084 401.668V409.984H529.948V383.308H537.688V384.928C538.864 383.608 540.664 382.948 543.088 382.948ZM541.144 397.024C542.08 397.024 542.848 396.688 543.448 396.016C544.048 395.344 544.348 394.396 544.348 393.172C544.348 391.948 544.048 391 543.448 390.328C542.848 389.632 542.08 389.284 541.144 389.284C540.208 389.284 539.44 389.632 538.84 390.328C538.24 391 537.94 391.948 537.94 393.172C537.94 394.396 538.24 395.344 538.84 396.016C539.44 396.688 540.208 397.024 541.144 397.024Z" stroke="black" stroke-width="4" mask="url(#path-46-outside-1)"/>
<path d="M565.283 382.948C568.739 382.948 571.379 383.728 573.203 385.288C575.027 386.824 575.939 389.2 575.939 392.416V403H568.379V400.408C567.443 402.376 565.583 403.36 562.799 403.36C561.239 403.36 559.907 403.096 558.803 402.568C557.723 402.016 556.895 401.284 556.319 400.372C555.767 399.436 555.491 398.392 555.491 397.24C555.491 395.296 556.235 393.82 557.723 392.812C559.211 391.804 561.467 391.3 564.491 391.3H567.767C567.503 389.764 566.267 388.996 564.059 388.996C563.171 388.996 562.271 389.14 561.359 389.428C560.447 389.692 559.666 390.064 559.018 390.544L556.427 385.18C557.555 384.484 558.911 383.944 560.495 383.56C562.103 383.152 563.699 382.948 565.283 382.948ZM565.247 398.464C565.823 398.464 566.338 398.308 566.794 397.996C567.25 397.684 567.587 397.216 567.803 396.592V395.224H565.786C564.13 395.224 563.303 395.776 563.303 396.88C563.303 397.336 563.471 397.72 563.807 398.032C564.167 398.32 564.647 398.464 565.247 398.464Z" stroke="black" stroke-width="4" mask="url(#path-46-outside-1)"/>
<path d="M592.19 403.36C589.958 403.36 587.954 402.928 586.178 402.064C584.426 401.2 583.046 399.988 582.038 398.428C581.054 396.868 580.562 395.104 580.562 393.136C580.562 391.168 581.054 389.416 582.038 387.88C583.046 386.32 584.426 385.108 586.178 384.244C587.954 383.38 589.958 382.948 592.19 382.948C594.59 382.948 596.642 383.464 598.346 384.496C600.05 385.528 601.226 386.956 601.874 388.78L595.574 391.876C594.806 390.148 593.666 389.284 592.154 389.284C591.194 389.284 590.39 389.62 589.742 390.292C589.118 390.964 588.806 391.912 588.806 393.136C588.806 394.384 589.118 395.344 589.742 396.016C590.39 396.688 591.194 397.024 592.154 397.024C593.666 397.024 594.806 396.16 595.574 394.432L601.874 397.528C601.226 399.352 600.05 400.78 598.346 401.812C596.642 402.844 594.59 403.36 592.19 403.36Z" stroke="black" stroke-width="4" mask="url(#path-46-outside-1)"/>
<path d="M614.987 396.952L613.691 398.356V403H605.555V376.288H613.691V389.032L619.343 383.308H628.955L620.819 391.84L629.603 403H619.775L614.987 396.952Z" stroke="black" stroke-width="4" mask="url(#path-46-outside-1)"/>
<path d="M641.487 382.948C644.943 382.948 647.583 383.728 649.407 385.288C651.231 386.824 652.143 389.2 652.143 392.416V403H644.583V400.408C643.647 402.376 641.787 403.36 639.003 403.36C637.443 403.36 636.111 403.096 635.007 402.568C633.927 402.016 633.099 401.284 632.523 400.372C631.971 399.436 631.695 398.392 631.695 397.24C631.695 395.296 632.439 393.82 633.927 392.812C635.415 391.804 637.671 391.3 640.695 391.3H643.971C643.707 389.764 642.471 388.996 640.263 388.996C639.375 388.996 638.475 389.14 637.563 389.428C636.651 389.692 635.871 390.064 635.223 390.544L632.631 385.18C633.759 384.484 635.115 383.944 636.699 383.56C638.307 383.152 639.903 382.948 641.487 382.948ZM641.451 398.464C642.027 398.464 642.543 398.308 642.999 397.996C643.455 397.684 643.791 397.216 644.007 396.592V395.224H641.991C640.335 395.224 639.507 395.776 639.507 396.88C639.507 397.336 639.675 397.72 640.011 398.032C640.371 398.32 640.851 398.464 641.451 398.464Z" stroke="black" stroke-width="4" mask="url(#path-46-outside-1)"/>
<path d="M679.807 383.308V399.076C679.807 402.82 678.763 405.628 676.675 407.5C674.611 409.396 671.659 410.344 667.819 410.344C665.851 410.344 664.015 410.128 662.311 409.696C660.607 409.288 659.155 408.688 657.955 407.896L660.691 402.352C661.459 402.928 662.431 403.396 663.607 403.756C664.783 404.116 665.911 404.296 666.991 404.296C668.623 404.296 669.811 403.948 670.555 403.252C671.299 402.556 671.671 401.536 671.671 400.192V399.832C670.447 401.224 668.635 401.92 666.235 401.92C664.555 401.92 662.983 401.536 661.519 400.768C660.079 399.976 658.927 398.86 658.063 397.42C657.199 395.956 656.767 394.288 656.767 392.416C656.767 390.544 657.199 388.888 658.063 387.448C658.927 386.008 660.079 384.904 661.519 384.136C662.983 383.344 664.555 382.948 666.235 382.948C668.923 382.948 670.867 383.812 672.067 385.54V383.308H679.807ZM668.395 395.584C669.355 395.584 670.147 395.296 670.771 394.72C671.419 394.12 671.743 393.352 671.743 392.416C671.743 391.48 671.419 390.724 670.771 390.148C670.147 389.572 669.355 389.284 668.395 389.284C667.411 389.284 666.595 389.572 665.947 390.148C665.323 390.724 665.011 391.48 665.011 392.416C665.011 393.352 665.335 394.12 665.983 394.72C666.631 395.296 667.435 395.584 668.395 395.584Z" stroke="black" stroke-width="4" mask="url(#path-46-outside-1)"/>
<path d="M706.157 393.136C706.157 393.256 706.121 393.892 706.049 395.044H692.369C692.657 395.788 693.137 396.364 693.809 396.772C694.481 397.156 695.321 397.348 696.329 397.348C697.193 397.348 697.913 397.24 698.489 397.024C699.089 396.808 699.737 396.436 700.433 395.908L704.681 400.192C702.761 402.304 699.893 403.36 696.077 403.36C693.701 403.36 691.613 402.928 689.813 402.064C688.013 401.176 686.621 399.952 685.637 398.392C684.653 396.832 684.161 395.08 684.161 393.136C684.161 391.168 684.641 389.416 685.601 387.88C686.585 386.32 687.917 385.108 689.597 384.244C691.301 383.38 693.209 382.948 695.321 382.948C697.313 382.948 699.125 383.344 700.757 384.136C702.413 384.928 703.721 386.092 704.681 387.628C705.665 389.164 706.157 391 706.157 393.136ZM695.393 388.492C694.553 388.492 693.857 388.72 693.305 389.176C692.753 389.632 692.393 390.28 692.225 391.12H698.561C698.393 390.304 698.033 389.668 697.481 389.212C696.929 388.732 696.233 388.492 695.393 388.492Z" stroke="black" stroke-width="4" mask="url(#path-46-outside-1)"/>
<path d="M709.516 377.8H719.236L717.616 393.352H711.136L709.516 377.8ZM714.376 403.36C712.984 403.36 711.844 402.94 710.956 402.1C710.068 401.26 709.624 400.24 709.624 399.04C709.624 397.816 710.068 396.808 710.956 396.016C711.844 395.2 712.984 394.792 714.376 394.792C715.768 394.792 716.908 395.2 717.796 396.016C718.684 396.808 719.128 397.816 719.128 399.04C719.128 400.24 718.684 401.26 717.796 402.1C716.908 402.94 715.768 403.36 714.376 403.36Z" stroke="black" stroke-width="4" mask="url(#path-46-outside-1)"/>
</svg>
