<svg width="1201" height="1201" viewBox="0 0 1201 1201" fill="none" xmlns="http://www.w3.org/2000/svg">
<mask id="mask0" mask-type="alpha" maskUnits="userSpaceOnUse" x="0" y="0" width="1201" height="1201">
<circle cx="600.5" cy="600.5" r="600.5" fill="#C4C4C4"/>
</mask>
<g mask="url(#mask0)">
<rect x="-509" y="-218" width="2218" height="1638" fill="white"/>
<path d="M962.163 499.286L927.335 583.944L801.397 584.926L760.37 585.248L663.008 586.009L621.998 586.331L524.637 587.093L483.627 587.415L386.265 588.194L345.255 588.515L279.535 589.023L266.823 563.728L250.332 530.965L241.224 512.832L236 499.286L267.258 403.031C270.314 393.626 276.373 385.412 284.555 379.582C292.737 373.752 302.617 370.608 312.761 370.607H881.467C891.317 370.612 900.923 373.58 908.97 379.103C917.017 384.626 923.11 392.434 926.412 401.456L930.035 411.378L962.163 499.286Z" fill="#95E0FD"/>
<path d="M962.163 498.253H236V676.957H962.163V498.253Z" fill="#95E0FD"/>
<path opacity="0.1" d="M965 498.253H236V676.957H965V498.253Z" fill="black"/>
<path d="M868.556 277H326.77V849.988H868.556V277Z" fill="#F2F2F2"/>
<path d="M834.518 398.973H357.973V441.521H834.518V398.973Z" fill="#E6E6E6"/>
<path d="M599.082 319.549H440.233V359.261H599.082V319.549Z" fill="#E6E6E6"/>
<path d="M828.844 464.214H355.136V506.763H828.844V464.214Z" fill="#E6E6E6"/>
<path d="M831.681 520.946H355.136V563.494H831.681V520.946Z" fill="#E6E6E6"/>
<path d="M384.154 352.056C378.415 352.056 372.805 350.354 368.033 347.165C363.261 343.977 359.541 339.445 357.345 334.142C355.149 328.84 354.574 323.005 355.694 317.376C356.813 311.748 359.577 306.577 363.636 302.519C367.694 298.46 372.864 295.697 378.493 294.577C384.122 293.457 389.957 294.032 395.259 296.228C400.562 298.425 405.094 302.144 408.282 306.916C411.471 311.688 413.173 317.298 413.173 323.038C413.164 330.731 410.104 338.107 404.664 343.547C399.224 348.987 391.848 352.047 384.154 352.056V352.056ZM384.154 297.433C379.09 297.433 374.14 298.935 369.929 301.748C365.719 304.562 362.437 308.561 360.499 313.239C358.561 317.918 358.054 323.066 359.042 328.033C360.03 333 362.469 337.562 366.049 341.143C369.63 344.724 374.193 347.162 379.159 348.15C384.126 349.138 389.274 348.631 393.953 346.693C398.631 344.755 402.63 341.473 405.444 337.263C408.257 333.052 409.759 328.102 409.759 323.038C409.751 316.249 407.051 309.741 402.251 304.941C397.451 300.141 390.943 297.441 384.154 297.433V297.433Z" fill="#95E0FD"/>
<g filter="url(#filter0_d)">
<path d="M962.163 855.661H236V498.253L330.036 570.077L871.61 566.656L962.163 498.253V855.661Z" fill="#95E0FD"/>
</g>
<path d="M376.472 420.502C377.3 420.682 377.936 421.042 378.38 421.582C378.836 422.11 379.064 422.794 379.064 423.634C379.064 424.714 378.662 425.548 377.858 426.136C377.066 426.712 375.89 427 374.33 427H368.534V414.4H373.97C375.374 414.4 376.46 414.682 377.228 415.246C378.008 415.81 378.398 416.608 378.398 417.64C378.398 418.336 378.224 418.93 377.876 419.422C377.54 419.902 377.072 420.262 376.472 420.502ZM369.866 415.498V420.07H373.88C374.9 420.07 375.686 419.878 376.238 419.494C376.79 419.098 377.066 418.528 377.066 417.784C377.066 417.04 376.79 416.476 376.238 416.092C375.686 415.696 374.9 415.498 373.88 415.498H369.866ZM374.312 425.902C375.44 425.902 376.292 425.71 376.868 425.326C377.444 424.942 377.732 424.342 377.732 423.526C377.732 421.954 376.592 421.168 374.312 421.168H369.866V425.902H374.312Z" fill="black"/>
<path d="M389.539 422.662H381.619C381.691 423.646 382.069 424.444 382.753 425.056C383.437 425.656 384.301 425.956 385.345 425.956C385.933 425.956 386.473 425.854 386.965 425.65C387.457 425.434 387.883 425.122 388.243 424.714L388.963 425.542C388.543 426.046 388.015 426.43 387.379 426.694C386.755 426.958 386.065 427.09 385.309 427.09C384.337 427.09 383.473 426.886 382.717 426.478C381.973 426.058 381.391 425.482 380.971 424.75C380.551 424.018 380.341 423.19 380.341 422.266C380.341 421.342 380.539 420.514 380.935 419.782C381.343 419.05 381.895 418.48 382.591 418.072C383.299 417.664 384.091 417.46 384.967 417.46C385.843 417.46 386.629 417.664 387.325 418.072C388.021 418.48 388.567 419.05 388.963 419.782C389.359 420.502 389.557 421.33 389.557 422.266L389.539 422.662ZM384.967 418.558C384.055 418.558 383.287 418.852 382.663 419.44C382.051 420.016 381.703 420.772 381.619 421.708H388.333C388.249 420.772 387.895 420.016 387.271 419.44C386.659 418.852 385.891 418.558 384.967 418.558Z" fill="black"/>
<path d="M399.862 422.662H391.942C392.014 423.646 392.392 424.444 393.076 425.056C393.76 425.656 394.624 425.956 395.668 425.956C396.256 425.956 396.796 425.854 397.288 425.65C397.78 425.434 398.206 425.122 398.566 424.714L399.286 425.542C398.866 426.046 398.338 426.43 397.702 426.694C397.078 426.958 396.388 427.09 395.632 427.09C394.66 427.09 393.796 426.886 393.04 426.478C392.296 426.058 391.714 425.482 391.294 424.75C390.874 424.018 390.664 423.19 390.664 422.266C390.664 421.342 390.862 420.514 391.258 419.782C391.666 419.05 392.218 418.48 392.914 418.072C393.622 417.664 394.414 417.46 395.29 417.46C396.166 417.46 396.952 417.664 397.648 418.072C398.344 418.48 398.89 419.05 399.286 419.782C399.682 420.502 399.88 421.33 399.88 422.266L399.862 422.662ZM395.29 418.558C394.378 418.558 393.61 418.852 392.986 419.44C392.374 420.016 392.026 420.772 391.942 421.708H398.656C398.572 420.772 398.218 420.016 397.594 419.44C396.982 418.852 396.214 418.558 395.29 418.558Z" fill="black"/>
<path d="M406.765 417.46C407.953 417.46 408.895 417.808 409.591 418.504C410.299 419.188 410.653 420.19 410.653 421.51V427H409.375V421.636C409.375 420.652 409.129 419.902 408.637 419.386C408.145 418.87 407.443 418.612 406.531 418.612C405.511 418.612 404.701 418.918 404.101 419.53C403.513 420.13 403.219 420.964 403.219 422.032V427H401.941V417.532H403.165V419.278C403.513 418.702 403.993 418.258 404.605 417.946C405.229 417.622 405.949 417.46 406.765 417.46Z" fill="black"/>
<path d="M422.578 417.46C423.766 417.46 424.708 417.808 425.404 418.504C426.112 419.188 426.466 420.19 426.466 421.51V427H425.188V421.636C425.188 420.652 424.942 419.902 424.45 419.386C423.958 418.87 423.256 418.612 422.344 418.612C421.324 418.612 420.514 418.918 419.914 419.53C419.326 420.13 419.032 420.964 419.032 422.032V427H417.754V413.644H419.032V419.188C419.38 418.636 419.86 418.21 420.472 417.91C421.084 417.61 421.786 417.46 422.578 417.46Z" fill="black"/>
<path d="M432.708 417.46C433.944 417.46 434.892 417.772 435.552 418.396C436.212 419.008 436.542 419.92 436.542 421.132V427H435.318V425.524C435.03 426.016 434.604 426.4 434.04 426.676C433.488 426.952 432.828 427.09 432.06 427.09C431.004 427.09 430.164 426.838 429.54 426.334C428.916 425.83 428.604 425.164 428.604 424.336C428.604 423.532 428.892 422.884 429.468 422.392C430.056 421.9 430.986 421.654 432.258 421.654H435.264V421.078C435.264 420.262 435.036 419.644 434.58 419.224C434.124 418.792 433.458 418.576 432.582 418.576C431.982 418.576 431.406 418.678 430.854 418.882C430.302 419.074 429.828 419.344 429.432 419.692L428.856 418.738C429.336 418.33 429.912 418.018 430.584 417.802C431.256 417.574 431.964 417.46 432.708 417.46ZM432.258 426.082C432.978 426.082 433.596 425.92 434.112 425.596C434.628 425.26 435.012 424.78 435.264 424.156V422.608H432.294C430.674 422.608 429.864 423.172 429.864 424.3C429.864 424.852 430.074 425.29 430.494 425.614C430.914 425.926 431.502 426.082 432.258 426.082Z" fill="black"/>
<path d="M447.253 417.532L443.041 427H441.727L437.533 417.532H438.865L442.411 425.596L445.993 417.532H447.253Z" fill="black"/>
<path d="M448.513 417.532H449.791V427H448.513V417.532ZM449.161 415.462C448.897 415.462 448.675 415.372 448.495 415.192C448.315 415.012 448.225 414.796 448.225 414.544C448.225 414.304 448.315 414.094 448.495 413.914C448.675 413.734 448.897 413.644 449.161 413.644C449.425 413.644 449.647 413.734 449.827 413.914C450.007 414.082 450.097 414.286 450.097 414.526C450.097 414.79 450.007 415.012 449.827 415.192C449.647 415.372 449.425 415.462 449.161 415.462Z" fill="black"/>
<path d="M457.631 417.46C458.819 417.46 459.761 417.808 460.457 418.504C461.165 419.188 461.519 420.19 461.519 421.51V427H460.241V421.636C460.241 420.652 459.995 419.902 459.503 419.386C459.011 418.87 458.309 418.612 457.397 418.612C456.377 418.612 455.567 418.918 454.967 419.53C454.379 420.13 454.085 420.964 454.085 422.032V427H452.807V417.532H454.031V419.278C454.379 418.702 454.859 418.258 455.471 417.946C456.095 417.622 456.815 417.46 457.631 417.46Z" fill="black"/>
<path d="M473.25 417.532V425.848C473.25 427.456 472.854 428.644 472.062 429.412C471.282 430.192 470.1 430.582 468.516 430.582C467.64 430.582 466.806 430.45 466.014 430.186C465.234 429.934 464.598 429.58 464.106 429.124L464.754 428.152C465.21 428.56 465.762 428.878 466.41 429.106C467.07 429.334 467.76 429.448 468.48 429.448C469.68 429.448 470.562 429.166 471.126 428.602C471.69 428.05 471.972 427.186 471.972 426.01V424.804C471.576 425.404 471.054 425.86 470.406 426.172C469.77 426.484 469.062 426.64 468.282 426.64C467.394 426.64 466.584 426.448 465.852 426.064C465.132 425.668 464.562 425.122 464.142 424.426C463.734 423.718 463.53 422.92 463.53 422.032C463.53 421.144 463.734 420.352 464.142 419.656C464.562 418.96 465.132 418.42 465.852 418.036C466.572 417.652 467.382 417.46 468.282 417.46C469.086 417.46 469.812 417.622 470.46 417.946C471.108 418.27 471.63 418.738 472.026 419.35V417.532H473.25ZM468.408 425.506C469.092 425.506 469.71 425.362 470.262 425.074C470.814 424.774 471.24 424.36 471.54 423.832C471.852 423.304 472.008 422.704 472.008 422.032C472.008 421.36 471.852 420.766 471.54 420.25C471.24 419.722 470.814 419.314 470.262 419.026C469.722 418.726 469.104 418.576 468.408 418.576C467.724 418.576 467.106 418.72 466.554 419.008C466.014 419.296 465.588 419.704 465.276 420.232C464.976 420.76 464.826 421.36 464.826 422.032C464.826 422.704 464.976 423.304 465.276 423.832C465.588 424.36 466.014 424.774 466.554 425.074C467.106 425.362 467.724 425.506 468.408 425.506Z" fill="black"/>
<path d="M483.766 417.46C485.002 417.46 485.95 417.772 486.61 418.396C487.27 419.008 487.6 419.92 487.6 421.132V427H486.376V425.524C486.088 426.016 485.662 426.4 485.098 426.676C484.546 426.952 483.886 427.09 483.118 427.09C482.062 427.09 481.222 426.838 480.598 426.334C479.974 425.83 479.662 425.164 479.662 424.336C479.662 423.532 479.95 422.884 480.526 422.392C481.114 421.9 482.044 421.654 483.316 421.654H486.322V421.078C486.322 420.262 486.094 419.644 485.638 419.224C485.182 418.792 484.516 418.576 483.64 418.576C483.04 418.576 482.464 418.678 481.912 418.882C481.36 419.074 480.886 419.344 480.49 419.692L479.914 418.738C480.394 418.33 480.97 418.018 481.642 417.802C482.314 417.574 483.022 417.46 483.766 417.46ZM483.316 426.082C484.036 426.082 484.654 425.92 485.17 425.596C485.686 425.26 486.07 424.78 486.322 424.156V422.608H483.352C481.732 422.608 480.922 423.172 480.922 424.3C480.922 424.852 481.132 425.29 481.552 425.614C481.972 425.926 482.56 426.082 483.316 426.082Z" fill="black"/>
<path d="M498.627 427.09C497.691 427.09 496.851 426.886 496.107 426.478C495.375 426.07 494.799 425.5 494.379 424.768C493.959 424.024 493.749 423.19 493.749 422.266C493.749 421.342 493.959 420.514 494.379 419.782C494.799 419.05 495.375 418.48 496.107 418.072C496.851 417.664 497.691 417.46 498.627 417.46C499.443 417.46 500.169 417.622 500.805 417.946C501.453 418.258 501.963 418.72 502.335 419.332L501.381 419.98C501.069 419.512 500.673 419.164 500.193 418.936C499.713 418.696 499.191 418.576 498.627 418.576C497.943 418.576 497.325 418.732 496.773 419.044C496.233 419.344 495.807 419.776 495.495 420.34C495.195 420.904 495.045 421.546 495.045 422.266C495.045 422.998 495.195 423.646 495.495 424.21C495.807 424.762 496.233 425.194 496.773 425.506C497.325 425.806 497.943 425.956 498.627 425.956C499.191 425.956 499.713 425.842 500.193 425.614C500.673 425.386 501.069 425.038 501.381 424.57L502.335 425.218C501.963 425.83 501.453 426.298 500.805 426.622C500.157 426.934 499.431 427.09 498.627 427.09Z" fill="black"/>
<path d="M505.529 419.386C505.829 418.75 506.273 418.27 506.861 417.946C507.461 417.622 508.199 417.46 509.075 417.46V418.702L508.769 418.684C507.773 418.684 506.993 418.99 506.429 419.602C505.865 420.214 505.583 421.072 505.583 422.176V427H504.305V417.532H505.529V419.386Z" fill="black"/>
<path d="M514.143 417.46C515.379 417.46 516.328 417.772 516.988 418.396C517.648 419.008 517.977 419.92 517.977 421.132V427H516.753V425.524C516.465 426.016 516.039 426.4 515.475 426.676C514.923 426.952 514.263 427.09 513.495 427.09C512.439 427.09 511.599 426.838 510.975 426.334C510.351 425.83 510.039 425.164 510.039 424.336C510.039 423.532 510.328 422.884 510.904 422.392C511.492 421.9 512.421 421.654 513.693 421.654H516.699V421.078C516.699 420.262 516.472 419.644 516.016 419.224C515.56 418.792 514.894 418.576 514.018 418.576C513.418 418.576 512.841 418.678 512.289 418.882C511.737 419.074 511.263 419.344 510.867 419.692L510.292 418.738C510.772 418.33 511.348 418.018 512.02 417.802C512.692 417.574 513.399 417.46 514.143 417.46ZM513.693 426.082C514.413 426.082 515.032 425.92 515.548 425.596C516.064 425.26 516.447 424.78 516.699 424.156V422.608H513.729C512.109 422.608 511.299 423.172 511.299 424.3C511.299 424.852 511.51 425.29 511.93 425.614C512.35 425.926 512.937 426.082 513.693 426.082Z" fill="black"/>
<path d="M527.587 425.938V427H519.883V426.154L525.841 418.612H519.991V417.532H527.479V418.378L521.521 425.938H527.587Z" fill="black"/>
<path d="M537.342 417.532L532.608 428.134C532.224 429.022 531.78 429.652 531.276 430.024C530.772 430.396 530.166 430.582 529.458 430.582C529.002 430.582 528.576 430.51 528.18 430.366C527.784 430.222 527.442 430.006 527.154 429.718L527.748 428.764C528.228 429.244 528.804 429.484 529.476 429.484C529.908 429.484 530.274 429.364 530.574 429.124C530.886 428.884 531.174 428.476 531.438 427.9L531.852 426.982L527.622 417.532H528.954L532.518 425.578L536.082 417.532H537.342Z" fill="black"/>
<path d="M550.729 417.532L545.995 428.134C545.611 429.022 545.167 429.652 544.663 430.024C544.159 430.396 543.553 430.582 542.845 430.582C542.389 430.582 541.963 430.51 541.567 430.366C541.171 430.222 540.829 430.006 540.541 429.718L541.135 428.764C541.615 429.244 542.191 429.484 542.863 429.484C543.295 429.484 543.661 429.364 543.961 429.124C544.273 428.884 544.561 428.476 544.825 427.9L545.239 426.982L541.009 417.532H542.341L545.905 425.578L549.469 417.532H550.729Z" fill="black"/>
<path d="M559.969 422.662H552.049C552.121 423.646 552.499 424.444 553.183 425.056C553.867 425.656 554.731 425.956 555.775 425.956C556.363 425.956 556.903 425.854 557.395 425.65C557.887 425.434 558.313 425.122 558.673 424.714L559.393 425.542C558.973 426.046 558.445 426.43 557.809 426.694C557.185 426.958 556.495 427.09 555.739 427.09C554.767 427.09 553.903 426.886 553.147 426.478C552.403 426.058 551.821 425.482 551.401 424.75C550.981 424.018 550.771 423.19 550.771 422.266C550.771 421.342 550.969 420.514 551.365 419.782C551.773 419.05 552.325 418.48 553.021 418.072C553.729 417.664 554.521 417.46 555.397 417.46C556.273 417.46 557.059 417.664 557.755 418.072C558.451 418.48 558.997 419.05 559.393 419.782C559.789 420.502 559.987 421.33 559.987 422.266L559.969 422.662ZM555.397 418.558C554.485 418.558 553.717 418.852 553.093 419.44C552.481 420.016 552.133 420.772 552.049 421.708H558.763C558.679 420.772 558.325 420.016 557.701 419.44C557.089 418.852 556.321 418.558 555.397 418.558Z" fill="black"/>
<path d="M565.097 417.46C566.333 417.46 567.281 417.772 567.941 418.396C568.601 419.008 568.931 419.92 568.931 421.132V427H567.707V425.524C567.419 426.016 566.993 426.4 566.429 426.676C565.877 426.952 565.217 427.09 564.449 427.09C563.393 427.09 562.553 426.838 561.929 426.334C561.305 425.83 560.993 425.164 560.993 424.336C560.993 423.532 561.281 422.884 561.857 422.392C562.445 421.9 563.375 421.654 564.647 421.654H567.653V421.078C567.653 420.262 567.425 419.644 566.969 419.224C566.513 418.792 565.847 418.576 564.971 418.576C564.371 418.576 563.795 418.678 563.243 418.882C562.691 419.074 562.217 419.344 561.821 419.692L561.245 418.738C561.725 418.33 562.301 418.018 562.973 417.802C563.645 417.574 564.353 417.46 565.097 417.46ZM564.647 426.082C565.367 426.082 565.985 425.92 566.501 425.596C567.017 425.26 567.401 424.78 567.653 424.156V422.608H564.683C563.063 422.608 562.253 423.172 562.253 424.3C562.253 424.852 562.463 425.29 562.883 425.614C563.303 425.926 563.891 426.082 564.647 426.082Z" fill="black"/>
<path d="M573.086 419.386C573.386 418.75 573.83 418.27 574.418 417.946C575.018 417.622 575.756 417.46 576.632 417.46V418.702L576.326 418.684C575.33 418.684 574.55 418.99 573.986 419.602C573.422 420.214 573.14 421.072 573.14 422.176V427H571.862V417.532H573.086V419.386Z" fill="black"/>
<path d="M578.349 414.4H579.861L579.591 423.22H578.601L578.349 414.4ZM579.105 427.09C578.841 427.09 578.613 427 578.421 426.82C578.241 426.628 578.151 426.406 578.151 426.154C578.151 425.89 578.241 425.674 578.421 425.506C578.601 425.326 578.829 425.236 579.105 425.236C579.369 425.236 579.591 425.326 579.771 425.506C579.951 425.674 580.041 425.89 580.041 426.154C580.041 426.406 579.951 426.628 579.771 426.82C579.591 427 579.369 427.09 579.105 427.09Z" fill="black"/>
<path d="M597.653 414.4V427H596.339V421.186H588.455V427H587.123V414.4H588.455V420.016H596.339V414.4H597.653Z" fill="black"/>
<path d="M604.826 427.09C603.914 427.09 603.092 426.886 602.36 426.478C601.628 426.058 601.052 425.482 600.632 424.75C600.212 424.018 600.002 423.19 600.002 422.266C600.002 421.342 600.212 420.514 600.632 419.782C601.052 419.05 601.628 418.48 602.36 418.072C603.092 417.664 603.914 417.46 604.826 417.46C605.738 417.46 606.56 417.664 607.292 418.072C608.024 418.48 608.594 419.05 609.002 419.782C609.422 420.514 609.632 421.342 609.632 422.266C609.632 423.19 609.422 424.018 609.002 424.75C608.594 425.482 608.024 426.058 607.292 426.478C606.56 426.886 605.738 427.09 604.826 427.09ZM604.826 425.956C605.498 425.956 606.098 425.806 606.626 425.506C607.166 425.194 607.586 424.756 607.886 424.192C608.186 423.628 608.336 422.986 608.336 422.266C608.336 421.546 608.186 420.904 607.886 420.34C607.586 419.776 607.166 419.344 606.626 419.044C606.098 418.732 605.498 418.576 604.826 418.576C604.154 418.576 603.548 418.732 603.008 419.044C602.48 419.344 602.06 419.776 601.748 420.34C601.448 420.904 601.298 421.546 601.298 422.266C601.298 422.986 601.448 423.628 601.748 424.192C602.06 424.756 602.48 425.194 603.008 425.506C603.548 425.806 604.154 425.956 604.826 425.956Z" fill="black"/>
<path d="M616.579 417.46C617.467 417.46 618.271 417.664 618.991 418.072C619.711 418.468 620.275 419.032 620.683 419.764C621.091 420.496 621.295 421.33 621.295 422.266C621.295 423.214 621.091 424.054 620.683 424.786C620.275 425.518 619.711 426.088 618.991 426.496C618.283 426.892 617.479 427.09 616.579 427.09C615.811 427.09 615.115 426.934 614.491 426.622C613.879 426.298 613.375 425.83 612.979 425.218V430.492H611.701V417.532H612.925V419.404C613.309 418.78 613.813 418.3 614.437 417.964C615.073 417.628 615.787 417.46 616.579 417.46ZM616.489 425.956C617.149 425.956 617.749 425.806 618.289 425.506C618.829 425.194 619.249 424.756 619.549 424.192C619.861 423.628 620.017 422.986 620.017 422.266C620.017 421.546 619.861 420.91 619.549 420.358C619.249 419.794 618.829 419.356 618.289 419.044C617.749 418.732 617.149 418.576 616.489 418.576C615.817 418.576 615.211 418.732 614.671 419.044C614.143 419.356 613.723 419.794 613.411 420.358C613.111 420.91 612.961 421.546 612.961 422.266C612.961 422.986 613.111 423.628 613.411 424.192C613.723 424.756 614.143 425.194 614.671 425.506C615.211 425.806 615.817 425.956 616.489 425.956Z" fill="black"/>
<path d="M631.604 422.662H623.684C623.756 423.646 624.134 424.444 624.818 425.056C625.502 425.656 626.366 425.956 627.41 425.956C627.998 425.956 628.538 425.854 629.03 425.65C629.522 425.434 629.948 425.122 630.308 424.714L631.028 425.542C630.608 426.046 630.08 426.43 629.444 426.694C628.82 426.958 628.13 427.09 627.374 427.09C626.402 427.09 625.538 426.886 624.782 426.478C624.038 426.058 623.456 425.482 623.036 424.75C622.616 424.018 622.406 423.19 622.406 422.266C622.406 421.342 622.604 420.514 623 419.782C623.408 419.05 623.96 418.48 624.656 418.072C625.364 417.664 626.156 417.46 627.032 417.46C627.908 417.46 628.694 417.664 629.39 418.072C630.086 418.48 630.632 419.05 631.028 419.782C631.424 420.502 631.622 421.33 631.622 422.266L631.604 422.662ZM627.032 418.558C626.12 418.558 625.352 418.852 624.728 419.44C624.116 420.016 623.768 420.772 623.684 421.708H630.398C630.314 420.772 629.96 420.016 629.336 419.44C628.724 418.852 627.956 418.558 627.032 418.558Z" fill="black"/>
<path d="M645.811 417.532L641.077 428.134C640.693 429.022 640.249 429.652 639.745 430.024C639.241 430.396 638.635 430.582 637.927 430.582C637.471 430.582 637.045 430.51 636.649 430.366C636.253 430.222 635.911 430.006 635.623 429.718L636.217 428.764C636.697 429.244 637.273 429.484 637.945 429.484C638.377 429.484 638.743 429.364 639.043 429.124C639.355 428.884 639.643 428.476 639.907 427.9L640.321 426.982L636.091 417.532H637.423L640.987 425.578L644.551 417.532H645.811Z" fill="black"/>
<path d="M650.677 427.09C649.765 427.09 648.943 426.886 648.211 426.478C647.479 426.058 646.903 425.482 646.483 424.75C646.063 424.018 645.853 423.19 645.853 422.266C645.853 421.342 646.063 420.514 646.483 419.782C646.903 419.05 647.479 418.48 648.211 418.072C648.943 417.664 649.765 417.46 650.677 417.46C651.589 417.46 652.411 417.664 653.143 418.072C653.875 418.48 654.445 419.05 654.853 419.782C655.273 420.514 655.483 421.342 655.483 422.266C655.483 423.19 655.273 424.018 654.853 424.75C654.445 425.482 653.875 426.058 653.143 426.478C652.411 426.886 651.589 427.09 650.677 427.09ZM650.677 425.956C651.349 425.956 651.949 425.806 652.477 425.506C653.017 425.194 653.437 424.756 653.737 424.192C654.037 423.628 654.187 422.986 654.187 422.266C654.187 421.546 654.037 420.904 653.737 420.34C653.437 419.776 653.017 419.344 652.477 419.044C651.949 418.732 651.349 418.576 650.677 418.576C650.005 418.576 649.399 418.732 648.859 419.044C648.331 419.344 647.911 419.776 647.599 420.34C647.299 420.904 647.149 421.546 647.149 422.266C647.149 422.986 647.299 423.628 647.599 424.192C647.911 424.756 648.331 425.194 648.859 425.506C649.399 425.806 650.005 425.956 650.677 425.956Z" fill="black"/>
<path d="M666.084 417.532V427H664.86V425.272C664.524 425.848 664.062 426.298 663.474 426.622C662.886 426.934 662.214 427.09 661.458 427.09C660.222 427.09 659.244 426.748 658.524 426.064C657.816 425.368 657.462 424.354 657.462 423.022V417.532H658.74V422.896C658.74 423.892 658.986 424.648 659.478 425.164C659.97 425.68 660.672 425.938 661.584 425.938C662.58 425.938 663.366 425.638 663.942 425.038C664.518 424.426 664.806 423.58 664.806 422.5V417.532H666.084Z" fill="black"/>
<path d="M676.606 417.46C677.842 417.46 678.79 417.772 679.45 418.396C680.11 419.008 680.44 419.92 680.44 421.132V427H679.216V425.524C678.928 426.016 678.502 426.4 677.938 426.676C677.386 426.952 676.726 427.09 675.958 427.09C674.902 427.09 674.062 426.838 673.438 426.334C672.814 425.83 672.502 425.164 672.502 424.336C672.502 423.532 672.79 422.884 673.366 422.392C673.954 421.9 674.884 421.654 676.156 421.654H679.162V421.078C679.162 420.262 678.934 419.644 678.478 419.224C678.022 418.792 677.356 418.576 676.48 418.576C675.88 418.576 675.304 418.678 674.752 418.882C674.2 419.074 673.726 419.344 673.33 419.692L672.754 418.738C673.234 418.33 673.81 418.018 674.482 417.802C675.154 417.574 675.862 417.46 676.606 417.46ZM676.156 426.082C676.876 426.082 677.494 425.92 678.01 425.596C678.526 425.26 678.91 424.78 679.162 424.156V422.608H676.192C674.572 422.608 673.762 423.172 673.762 424.3C673.762 424.852 673.972 425.29 674.392 425.614C674.812 425.926 675.4 426.082 676.156 426.082Z" fill="black"/>
<path d="M684.595 419.386C684.895 418.75 685.339 418.27 685.927 417.946C686.527 417.622 687.265 417.46 688.141 417.46V418.702L687.835 418.684C686.839 418.684 686.059 418.99 685.495 419.602C684.931 420.214 684.649 421.072 684.649 422.176V427H683.371V417.532H684.595V419.386Z" fill="black"/>
<path d="M698.071 422.662H690.151C690.223 423.646 690.601 424.444 691.285 425.056C691.969 425.656 692.833 425.956 693.877 425.956C694.465 425.956 695.005 425.854 695.497 425.65C695.989 425.434 696.415 425.122 696.775 424.714L697.495 425.542C697.075 426.046 696.547 426.43 695.911 426.694C695.287 426.958 694.597 427.09 693.841 427.09C692.869 427.09 692.005 426.886 691.249 426.478C690.505 426.058 689.923 425.482 689.503 424.75C689.083 424.018 688.873 423.19 688.873 422.266C688.873 421.342 689.071 420.514 689.467 419.782C689.875 419.05 690.427 418.48 691.123 418.072C691.831 417.664 692.623 417.46 693.499 417.46C694.375 417.46 695.161 417.664 695.857 418.072C696.553 418.48 697.099 419.05 697.495 419.782C697.891 420.502 698.089 421.33 698.089 422.266L698.071 422.662ZM693.499 418.558C692.587 418.558 691.819 418.852 691.195 419.44C690.583 420.016 690.235 420.772 690.151 421.708H696.865C696.781 420.772 696.427 420.016 695.803 419.44C695.191 418.852 694.423 418.558 693.499 418.558Z" fill="black"/>
<path d="M712.962 413.644V427H711.738V425.128C711.354 425.764 710.844 426.25 710.208 426.586C709.584 426.922 708.876 427.09 708.084 427.09C707.196 427.09 706.392 426.886 705.672 426.478C704.952 426.07 704.388 425.5 703.98 424.768C703.572 424.036 703.368 423.202 703.368 422.266C703.368 421.33 703.572 420.496 703.98 419.764C704.388 419.032 704.952 418.468 705.672 418.072C706.392 417.664 707.196 417.46 708.084 417.46C708.852 417.46 709.542 417.622 710.154 417.946C710.778 418.258 711.288 418.72 711.684 419.332V413.644H712.962ZM708.192 425.956C708.852 425.956 709.446 425.806 709.974 425.506C710.514 425.194 710.934 424.756 711.234 424.192C711.546 423.628 711.702 422.986 711.702 422.266C711.702 421.546 711.546 420.904 711.234 420.34C710.934 419.776 710.514 419.344 709.974 419.044C709.446 418.732 708.852 418.576 708.192 418.576C707.52 418.576 706.914 418.732 706.374 419.044C705.846 419.344 705.426 419.776 705.114 420.34C704.814 420.904 704.664 421.546 704.664 422.266C704.664 422.986 704.814 423.628 705.114 424.192C705.426 424.756 705.846 425.194 706.374 425.506C706.914 425.806 707.52 425.956 708.192 425.956Z" fill="black"/>
<path d="M719.851 427.09C718.939 427.09 718.117 426.886 717.385 426.478C716.653 426.058 716.077 425.482 715.657 424.75C715.237 424.018 715.027 423.19 715.027 422.266C715.027 421.342 715.237 420.514 715.657 419.782C716.077 419.05 716.653 418.48 717.385 418.072C718.117 417.664 718.939 417.46 719.851 417.46C720.763 417.46 721.585 417.664 722.317 418.072C723.049 418.48 723.619 419.05 724.027 419.782C724.447 420.514 724.657 421.342 724.657 422.266C724.657 423.19 724.447 424.018 724.027 424.75C723.619 425.482 723.049 426.058 722.317 426.478C721.585 426.886 720.763 427.09 719.851 427.09ZM719.851 425.956C720.523 425.956 721.123 425.806 721.651 425.506C722.191 425.194 722.611 424.756 722.911 424.192C723.211 423.628 723.361 422.986 723.361 422.266C723.361 421.546 723.211 420.904 722.911 420.34C722.611 419.776 722.191 419.344 721.651 419.044C721.123 418.732 720.523 418.576 719.851 418.576C719.179 418.576 718.573 418.732 718.033 419.044C717.505 419.344 717.085 419.776 716.773 420.34C716.473 420.904 716.323 421.546 716.323 422.266C716.323 422.986 716.473 423.628 716.773 424.192C717.085 424.756 717.505 425.194 718.033 425.506C718.573 425.806 719.179 425.956 719.851 425.956Z" fill="black"/>
<path d="M726.726 417.532H728.004V427H726.726V417.532ZM727.374 415.462C727.11 415.462 726.888 415.372 726.708 415.192C726.528 415.012 726.438 414.796 726.438 414.544C726.438 414.304 726.528 414.094 726.708 413.914C726.888 413.734 727.11 413.644 727.374 413.644C727.638 413.644 727.86 413.734 728.04 413.914C728.22 414.082 728.31 414.286 728.31 414.526C728.31 414.79 728.22 415.012 728.04 415.192C727.86 415.372 727.638 415.462 727.374 415.462Z" fill="black"/>
<path d="M735.844 417.46C737.032 417.46 737.974 417.808 738.67 418.504C739.378 419.188 739.732 420.19 739.732 421.51V427H738.454V421.636C738.454 420.652 738.208 419.902 737.716 419.386C737.224 418.87 736.522 418.612 735.61 418.612C734.59 418.612 733.78 418.918 733.18 419.53C732.592 420.13 732.298 420.964 732.298 422.032V427H731.02V417.532H732.244V419.278C732.592 418.702 733.072 418.258 733.684 417.946C734.308 417.622 735.028 417.46 735.844 417.46Z" fill="black"/>
<path d="M751.463 417.532V425.848C751.463 427.456 751.067 428.644 750.275 429.412C749.495 430.192 748.313 430.582 746.729 430.582C745.853 430.582 745.019 430.45 744.227 430.186C743.447 429.934 742.811 429.58 742.319 429.124L742.967 428.152C743.423 428.56 743.975 428.878 744.623 429.106C745.283 429.334 745.973 429.448 746.693 429.448C747.893 429.448 748.775 429.166 749.339 428.602C749.903 428.05 750.185 427.186 750.185 426.01V424.804C749.789 425.404 749.267 425.86 748.619 426.172C747.983 426.484 747.275 426.64 746.495 426.64C745.607 426.64 744.797 426.448 744.065 426.064C743.345 425.668 742.775 425.122 742.355 424.426C741.947 423.718 741.743 422.92 741.743 422.032C741.743 421.144 741.947 420.352 742.355 419.656C742.775 418.96 743.345 418.42 744.065 418.036C744.785 417.652 745.595 417.46 746.495 417.46C747.299 417.46 748.025 417.622 748.673 417.946C749.321 418.27 749.843 418.738 750.239 419.35V417.532H751.463ZM746.621 425.506C747.305 425.506 747.923 425.362 748.475 425.074C749.027 424.774 749.453 424.36 749.753 423.832C750.065 423.304 750.221 422.704 750.221 422.032C750.221 421.36 750.065 420.766 749.753 420.25C749.453 419.722 749.027 419.314 748.475 419.026C747.935 418.726 747.317 418.576 746.621 418.576C745.937 418.576 745.319 418.72 744.767 419.008C744.227 419.296 743.801 419.704 743.489 420.232C743.189 420.76 743.039 421.36 743.039 422.032C743.039 422.704 743.189 423.304 743.489 423.832C743.801 424.36 744.227 424.774 744.767 425.074C745.319 425.362 745.937 425.506 746.621 425.506Z" fill="black"/>
<path d="M464.162 332.458V345.058H462.848V339.244H454.964V345.058H453.632V332.458H454.964V338.074H462.848V332.458H464.162Z" fill="black"/>
<path d="M475.708 340.72H467.788C467.86 341.704 468.238 342.502 468.922 343.114C469.606 343.714 470.47 344.014 471.514 344.014C472.102 344.014 472.642 343.912 473.134 343.708C473.626 343.492 474.052 343.18 474.412 342.772L475.132 343.6C474.712 344.104 474.184 344.488 473.548 344.752C472.924 345.016 472.234 345.148 471.478 345.148C470.506 345.148 469.642 344.944 468.886 344.536C468.142 344.116 467.56 343.54 467.14 342.808C466.72 342.076 466.51 341.248 466.51 340.324C466.51 339.4 466.708 338.572 467.104 337.84C467.512 337.108 468.064 336.538 468.76 336.13C469.468 335.722 470.26 335.518 471.136 335.518C472.012 335.518 472.798 335.722 473.494 336.13C474.19 336.538 474.736 337.108 475.132 337.84C475.528 338.56 475.726 339.388 475.726 340.324L475.708 340.72ZM471.136 336.616C470.224 336.616 469.456 336.91 468.832 337.498C468.22 338.074 467.872 338.83 467.788 339.766H474.502C474.418 338.83 474.064 338.074 473.44 337.498C472.828 336.91 472.06 336.616 471.136 336.616Z" fill="black"/>
<path d="M485.568 335.59L480.834 346.192C480.45 347.08 480.006 347.71 479.502 348.082C478.998 348.454 478.392 348.64 477.684 348.64C477.228 348.64 476.802 348.568 476.406 348.424C476.01 348.28 475.668 348.064 475.38 347.776L475.974 346.822C476.454 347.302 477.03 347.542 477.702 347.542C478.134 347.542 478.5 347.422 478.8 347.182C479.112 346.942 479.4 346.534 479.664 345.958L480.078 345.04L475.848 335.59H477.18L480.744 343.636L484.308 335.59H485.568Z" fill="black"/>
<path d="M504.355 332.458V345.058H503.077V334.978L498.127 343.456H497.497L492.547 335.032V345.058H491.269V332.458H492.367L497.839 341.8L503.257 332.458H504.355Z" fill="black"/>
<path d="M507.65 335.59H508.928V345.058H507.65V335.59ZM508.298 333.52C508.034 333.52 507.812 333.43 507.632 333.25C507.452 333.07 507.362 332.854 507.362 332.602C507.362 332.362 507.452 332.152 507.632 331.972C507.812 331.792 508.034 331.702 508.298 331.702C508.562 331.702 508.784 331.792 508.964 331.972C509.144 332.14 509.234 332.344 509.234 332.584C509.234 332.848 509.144 333.07 508.964 333.25C508.784 333.43 508.562 333.52 508.298 333.52Z" fill="black"/>
<path d="M515.868 345.148C514.932 345.148 514.092 344.944 513.348 344.536C512.616 344.128 512.04 343.558 511.62 342.826C511.2 342.082 510.99 341.248 510.99 340.324C510.99 339.4 511.2 338.572 511.62 337.84C512.04 337.108 512.616 336.538 513.348 336.13C514.092 335.722 514.932 335.518 515.868 335.518C516.684 335.518 517.41 335.68 518.046 336.004C518.694 336.316 519.204 336.778 519.576 337.39L518.622 338.038C518.31 337.57 517.914 337.222 517.434 336.994C516.954 336.754 516.432 336.634 515.868 336.634C515.184 336.634 514.566 336.79 514.014 337.102C513.474 337.402 513.048 337.834 512.736 338.398C512.436 338.962 512.286 339.604 512.286 340.324C512.286 341.056 512.436 341.704 512.736 342.268C513.048 342.82 513.474 343.252 514.014 343.564C514.566 343.864 515.184 344.014 515.868 344.014C516.432 344.014 516.954 343.9 517.434 343.672C517.914 343.444 518.31 343.096 518.622 342.628L519.576 343.276C519.204 343.888 518.694 344.356 518.046 344.68C517.398 344.992 516.672 345.148 515.868 345.148Z" fill="black"/>
<path d="M526.23 335.518C527.418 335.518 528.36 335.866 529.056 336.562C529.764 337.246 530.118 338.248 530.118 339.568V345.058H528.84V339.694C528.84 338.71 528.594 337.96 528.102 337.444C527.61 336.928 526.908 336.67 525.996 336.67C524.976 336.67 524.166 336.976 523.566 337.588C522.978 338.188 522.684 339.022 522.684 340.09V345.058H521.406V331.702H522.684V337.246C523.032 336.694 523.512 336.268 524.124 335.968C524.736 335.668 525.438 335.518 526.23 335.518Z" fill="black"/>
<path d="M536.36 335.518C537.596 335.518 538.544 335.83 539.204 336.454C539.864 337.066 540.194 337.978 540.194 339.19V345.058H538.97V343.582C538.682 344.074 538.256 344.458 537.692 344.734C537.14 345.01 536.48 345.148 535.712 345.148C534.656 345.148 533.816 344.896 533.192 344.392C532.568 343.888 532.256 343.222 532.256 342.394C532.256 341.59 532.544 340.942 533.12 340.45C533.708 339.958 534.638 339.712 535.91 339.712H538.916V339.136C538.916 338.32 538.688 337.702 538.232 337.282C537.776 336.85 537.11 336.634 536.234 336.634C535.634 336.634 535.058 336.736 534.506 336.94C533.954 337.132 533.48 337.402 533.084 337.75L532.508 336.796C532.988 336.388 533.564 336.076 534.236 335.86C534.908 335.632 535.616 335.518 536.36 335.518ZM535.91 344.14C536.63 344.14 537.248 343.978 537.764 343.654C538.28 343.318 538.664 342.838 538.916 342.214V340.666H535.946C534.326 340.666 533.516 341.23 533.516 342.358C533.516 342.91 533.726 343.348 534.146 343.672C534.566 343.984 535.154 344.14 535.91 344.14Z" fill="black"/>
<path d="M551.404 340.72H543.484C543.556 341.704 543.934 342.502 544.618 343.114C545.302 343.714 546.166 344.014 547.21 344.014C547.798 344.014 548.338 343.912 548.83 343.708C549.322 343.492 549.748 343.18 550.108 342.772L550.828 343.6C550.408 344.104 549.88 344.488 549.244 344.752C548.62 345.016 547.93 345.148 547.174 345.148C546.202 345.148 545.338 344.944 544.582 344.536C543.838 344.116 543.256 343.54 542.836 342.808C542.416 342.076 542.206 341.248 542.206 340.324C542.206 339.4 542.404 338.572 542.8 337.84C543.208 337.108 543.76 336.538 544.456 336.13C545.164 335.722 545.956 335.518 546.832 335.518C547.708 335.518 548.494 335.722 549.19 336.13C549.886 336.538 550.432 337.108 550.828 337.84C551.224 338.56 551.422 339.388 551.422 340.324L551.404 340.72ZM546.832 336.616C545.92 336.616 545.152 336.91 544.528 337.498C543.916 338.074 543.568 338.83 543.484 339.766H550.198C550.114 338.83 549.76 338.074 549.136 337.498C548.524 336.91 547.756 336.616 546.832 336.616Z" fill="black"/>
<path d="M553.483 331.702H554.761V345.058H553.483V331.702Z" fill="black"/>
<path d="M557.579 332.458H559.091L558.821 341.278H557.831L557.579 332.458ZM558.335 345.148C558.071 345.148 557.843 345.058 557.651 344.878C557.471 344.686 557.381 344.464 557.381 344.212C557.381 343.948 557.471 343.732 557.651 343.564C557.831 343.384 558.059 343.294 558.335 343.294C558.599 343.294 558.821 343.384 559.001 343.564C559.181 343.732 559.271 343.948 559.271 344.212C559.271 344.464 559.181 344.686 559.001 344.878C558.821 345.058 558.599 345.148 558.335 345.148Z" fill="black"/>
<path d="M374.667 316.096V319H373.791V316.096L370.431 310.6L371.379 310.6L374.259 315.316L377.139 310.6L378.027 310.6L374.667 316.096Z" fill="black"/>
<path d="M381.089 319.06C380.481 319.06 379.933 318.924 379.445 318.652C378.957 318.372 378.573 317.988 378.293 317.5C378.013 317.012 377.873 316.46 377.873 315.844C377.873 315.228 378.013 314.676 378.293 314.188C378.573 313.7 378.957 313.32 379.445 313.048C379.933 312.776 380.481 312.64 381.089 312.64C381.697 312.64 382.245 312.776 382.733 313.048C383.221 313.32 383.601 313.7 383.873 314.188C384.153 314.676 384.293 315.228 384.293 315.844C384.293 316.46 384.153 317.012 383.873 317.5C383.601 317.988 383.221 318.372 382.733 318.652C382.245 318.924 381.697 319.06 381.089 319.06ZM381.089 318.304C381.537 318.304 381.937 318.204 382.289 318.004C382.649 317.796 382.929 317.504 383.129 317.128C383.329 316.752 383.429 316.324 383.429 315.844C383.429 315.364 383.329 314.936 383.129 314.56C382.929 314.184 382.649 313.896 382.289 313.696C381.937 313.488 381.537 313.384 381.089 313.384C380.641 313.384 380.237 313.488 379.877 313.696C379.525 313.896 379.245 314.184 379.037 314.56C378.837 314.936 378.737 315.364 378.737 315.844C378.737 316.324 378.837 316.752 379.037 317.128C379.245 317.504 379.525 317.796 379.877 318.004C380.237 318.204 380.641 318.304 381.089 318.304Z" fill="black"/>
<path d="M391.721 312.688V319H390.905V317.848C390.681 318.232 390.373 318.532 389.981 318.748C389.589 318.956 389.141 319.06 388.637 319.06C387.813 319.06 387.161 318.832 386.681 318.376C386.209 317.912 385.973 317.236 385.973 316.348V312.688H386.825V316.264C386.825 316.928 386.989 317.432 387.317 317.776C387.645 318.12 388.113 318.292 388.721 318.292C389.385 318.292 389.909 318.092 390.293 317.692C390.677 317.284 390.869 316.72 390.869 316V312.688H391.721Z" fill="black"/>
<path d="M394.923 313.924C395.123 313.5 395.419 313.18 395.811 312.964C396.211 312.748 396.703 312.64 397.287 312.64V313.468L397.083 313.456C396.419 313.456 395.899 313.66 395.523 314.068C395.147 314.476 394.959 315.048 394.959 315.784V319H394.107V312.688H394.923V313.924Z" fill="black"/>
<path d="M370.322 325.6H371.21V333.232H375.914V334H370.322V325.6Z" fill="black"/>
<path d="M379.695 334.06C379.087 334.06 378.539 333.924 378.051 333.652C377.563 333.372 377.179 332.988 376.899 332.5C376.619 332.012 376.479 331.46 376.479 330.844C376.479 330.228 376.619 329.676 376.899 329.188C377.179 328.7 377.563 328.32 378.051 328.048C378.539 327.776 379.087 327.64 379.695 327.64C380.303 327.64 380.851 327.776 381.339 328.048C381.827 328.32 382.207 328.7 382.479 329.188C382.759 329.676 382.899 330.228 382.899 330.844C382.899 331.46 382.759 332.012 382.479 332.5C382.207 332.988 381.827 333.372 381.339 333.652C380.851 333.924 380.303 334.06 379.695 334.06ZM379.695 333.304C380.143 333.304 380.543 333.204 380.895 333.004C381.255 332.796 381.535 332.504 381.735 332.128C381.935 331.752 382.035 331.324 382.035 330.844C382.035 330.364 381.935 329.936 381.735 329.56C381.535 329.184 381.255 328.896 380.895 328.696C380.543 328.488 380.143 328.384 379.695 328.384C379.247 328.384 378.843 328.488 378.483 328.696C378.131 328.896 377.851 329.184 377.643 329.56C377.443 329.936 377.343 330.364 377.343 330.844C377.343 331.324 377.443 331.752 377.643 332.128C377.851 332.504 378.131 332.796 378.483 333.004C378.843 333.204 379.247 333.304 379.695 333.304Z" fill="black"/>
<path d="M390.482 327.688V333.232C390.482 334.304 390.218 335.096 389.69 335.608C389.17 336.128 388.382 336.388 387.326 336.388C386.742 336.388 386.186 336.3 385.658 336.124C385.138 335.956 384.714 335.72 384.386 335.416L384.818 334.768C385.122 335.04 385.49 335.252 385.922 335.404C386.362 335.556 386.822 335.632 387.302 335.632C388.102 335.632 388.69 335.444 389.066 335.068C389.442 334.7 389.63 334.124 389.63 333.34V332.536C389.366 332.936 389.018 333.24 388.586 333.448C388.162 333.656 387.69 333.76 387.17 333.76C386.578 333.76 386.038 333.632 385.55 333.376C385.07 333.112 384.69 332.748 384.41 332.284C384.138 331.812 384.002 331.28 384.002 330.688C384.002 330.096 384.138 329.568 384.41 329.104C384.69 328.64 385.07 328.28 385.55 328.024C386.03 327.768 386.57 327.64 387.17 327.64C387.706 327.64 388.19 327.748 388.622 327.964C389.054 328.18 389.402 328.492 389.666 328.9V327.688H390.482ZM387.254 333.004C387.71 333.004 388.122 332.908 388.49 332.716C388.858 332.516 389.142 332.24 389.342 331.888C389.55 331.536 389.654 331.136 389.654 330.688C389.654 330.24 389.55 329.844 389.342 329.5C389.142 329.148 388.858 328.876 388.49 328.684C388.13 328.484 387.718 328.384 387.254 328.384C386.798 328.384 386.386 328.48 386.018 328.672C385.658 328.864 385.374 329.136 385.166 329.488C384.966 329.84 384.866 330.24 384.866 330.688C384.866 331.136 384.966 331.536 385.166 331.888C385.374 332.24 385.658 332.516 386.018 332.716C386.386 332.908 386.798 333.004 387.254 333.004Z" fill="black"/>
<path d="M395.445 334.06C394.837 334.06 394.289 333.924 393.801 333.652C393.313 333.372 392.929 332.988 392.649 332.5C392.369 332.012 392.229 331.46 392.229 330.844C392.229 330.228 392.369 329.676 392.649 329.188C392.929 328.7 393.313 328.32 393.801 328.048C394.289 327.776 394.837 327.64 395.445 327.64C396.053 327.64 396.601 327.776 397.089 328.048C397.577 328.32 397.957 328.7 398.229 329.188C398.509 329.676 398.649 330.228 398.649 330.844C398.649 331.46 398.509 332.012 398.229 332.5C397.957 332.988 397.577 333.372 397.089 333.652C396.601 333.924 396.053 334.06 395.445 334.06ZM395.445 333.304C395.893 333.304 396.293 333.204 396.645 333.004C397.005 332.796 397.285 332.504 397.485 332.128C397.685 331.752 397.785 331.324 397.785 330.844C397.785 330.364 397.685 329.936 397.485 329.56C397.285 329.184 397.005 328.896 396.645 328.696C396.293 328.488 395.893 328.384 395.445 328.384C394.997 328.384 394.593 328.488 394.233 328.696C393.881 328.896 393.601 329.184 393.393 329.56C393.193 329.936 393.093 330.364 393.093 330.844C393.093 331.324 393.193 331.752 393.393 332.128C393.601 332.504 393.881 332.796 394.233 333.004C394.593 333.204 394.997 333.304 395.445 333.304Z" fill="black"/>
<path d="M382.16 480.256L378.578 489.724H377.372L374.384 481.966L371.396 489.724H370.19L366.626 480.256H367.85L370.82 488.302L373.862 480.256H374.96L377.984 488.302L380.99 480.256H382.16Z" fill="black"/>
<path d="M391.525 485.386H383.605C383.677 486.37 384.055 487.168 384.739 487.78C385.423 488.38 386.287 488.68 387.331 488.68C387.919 488.68 388.459 488.578 388.951 488.374C389.443 488.158 389.869 487.846 390.229 487.438L390.949 488.266C390.529 488.77 390.001 489.154 389.365 489.418C388.741 489.682 388.051 489.814 387.295 489.814C386.323 489.814 385.459 489.61 384.703 489.202C383.959 488.782 383.377 488.206 382.957 487.474C382.537 486.742 382.327 485.914 382.327 484.99C382.327 484.066 382.525 483.238 382.921 482.506C383.329 481.774 383.881 481.204 384.577 480.796C385.285 480.388 386.077 480.184 386.953 480.184C387.829 480.184 388.615 480.388 389.311 480.796C390.007 481.204 390.553 481.774 390.949 482.506C391.345 483.226 391.543 484.054 391.543 484.99L391.525 485.386ZM386.953 481.282C386.041 481.282 385.273 481.576 384.649 482.164C384.037 482.74 383.689 483.496 383.605 484.432H390.319C390.235 483.496 389.881 482.74 389.257 482.164C388.645 481.576 387.877 481.282 386.953 481.282Z" fill="black"/>
<path d="M393.604 476.368H394.882V489.724H393.604V476.368Z" fill="black"/>
<path d="M397.898 476.368H399.176V489.724H397.898V476.368Z" fill="black"/>
<path d="M402.318 489.814C402.054 489.814 401.826 489.718 401.634 489.526C401.454 489.334 401.364 489.1 401.364 488.824C401.364 488.548 401.454 488.32 401.634 488.14C401.826 487.948 402.054 487.852 402.318 487.852C402.582 487.852 402.81 487.948 403.002 488.14C403.194 488.32 403.29 488.548 403.29 488.824C403.29 489.1 403.194 489.334 403.002 489.526C402.81 489.718 402.582 489.814 402.318 489.814Z" fill="black"/>
<path d="M427.206 477.124L422.958 489.724H421.554L417.864 478.978L414.156 489.724H412.77L408.522 477.124H409.89L413.526 487.96L417.288 477.124H418.53L422.238 488.014L425.928 477.124H427.206Z" fill="black"/>
<path d="M431.429 480.184C432.665 480.184 433.613 480.496 434.273 481.12C434.933 481.732 435.263 482.644 435.263 483.856V489.724H434.039V488.248C433.751 488.74 433.325 489.124 432.761 489.4C432.209 489.676 431.549 489.814 430.781 489.814C429.725 489.814 428.885 489.562 428.261 489.058C427.637 488.554 427.325 487.888 427.325 487.06C427.325 486.256 427.613 485.608 428.189 485.116C428.777 484.624 429.707 484.378 430.979 484.378H433.985V483.802C433.985 482.986 433.757 482.368 433.301 481.948C432.845 481.516 432.179 481.3 431.303 481.3C430.703 481.3 430.127 481.402 429.575 481.606C429.023 481.798 428.549 482.068 428.153 482.416L427.577 481.462C428.057 481.054 428.633 480.742 429.305 480.526C429.977 480.298 430.685 480.184 431.429 480.184ZM430.979 488.806C431.699 488.806 432.317 488.644 432.833 488.32C433.349 487.984 433.733 487.504 433.985 486.88V485.332H431.015C429.395 485.332 428.585 485.896 428.585 487.024C428.585 487.576 428.795 488.014 429.215 488.338C429.635 488.65 430.223 488.806 430.979 488.806Z" fill="black"/>
<path d="M443.018 480.184C444.206 480.184 445.148 480.532 445.844 481.228C446.552 481.912 446.906 482.914 446.906 484.234V489.724H445.628V484.36C445.628 483.376 445.382 482.626 444.89 482.11C444.398 481.594 443.696 481.336 442.784 481.336C441.764 481.336 440.954 481.642 440.354 482.254C439.766 482.854 439.472 483.688 439.472 484.756V489.724H438.194V480.256H439.418V482.002C439.766 481.426 440.246 480.982 440.858 480.67C441.482 480.346 442.202 480.184 443.018 480.184Z" fill="black"/>
<path d="M454.822 489.148C454.582 489.364 454.282 489.532 453.922 489.652C453.574 489.76 453.208 489.814 452.824 489.814C451.936 489.814 451.252 489.574 450.772 489.094C450.292 488.614 450.052 487.936 450.052 487.06V481.336H448.36V480.256H450.052V478.186H451.33V480.256H454.21V481.336H451.33V486.988C451.33 487.552 451.468 487.984 451.744 488.284C452.032 488.572 452.44 488.716 452.968 488.716C453.232 488.716 453.484 488.674 453.724 488.59C453.976 488.506 454.192 488.386 454.372 488.23L454.822 489.148Z" fill="black"/>
<path d="M464.519 485.386H456.599C456.671 486.37 457.049 487.168 457.733 487.78C458.417 488.38 459.281 488.68 460.325 488.68C460.913 488.68 461.453 488.578 461.945 488.374C462.437 488.158 462.863 487.846 463.223 487.438L463.943 488.266C463.523 488.77 462.995 489.154 462.359 489.418C461.735 489.682 461.045 489.814 460.289 489.814C459.317 489.814 458.453 489.61 457.697 489.202C456.953 488.782 456.371 488.206 455.951 487.474C455.531 486.742 455.321 485.914 455.321 484.99C455.321 484.066 455.519 483.238 455.915 482.506C456.323 481.774 456.875 481.204 457.571 480.796C458.279 480.388 459.071 480.184 459.947 480.184C460.823 480.184 461.609 480.388 462.305 480.796C463.001 481.204 463.547 481.774 463.943 482.506C464.339 483.226 464.537 484.054 464.537 484.99L464.519 485.386ZM459.947 481.282C459.035 481.282 458.267 481.576 457.643 482.164C457.031 482.74 456.683 483.496 456.599 484.432H463.313C463.229 483.496 462.875 482.74 462.251 482.164C461.639 481.576 460.871 481.282 459.947 481.282Z" fill="black"/>
<path d="M475.238 476.368V489.724H474.014V487.852C473.63 488.488 473.12 488.974 472.484 489.31C471.86 489.646 471.152 489.814 470.36 489.814C469.472 489.814 468.668 489.61 467.948 489.202C467.228 488.794 466.664 488.224 466.256 487.492C465.848 486.76 465.644 485.926 465.644 484.99C465.644 484.054 465.848 483.22 466.256 482.488C466.664 481.756 467.228 481.192 467.948 480.796C468.668 480.388 469.472 480.184 470.36 480.184C471.128 480.184 471.818 480.346 472.43 480.67C473.054 480.982 473.564 481.444 473.96 482.056V476.368H475.238ZM470.468 488.68C471.128 488.68 471.722 488.53 472.25 488.23C472.79 487.918 473.21 487.48 473.51 486.916C473.822 486.352 473.978 485.71 473.978 484.99C473.978 484.27 473.822 483.628 473.51 483.064C473.21 482.5 472.79 482.068 472.25 481.768C471.722 481.456 471.128 481.3 470.468 481.3C469.796 481.3 469.19 481.456 468.65 481.768C468.122 482.068 467.702 482.5 467.39 483.064C467.09 483.628 466.94 484.27 466.94 484.99C466.94 485.71 467.09 486.352 467.39 486.916C467.702 487.48 468.122 487.918 468.65 488.23C469.19 488.53 469.796 488.68 470.468 488.68Z" fill="black"/>
<path d="M487.414 489.148C487.174 489.364 486.874 489.532 486.514 489.652C486.166 489.76 485.8 489.814 485.416 489.814C484.528 489.814 483.844 489.574 483.364 489.094C482.884 488.614 482.644 487.936 482.644 487.06V481.336H480.952V480.256H482.644V478.186H483.922V480.256H486.802V481.336H483.922V486.988C483.922 487.552 484.06 487.984 484.336 488.284C484.624 488.572 485.032 488.716 485.56 488.716C485.824 488.716 486.076 488.674 486.316 488.59C486.568 488.506 486.784 488.386 486.964 488.23L487.414 489.148Z" fill="black"/>
<path d="M492.737 489.814C491.825 489.814 491.003 489.61 490.271 489.202C489.539 488.782 488.963 488.206 488.543 487.474C488.123 486.742 487.913 485.914 487.913 484.99C487.913 484.066 488.123 483.238 488.543 482.506C488.963 481.774 489.539 481.204 490.271 480.796C491.003 480.388 491.825 480.184 492.737 480.184C493.649 480.184 494.471 480.388 495.203 480.796C495.935 481.204 496.505 481.774 496.913 482.506C497.333 483.238 497.543 484.066 497.543 484.99C497.543 485.914 497.333 486.742 496.913 487.474C496.505 488.206 495.935 488.782 495.203 489.202C494.471 489.61 493.649 489.814 492.737 489.814ZM492.737 488.68C493.409 488.68 494.009 488.53 494.537 488.23C495.077 487.918 495.497 487.48 495.797 486.916C496.097 486.352 496.247 485.71 496.247 484.99C496.247 484.27 496.097 483.628 495.797 483.064C495.497 482.5 495.077 482.068 494.537 481.768C494.009 481.456 493.409 481.3 492.737 481.3C492.065 481.3 491.459 481.456 490.919 481.768C490.391 482.068 489.971 482.5 489.659 483.064C489.359 483.628 489.209 484.27 489.209 484.99C489.209 485.71 489.359 486.352 489.659 486.916C489.971 487.48 490.391 487.918 490.919 488.23C491.459 488.53 492.065 488.68 492.737 488.68Z" fill="black"/>
<path d="M506.321 489.814C505.553 489.814 504.815 489.706 504.107 489.49C503.411 489.262 502.865 488.98 502.469 488.644L503.045 487.636C503.441 487.948 503.939 488.206 504.539 488.41C505.139 488.602 505.763 488.698 506.411 488.698C507.275 488.698 507.911 488.566 508.319 488.302C508.739 488.026 508.949 487.642 508.949 487.15C508.949 486.802 508.835 486.532 508.607 486.34C508.379 486.136 508.091 485.986 507.743 485.89C507.395 485.782 506.933 485.68 506.357 485.584C505.589 485.44 504.971 485.296 504.503 485.152C504.035 484.996 503.633 484.738 503.297 484.378C502.973 484.018 502.811 483.52 502.811 482.884C502.811 482.092 503.141 481.444 503.801 480.94C504.461 480.436 505.379 480.184 506.555 480.184C507.167 480.184 507.779 480.268 508.391 480.436C509.003 480.592 509.507 480.802 509.903 481.066L509.345 482.092C508.565 481.552 507.635 481.282 506.555 481.282C505.739 481.282 505.121 481.426 504.701 481.714C504.293 482.002 504.089 482.38 504.089 482.848C504.089 483.208 504.203 483.496 504.431 483.712C504.671 483.928 504.965 484.09 505.313 484.198C505.661 484.294 506.141 484.396 506.753 484.504C507.509 484.648 508.115 484.792 508.571 484.936C509.027 485.08 509.417 485.326 509.741 485.674C510.065 486.022 510.227 486.502 510.227 487.114C510.227 487.942 509.879 488.602 509.183 489.094C508.499 489.574 507.545 489.814 506.321 489.814Z" fill="black"/>
<path d="M520.293 485.386H512.373C512.445 486.37 512.823 487.168 513.507 487.78C514.191 488.38 515.055 488.68 516.099 488.68C516.687 488.68 517.227 488.578 517.719 488.374C518.211 488.158 518.637 487.846 518.997 487.438L519.717 488.266C519.297 488.77 518.769 489.154 518.133 489.418C517.509 489.682 516.819 489.814 516.063 489.814C515.091 489.814 514.227 489.61 513.471 489.202C512.727 488.782 512.145 488.206 511.725 487.474C511.305 486.742 511.095 485.914 511.095 484.99C511.095 484.066 511.293 483.238 511.689 482.506C512.097 481.774 512.649 481.204 513.345 480.796C514.053 480.388 514.845 480.184 515.721 480.184C516.597 480.184 517.383 480.388 518.079 480.796C518.775 481.204 519.321 481.774 519.717 482.506C520.113 483.226 520.311 484.054 520.311 484.99L520.293 485.386ZM515.721 481.282C514.809 481.282 514.041 481.576 513.417 482.164C512.805 482.74 512.457 483.496 512.373 484.432H519.087C519.003 483.496 518.649 482.74 518.025 482.164C517.413 481.576 516.645 481.282 515.721 481.282Z" fill="black"/>
<path d="M527.197 480.184C528.385 480.184 529.327 480.532 530.023 481.228C530.731 481.912 531.085 482.914 531.085 484.234V489.724H529.807V484.36C529.807 483.376 529.561 482.626 529.069 482.11C528.577 481.594 527.875 481.336 526.963 481.336C525.943 481.336 525.133 481.642 524.533 482.254C523.945 482.854 523.651 483.688 523.651 484.756V489.724H522.373V480.256H523.597V482.002C523.945 481.426 524.425 480.982 525.037 480.67C525.661 480.346 526.381 480.184 527.197 480.184Z" fill="black"/>
<path d="M542.689 476.368V489.724H541.465V487.852C541.081 488.488 540.571 488.974 539.935 489.31C539.311 489.646 538.603 489.814 537.811 489.814C536.923 489.814 536.119 489.61 535.399 489.202C534.679 488.794 534.115 488.224 533.707 487.492C533.299 486.76 533.095 485.926 533.095 484.99C533.095 484.054 533.299 483.22 533.707 482.488C534.115 481.756 534.679 481.192 535.399 480.796C536.119 480.388 536.923 480.184 537.811 480.184C538.579 480.184 539.269 480.346 539.881 480.67C540.505 480.982 541.015 481.444 541.411 482.056V476.368H542.689ZM537.919 488.68C538.579 488.68 539.173 488.53 539.701 488.23C540.241 487.918 540.661 487.48 540.961 486.916C541.273 486.352 541.429 485.71 541.429 484.99C541.429 484.27 541.273 483.628 540.961 483.064C540.661 482.5 540.241 482.068 539.701 481.768C539.173 481.456 538.579 481.3 537.919 481.3C537.247 481.3 536.641 481.456 536.101 481.768C535.573 482.068 535.153 482.5 534.841 483.064C534.541 483.628 534.391 484.27 534.391 484.99C534.391 485.71 534.541 486.352 534.841 486.916C535.153 487.48 535.573 487.918 536.101 488.23C536.641 488.53 537.247 488.68 537.919 488.68Z" fill="black"/>
<path d="M557.836 480.256L553.102 490.858C552.718 491.746 552.274 492.376 551.77 492.748C551.266 493.12 550.66 493.306 549.952 493.306C549.496 493.306 549.07 493.234 548.674 493.09C548.278 492.946 547.936 492.73 547.648 492.442L548.242 491.488C548.722 491.968 549.298 492.208 549.97 492.208C550.402 492.208 550.768 492.088 551.068 491.848C551.38 491.608 551.668 491.2 551.932 490.624L552.346 489.706L548.116 480.256H549.448L553.012 488.302L556.576 480.256H557.836Z" fill="black"/>
<path d="M562.702 489.814C561.79 489.814 560.968 489.61 560.236 489.202C559.504 488.782 558.928 488.206 558.508 487.474C558.088 486.742 557.878 485.914 557.878 484.99C557.878 484.066 558.088 483.238 558.508 482.506C558.928 481.774 559.504 481.204 560.236 480.796C560.968 480.388 561.79 480.184 562.702 480.184C563.614 480.184 564.436 480.388 565.168 480.796C565.9 481.204 566.47 481.774 566.878 482.506C567.298 483.238 567.508 484.066 567.508 484.99C567.508 485.914 567.298 486.742 566.878 487.474C566.47 488.206 565.9 488.782 565.168 489.202C564.436 489.61 563.614 489.814 562.702 489.814ZM562.702 488.68C563.374 488.68 563.974 488.53 564.502 488.23C565.042 487.918 565.462 487.48 565.762 486.916C566.062 486.352 566.212 485.71 566.212 484.99C566.212 484.27 566.062 483.628 565.762 483.064C565.462 482.5 565.042 482.068 564.502 481.768C563.974 481.456 563.374 481.3 562.702 481.3C562.03 481.3 561.424 481.456 560.884 481.768C560.356 482.068 559.936 482.5 559.624 483.064C559.324 483.628 559.174 484.27 559.174 484.99C559.174 485.71 559.324 486.352 559.624 486.916C559.936 487.48 560.356 487.918 560.884 488.23C561.424 488.53 562.03 488.68 562.702 488.68Z" fill="black"/>
<path d="M578.109 480.256V489.724H576.885V487.996C576.549 488.572 576.087 489.022 575.499 489.346C574.911 489.658 574.239 489.814 573.483 489.814C572.247 489.814 571.269 489.472 570.549 488.788C569.841 488.092 569.487 487.078 569.487 485.746V480.256H570.765V485.62C570.765 486.616 571.011 487.372 571.503 487.888C571.995 488.404 572.697 488.662 573.609 488.662C574.605 488.662 575.391 488.362 575.967 487.762C576.543 487.15 576.831 486.304 576.831 485.224V480.256H578.109Z" fill="black"/>
<path d="M590.305 489.148C590.065 489.364 589.765 489.532 589.405 489.652C589.057 489.76 588.691 489.814 588.307 489.814C587.419 489.814 586.735 489.574 586.255 489.094C585.775 488.614 585.535 487.936 585.535 487.06V481.336H583.843V480.256H585.535V478.186H586.813V480.256H589.693V481.336H586.813V486.988C586.813 487.552 586.951 487.984 587.227 488.284C587.515 488.572 587.923 488.716 588.451 488.716C588.715 488.716 588.967 488.674 589.207 488.59C589.459 488.506 589.675 488.386 589.855 488.23L590.305 489.148Z" fill="black"/>
<path d="M596.916 480.184C598.104 480.184 599.046 480.532 599.742 481.228C600.45 481.912 600.804 482.914 600.804 484.234V489.724H599.526V484.36C599.526 483.376 599.28 482.626 598.788 482.11C598.296 481.594 597.594 481.336 596.682 481.336C595.662 481.336 594.852 481.642 594.252 482.254C593.664 482.854 593.37 483.688 593.37 484.756V489.724H592.092V476.368H593.37V481.912C593.718 481.36 594.198 480.934 594.81 480.634C595.422 480.334 596.124 480.184 596.916 480.184Z" fill="black"/>
<path d="M603.733 480.256H605.011V489.724H603.733V480.256ZM604.381 478.186C604.117 478.186 603.895 478.096 603.715 477.916C603.535 477.736 603.445 477.52 603.445 477.268C603.445 477.028 603.535 476.818 603.715 476.638C603.895 476.458 604.117 476.368 604.381 476.368C604.645 476.368 604.867 476.458 605.047 476.638C605.227 476.806 605.317 477.01 605.317 477.25C605.317 477.514 605.227 477.736 605.047 477.916C604.867 478.096 604.645 478.186 604.381 478.186Z" fill="black"/>
<path d="M610.565 489.814C609.797 489.814 609.059 489.706 608.351 489.49C607.655 489.262 607.109 488.98 606.713 488.644L607.289 487.636C607.685 487.948 608.183 488.206 608.783 488.41C609.383 488.602 610.007 488.698 610.655 488.698C611.519 488.698 612.155 488.566 612.563 488.302C612.983 488.026 613.193 487.642 613.193 487.15C613.193 486.802 613.079 486.532 612.851 486.34C612.623 486.136 612.335 485.986 611.987 485.89C611.639 485.782 611.177 485.68 610.601 485.584C609.833 485.44 609.215 485.296 608.747 485.152C608.279 484.996 607.877 484.738 607.541 484.378C607.217 484.018 607.055 483.52 607.055 482.884C607.055 482.092 607.385 481.444 608.045 480.94C608.705 480.436 609.623 480.184 610.799 480.184C611.411 480.184 612.023 480.268 612.635 480.436C613.247 480.592 613.751 480.802 614.147 481.066L613.589 482.092C612.809 481.552 611.879 481.282 610.799 481.282C609.983 481.282 609.365 481.426 608.945 481.714C608.537 482.002 608.333 482.38 608.333 482.848C608.333 483.208 608.447 483.496 608.675 483.712C608.915 483.928 609.209 484.09 609.557 484.198C609.905 484.294 610.385 484.396 610.997 484.504C611.753 484.648 612.359 484.792 612.815 484.936C613.271 485.08 613.661 485.326 613.985 485.674C614.309 486.022 614.471 486.502 614.471 487.114C614.471 487.942 614.123 488.602 613.427 489.094C612.743 489.574 611.789 489.814 610.565 489.814Z" fill="black"/>
<path d="M624.389 489.814C623.453 489.814 622.613 489.61 621.869 489.202C621.137 488.794 620.561 488.224 620.141 487.492C619.721 486.748 619.511 485.914 619.511 484.99C619.511 484.066 619.721 483.238 620.141 482.506C620.561 481.774 621.137 481.204 621.869 480.796C622.613 480.388 623.453 480.184 624.389 480.184C625.205 480.184 625.931 480.346 626.567 480.67C627.215 480.982 627.725 481.444 628.097 482.056L627.143 482.704C626.831 482.236 626.435 481.888 625.955 481.66C625.475 481.42 624.953 481.3 624.389 481.3C623.705 481.3 623.087 481.456 622.535 481.768C621.995 482.068 621.569 482.5 621.257 483.064C620.957 483.628 620.807 484.27 620.807 484.99C620.807 485.722 620.957 486.37 621.257 486.934C621.569 487.486 621.995 487.918 622.535 488.23C623.087 488.53 623.705 488.68 624.389 488.68C624.953 488.68 625.475 488.566 625.955 488.338C626.435 488.11 626.831 487.762 627.143 487.294L628.097 487.942C627.725 488.554 627.215 489.022 626.567 489.346C625.919 489.658 625.193 489.814 624.389 489.814Z" fill="black"/>
<path d="M633.379 480.184C634.615 480.184 635.563 480.496 636.223 481.12C636.883 481.732 637.213 482.644 637.213 483.856V489.724H635.989V488.248C635.701 488.74 635.275 489.124 634.711 489.4C634.159 489.676 633.499 489.814 632.731 489.814C631.675 489.814 630.835 489.562 630.211 489.058C629.587 488.554 629.275 487.888 629.275 487.06C629.275 486.256 629.563 485.608 630.139 485.116C630.727 484.624 631.657 484.378 632.929 484.378H635.935V483.802C635.935 482.986 635.707 482.368 635.251 481.948C634.795 481.516 634.129 481.3 633.253 481.3C632.653 481.3 632.077 481.402 631.525 481.606C630.973 481.798 630.499 482.068 630.103 482.416L629.527 481.462C630.007 481.054 630.583 480.742 631.255 480.526C631.927 480.298 632.635 480.184 633.379 480.184ZM632.929 488.806C633.649 488.806 634.267 488.644 634.783 488.32C635.299 487.984 635.683 487.504 635.935 486.88V485.332H632.965C631.345 485.332 630.535 485.896 630.535 487.024C630.535 487.576 630.745 488.014 631.165 488.338C631.585 488.65 632.173 488.806 632.929 488.806Z" fill="black"/>
<path d="M641.369 482.11C641.669 481.474 642.113 480.994 642.701 480.67C643.301 480.346 644.039 480.184 644.915 480.184V481.426L644.609 481.408C643.613 481.408 642.833 481.714 642.269 482.326C641.705 482.938 641.423 483.796 641.423 484.9V489.724H640.145V480.256H641.369V482.11Z" fill="black"/>
<path d="M654.845 485.386H646.925C646.997 486.37 647.375 487.168 648.059 487.78C648.743 488.38 649.607 488.68 650.651 488.68C651.239 488.68 651.779 488.578 652.271 488.374C652.763 488.158 653.189 487.846 653.549 487.438L654.269 488.266C653.849 488.77 653.321 489.154 652.685 489.418C652.061 489.682 651.371 489.814 650.615 489.814C649.643 489.814 648.779 489.61 648.023 489.202C647.279 488.782 646.697 488.206 646.277 487.474C645.857 486.742 645.647 485.914 645.647 484.99C645.647 484.066 645.845 483.238 646.241 482.506C646.649 481.774 647.201 481.204 647.897 480.796C648.605 480.388 649.397 480.184 650.273 480.184C651.149 480.184 651.935 480.388 652.631 480.796C653.327 481.204 653.873 481.774 654.269 482.506C654.665 483.226 654.863 484.054 654.863 484.99L654.845 485.386ZM650.273 481.282C649.361 481.282 648.593 481.576 647.969 482.164C647.357 482.74 647.009 483.496 646.925 484.432H653.639C653.555 483.496 653.201 482.74 652.577 482.164C651.965 481.576 651.197 481.282 650.273 481.282Z" fill="black"/>
<path d="M665.973 480.184C666.861 480.184 667.665 480.388 668.385 480.796C669.105 481.192 669.669 481.756 670.077 482.488C670.485 483.22 670.689 484.054 670.689 484.99C670.689 485.938 670.485 486.778 670.077 487.51C669.669 488.242 669.105 488.812 668.385 489.22C667.677 489.616 666.873 489.814 665.973 489.814C665.205 489.814 664.509 489.658 663.885 489.346C663.273 489.022 662.769 488.554 662.373 487.942V493.216H661.095V480.256H662.319V482.128C662.703 481.504 663.207 481.024 663.831 480.688C664.467 480.352 665.181 480.184 665.973 480.184ZM665.883 488.68C666.543 488.68 667.143 488.53 667.683 488.23C668.223 487.918 668.643 487.48 668.943 486.916C669.255 486.352 669.411 485.71 669.411 484.99C669.411 484.27 669.255 483.634 668.943 483.082C668.643 482.518 668.223 482.08 667.683 481.768C667.143 481.456 666.543 481.3 665.883 481.3C665.211 481.3 664.605 481.456 664.065 481.768C663.537 482.08 663.117 482.518 662.805 483.082C662.505 483.634 662.355 484.27 662.355 484.99C662.355 485.71 662.505 486.352 662.805 486.916C663.117 487.48 663.537 487.918 664.065 488.23C664.605 488.53 665.211 488.68 665.883 488.68Z" fill="black"/>
<path d="M676.013 480.184C677.249 480.184 678.197 480.496 678.857 481.12C679.517 481.732 679.847 482.644 679.847 483.856V489.724H678.623V488.248C678.335 488.74 677.909 489.124 677.345 489.4C676.793 489.676 676.133 489.814 675.365 489.814C674.309 489.814 673.469 489.562 672.845 489.058C672.221 488.554 671.909 487.888 671.909 487.06C671.909 486.256 672.197 485.608 672.773 485.116C673.361 484.624 674.291 484.378 675.563 484.378H678.569V483.802C678.569 482.986 678.341 482.368 677.885 481.948C677.429 481.516 676.763 481.3 675.887 481.3C675.287 481.3 674.711 481.402 674.159 481.606C673.607 481.798 673.133 482.068 672.737 482.416L672.161 481.462C672.641 481.054 673.217 480.742 673.889 480.526C674.561 480.298 675.269 480.184 676.013 480.184ZM675.563 488.806C676.283 488.806 676.901 488.644 677.417 488.32C677.933 487.984 678.317 487.504 678.569 486.88V485.332H675.599C673.979 485.332 673.169 485.896 673.169 487.024C673.169 487.576 673.379 488.014 673.799 488.338C674.219 488.65 674.807 488.806 675.563 488.806Z" fill="black"/>
<path d="M686.738 489.814C685.802 489.814 684.962 489.61 684.218 489.202C683.486 488.794 682.91 488.224 682.49 487.492C682.07 486.748 681.86 485.914 681.86 484.99C681.86 484.066 682.07 483.238 682.49 482.506C682.91 481.774 683.486 481.204 684.218 480.796C684.962 480.388 685.802 480.184 686.738 480.184C687.554 480.184 688.28 480.346 688.916 480.67C689.564 480.982 690.074 481.444 690.446 482.056L689.492 482.704C689.18 482.236 688.784 481.888 688.304 481.66C687.824 481.42 687.302 481.3 686.738 481.3C686.054 481.3 685.436 481.456 684.884 481.768C684.344 482.068 683.918 482.5 683.606 483.064C683.306 483.628 683.156 484.27 683.156 484.99C683.156 485.722 683.306 486.37 683.606 486.934C683.918 487.486 684.344 487.918 684.884 488.23C685.436 488.53 686.054 488.68 686.738 488.68C687.302 488.68 687.824 488.566 688.304 488.338C688.784 488.11 689.18 487.762 689.492 487.294L690.446 487.942C690.074 488.554 689.564 489.022 688.916 489.346C688.268 489.658 687.542 489.814 686.738 489.814Z" fill="black"/>
<path d="M695.786 484.972L693.554 487.024V489.724H692.276V476.368H693.554V485.422L699.206 480.256H700.79L696.74 484.126L701.168 489.724H699.602L695.786 484.972Z" fill="black"/>
<path d="M705.682 480.184C706.918 480.184 707.866 480.496 708.526 481.12C709.186 481.732 709.516 482.644 709.516 483.856V489.724H708.292V488.248C708.004 488.74 707.578 489.124 707.014 489.4C706.462 489.676 705.802 489.814 705.034 489.814C703.978 489.814 703.138 489.562 702.514 489.058C701.89 488.554 701.578 487.888 701.578 487.06C701.578 486.256 701.866 485.608 702.442 485.116C703.03 484.624 703.96 484.378 705.232 484.378H708.238V483.802C708.238 482.986 708.01 482.368 707.554 481.948C707.098 481.516 706.432 481.3 705.556 481.3C704.956 481.3 704.38 481.402 703.828 481.606C703.276 481.798 702.802 482.068 702.406 482.416L701.83 481.462C702.31 481.054 702.886 480.742 703.558 480.526C704.23 480.298 704.938 480.184 705.682 480.184ZM705.232 488.806C705.952 488.806 706.57 488.644 707.086 488.32C707.602 487.984 707.986 487.504 708.238 486.88V485.332H705.268C703.648 485.332 702.838 485.896 702.838 487.024C702.838 487.576 703.048 488.014 703.468 488.338C703.888 488.65 704.476 488.806 705.232 488.806Z" fill="black"/>
<path d="M721.249 480.256V488.572C721.249 490.18 720.853 491.368 720.061 492.136C719.281 492.916 718.099 493.306 716.515 493.306C715.639 493.306 714.805 493.174 714.013 492.91C713.233 492.658 712.597 492.304 712.105 491.848L712.753 490.876C713.209 491.284 713.761 491.602 714.409 491.83C715.069 492.058 715.759 492.172 716.479 492.172C717.679 492.172 718.561 491.89 719.125 491.326C719.689 490.774 719.971 489.91 719.971 488.734V487.528C719.575 488.128 719.053 488.584 718.405 488.896C717.769 489.208 717.061 489.364 716.281 489.364C715.393 489.364 714.583 489.172 713.851 488.788C713.131 488.392 712.561 487.846 712.141 487.15C711.733 486.442 711.529 485.644 711.529 484.756C711.529 483.868 711.733 483.076 712.141 482.38C712.561 481.684 713.131 481.144 713.851 480.76C714.571 480.376 715.381 480.184 716.281 480.184C717.085 480.184 717.811 480.346 718.459 480.67C719.107 480.994 719.629 481.462 720.025 482.074V480.256H721.249ZM716.407 488.23C717.091 488.23 717.709 488.086 718.261 487.798C718.813 487.498 719.239 487.084 719.539 486.556C719.851 486.028 720.007 485.428 720.007 484.756C720.007 484.084 719.851 483.49 719.539 482.974C719.239 482.446 718.813 482.038 718.261 481.75C717.721 481.45 717.103 481.3 716.407 481.3C715.723 481.3 715.105 481.444 714.553 481.732C714.013 482.02 713.587 482.428 713.275 482.956C712.975 483.484 712.825 484.084 712.825 484.756C712.825 485.428 712.975 486.028 713.275 486.556C713.587 487.084 714.013 487.498 714.553 487.798C715.105 488.086 715.723 488.23 716.407 488.23Z" fill="black"/>
<path d="M732.527 485.386H724.607C724.679 486.37 725.057 487.168 725.741 487.78C726.425 488.38 727.289 488.68 728.333 488.68C728.921 488.68 729.461 488.578 729.953 488.374C730.445 488.158 730.871 487.846 731.231 487.438L731.951 488.266C731.531 488.77 731.003 489.154 730.367 489.418C729.743 489.682 729.053 489.814 728.297 489.814C727.325 489.814 726.461 489.61 725.705 489.202C724.961 488.782 724.379 488.206 723.959 487.474C723.539 486.742 723.329 485.914 723.329 484.99C723.329 484.066 723.527 483.238 723.923 482.506C724.331 481.774 724.883 481.204 725.579 480.796C726.287 480.388 727.079 480.184 727.955 480.184C728.831 480.184 729.617 480.388 730.313 480.796C731.009 481.204 731.555 481.774 731.951 482.506C732.347 483.226 732.545 484.054 732.545 484.99L732.527 485.386ZM727.955 481.282C727.043 481.282 726.275 481.576 725.651 482.164C725.039 482.74 724.691 483.496 724.607 484.432H731.321C731.237 483.496 730.883 482.74 730.259 482.164C729.647 481.576 728.879 481.282 727.955 481.282Z" fill="black"/>
<path d="M373.25 548.716C373.01 548.932 372.71 549.1 372.35 549.22C372.002 549.328 371.636 549.382 371.252 549.382C370.364 549.382 369.68 549.142 369.2 548.662C368.72 548.182 368.48 547.504 368.48 546.628V540.904H366.788V539.824H368.48V537.754H369.758V539.824H372.638V540.904H369.758V546.556C369.758 547.12 369.896 547.552 370.172 547.852C370.46 548.14 370.868 548.284 371.396 548.284C371.66 548.284 371.912 548.242 372.152 548.158C372.404 548.074 372.62 547.954 372.8 547.798L373.25 548.716Z" fill="black"/>
<path d="M378.573 549.382C377.661 549.382 376.839 549.178 376.107 548.77C375.375 548.35 374.799 547.774 374.379 547.042C373.959 546.31 373.749 545.482 373.749 544.558C373.749 543.634 373.959 542.806 374.379 542.074C374.799 541.342 375.375 540.772 376.107 540.364C376.839 539.956 377.661 539.752 378.573 539.752C379.485 539.752 380.307 539.956 381.039 540.364C381.771 540.772 382.341 541.342 382.749 542.074C383.169 542.806 383.379 543.634 383.379 544.558C383.379 545.482 383.169 546.31 382.749 547.042C382.341 547.774 381.771 548.35 381.039 548.77C380.307 549.178 379.485 549.382 378.573 549.382ZM378.573 548.248C379.245 548.248 379.845 548.098 380.373 547.798C380.913 547.486 381.333 547.048 381.633 546.484C381.933 545.92 382.083 545.278 382.083 544.558C382.083 543.838 381.933 543.196 381.633 542.632C381.333 542.068 380.913 541.636 380.373 541.336C379.845 541.024 379.245 540.868 378.573 540.868C377.901 540.868 377.295 541.024 376.755 541.336C376.227 541.636 375.807 542.068 375.495 542.632C375.195 543.196 375.045 543.838 375.045 544.558C375.045 545.278 375.195 545.92 375.495 546.484C375.807 547.048 376.227 547.486 376.755 547.798C377.295 548.098 377.901 548.248 378.573 548.248Z" fill="black"/>
<path d="M392.157 549.382C391.389 549.382 390.651 549.274 389.943 549.058C389.247 548.83 388.701 548.548 388.305 548.212L388.881 547.204C389.277 547.516 389.775 547.774 390.375 547.978C390.975 548.17 391.599 548.266 392.247 548.266C393.111 548.266 393.747 548.134 394.155 547.87C394.575 547.594 394.785 547.21 394.785 546.718C394.785 546.37 394.671 546.1 394.443 545.908C394.215 545.704 393.927 545.554 393.579 545.458C393.231 545.35 392.769 545.248 392.193 545.152C391.425 545.008 390.807 544.864 390.339 544.72C389.871 544.564 389.469 544.306 389.133 543.946C388.809 543.586 388.647 543.088 388.647 542.452C388.647 541.66 388.977 541.012 389.637 540.508C390.297 540.004 391.215 539.752 392.391 539.752C393.003 539.752 393.615 539.836 394.227 540.004C394.839 540.16 395.343 540.37 395.739 540.634L395.181 541.66C394.401 541.12 393.471 540.85 392.391 540.85C391.575 540.85 390.957 540.994 390.537 541.282C390.129 541.57 389.925 541.948 389.925 542.416C389.925 542.776 390.039 543.064 390.267 543.28C390.507 543.496 390.801 543.658 391.149 543.766C391.497 543.862 391.977 543.964 392.589 544.072C393.345 544.216 393.951 544.36 394.407 544.504C394.863 544.648 395.253 544.894 395.577 545.242C395.901 545.59 396.063 546.07 396.063 546.682C396.063 547.51 395.715 548.17 395.019 548.662C394.335 549.142 393.381 549.382 392.157 549.382Z" fill="black"/>
<path d="M402.71 539.752C403.898 539.752 404.84 540.1 405.536 540.796C406.244 541.48 406.598 542.482 406.598 543.802V549.292H405.32V543.928C405.32 542.944 405.074 542.194 404.582 541.678C404.09 541.162 403.388 540.904 402.476 540.904C401.456 540.904 400.646 541.21 400.046 541.822C399.458 542.422 399.164 543.256 399.164 544.324V549.292H397.886V535.936H399.164V541.48C399.512 540.928 399.992 540.502 400.604 540.202C401.216 539.902 401.918 539.752 402.71 539.752Z" fill="black"/>
<path d="M413.433 549.382C412.521 549.382 411.699 549.178 410.967 548.77C410.235 548.35 409.659 547.774 409.239 547.042C408.819 546.31 408.609 545.482 408.609 544.558C408.609 543.634 408.819 542.806 409.239 542.074C409.659 541.342 410.235 540.772 410.967 540.364C411.699 539.956 412.521 539.752 413.433 539.752C414.345 539.752 415.167 539.956 415.899 540.364C416.631 540.772 417.201 541.342 417.609 542.074C418.029 542.806 418.239 543.634 418.239 544.558C418.239 545.482 418.029 546.31 417.609 547.042C417.201 547.774 416.631 548.35 415.899 548.77C415.167 549.178 414.345 549.382 413.433 549.382ZM413.433 548.248C414.105 548.248 414.705 548.098 415.233 547.798C415.773 547.486 416.193 547.048 416.493 546.484C416.793 545.92 416.943 545.278 416.943 544.558C416.943 543.838 416.793 543.196 416.493 542.632C416.193 542.068 415.773 541.636 415.233 541.336C414.705 541.024 414.105 540.868 413.433 540.868C412.761 540.868 412.155 541.024 411.615 541.336C411.087 541.636 410.667 542.068 410.355 542.632C410.055 543.196 409.905 543.838 409.905 544.558C409.905 545.278 410.055 545.92 410.355 546.484C410.667 547.048 411.087 547.486 411.615 547.798C412.155 548.098 412.761 548.248 413.433 548.248Z" fill="black"/>
<path d="M433.94 539.824L430.358 549.292H429.152L426.164 541.534L423.176 549.292H421.97L418.406 539.824H419.63L422.6 547.87L425.642 539.824H426.74L429.764 547.87L432.77 539.824H433.94Z" fill="black"/>
<path d="M443.365 549.382C442.453 549.382 441.631 549.178 440.899 548.77C440.167 548.35 439.591 547.774 439.171 547.042C438.751 546.31 438.541 545.482 438.541 544.558C438.541 543.634 438.751 542.806 439.171 542.074C439.591 541.342 440.167 540.772 440.899 540.364C441.631 539.956 442.453 539.752 443.365 539.752C444.277 539.752 445.099 539.956 445.831 540.364C446.563 540.772 447.133 541.342 447.541 542.074C447.961 542.806 448.171 543.634 448.171 544.558C448.171 545.482 447.961 546.31 447.541 547.042C447.133 547.774 446.563 548.35 445.831 548.77C445.099 549.178 444.277 549.382 443.365 549.382ZM443.365 548.248C444.037 548.248 444.637 548.098 445.165 547.798C445.705 547.486 446.125 547.048 446.425 546.484C446.725 545.92 446.875 545.278 446.875 544.558C446.875 543.838 446.725 543.196 446.425 542.632C446.125 542.068 445.705 541.636 445.165 541.336C444.637 541.024 444.037 540.868 443.365 540.868C442.693 540.868 442.087 541.024 441.547 541.336C441.019 541.636 440.599 542.068 440.287 542.632C439.987 543.196 439.837 543.838 439.837 544.558C439.837 545.278 439.987 545.92 440.287 546.484C440.599 547.048 441.019 547.486 441.547 547.798C442.087 548.098 442.693 548.248 443.365 548.248Z" fill="black"/>
<path d="M458.772 539.824V549.292H457.548V547.564C457.212 548.14 456.75 548.59 456.162 548.914C455.574 549.226 454.902 549.382 454.146 549.382C452.91 549.382 451.932 549.04 451.212 548.356C450.504 547.66 450.15 546.646 450.15 545.314V539.824H451.428V545.188C451.428 546.184 451.674 546.94 452.166 547.456C452.658 547.972 453.36 548.23 454.272 548.23C455.268 548.23 456.054 547.93 456.63 547.33C457.206 546.718 457.494 545.872 457.494 544.792V539.824H458.772Z" fill="black"/>
<path d="M463.036 541.678C463.336 541.042 463.78 540.562 464.368 540.238C464.968 539.914 465.706 539.752 466.582 539.752V540.994L466.276 540.976C465.28 540.976 464.5 541.282 463.936 541.894C463.372 542.506 463.09 543.364 463.09 544.468V549.292H461.812V539.824H463.036V541.678Z" fill="black"/>
<path d="M475.979 539.752C477.215 539.752 478.163 540.064 478.823 540.688C479.483 541.3 479.813 542.212 479.813 543.424V549.292H478.589V547.816C478.301 548.308 477.875 548.692 477.311 548.968C476.759 549.244 476.099 549.382 475.331 549.382C474.275 549.382 473.435 549.13 472.811 548.626C472.187 548.122 471.875 547.456 471.875 546.628C471.875 545.824 472.163 545.176 472.739 544.684C473.327 544.192 474.257 543.946 475.529 543.946H478.535V543.37C478.535 542.554 478.307 541.936 477.851 541.516C477.395 541.084 476.729 540.868 475.853 540.868C475.253 540.868 474.677 540.97 474.125 541.174C473.573 541.366 473.099 541.636 472.703 541.984L472.127 541.03C472.607 540.622 473.183 540.31 473.855 540.094C474.527 539.866 475.235 539.752 475.979 539.752ZM475.529 548.374C476.249 548.374 476.867 548.212 477.383 547.888C477.899 547.552 478.283 547.072 478.535 546.448V544.9H475.565C473.945 544.9 473.135 545.464 473.135 546.592C473.135 547.144 473.345 547.582 473.765 547.906C474.185 548.218 474.773 548.374 475.529 548.374Z" fill="black"/>
<path d="M487.622 539.752C488.51 539.752 489.314 539.956 490.034 540.364C490.754 540.76 491.318 541.324 491.726 542.056C492.134 542.788 492.338 543.622 492.338 544.558C492.338 545.506 492.134 546.346 491.726 547.078C491.318 547.81 490.754 548.38 490.034 548.788C489.326 549.184 488.522 549.382 487.622 549.382C486.854 549.382 486.158 549.226 485.534 548.914C484.922 548.59 484.418 548.122 484.022 547.51V552.784H482.744V539.824H483.968V541.696C484.352 541.072 484.856 540.592 485.48 540.256C486.116 539.92 486.83 539.752 487.622 539.752ZM487.532 548.248C488.192 548.248 488.792 548.098 489.332 547.798C489.872 547.486 490.292 547.048 490.592 546.484C490.904 545.92 491.06 545.278 491.06 544.558C491.06 543.838 490.904 543.202 490.592 542.65C490.292 542.086 489.872 541.648 489.332 541.336C488.792 541.024 488.192 540.868 487.532 540.868C486.86 540.868 486.254 541.024 485.714 541.336C485.186 541.648 484.766 542.086 484.454 542.65C484.154 543.202 484.004 543.838 484.004 544.558C484.004 545.278 484.154 545.92 484.454 546.484C484.766 547.048 485.186 547.486 485.714 547.798C486.254 548.098 486.86 548.248 487.532 548.248Z" fill="black"/>
<path d="M499.282 539.752C500.17 539.752 500.974 539.956 501.694 540.364C502.414 540.76 502.978 541.324 503.386 542.056C503.794 542.788 503.998 543.622 503.998 544.558C503.998 545.506 503.794 546.346 503.386 547.078C502.978 547.81 502.414 548.38 501.694 548.788C500.986 549.184 500.182 549.382 499.282 549.382C498.514 549.382 497.818 549.226 497.194 548.914C496.582 548.59 496.078 548.122 495.682 547.51V552.784H494.404V539.824H495.628V541.696C496.012 541.072 496.516 540.592 497.14 540.256C497.776 539.92 498.49 539.752 499.282 539.752ZM499.192 548.248C499.852 548.248 500.452 548.098 500.992 547.798C501.532 547.486 501.952 547.048 502.252 546.484C502.564 545.92 502.72 545.278 502.72 544.558C502.72 543.838 502.564 543.202 502.252 542.65C501.952 542.086 501.532 541.648 500.992 541.336C500.452 541.024 499.852 540.868 499.192 540.868C498.52 540.868 497.914 541.024 497.374 541.336C496.846 541.648 496.426 542.086 496.114 542.65C495.814 543.202 495.664 543.838 495.664 544.558C495.664 545.278 495.814 545.92 496.114 546.484C496.426 547.048 496.846 547.486 497.374 547.798C497.914 548.098 498.52 548.248 499.192 548.248Z" fill="black"/>
<path d="M507.287 541.678C507.587 541.042 508.031 540.562 508.619 540.238C509.219 539.914 509.957 539.752 510.833 539.752V540.994L510.527 540.976C509.531 540.976 508.751 541.282 508.187 541.894C507.623 542.506 507.341 543.364 507.341 544.468V549.292H506.063V539.824H507.287V541.678Z" fill="black"/>
<path d="M520.763 544.954H512.843C512.915 545.938 513.293 546.736 513.977 547.348C514.661 547.948 515.525 548.248 516.569 548.248C517.157 548.248 517.697 548.146 518.189 547.942C518.681 547.726 519.107 547.414 519.467 547.006L520.187 547.834C519.767 548.338 519.239 548.722 518.603 548.986C517.979 549.25 517.289 549.382 516.533 549.382C515.561 549.382 514.697 549.178 513.941 548.77C513.197 548.35 512.615 547.774 512.195 547.042C511.775 546.31 511.565 545.482 511.565 544.558C511.565 543.634 511.763 542.806 512.159 542.074C512.567 541.342 513.119 540.772 513.815 540.364C514.523 539.956 515.315 539.752 516.191 539.752C517.067 539.752 517.853 539.956 518.549 540.364C519.245 540.772 519.791 541.342 520.187 542.074C520.583 542.794 520.781 543.622 520.781 544.558L520.763 544.954ZM516.191 540.85C515.279 540.85 514.511 541.144 513.887 541.732C513.275 542.308 512.927 543.064 512.843 544H519.557C519.473 543.064 519.119 542.308 518.495 541.732C517.883 541.144 517.115 540.85 516.191 540.85Z" fill="black"/>
<path d="M526.766 549.382C525.83 549.382 524.99 549.178 524.246 548.77C523.514 548.362 522.938 547.792 522.518 547.06C522.098 546.316 521.888 545.482 521.888 544.558C521.888 543.634 522.098 542.806 522.518 542.074C522.938 541.342 523.514 540.772 524.246 540.364C524.99 539.956 525.83 539.752 526.766 539.752C527.582 539.752 528.308 539.914 528.944 540.238C529.592 540.55 530.102 541.012 530.474 541.624L529.52 542.272C529.208 541.804 528.812 541.456 528.332 541.228C527.852 540.988 527.33 540.868 526.766 540.868C526.082 540.868 525.464 541.024 524.912 541.336C524.372 541.636 523.946 542.068 523.634 542.632C523.334 543.196 523.184 543.838 523.184 544.558C523.184 545.29 523.334 545.938 523.634 546.502C523.946 547.054 524.372 547.486 524.912 547.798C525.464 548.098 526.082 548.248 526.766 548.248C527.33 548.248 527.852 548.134 528.332 547.906C528.812 547.678 529.208 547.33 529.52 546.862L530.474 547.51C530.102 548.122 529.592 548.59 528.944 548.914C528.296 549.226 527.57 549.382 526.766 549.382Z" fill="black"/>
<path d="M532.445 539.824H533.723V549.292H532.445V539.824ZM533.093 537.754C532.829 537.754 532.607 537.664 532.427 537.484C532.247 537.304 532.157 537.088 532.157 536.836C532.157 536.596 532.247 536.386 532.427 536.206C532.607 536.026 532.829 535.936 533.093 535.936C533.357 535.936 533.579 536.026 533.759 536.206C533.939 536.374 534.029 536.578 534.029 536.818C534.029 537.082 533.939 537.304 533.759 537.484C533.579 537.664 533.357 537.754 533.093 537.754Z" fill="black"/>
<path d="M540.051 539.752C541.287 539.752 542.235 540.064 542.895 540.688C543.555 541.3 543.885 542.212 543.885 543.424V549.292H542.661V547.816C542.373 548.308 541.947 548.692 541.383 548.968C540.831 549.244 540.171 549.382 539.403 549.382C538.347 549.382 537.507 549.13 536.883 548.626C536.259 548.122 535.947 547.456 535.947 546.628C535.947 545.824 536.235 545.176 536.811 544.684C537.399 544.192 538.329 543.946 539.601 543.946H542.607V543.37C542.607 542.554 542.379 541.936 541.923 541.516C541.467 541.084 540.801 540.868 539.925 540.868C539.325 540.868 538.749 540.97 538.197 541.174C537.645 541.366 537.171 541.636 536.775 541.984L536.199 541.03C536.679 540.622 537.255 540.31 537.927 540.094C538.599 539.866 539.307 539.752 540.051 539.752ZM539.601 548.374C540.321 548.374 540.939 548.212 541.455 547.888C541.971 547.552 542.355 547.072 542.607 546.448V544.9H539.637C538.017 544.9 537.207 545.464 537.207 546.592C537.207 547.144 537.417 547.582 537.837 547.906C538.257 548.218 538.845 548.374 539.601 548.374Z" fill="black"/>
<path d="M551.802 548.716C551.562 548.932 551.262 549.1 550.902 549.22C550.554 549.328 550.188 549.382 549.804 549.382C548.916 549.382 548.232 549.142 547.752 548.662C547.272 548.182 547.032 547.504 547.032 546.628V540.904H545.34V539.824H547.032V537.754H548.31V539.824H551.19V540.904H548.31V546.556C548.31 547.12 548.448 547.552 548.724 547.852C549.012 548.14 549.42 548.284 549.948 548.284C550.212 548.284 550.464 548.242 550.704 548.158C550.956 548.074 551.172 547.954 551.352 547.798L551.802 548.716Z" fill="black"/>
<path d="M553.589 539.824H554.867V549.292H553.589V539.824ZM554.237 537.754C553.973 537.754 553.751 537.664 553.571 537.484C553.391 537.304 553.301 537.088 553.301 536.836C553.301 536.596 553.391 536.386 553.571 536.206C553.751 536.026 553.973 535.936 554.237 535.936C554.501 535.936 554.723 536.026 554.903 536.206C555.083 536.374 555.173 536.578 555.173 536.818C555.173 537.082 555.083 537.304 554.903 537.484C554.723 537.664 554.501 537.754 554.237 537.754Z" fill="black"/>
<path d="M561.753 549.382C560.841 549.382 560.019 549.178 559.287 548.77C558.555 548.35 557.979 547.774 557.559 547.042C557.139 546.31 556.929 545.482 556.929 544.558C556.929 543.634 557.139 542.806 557.559 542.074C557.979 541.342 558.555 540.772 559.287 540.364C560.019 539.956 560.841 539.752 561.753 539.752C562.665 539.752 563.487 539.956 564.219 540.364C564.951 540.772 565.521 541.342 565.929 542.074C566.349 542.806 566.559 543.634 566.559 544.558C566.559 545.482 566.349 546.31 565.929 547.042C565.521 547.774 564.951 548.35 564.219 548.77C563.487 549.178 562.665 549.382 561.753 549.382ZM561.753 548.248C562.425 548.248 563.025 548.098 563.553 547.798C564.093 547.486 564.512 547.048 564.812 546.484C565.112 545.92 565.263 545.278 565.263 544.558C565.263 543.838 565.112 543.196 564.812 542.632C564.512 542.068 564.093 541.636 563.553 541.336C563.025 541.024 562.425 540.868 561.753 540.868C561.081 540.868 560.475 541.024 559.935 541.336C559.407 541.636 558.986 542.068 558.674 542.632C558.374 543.196 558.225 543.838 558.225 544.558C558.225 545.278 558.374 545.92 558.674 546.484C558.986 547.048 559.407 547.486 559.935 547.798C560.475 548.098 561.081 548.248 561.753 548.248Z" fill="black"/>
<path d="M573.452 539.752C574.64 539.752 575.582 540.1 576.278 540.796C576.986 541.48 577.34 542.482 577.34 543.802V549.292H576.062V543.928C576.062 542.944 575.816 542.194 575.324 541.678C574.832 541.162 574.13 540.904 573.218 540.904C572.198 540.904 571.388 541.21 570.788 541.822C570.2 542.422 569.906 543.256 569.906 544.324V549.292H568.628V539.824H569.852V541.57C570.2 540.994 570.68 540.55 571.292 540.238C571.916 539.914 572.636 539.752 573.452 539.752Z" fill="black"/>
<path d="M580.395 549.382C580.131 549.382 579.903 549.286 579.711 549.094C579.531 548.902 579.441 548.668 579.441 548.392C579.441 548.116 579.531 547.888 579.711 547.708C579.903 547.516 580.131 547.42 580.395 547.42C580.659 547.42 580.887 547.516 581.079 547.708C581.271 547.888 581.367 548.116 581.367 548.392C581.367 548.668 581.271 548.902 581.079 549.094C580.887 549.286 580.659 549.382 580.395 549.382Z" fill="black"/>
<path d="M591.891 543.37L589.317 545.98V549.292H587.985V536.692H589.317V544.306L596.715 536.692H598.245L592.791 542.398L598.623 549.292H597.039L591.891 543.37Z" fill="black"/>
<path d="M607.776 544.954H599.856C599.928 545.938 600.306 546.736 600.99 547.348C601.674 547.948 602.538 548.248 603.582 548.248C604.17 548.248 604.71 548.146 605.202 547.942C605.694 547.726 606.12 547.414 606.48 547.006L607.2 547.834C606.78 548.338 606.252 548.722 605.616 548.986C604.992 549.25 604.302 549.382 603.546 549.382C602.574 549.382 601.71 549.178 600.954 548.77C600.21 548.35 599.628 547.774 599.208 547.042C598.788 546.31 598.578 545.482 598.578 544.558C598.578 543.634 598.776 542.806 599.172 542.074C599.58 541.342 600.132 540.772 600.828 540.364C601.536 539.956 602.328 539.752 603.204 539.752C604.08 539.752 604.866 539.956 605.562 540.364C606.258 540.772 606.804 541.342 607.2 542.074C607.596 542.794 607.794 543.622 607.794 544.558L607.776 544.954ZM603.204 540.85C602.292 540.85 601.524 541.144 600.9 541.732C600.288 542.308 599.94 543.064 599.856 544H606.57C606.486 543.064 606.132 542.308 605.508 541.732C604.896 541.144 604.128 540.85 603.204 540.85Z" fill="black"/>
<path d="M618.099 544.954H610.179C610.251 545.938 610.629 546.736 611.313 547.348C611.997 547.948 612.861 548.248 613.905 548.248C614.493 548.248 615.033 548.146 615.525 547.942C616.017 547.726 616.443 547.414 616.803 547.006L617.523 547.834C617.103 548.338 616.575 548.722 615.939 548.986C615.315 549.25 614.625 549.382 613.869 549.382C612.897 549.382 612.033 549.178 611.277 548.77C610.533 548.35 609.951 547.774 609.531 547.042C609.111 546.31 608.901 545.482 608.901 544.558C608.901 543.634 609.099 542.806 609.495 542.074C609.903 541.342 610.455 540.772 611.151 540.364C611.859 539.956 612.651 539.752 613.527 539.752C614.403 539.752 615.189 539.956 615.885 540.364C616.581 540.772 617.127 541.342 617.523 542.074C617.919 542.794 618.117 543.622 618.117 544.558L618.099 544.954ZM613.527 540.85C612.615 540.85 611.847 541.144 611.223 541.732C610.611 542.308 610.263 543.064 610.179 544H616.893C616.809 543.064 616.455 542.308 615.831 541.732C615.219 541.144 614.451 540.85 613.527 540.85Z" fill="black"/>
<path d="M625.057 539.752C625.945 539.752 626.749 539.956 627.469 540.364C628.189 540.76 628.753 541.324 629.161 542.056C629.569 542.788 629.773 543.622 629.773 544.558C629.773 545.506 629.569 546.346 629.161 547.078C628.753 547.81 628.189 548.38 627.469 548.788C626.761 549.184 625.957 549.382 625.057 549.382C624.289 549.382 623.593 549.226 622.969 548.914C622.357 548.59 621.853 548.122 621.457 547.51V552.784H620.179V539.824H621.403V541.696C621.787 541.072 622.291 540.592 622.915 540.256C623.551 539.92 624.265 539.752 625.057 539.752ZM624.967 548.248C625.627 548.248 626.227 548.098 626.767 547.798C627.307 547.486 627.727 547.048 628.027 546.484C628.339 545.92 628.495 545.278 628.495 544.558C628.495 543.838 628.339 543.202 628.027 542.65C627.727 542.086 627.307 541.648 626.767 541.336C626.227 541.024 625.627 540.868 624.967 540.868C624.295 540.868 623.689 541.024 623.149 541.336C622.621 541.648 622.201 542.086 621.889 542.65C621.589 543.202 621.439 543.838 621.439 544.558C621.439 545.278 621.589 545.92 621.889 546.484C622.201 547.048 622.621 547.486 623.149 547.798C623.689 548.098 624.295 548.248 624.967 548.248Z" fill="black"/>
<path d="M644.541 539.824V549.292H643.317V547.564C642.981 548.14 642.519 548.59 641.931 548.914C641.343 549.226 640.671 549.382 639.915 549.382C638.679 549.382 637.701 549.04 636.981 548.356C636.273 547.66 635.919 546.646 635.919 545.314V539.824H637.197V545.188C637.197 546.184 637.443 546.94 637.935 547.456C638.427 547.972 639.129 548.23 640.041 548.23C641.037 548.23 641.823 547.93 642.399 547.33C642.975 546.718 643.263 545.872 643.263 544.792V539.824H644.541Z" fill="black"/>
<path d="M652.458 539.752C653.346 539.752 654.15 539.956 654.87 540.364C655.59 540.76 656.154 541.324 656.562 542.056C656.97 542.788 657.174 543.622 657.174 544.558C657.174 545.506 656.97 546.346 656.562 547.078C656.154 547.81 655.59 548.38 654.87 548.788C654.162 549.184 653.358 549.382 652.458 549.382C651.69 549.382 650.994 549.226 650.37 548.914C649.758 548.59 649.254 548.122 648.858 547.51V552.784H647.58V539.824H648.804V541.696C649.188 541.072 649.692 540.592 650.316 540.256C650.952 539.92 651.666 539.752 652.458 539.752ZM652.368 548.248C653.028 548.248 653.628 548.098 654.168 547.798C654.708 547.486 655.128 547.048 655.428 546.484C655.74 545.92 655.896 545.278 655.896 544.558C655.896 543.838 655.74 543.202 655.428 542.65C655.128 542.086 654.708 541.648 654.168 541.336C653.628 541.024 653.028 540.868 652.368 540.868C651.696 540.868 651.09 541.024 650.55 541.336C650.022 541.648 649.602 542.086 649.29 542.65C648.99 543.202 648.84 543.838 648.84 544.558C648.84 545.278 648.99 545.92 649.29 546.484C649.602 547.048 650.022 547.486 650.55 547.798C651.09 548.098 651.696 548.248 652.368 548.248Z" fill="black"/>
<path d="M668.396 548.716C668.156 548.932 667.856 549.1 667.496 549.22C667.148 549.328 666.782 549.382 666.398 549.382C665.51 549.382 664.826 549.142 664.346 548.662C663.866 548.182 663.626 547.504 663.626 546.628V540.904H661.934V539.824H663.626V537.754H664.904V539.824H667.784V540.904H664.904V546.556C664.904 547.12 665.042 547.552 665.318 547.852C665.606 548.14 666.014 548.284 666.542 548.284C666.806 548.284 667.058 548.242 667.298 548.158C667.55 548.074 667.766 547.954 667.946 547.798L668.396 548.716Z" fill="black"/>
<path d="M675.007 539.752C676.195 539.752 677.137 540.1 677.833 540.796C678.541 541.48 678.895 542.482 678.895 543.802V549.292H677.617V543.928C677.617 542.944 677.371 542.194 676.879 541.678C676.387 541.162 675.685 540.904 674.773 540.904C673.753 540.904 672.943 541.21 672.343 541.822C671.755 542.422 671.461 543.256 671.461 544.324V549.292H670.183V535.936H671.461V541.48C671.809 540.928 672.289 540.502 672.901 540.202C673.513 539.902 674.215 539.752 675.007 539.752Z" fill="black"/>
<path d="M690.104 544.954H682.184C682.256 545.938 682.634 546.736 683.318 547.348C684.002 547.948 684.866 548.248 685.91 548.248C686.498 548.248 687.038 548.146 687.53 547.942C688.022 547.726 688.448 547.414 688.808 547.006L689.528 547.834C689.108 548.338 688.58 548.722 687.944 548.986C687.32 549.25 686.63 549.382 685.874 549.382C684.902 549.382 684.038 549.178 683.282 548.77C682.538 548.35 681.956 547.774 681.536 547.042C681.116 546.31 680.906 545.482 680.906 544.558C680.906 543.634 681.104 542.806 681.5 542.074C681.908 541.342 682.46 540.772 683.156 540.364C683.864 539.956 684.656 539.752 685.532 539.752C686.408 539.752 687.194 539.956 687.89 540.364C688.586 540.772 689.132 541.342 689.528 542.074C689.924 542.794 690.122 543.622 690.122 544.558L690.104 544.954ZM685.532 540.85C684.62 540.85 683.852 541.144 683.228 541.732C682.616 542.308 682.268 543.064 682.184 544H688.898C688.814 543.064 688.46 542.308 687.836 541.732C687.224 541.144 686.456 540.85 685.532 540.85Z" fill="black"/>
<path d="M710.25 539.824L706.668 549.292H705.462L702.474 541.534L699.486 549.292H698.28L694.716 539.824H695.94L698.91 547.87L701.952 539.824H703.05L706.074 547.87L709.08 539.824H710.25Z" fill="black"/>
<path d="M715.24 549.382C714.328 549.382 713.506 549.178 712.774 548.77C712.042 548.35 711.466 547.774 711.046 547.042C710.626 546.31 710.416 545.482 710.416 544.558C710.416 543.634 710.626 542.806 711.046 542.074C711.466 541.342 712.042 540.772 712.774 540.364C713.506 539.956 714.328 539.752 715.24 539.752C716.152 539.752 716.974 539.956 717.706 540.364C718.438 540.772 719.008 541.342 719.416 542.074C719.836 542.806 720.046 543.634 720.046 544.558C720.046 545.482 719.836 546.31 719.416 547.042C719.008 547.774 718.438 548.35 717.706 548.77C716.974 549.178 716.152 549.382 715.24 549.382ZM715.24 548.248C715.912 548.248 716.512 548.098 717.04 547.798C717.58 547.486 718 547.048 718.3 546.484C718.6 545.92 718.75 545.278 718.75 544.558C718.75 543.838 718.6 543.196 718.3 542.632C718 542.068 717.58 541.636 717.04 541.336C716.512 541.024 715.912 540.868 715.24 540.868C714.568 540.868 713.962 541.024 713.422 541.336C712.894 541.636 712.474 542.068 712.162 542.632C711.862 543.196 711.712 543.838 711.712 544.558C711.712 545.278 711.862 545.92 712.162 546.484C712.474 547.048 712.894 547.486 713.422 547.798C713.962 548.098 714.568 548.248 715.24 548.248Z" fill="black"/>
<path d="M723.34 541.678C723.64 541.042 724.084 540.562 724.672 540.238C725.272 539.914 726.01 539.752 726.886 539.752V540.994L726.58 540.976C725.584 540.976 724.804 541.282 724.24 541.894C723.676 542.506 723.394 543.364 723.394 544.468V549.292H722.116V539.824H723.34V541.678Z" fill="black"/>
<path d="M732.17 544.54L729.938 546.592V549.292H728.66V535.936H729.938V544.99L735.59 539.824H737.174L733.124 543.694L737.552 549.292H735.986L732.17 544.54Z" fill="black"/>
<path d="M738.732 536.692H740.244L739.974 545.512H738.984L738.732 536.692ZM739.488 549.382C739.224 549.382 738.996 549.292 738.804 549.112C738.624 548.92 738.534 548.698 738.534 548.446C738.534 548.182 738.624 547.966 738.804 547.798C738.984 547.618 739.212 547.528 739.488 547.528C739.752 547.528 739.974 547.618 740.154 547.798C740.334 547.966 740.424 548.182 740.424 548.446C740.424 548.698 740.334 548.92 740.154 549.112C739.974 549.292 739.752 549.382 739.488 549.382Z" fill="black"/>
</g>
<defs>
<filter id="filter0_d" x="232" y="498.253" width="734.163" height="365.409" filterUnits="userSpaceOnUse" color-interpolation-filters="sRGB">
<feFlood flood-opacity="0" result="BackgroundImageFix"/>
<feColorMatrix in="SourceAlpha" type="matrix" values="0 0 0 0 0 0 0 0 0 0 0 0 0 0 0 0 0 0 127 0"/>
<feOffset dy="4"/>
<feGaussianBlur stdDeviation="2"/>
<feColorMatrix type="matrix" values="0 0 0 0 0 0 0 0 0 0 0 0 0 0 0 0 0 0 0.25 0"/>
<feBlend mode="normal" in2="BackgroundImageFix" result="effect1_dropShadow"/>
<feBlend mode="normal" in="SourceGraphic" in2="effect1_dropShadow" result="shape"/>
</filter>
</defs>
</svg>
