<svg width="825" height="534" viewBox="0 0 825 534" fill="none" xmlns="http://www.w3.org/2000/svg">
<path d="M825 534H0V0H825V534ZM1.77994 532H823.22V2H1.77994V532Z" fill="#2F2E41" fill-opacity="0.1"/>
<path d="M651.546 393.07C643.011 418.046 631.163 442.724 614.988 465.853C614.63 466.375 614.266 466.885 613.899 467.403L565.403 452.572C565.613 452.071 565.842 451.51 566.087 450.898C580.711 414.782 668.679 194.653 658.243 149.216C659.231 152.945 691.498 276.322 651.546 393.07Z" fill="#E6E6E6"/>
<path d="M624.344 468.714C623.762 469.167 623.162 469.615 622.557 470.051L586.176 458.924C586.602 458.518 587.098 458.039 587.67 457.498C597.004 448.509 624.731 421.579 651.546 393.07C680.363 362.434 708.134 329.981 710.922 316.015C710.406 319.199 694.092 416.1 624.344 468.714Z" fill="#E6E6E6"/>
<path d="M239.007 508C276.015 508 306.015 505.035 306.015 501.378C306.015 497.721 276.015 494.756 239.007 494.756C202 494.756 172 497.721 172 501.378C172 505.035 202 508 239.007 508Z" fill="#E6E6E6"/>
<path d="M284.223 360.062C282.98 359.961 281.774 359.593 280.688 358.982C279.601 358.372 278.661 357.534 277.93 356.525C277.2 355.517 276.697 354.362 276.456 353.141C276.216 351.92 276.244 350.662 276.537 349.452L282.542 324.73H293.545V351.481C293.545 352.67 293.298 353.846 292.82 354.936C292.342 356.025 291.643 357.003 290.767 357.81C289.891 358.616 288.858 359.232 287.731 359.62C286.605 360.007 285.41 360.158 284.223 360.062V360.062Z" fill="#A0616A"/>
<path d="M275.469 197.383C264.582 199.414 253.534 200.464 242.459 200.521C231.944 200.534 221.441 199.835 211.021 198.429C211.021 198.429 212.593 139.332 242.459 140.378C274.47 141.499 275.469 197.383 275.469 197.383Z" fill="#2F2E41"/>
<path d="M242.459 151.36C247.668 151.36 251.89 147.146 251.89 141.947C251.89 136.748 247.668 132.533 242.459 132.533C237.25 132.533 233.027 136.748 233.027 141.947C233.027 147.146 237.25 151.36 242.459 151.36Z" fill="#2F2E41"/>
<path d="M261.321 479.272L274.42 480.841L282.018 378.859L258.964 385.658L261.321 479.272Z" fill="#A0616A"/>
<path d="M218.094 473.781L205.257 479.273L197.136 378.075L220.19 384.873L218.094 473.781Z" fill="#A0616A"/>
<path d="M242.244 191.064C252.772 191.064 261.307 182.545 261.307 172.037C261.307 161.528 252.772 153.01 242.244 153.01C231.716 153.01 223.181 161.528 223.181 172.037C223.181 182.545 231.716 191.064 242.244 191.064Z" fill="#A0616A"/>
<path d="M259.75 253.865H228.836V208.061C236.653 202.938 233.896 193.799 228.836 183.785L256.344 183.001C252.222 195.315 253.658 204.535 265.251 208.104L259.75 253.865Z" fill="#A0616A"/>
<path d="M289.353 393.764C273.986 388.856 262.567 394.625 253.724 407.362L243.768 368.661L229.097 400.563C216.416 386.68 200.694 381.204 182.989 381.212C185.179 338.197 192.368 304.547 211.283 276.615C212.964 274.133 213.583 265.834 215.474 263.541L204.183 228.208C204.594 225.239 205.73 222.416 207.49 219.988C209.251 217.559 211.582 215.6 214.279 214.282L231.193 206.012L245.34 229.547L257.915 203.92L279.112 210.837C280.881 211.414 282.427 212.525 283.537 214.016C284.647 215.507 285.266 217.305 285.309 219.162L268.395 283.937C265.143 312.334 275.095 351.322 289.353 393.764Z" fill="#2F2E41"/>
<path d="M295.117 328.391L278.874 326.299L270.49 266.156L272.586 208.627L277.679 209.589C281.733 210.354 285.404 212.477 288.086 215.607C290.769 218.736 292.301 222.685 292.431 226.801L295.117 328.391Z" fill="#2F2E41"/>
<path d="M182.744 360.493C183.959 360.772 185.22 360.784 186.44 360.53C187.661 360.275 188.811 359.76 189.813 359.019C190.814 358.278 191.643 357.329 192.242 356.238C192.841 355.146 193.195 353.938 193.281 352.697L195.041 327.319L184.551 324.001L176.455 349.502C176.095 350.635 175.974 351.831 176.1 353.013C176.226 354.196 176.596 355.34 177.187 356.372C177.778 357.405 178.577 358.304 179.533 359.013C180.49 359.722 181.583 360.226 182.744 360.493Z" fill="#A0616A"/>
<path d="M195.564 329.96L182.989 326.822L200.14 228.862C200.657 225.906 201.966 223.145 203.928 220.872C205.89 218.599 208.431 216.898 211.283 215.949L215.474 257.788L195.564 329.96Z" fill="#2F2E41"/>
<path d="M226.62 167.573H257.215L258.325 161.405C258.613 159.802 258.543 158.156 258.119 156.583C257.695 155.01 256.928 153.551 255.873 152.308C254.819 151.066 253.502 150.072 252.017 149.397C250.532 148.722 248.916 148.383 247.284 148.405L235.821 148.553C234.14 148.575 232.485 148.979 230.983 149.734C229.482 150.49 228.172 151.577 227.154 152.913C226.136 154.249 225.436 155.799 225.108 157.445C224.78 159.091 224.832 160.79 225.26 162.414L226.62 167.573Z" fill="#2F2E41"/>
<path d="M213.348 504.085C211.12 504.085 208.954 503.352 207.186 502C205.418 500.647 204.146 498.751 203.567 496.604L202.662 493.25C202.448 492.455 202.384 491.628 202.472 490.81L204.194 474.917C207.476 470.855 212.249 469.876 219.037 473.065L223.232 491.767C223.563 493.245 223.558 494.78 223.215 496.256C222.873 497.732 222.202 499.113 221.253 500.295C220.305 501.478 219.101 502.433 217.733 503.089C216.364 503.745 214.866 504.085 213.348 504.085V504.085Z" fill="#2F2E41"/>
<path d="M269.936 504.085C267.709 504.085 265.543 503.352 263.775 502C262.007 500.647 260.735 498.751 260.156 496.604L259.251 493.25C259.037 492.455 258.972 491.628 259.061 490.81L260.782 474.917C264.065 470.855 268.838 469.876 275.626 473.065L279.821 491.767C280.152 493.245 280.147 494.78 279.804 496.256C279.462 497.732 278.791 499.113 277.842 500.295C276.893 501.478 275.69 502.433 274.322 503.089C272.953 503.745 271.455 504.085 269.936 504.085V504.085Z" fill="#2F2E41"/>
<path d="M244.03 257.004C246.635 257.004 248.746 254.896 248.746 252.297C248.746 249.697 246.635 247.59 244.03 247.59C241.426 247.59 239.314 249.697 239.314 252.297C239.314 254.896 241.426 257.004 244.03 257.004Z" fill="#E6E6E6"/>
<path d="M244.03 276.877C246.635 276.877 248.746 274.77 248.746 272.17C248.746 269.57 246.635 267.463 244.03 267.463C241.426 267.463 239.314 269.57 239.314 272.17C239.314 274.77 241.426 276.877 244.03 276.877Z" fill="#E6E6E6"/>
<path d="M244.03 296.75C246.635 296.75 248.746 294.643 248.746 292.044C248.746 289.444 246.635 287.337 244.03 287.337C241.426 287.337 239.314 289.444 239.314 292.044C239.314 294.643 241.426 296.75 244.03 296.75Z" fill="#E6E6E6"/>
<path d="M628.834 136.524H626.18V63.9834C626.18 52.8487 621.749 42.1701 613.861 34.2967C605.972 26.4232 595.274 22 584.118 22H430.143C418.987 22 408.288 26.4232 400.4 34.2967C392.512 42.1701 388.081 52.8487 388.081 63.9834V461.948C388.081 473.083 392.512 483.761 400.4 491.635C408.288 499.508 418.987 503.931 430.143 503.931H584.118C595.273 503.931 605.972 499.508 613.86 491.635C621.748 483.761 626.18 473.083 626.18 461.948V188.16H628.833L628.834 136.524Z" fill="#3F3D56"/>
<path d="M585.815 32.9216H565.716C566.641 35.1836 566.994 37.6379 566.745 40.0683C566.495 42.4986 565.651 44.8304 564.285 46.8582C562.92 48.8859 561.076 50.5474 558.916 51.6962C556.756 52.845 554.346 53.4459 551.898 53.4458H463.688C461.241 53.4456 458.831 52.8447 456.671 51.696C454.511 50.5472 452.667 48.8859 451.302 46.8585C449.937 44.831 449.093 42.4995 448.843 40.0695C448.593 37.6395 448.946 35.1855 449.87 32.9236H431.095C422.764 32.9236 414.774 36.227 408.883 42.1069C402.992 47.9869 399.683 55.9619 399.683 64.2774V64.2774V461.656C399.683 469.972 402.992 477.947 408.883 483.827C414.774 489.706 422.764 493.01 431.095 493.01H585.809C594.14 493.01 602.13 489.706 608.021 483.827C613.912 477.947 617.222 469.972 617.222 461.656V461.656V64.2755C617.222 55.9599 613.912 47.9849 608.021 42.105C602.13 36.225 594.14 32.9216 585.809 32.9216H585.815V32.9216Z" fill="white"/>
<path d="M508.721 457.559C518.248 457.559 525.971 449.851 525.971 440.342C525.971 430.833 518.248 423.125 508.721 423.125C499.195 423.125 491.472 430.833 491.472 440.342C491.472 449.851 499.195 457.559 508.721 457.559Z" fill="#E6E6E6"/>
<path d="M603.819 240.831H413.085V278.418H603.819V240.831Z" fill="#E6E6E6"/>
<path d="M417.152 274.359H599.753V244.891H417.152V274.359Z" fill="white"/>
<path d="M433.137 248.153C435.361 248.153 437.536 248.812 439.386 250.045C441.236 251.279 442.678 253.032 443.529 255.084C444.38 257.136 444.603 259.393 444.169 261.571C443.735 263.749 442.664 265.75 441.091 267.32C439.517 268.89 437.513 269.959 435.331 270.393C433.149 270.826 430.887 270.603 428.832 269.754C426.776 268.904 425.02 267.465 423.784 265.618C422.548 263.772 421.888 261.601 421.888 259.381C421.888 257.906 422.179 256.446 422.744 255.084C423.31 253.722 424.138 252.484 425.183 251.442C426.227 250.399 427.467 249.572 428.832 249.008C430.197 248.443 431.659 248.153 433.137 248.153V248.153Z" fill="#E85654"/>
<path d="M571.052 254.987H460.035V257.428H571.052V254.987Z" fill="#E6E6E6"/>
<path d="M571.052 261.333H460.035V263.774H571.052V261.333Z" fill="#E6E6E6"/>
<path d="M603.819 294.469H413.085V332.056H603.819V294.469Z" fill="#E6E6E6"/>
<path d="M417.152 327.997H599.753V298.53H417.152V327.997Z" fill="white"/>
<path d="M433.137 324.246C439.349 324.246 444.385 319.219 444.385 313.019C444.385 306.818 439.349 301.791 433.137 301.791C426.924 301.791 421.888 306.818 421.888 313.019C421.888 319.219 426.924 324.246 433.137 324.246Z" fill="#E85654"/>
<path d="M571.052 308.625H460.035V311.066H571.052V308.625Z" fill="#E6E6E6"/>
<path d="M571.052 314.971H460.035V317.412H571.052V314.971Z" fill="#E6E6E6"/>
<path d="M603.819 348.107H413.085V385.694H603.819V348.107Z" fill="#E6E6E6"/>
<path d="M417.152 381.636H599.753V352.168H417.152V381.636Z" fill="white"/>
<path d="M433.137 377.884C439.349 377.884 444.385 372.858 444.385 366.657C444.385 360.456 439.349 355.429 433.137 355.429C426.924 355.429 421.888 360.456 421.888 366.657C421.888 372.858 426.924 377.884 433.137 377.884Z" fill="#E85654"/>
<path d="M571.052 362.263H460.035V364.704H571.052V362.263Z" fill="#E6E6E6"/>
<path d="M571.052 368.609H460.035V371.05H571.052V368.609Z" fill="#E6E6E6"/>
<path d="M508.452 203.388C537.765 203.388 561.527 179.67 561.527 150.412C561.527 121.155 537.765 97.4365 508.452 97.4365C479.14 97.4365 455.377 121.155 455.377 150.412C455.377 179.67 479.14 203.388 508.452 203.388Z" fill="#E85654"/>
<g opacity="0.5">
<g opacity="0.5">
<mask id="path-41-inside-1" fill="white">
<path d="M543.802 167.791H543.498V169.514H543.802V167.791Z"/>
</mask>
<path d="M543.802 167.791H543.498V169.514H543.802V167.791Z" fill="#47E6B1"/>
<path d="M543.498 167.791V166.791H542.498V167.791H543.498ZM543.802 167.791H544.802V166.791H543.802V167.791ZM543.802 169.514V170.514H544.802V169.514H543.802ZM543.498 169.514H542.498V170.514H543.498V169.514ZM543.498 168.791H543.802V166.791H543.498V168.791ZM542.802 167.791V169.514H544.802V167.791H542.802ZM543.802 168.514H543.498V170.514H543.802V168.514ZM544.498 169.514V167.791H542.498V169.514H544.498Z" fill="black" mask="url(#path-41-inside-1)"/>
</g>
<g opacity="0.5">
<mask id="path-43-inside-2" fill="white">
<path d="M544.513 168.805V168.5H542.787V168.805H544.513Z"/>
</mask>
<path d="M544.513 168.805V168.5H542.787V168.805H544.513Z" fill="#47E6B1"/>
<path d="M544.513 168.5H545.513V167.5H544.513V168.5ZM544.513 168.805V169.805H545.513V168.805H544.513ZM542.787 168.805H541.787V169.805H542.787V168.805ZM542.787 168.5V167.5H541.787V168.5H542.787ZM543.513 168.5V168.805H545.513V168.5H543.513ZM544.513 167.805H542.787V169.805H544.513V167.805ZM543.787 168.805V168.5H541.787V168.805H543.787ZM542.787 169.5H544.513V167.5H542.787V169.5Z" fill="black" mask="url(#path-43-inside-2)"/>
</g>
</g>
<g opacity="0.5">
<g opacity="0.5">
<mask id="path-45-inside-3" fill="white">
<path d="M543.923 117.171H543.618V118.894H543.923V117.171Z"/>
</mask>
<path d="M543.923 117.171H543.618V118.894H543.923V117.171Z" fill="#47E6B1"/>
<path d="M543.618 117.171V116.171H542.618V117.171H543.618ZM543.923 117.171H544.923V116.171H543.923V117.171ZM543.923 118.894V119.894H544.923V118.894H543.923ZM543.618 118.894H542.618V119.894H543.618V118.894ZM543.618 118.171H543.923V116.171H543.618V118.171ZM542.923 117.171V118.894H544.923V117.171H542.923ZM543.923 117.894H543.618V119.894H543.923V117.894ZM544.618 118.894V117.171H542.618V118.894H544.618Z" fill="black" mask="url(#path-45-inside-3)"/>
</g>
<g opacity="0.5">
<mask id="path-47-inside-4" fill="white">
<path d="M544.634 118.185V117.88H542.907V118.185H544.634Z"/>
</mask>
<path d="M544.634 118.185V117.88H542.907V118.185H544.634Z" fill="#47E6B1"/>
<path d="M544.634 117.88H545.634V116.88H544.634V117.88ZM544.634 118.185V119.185H545.634V118.185H544.634ZM542.907 118.185H541.907V119.185H542.907V118.185ZM542.907 117.88V116.88H541.907V117.88H542.907ZM543.634 117.88V118.185H545.634V117.88H543.634ZM544.634 117.185H542.907V119.185H544.634V117.185ZM543.907 118.185V117.88H541.907V118.185H543.907ZM542.907 118.88H544.634V116.88H542.907V118.88Z" fill="black" mask="url(#path-47-inside-4)"/>
</g>
</g>
<g opacity="0.5">
<g opacity="0.5">
<mask id="path-49-inside-5" fill="white">
<path d="M493.966 100.814H493.662V102.538H493.966V100.814Z"/>
</mask>
<path d="M493.966 100.814H493.662V102.538H493.966V100.814Z" fill="#47E6B1"/>
<path d="M493.662 100.814V99.8142H492.662V100.814H493.662ZM493.966 100.814H494.966V99.8142H493.966V100.814ZM493.966 102.538V103.538H494.966V102.538H493.966ZM493.662 102.538H492.662V103.538H493.662V102.538ZM493.662 101.814H493.966V99.8142H493.662V101.814ZM492.966 100.814V102.538H494.966V100.814H492.966ZM493.966 101.538H493.662V103.538H493.966V101.538ZM494.662 102.538V100.814H492.662V102.538H494.662Z" fill="black" mask="url(#path-49-inside-5)"/>
</g>
<g opacity="0.5">
<mask id="path-51-inside-6" fill="white">
<path d="M494.677 101.829V101.524H492.95V101.829H494.677Z"/>
</mask>
<path d="M494.677 101.829V101.524H492.95V101.829H494.677Z" fill="#47E6B1"/>
<path d="M494.677 101.524H495.677V100.524H494.677V101.524ZM494.677 101.829V102.829H495.677V101.829H494.677ZM492.95 101.829H491.95V102.829H492.95V101.829ZM492.95 101.524V100.524H491.95V101.524H492.95ZM493.677 101.524V101.829H495.677V101.524H493.677ZM494.677 100.829H492.95V102.829H494.677V100.829ZM493.95 101.829V101.524H491.95V101.829H493.95ZM492.95 102.524H494.677V100.524H492.95V102.524Z" fill="black" mask="url(#path-51-inside-6)"/>
</g>
</g>
<path opacity="0.5" d="M474.463 126.061L474.48 126.072L474.487 126.076L474.514 126.094L474.522 126.099L474.606 126.152C474.604 126.162 474.602 126.172 474.601 126.183L474.45 126.071L474.438 126.062L474.437 126.061L474.437 126.061L474.434 126.059L474.434 126.059M474.463 126.061L474.623 126.074L474.443 126.048L474.442 126.048L474.442 126.048L474.441 126.047M474.463 126.061L474.446 126.06L474.442 126.059L474.438 126.059L474.434 126.059M474.463 126.061L474.442 126.048L474.442 126.048L474.442 126.048L474.441 126.047M474.441 126.047L474.287 125.95L474.413 126.043M474.441 126.047L474.413 126.043M474.413 126.043L474.389 126.04L474.387 126.039L474.373 126.037L474.346 126.033L474.25 126.019C474.246 126.027 474.241 126.035 474.236 126.042L474.425 126.058L474.428 126.058L474.43 126.058L474.433 126.059L474.434 126.059M474.413 126.043L474.429 126.055L474.429 126.056L474.434 126.059M474.751 126.723L474.767 126.536C474.774 126.54 474.782 126.545 474.79 126.55L474.776 126.643L474.772 126.671L474.769 126.688L474.769 126.691L474.766 126.714L474.762 126.741L474.762 126.741L474.762 126.742L474.761 126.742L474.735 126.922L474.748 126.764L474.749 126.746L474.75 126.739L474.75 126.737L474.75 126.734L474.75 126.734L474.751 126.731L474.751 126.725L474.751 126.723ZM473.886 127.034L474.046 127.047L474.063 127.048L474.067 127.049L474.071 127.049L474.075 127.049L474.076 127.049L474.079 127.049L474.081 127.05L474.084 127.05L474.273 127.066C474.268 127.073 474.263 127.081 474.259 127.089L474.163 127.075L474.136 127.071L474.122 127.069L474.12 127.068L474.096 127.065L474.068 127.061L474.067 127.06L474.066 127.06L474.066 127.06L473.886 127.034ZM473.758 126.385L473.742 126.572C473.735 126.567 473.727 126.563 473.719 126.558L473.733 126.465L473.737 126.437L473.739 126.42L473.74 126.417L473.743 126.394L473.747 126.367L473.747 126.367L473.747 126.366L473.747 126.366L473.774 126.186L473.761 126.344L473.76 126.362L473.759 126.369L473.759 126.371L473.759 126.374L473.759 126.374L473.758 126.377L473.758 126.383L473.758 126.385Z" fill="#4D8AF0" stroke="black"/>
<path opacity="0.5" d="M479.37 160.952L479.276 161.079L479.373 160.924L479.373 160.924L479.373 160.924L479.374 160.923M479.37 160.952L479.366 160.975L479.366 160.977L479.363 160.995L479.359 161.022L479.345 161.116C479.353 161.12 479.361 161.125 479.369 161.13L479.384 160.942L479.384 160.94L479.385 160.934L479.385 160.931M479.37 160.952L479.374 160.925L479.374 160.924L479.374 160.924L479.374 160.923M479.37 160.952L479.381 160.937L479.383 160.934L479.385 160.931L479.385 160.931M479.385 160.931L479.387 160.929L479.388 160.928L479.388 160.927L479.396 160.916L479.508 160.765C479.497 160.764 479.487 160.763 479.476 160.76L479.425 160.843L479.419 160.851L479.404 160.876L479.399 160.883L479.387 160.902M479.385 160.931L479.385 160.931L479.385 160.929L479.385 160.926L479.386 160.92L479.387 160.902M479.387 160.902L479.401 160.743L479.374 160.923M479.387 160.902L479.374 160.923M480.254 161.458C480.265 161.459 480.275 161.461 480.285 161.463L480.337 161.38L480.342 161.372L480.358 161.348L480.362 161.34L480.374 161.321L480.388 161.3L480.388 161.299L480.389 161.299L480.389 161.299L480.486 161.144L480.392 161.271L480.381 161.286L480.379 161.289L480.377 161.292L480.377 161.292L480.375 161.294L480.374 161.295L480.374 161.296L480.366 161.307L480.254 161.458ZM479.848 161.715L479.694 161.618L479.693 161.618L479.693 161.618L479.693 161.617L479.672 161.604L479.656 161.594L479.648 161.589L479.621 161.572L479.613 161.567L479.529 161.514C479.532 161.504 479.533 161.493 479.534 161.483L479.686 161.595L479.698 161.604L479.698 161.604L479.699 161.605L479.701 161.607L479.702 161.607L479.706 161.61L479.706 161.61L479.723 161.622L479.848 161.715ZM479.914 160.508L480.068 160.605L480.069 160.606L480.069 160.606L480.069 160.606L480.089 160.619L480.106 160.629L480.114 160.634L480.141 160.651L480.149 160.656L480.232 160.709C480.23 160.72 480.229 160.73 480.228 160.741L480.076 160.628L480.064 160.619L480.064 160.619L480.063 160.619L480.061 160.617L480.06 160.616L480.056 160.613L480.056 160.613L480.039 160.601L479.914 160.508Z" fill="#4D8AF0" stroke="black"/>
<path opacity="0.5" d="M530.542 115.14L530.554 115.121L530.559 115.114L530.574 115.089L530.579 115.081L530.631 114.999C530.642 115.001 530.652 115.003 530.662 115.004L530.551 115.155L530.543 115.165L530.542 115.166L530.541 115.168L530.54 115.17M530.542 115.14L530.555 114.982L530.529 115.162M530.542 115.14L530.541 115.158L530.54 115.165L530.54 115.167L530.54 115.17L530.54 115.17M530.542 115.14L530.529 115.162M530.529 115.162L530.528 115.163L530.528 115.163L530.528 115.163L530.431 115.317L530.524 115.191M530.529 115.162L530.529 115.162L530.529 115.163L530.528 115.163L530.524 115.191M530.524 115.191L530.521 115.213L530.521 115.216L530.518 115.233L530.514 115.261L530.5 115.354C530.508 115.359 530.516 115.364 530.523 115.369L530.539 115.181L530.539 115.179L530.54 115.173L530.54 115.17M530.524 115.191L530.536 115.175L530.538 115.173L530.54 115.17L530.54 115.17M531.532 115.53L531.534 115.527L531.536 115.525L531.547 115.51L531.641 115.383L531.543 115.537L531.543 115.538L531.543 115.538L531.543 115.538L531.529 115.56L531.517 115.579L531.513 115.586L531.497 115.611M531.532 115.53L531.535 115.523L531.536 115.519L531.55 115.487L531.604 115.362L531.551 115.484L531.539 115.511L531.534 115.522L531.532 115.528L531.53 115.532L531.529 115.534M531.532 115.53L531.532 115.531L531.531 115.533L531.526 115.543L531.525 115.547L531.497 115.611M531.532 115.53L531.532 115.53L531.53 115.532L531.529 115.534M531.529 115.534L531.528 115.535L531.521 115.545L531.409 115.696C531.42 115.697 531.43 115.699 531.44 115.701L531.492 115.619M531.529 115.534L531.527 115.538L531.525 115.544L531.492 115.619M531.492 115.619L531.455 115.704C531.455 115.705 531.456 115.705 531.457 115.705L531.497 115.611M531.492 115.619L531.497 115.611M531.032 114.815C531.027 114.823 531.022 114.831 531.017 114.839L531.207 114.854L531.209 114.854L531.212 114.855L531.215 114.855L531.215 114.855L531.219 114.855L531.223 114.856L531.227 114.856L531.244 114.857L531.405 114.871L531.224 114.844L531.224 114.844L531.223 114.844L531.223 114.844L531.194 114.839L531.171 114.836L531.168 114.835L531.155 114.834L531.127 114.829L531.032 114.815ZM530.689 115.721C530.688 115.732 530.686 115.742 530.684 115.753L530.768 115.805L530.776 115.81L530.803 115.828L530.81 115.832L530.827 115.843L530.848 115.856L530.848 115.856L530.848 115.856L530.849 115.857L531.003 115.954L530.877 115.861L530.861 115.849L530.861 115.848L530.856 115.845L530.856 115.845L530.853 115.843L530.853 115.843L530.853 115.842L530.84 115.833L530.689 115.721Z" fill="#4D8AF0" stroke="black"/>
<path opacity="0.5" d="M529.86 123.396L529.872 123.377L529.877 123.37L529.892 123.346L529.898 123.337L529.949 123.255C529.96 123.257 529.97 123.259 529.981 123.26L529.869 123.411L529.861 123.421L529.86 123.423L529.859 123.424L529.858 123.426M529.86 123.396L529.873 123.238L529.847 123.418M529.86 123.396L529.859 123.414L529.858 123.421L529.858 123.423L529.858 123.426L529.858 123.426M529.86 123.396L529.847 123.418M529.847 123.418L529.846 123.419L529.846 123.419L529.846 123.419L529.749 123.573L529.843 123.447M529.847 123.418L529.847 123.419L529.847 123.419L529.847 123.419L529.843 123.447M529.843 123.447L529.839 123.469L529.839 123.472L529.836 123.489L529.832 123.517L529.818 123.611C529.826 123.615 529.834 123.62 529.842 123.625L529.857 123.437L529.857 123.435L529.858 123.429L529.858 123.426M529.843 123.447L529.854 123.432L529.856 123.429L529.858 123.426L529.858 123.426M530.145 124.099L530.129 124.088L530.121 124.084L530.094 124.067L530.086 124.061L530.002 124.009C530.004 123.998 530.006 123.988 530.007 123.977L530.159 124.09L530.171 124.099L530.171 124.099L530.172 124.099L530.174 124.101L530.175 124.101M530.145 124.099L529.985 124.086L530.165 124.113L530.166 124.113L530.166 124.113L530.167 124.113M530.145 124.099L530.162 124.1L530.167 124.101L530.17 124.101L530.175 124.101M530.145 124.099L530.166 124.112L530.166 124.112L530.166 124.112L530.167 124.113M530.167 124.113L530.321 124.21L530.196 124.117M530.167 124.113L530.196 124.117M530.196 124.117L530.219 124.12L530.222 124.121L530.235 124.123L530.262 124.127L530.358 124.141C530.362 124.133 530.367 124.125 530.372 124.118L530.183 124.102L530.181 124.102L530.178 124.102L530.175 124.101L530.175 124.101M530.196 124.117L530.179 124.105L530.179 124.105L530.175 124.101M530.85 123.787L530.849 123.789L530.844 123.8L530.843 123.803L530.815 123.867L530.775 123.961C530.774 123.961 530.774 123.961 530.773 123.961L530.81 123.875L530.843 123.8L530.846 123.794L530.847 123.79L530.848 123.788L530.85 123.784M530.85 123.787L530.85 123.789L530.849 123.792L530.849 123.798L530.847 123.816L530.834 123.974L530.861 123.795L530.861 123.794L530.861 123.793L530.861 123.793L530.865 123.766L530.868 123.743M530.85 123.787L530.85 123.787L530.85 123.784M530.85 123.787L530.85 123.786L530.853 123.779L530.855 123.776L530.868 123.743M530.868 123.743L530.922 123.618L530.869 123.74M530.868 123.743L530.869 123.74M530.869 123.74L530.871 123.723L530.875 123.696L530.889 123.602C530.881 123.597 530.874 123.593 530.866 123.588L530.851 123.775L530.85 123.778L530.85 123.784M530.869 123.74L530.857 123.767L530.852 123.778L530.85 123.784M530.622 123.151L530.705 123.204C530.703 123.214 530.702 123.225 530.7 123.235L530.549 123.123L530.537 123.114L530.537 123.114L530.536 123.113L530.533 123.111L530.533 123.111L530.529 123.108L530.529 123.108L530.512 123.095L530.387 123.002L530.541 123.1L530.541 123.1L530.542 123.1L530.542 123.1L530.562 123.113L530.579 123.124L530.587 123.129L530.614 123.146L530.622 123.151Z" fill="#4D8AF0" stroke="black"/>
<path opacity="0.5" d="M545.97 139.431L545.97 139.431L545.967 139.431L545.964 139.431L545.962 139.43L545.773 139.415C545.778 139.407 545.782 139.399 545.787 139.391L545.883 139.406L545.91 139.41L545.923 139.412L545.926 139.412L545.949 139.416M545.97 139.431L545.971 139.431L545.973 139.433L545.974 139.434L545.974 139.434L545.986 139.443L546.138 139.555C546.139 139.545 546.141 139.534 546.143 139.524L546.059 139.471L546.051 139.466L546.024 139.449L546.016 139.444L546 139.433M545.97 139.431L545.966 139.428L545.966 139.428L545.949 139.416M545.97 139.431L545.975 139.431L545.978 139.432L545.983 139.432L546 139.433M546 139.433L546.16 139.447L545.979 139.42L545.979 139.42L545.979 139.42L545.978 139.42M546 139.433L545.979 139.42L545.979 139.42L545.979 139.42L545.978 139.42M545.978 139.42L545.824 139.323L545.949 139.416M545.978 139.42L545.949 139.416M545.294 139.757L545.279 139.945C545.271 139.94 545.264 139.935 545.256 139.931L545.269 139.837L545.274 139.809L545.276 139.791L545.276 139.789L545.28 139.767L545.284 139.74L545.284 139.739L545.284 139.739L545.284 139.738L545.311 139.558L545.298 139.716L545.296 139.735L545.296 139.741L545.295 139.743L545.295 139.746L545.295 139.746L545.295 139.748L545.294 139.755L545.294 139.757ZM546.265 140.106L546.271 140.099L546.267 140.107L546.252 140.134L546.173 140.278C546.152 140.275 546.131 140.274 546.11 140.275L546.233 140.14L546.265 140.106ZM546.306 140.061L546.395 139.964L546.298 140.118L546.298 140.118L546.298 140.118L546.297 140.119L546.284 140.141L546.272 140.16L546.267 140.167L546.243 140.205L546.278 140.125L546.283 140.113L546.284 140.11L546.287 140.105L546.288 140.102L546.297 140.082L546.306 140.061L546.306 140.061ZM545.444 140.302C545.443 140.313 545.441 140.323 545.439 140.334L545.522 140.386L545.53 140.391L545.563 140.412L545.565 140.413L545.582 140.424L545.602 140.437L545.602 140.437L545.603 140.437L545.603 140.437L545.757 140.535L545.632 140.442L545.615 140.429L545.615 140.429L545.614 140.428L545.611 140.426L545.611 140.426L545.607 140.423L545.607 140.423L545.595 140.414L545.444 140.302Z" fill="#4D8AF0" stroke="black"/>
<path opacity="0.5" d="M474.983 112.675C474.983 112.734 474.935 112.783 474.874 112.783C474.812 112.783 474.764 112.734 474.764 112.675C474.764 112.616 474.812 112.567 474.874 112.567C474.935 112.567 474.983 112.616 474.983 112.675Z" fill="#F55F44" stroke="black"/>
<path opacity="0.5" d="M470.515 156.364C470.515 156.423 470.467 156.472 470.406 156.472C470.344 156.472 470.296 156.423 470.296 156.364C470.296 156.305 470.344 156.256 470.406 156.256C470.467 156.256 470.515 156.305 470.515 156.364Z" fill="#F55F44" stroke="black"/>
<path opacity="0.5" d="M509.565 101.674C509.565 101.733 509.517 101.783 509.455 101.783C509.394 101.783 509.346 101.733 509.346 101.674C509.346 101.615 509.394 101.566 509.455 101.566C509.517 101.566 509.565 101.615 509.565 101.674Z" fill="#F55F44" stroke="black"/>
<path opacity="0.5" d="M469.94 141.224C469.94 141.283 469.892 141.332 469.831 141.332C469.769 141.332 469.721 141.283 469.721 141.224C469.721 141.165 469.769 141.116 469.831 141.116C469.892 141.116 469.94 141.165 469.94 141.224Z" fill="#F55F44" stroke="black"/>
<path opacity="0.5" d="M493.81 111.69C493.81 111.749 493.762 111.798 493.701 111.798C493.639 111.798 493.591 111.749 493.591 111.69C493.591 111.631 493.639 111.582 493.701 111.582C493.762 111.582 493.81 111.631 493.81 111.69Z" fill="#47E6B1" stroke="black"/>
<path opacity="0.5" d="M535.732 152.1C535.732 152.159 535.684 152.209 535.622 152.209C535.561 152.209 535.513 152.159 535.513 152.1C535.513 152.041 535.561 151.992 535.622 151.992C535.684 151.992 535.732 152.041 535.732 152.1Z" fill="#F55F44" stroke="black"/>
<g opacity="0.5">
<path opacity="0.5" d="M506.583 118.795C505.18 117.354 503.47 116.398 501.772 116.081L501.771 116.081C499.959 115.739 498.405 116.161 497.343 117.189C496.28 118.217 495.812 119.754 496.094 121.568L496.094 121.568C496.358 123.279 497.258 125.014 498.659 126.456L498.66 126.456C500.061 127.899 502.201 128.37 504.109 128.448C506 128.526 507.553 128.212 507.663 128.188L507.667 128.188L507.667 128.188L507.744 128.172L507.849 128.151L507.954 128.175L508.189 128.228C508.189 128.228 508.19 128.228 508.19 128.228C508.307 128.255 509.851 128.594 511.739 128.549C513.648 128.504 515.795 128.069 517.221 126.651L517.221 126.651C518.645 125.235 519.579 123.511 519.873 121.81C520.185 119.999 519.743 118.453 518.699 117.408C517.655 116.362 516.108 115.917 514.286 116.223L506.583 118.795ZM506.583 118.795C506.978 119.206 507.306 119.677 507.556 120.189L507.993 121.081L508.45 120.199C508.707 119.703 509.038 119.25 509.432 118.854C510.852 117.438 512.582 116.511 514.286 116.223L506.583 118.795ZM507.16 127.297L506.794 127.346C506.034 127.449 504.696 127.571 503.302 127.421C501.921 127.273 500.398 126.849 499.36 125.781L499.36 125.781C498.122 124.506 497.293 122.962 497.055 121.421L507.16 127.297ZM507.16 127.297L507.22 126.933M507.16 127.297L507.22 126.933M507.22 126.933C507.346 126.18 507.511 124.849 507.405 123.453C507.3 122.07 506.923 120.536 505.886 119.465L505.885 119.464C504.646 118.19 503.127 117.315 501.592 117.029C500.729 116.867 499.911 116.905 499.201 117.156C498.76 117.309 498.357 117.555 498.021 117.878L498.021 117.878M507.22 126.933L498.021 117.878M498.021 117.878L498.018 117.881M498.021 117.878L498.018 117.881M498.018 117.881C497.143 118.731 496.836 120.015 497.055 121.421L498.018 117.881ZM516.533 125.963C517.792 124.71 518.648 123.183 518.913 121.646L518.913 121.646C519.155 120.245 518.873 118.957 518.01 118.089L518.008 118.086C517.677 117.758 517.279 117.504 516.841 117.344C516.135 117.081 515.317 117.03 514.452 117.175L514.452 117.175C512.912 117.436 511.378 118.283 510.118 119.537L510.118 119.537C509.062 120.588 508.659 122.115 508.53 123.495C508.399 124.889 508.541 126.223 508.654 126.98L508.709 127.345L509.074 127.401C509.831 127.516 511.167 127.662 512.563 127.536C513.946 127.412 515.477 127.014 516.533 125.963L516.533 125.963Z" fill="url(#paint0_linear)" stroke="black"/>
</g>
<path d="M508.009 127.586L508.009 127.586C508.034 127.483 508.381 126.013 508.364 124.208C508.346 122.387 507.958 120.337 506.624 118.963L506.961 118.636L506.624 118.963C505.289 117.587 503.655 116.674 502.031 116.372L508.009 127.586ZM508.009 127.586L508.008 127.59M508.009 127.586L508.008 127.59M508.008 127.59L507.945 127.857M508.008 127.59L507.945 127.857M507.945 127.857L507.673 127.914C507.672 127.914 507.672 127.914 507.672 127.914C507.566 127.937 506.083 128.236 504.277 128.162C502.453 128.088 500.411 127.637 499.074 126.262L507.945 127.857ZM498.436 118.056L498.436 118.056L498.434 118.057C497.586 118.876 497.295 120.114 497.504 121.463C497.733 122.943 498.528 124.424 499.716 125.646C500.714 126.674 502.177 127.082 503.5 127.225C504.837 127.369 506.119 127.251 506.849 127.151L507.213 127.101L507.274 126.738C507.395 126.015 507.552 124.739 507.45 123.401C507.35 122.076 506.988 120.603 505.99 119.574L505.99 119.574C504.803 118.352 503.346 117.513 501.872 117.239C501.043 117.082 500.256 117.119 499.573 117.36C499.148 117.507 498.76 117.745 498.436 118.056ZM499.074 126.262C497.738 124.886 496.876 123.226 496.624 121.602L499.074 126.262ZM496.624 121.602C496.355 119.867 496.799 118.404 497.811 117.427C498.824 116.449 500.303 116.05 502.031 116.372L496.624 121.602Z" fill="#E85654" stroke="black"/>
<path d="M509.383 119.016L509.383 119.016C510.742 117.663 512.394 116.779 514.02 116.506L514.02 116.506C515.754 116.213 517.227 116.639 518.221 117.633C519.215 118.628 519.635 120.099 519.337 121.828C519.056 123.447 518.165 125.092 516.805 126.448C515.448 127.797 513.401 128.212 511.576 128.256C509.768 128.299 508.29 127.975 508.186 127.951L508.186 127.951L507.911 127.888L507.848 127.615C507.848 127.615 507.848 127.614 507.848 127.614C507.824 127.505 507.504 126.031 507.552 124.23C507.602 122.409 508.025 120.367 509.383 119.016ZM517.592 118.253C517.274 117.937 516.891 117.694 516.469 117.539L516.469 117.539C515.789 117.285 514.998 117.235 514.171 117.375C512.693 117.625 511.217 118.438 510.012 119.642C508.996 120.652 508.609 122.118 508.486 123.441C508.361 124.777 508.496 126.055 508.605 126.782L508.659 127.147L509.024 127.203C509.751 127.313 511.03 127.452 512.369 127.332C513.694 127.213 515.164 126.832 516.181 125.821L516.181 125.82C517.39 124.618 518.21 123.152 518.465 121.676C518.698 120.331 518.428 119.088 517.594 118.254L517.592 118.253Z" fill="#E85654" stroke="black"/>
<g opacity="0.5">
<path opacity="0.5" d="M482.671 138.111V137.611H482.171H479.716V127.25H535.605V137.611H533.149H532.649V138.111V170.495H482.671V138.111Z" fill="url(#paint1_linear)" stroke="black"/>
</g>
<path d="M483.316 130.685H532.003V169.936H483.316V130.685Z" fill="#F5F5F5" stroke="black"/>
<path d="M503.479 137.872H511.841V169.936H503.479V137.872Z" fill="#E85654" stroke="black"/>
<path d="M532.048 148.878L532.048 157.222L483.357 157.222L483.357 148.878L532.048 148.878Z" fill="#E85654" stroke="black"/>
<path opacity="0.1" d="M483.316 128.528H532.003V137.591H483.316V128.528Z" fill="black" stroke="black"/>
<path d="M480.436 127.809H534.884V136.872H480.436V127.809Z" fill="#F5F5F5" stroke="black"/>
<path d="M503.479 127.809H511.841V136.872H503.479V127.809Z" fill="#E85654" stroke="black"/>
<path d="M480.534 179.891C480.534 178.967 480.93 178.199 481.722 177.587C482.526 176.975 483.516 176.669 484.692 176.669C485.604 176.669 486.312 176.855 486.816 177.227C487.332 177.599 487.59 178.133 487.59 178.829C487.59 179.369 487.452 179.807 487.176 180.143C486.912 180.479 486.558 180.647 486.114 180.647C485.946 180.647 485.79 180.617 485.646 180.557C485.514 180.497 485.394 180.401 485.286 180.269C485.526 180.125 485.718 179.909 485.862 179.621C486.018 179.333 486.096 179.033 486.096 178.721C486.096 178.337 485.982 178.043 485.754 177.839C485.526 177.623 485.196 177.515 484.764 177.515C484.248 177.515 483.84 177.659 483.54 177.947C483.252 178.235 483.108 178.637 483.108 179.153C483.108 179.573 483.216 179.975 483.432 180.359C483.648 180.731 484.116 181.235 484.836 181.871C485.784 182.699 486.408 183.419 486.708 184.031C487.008 184.631 487.158 185.303 487.158 186.047C487.158 187.415 486.684 188.507 485.736 189.323C484.788 190.139 483.576 190.547 482.1 190.547C480.924 190.547 479.994 190.277 479.31 189.737C478.626 189.197 478.284 188.435 478.284 187.451C478.284 186.587 478.542 185.879 479.058 185.327C479.574 184.775 480.198 184.499 480.93 184.499C481.386 184.499 481.758 184.607 482.046 184.823C482.334 185.027 482.49 185.315 482.514 185.687C481.89 185.687 481.38 185.837 480.984 186.137C480.6 186.437 480.408 186.851 480.408 187.379C480.408 187.883 480.564 188.297 480.876 188.621C481.188 188.945 481.608 189.107 482.136 189.107C482.76 189.107 483.264 188.891 483.648 188.459C484.032 188.027 484.224 187.445 484.224 186.713C484.224 186.149 484.098 185.609 483.846 185.093C483.594 184.577 483.072 183.887 482.28 183.023C481.56 182.255 481.086 181.655 480.858 181.223C480.642 180.779 480.534 180.335 480.534 179.891ZM492.437 188.243C492.437 188.027 492.461 187.757 492.509 187.433C492.569 187.109 492.683 186.593 492.851 185.885C493.019 185.201 493.127 184.709 493.175 184.409C493.223 184.109 493.247 183.857 493.247 183.653C493.247 183.353 493.193 183.125 493.085 182.969C492.977 182.813 492.815 182.735 492.599 182.735C492.311 182.735 492.041 182.885 491.789 183.185C491.549 183.473 491.351 183.875 491.195 184.391L489.971 190.169H487.379L489.287 181.169H491.879L491.681 182.105C491.981 181.769 492.305 181.517 492.653 181.349C493.001 181.181 493.379 181.097 493.787 181.097C494.423 181.097 494.915 181.271 495.263 181.619C495.611 181.967 495.785 182.471 495.785 183.131C495.785 183.407 495.749 183.737 495.677 184.121C495.617 184.493 495.491 185.069 495.299 185.849C495.143 186.461 495.041 186.893 494.993 187.145C494.945 187.397 494.921 187.607 494.921 187.775C494.921 188.027 494.981 188.219 495.101 188.351C495.221 188.471 495.401 188.531 495.641 188.531C495.941 188.531 496.199 188.429 496.415 188.225C496.631 188.021 496.877 187.595 497.153 186.947H497.909C497.525 188.063 497.057 188.897 496.505 189.449C495.965 190.001 495.317 190.277 494.561 190.277C493.889 190.277 493.367 190.097 492.995 189.737C492.623 189.365 492.437 188.867 492.437 188.243ZM503.177 181.997V182.123L503.375 181.169H505.967L504.671 187.289C504.647 187.397 504.629 187.499 504.617 187.595C504.605 187.679 504.599 187.769 504.599 187.865C504.599 188.129 504.659 188.327 504.779 188.459C504.899 188.579 505.085 188.639 505.337 188.639C505.649 188.639 505.931 188.495 506.183 188.207C506.435 187.907 506.639 187.487 506.795 186.947H507.551C507.167 188.051 506.669 188.885 506.057 189.449C505.445 190.001 504.737 190.277 503.933 190.277C503.417 190.277 503.003 190.133 502.691 189.845C502.391 189.557 502.217 189.149 502.169 188.621C501.797 189.173 501.383 189.587 500.927 189.863C500.483 190.139 500.003 190.277 499.487 190.277C498.743 190.277 498.155 190.025 497.723 189.521C497.303 189.017 497.093 188.303 497.093 187.379C497.093 186.707 497.195 186.005 497.399 185.273C497.603 184.541 497.885 183.875 498.245 183.275C498.689 182.567 499.205 182.027 499.793 181.655C500.381 181.271 501.023 181.079 501.719 181.079C502.187 181.079 502.547 181.163 502.799 181.331C503.051 181.487 503.177 181.709 503.177 181.997ZM503.015 182.879C503.015 182.699 502.949 182.543 502.817 182.411C502.685 182.267 502.505 182.195 502.277 182.195C501.617 182.195 501.029 182.747 500.513 183.851C500.009 184.955 499.757 186.047 499.757 187.127C499.757 187.595 499.823 187.949 499.955 188.189C500.087 188.417 500.321 188.531 500.657 188.531C500.969 188.531 501.269 188.381 501.557 188.081C501.857 187.781 502.055 187.403 502.151 186.947L503.015 182.879ZM513.408 182.663C513.408 183.071 513.318 183.395 513.138 183.635C512.97 183.863 512.742 183.977 512.454 183.977C512.358 183.977 512.256 183.959 512.148 183.923C512.04 183.887 511.932 183.833 511.824 183.761C511.896 183.569 511.95 183.383 511.986 183.203C512.022 183.023 512.04 182.855 512.04 182.699C512.04 182.459 511.998 182.279 511.914 182.159C511.83 182.027 511.704 181.961 511.536 181.961C511.008 181.961 510.492 182.573 509.988 183.797C509.484 185.009 509.232 186.161 509.232 187.253C509.232 187.805 509.322 188.195 509.502 188.423C509.694 188.651 510.036 188.765 510.528 188.765C511.092 188.765 511.608 188.639 512.076 188.387C512.556 188.123 513.102 187.643 513.714 186.947H514.326C513.63 188.075 512.874 188.915 512.058 189.467C511.242 190.007 510.348 190.277 509.376 190.277C508.452 190.277 507.75 190.037 507.27 189.557C506.802 189.077 506.568 188.363 506.568 187.415C506.568 186.731 506.67 186.005 506.874 185.237C507.09 184.469 507.384 183.785 507.756 183.185C508.2 182.465 508.728 181.925 509.34 181.565C509.964 181.193 510.654 181.007 511.41 181.007C512.07 181.007 512.568 181.151 512.904 181.439C513.24 181.715 513.408 182.123 513.408 182.663ZM518.3 177.569L516.95 183.905L520.424 181.169H522.206L518.606 183.671C518.774 183.647 518.894 183.629 518.966 183.617C519.05 183.605 519.128 183.599 519.2 183.599C519.812 183.599 520.292 183.791 520.64 184.175C521 184.559 521.18 185.069 521.18 185.705C521.18 185.825 521.174 185.945 521.162 186.065C521.15 186.173 521.132 186.281 521.108 186.389L520.91 187.289C520.886 187.433 520.862 187.553 520.838 187.649C520.826 187.745 520.82 187.817 520.82 187.865C520.82 188.093 520.874 188.261 520.982 188.369C521.102 188.477 521.282 188.531 521.522 188.531C521.822 188.531 522.08 188.429 522.296 188.225C522.512 188.021 522.758 187.595 523.034 186.947H523.79C523.418 188.051 522.956 188.885 522.404 189.449C521.852 190.001 521.21 190.277 520.478 190.277C519.746 190.277 519.182 190.103 518.786 189.755C518.402 189.395 518.21 188.885 518.21 188.225C518.21 188.081 518.216 187.931 518.228 187.775C518.252 187.619 518.282 187.457 518.318 187.289L518.462 186.587C518.486 186.479 518.504 186.371 518.516 186.263C518.528 186.155 518.534 186.041 518.534 185.921C518.534 185.633 518.48 185.417 518.372 185.273C518.264 185.129 518.102 185.057 517.886 185.057C517.706 185.057 517.508 185.111 517.292 185.219C517.088 185.315 516.842 185.483 516.554 185.723L515.618 190.169H513.026L515.636 177.929L518.3 177.569ZM527.472 178.775C527.472 179.171 527.328 179.507 527.04 179.783C526.764 180.059 526.428 180.197 526.032 180.197C525.636 180.197 525.3 180.059 525.024 179.783C524.748 179.507 524.61 179.171 524.61 178.775C524.61 178.379 524.748 178.043 525.024 177.767C525.3 177.479 525.636 177.335 526.032 177.335C526.428 177.335 526.764 177.479 527.04 177.767C527.328 178.043 527.472 178.379 527.472 178.775ZM522.882 188.117C522.882 187.961 522.894 187.787 522.918 187.595C522.942 187.391 522.978 187.175 523.026 186.947L524.25 181.169H526.842L525.546 187.289C525.522 187.397 525.504 187.499 525.492 187.595C525.48 187.679 525.474 187.769 525.474 187.865C525.474 188.105 525.528 188.279 525.636 188.387C525.756 188.483 525.948 188.531 526.212 188.531C526.548 188.531 526.866 188.387 527.166 188.099C527.466 187.799 527.688 187.415 527.832 186.947H528.588C528.204 188.039 527.688 188.867 527.04 189.431C526.392 189.995 525.648 190.277 524.808 190.277C524.208 190.277 523.734 190.091 523.386 189.719C523.05 189.335 522.882 188.801 522.882 188.117ZM532.631 176.687C533.219 176.687 533.717 176.873 534.125 177.245C534.545 177.617 534.755 178.079 534.755 178.631C534.755 178.775 534.749 178.907 534.737 179.027C534.737 179.147 534.725 179.261 534.701 179.369H533.855C533.879 179.177 533.891 179.063 533.891 179.027C533.891 178.979 533.891 178.931 533.891 178.883C533.891 178.691 533.825 178.541 533.693 178.433C533.573 178.325 533.411 178.271 533.207 178.271C532.907 178.271 532.643 178.397 532.415 178.649C532.199 178.901 532.043 179.267 531.947 179.747L531.641 181.169H532.955L532.829 181.889H531.497L529.427 191.609C529.211 192.629 528.833 193.391 528.293 193.895C527.753 194.411 527.057 194.669 526.205 194.669C525.617 194.669 525.119 194.483 524.711 194.111C524.291 193.739 524.081 193.277 524.081 192.725C524.081 192.101 524.291 191.591 524.711 191.195C525.119 190.799 525.941 190.409 527.177 190.025L529.355 179.747C529.571 178.739 529.955 177.977 530.507 177.461C531.059 176.945 531.767 176.687 532.631 176.687ZM527.051 190.619C526.355 190.847 525.851 191.111 525.539 191.411C525.227 191.711 525.071 192.065 525.071 192.473C525.071 192.617 525.149 192.749 525.305 192.869C525.449 193.001 525.611 193.067 525.791 193.067C526.019 193.067 526.223 192.947 526.403 192.707C526.583 192.467 526.721 192.119 526.817 191.663L527.051 190.619ZM480.804 217.531C481.104 217.531 481.374 217.405 481.614 217.153C481.854 216.901 482.052 216.535 482.208 216.055L483.468 210.169H486.06L484.278 218.521C484.878 218.305 485.346 218.005 485.682 217.621C486.03 217.225 486.318 216.667 486.546 215.947H487.302C487.026 216.859 486.63 217.591 486.114 218.143C485.61 218.695 484.944 219.085 484.116 219.313L483.846 220.609C483.63 221.617 483.252 222.379 482.712 222.895C482.172 223.411 481.47 223.669 480.606 223.669C479.994 223.669 479.502 223.513 479.13 223.201C478.77 222.889 478.59 222.463 478.59 221.923C478.59 221.335 478.83 220.813 479.31 220.357C479.802 219.913 480.54 219.541 481.524 219.241L481.74 218.269C481.44 218.605 481.11 218.857 480.75 219.025C480.402 219.193 480.012 219.277 479.58 219.277C478.98 219.277 478.506 219.091 478.158 218.719C477.822 218.335 477.654 217.801 477.654 217.117C477.654 216.961 477.666 216.787 477.69 216.595C477.714 216.391 477.75 216.175 477.798 215.947L479.022 210.169H481.614L480.318 216.289C480.306 216.361 480.294 216.439 480.282 216.523C480.27 216.595 480.264 216.667 480.264 216.739C480.264 216.991 480.306 217.189 480.39 217.333C480.486 217.465 480.624 217.531 480.804 217.531ZM481.344 220.141C480.744 220.369 480.3 220.603 480.012 220.843C479.724 221.095 479.58 221.371 479.58 221.671C479.58 221.827 479.64 221.965 479.76 222.085C479.88 222.205 480.024 222.265 480.192 222.265C480.396 222.265 480.594 222.121 480.786 221.833C480.978 221.545 481.128 221.155 481.236 220.663L481.344 220.141Z" fill="white"/>
<path d="M440.03 366.344C440.03 362.688 437.058 359.722 433.395 359.722C429.733 359.722 426.761 362.688 426.761 366.344C426.761 369.549 429.043 372.217 432.069 372.833V368.33H430.742V366.344H432.069V364.688C432.069 363.41 433.11 362.37 434.391 362.37H436.049V364.357H434.722C434.357 364.357 434.059 364.655 434.059 365.019V366.344H436.049V368.33H434.059V372.933C437.409 372.601 440.03 369.78 440.03 366.344Z" fill="white"/>
<path d="M440.03 255.094C440.03 254.366 439.433 253.77 438.703 253.77H428.088C427.358 253.77 426.761 254.366 426.761 255.094V263.041C426.761 263.769 427.358 264.365 428.088 264.365H438.703C439.433 264.365 440.03 263.769 440.03 263.041V255.094ZM438.703 255.094L433.395 258.405L428.088 255.094H438.703ZM438.703 263.041H428.088V256.419L433.395 259.73L438.703 256.419V263.041Z" fill="white"/>
<path d="M438.703 306.746H428.088C427.358 306.746 426.761 307.342 426.761 308.07V319.99L429.415 317.341H438.703C439.433 317.341 440.03 316.745 440.03 316.016V308.07C440.03 307.342 439.433 306.746 438.703 306.746ZM438.703 316.016H429.415L428.088 317.341V308.07H438.703V316.016ZM430.078 311.381H431.405V312.705H430.078V311.381ZM432.732 311.381H434.059V312.705H432.732V311.381ZM435.386 311.381H436.713V312.705H435.386V311.381Z" fill="white"/>
<defs>
<linearGradient id="paint0_linear" x1="507.992" y1="129.053" x2="507.992" y2="115.465" gradientUnits="userSpaceOnUse">
<stop stop-color="#808080" stop-opacity="0.25"/>
<stop offset="0.54" stop-color="#808080" stop-opacity="0.12"/>
<stop offset="1" stop-color="#808080" stop-opacity="0.1"/>
</linearGradient>
<linearGradient id="paint1_linear" x1="24375" y1="35727.1" x2="24375" y2="14294.6" gradientUnits="userSpaceOnUse">
<stop stop-color="#808080" stop-opacity="0.25"/>
<stop offset="0.54" stop-color="#808080" stop-opacity="0.12"/>
<stop offset="1" stop-color="#808080" stop-opacity="0.1"/>
</linearGradient>
</defs>
</svg>
