<svg width="825" height="534" viewBox="0 0 825 534" fill="none" xmlns="http://www.w3.org/2000/svg">
<path d="M825 534H0V0H825V534ZM1.77994 532H823.22V2H1.77994V532Z" fill="#2F2E41" fill-opacity="0.1"/>
<path d="M390.088 227.042C390.088 227.042 453.652 230.105 457.481 252.314C461.31 274.523 383.196 254.611 383.196 254.611L390.088 227.042Z" fill="#A0616A"/>
<path d="M289.766 156.586C289.766 156.586 300.487 159.649 308.911 178.029C317.335 196.409 334.183 213.257 334.183 213.257L402.342 226.276L390.854 260.738L325.759 252.314L285.171 229.339L289.766 156.586Z" fill="#F7F7F7"/>
<path opacity="0.1" d="M289.766 156.586C289.766 156.586 300.487 159.649 308.911 178.029C317.335 196.409 334.183 213.257 334.183 213.257L402.342 226.276L390.854 260.738L325.759 252.314L285.171 229.339L289.766 156.586Z" fill="#3E1E1E"/>
<path d="M566.611 94.1711H413.446V95.7028H566.611V94.1711Z" fill="#A5A5A5"/>
<path d="M727.434 278.735H123.199V509.247H727.434V278.735Z" fill="#A5A5A5"/>
<path d="M188.677 121.358L195.569 165.01L243.05 167.307L237.69 102.978L188.677 121.358Z" fill="#A0616A"/>
<path d="M138.515 412.754L136.218 509.248H208.205L218.927 470.957L227.351 509.248H302.402C302.402 509.248 303.933 398.969 295.509 398.203C287.085 397.438 138.515 412.754 138.515 412.754Z" fill="#2F2E41"/>
<path d="M203.993 132.845C226.833 132.845 245.348 114.33 245.348 91.4909C245.348 68.6515 226.833 50.1365 203.993 50.1365C181.154 50.1365 162.639 68.6515 162.639 91.4909C162.639 114.33 181.154 132.845 203.993 132.845Z" fill="#A0616A"/>
<path d="M134.304 416.966L155.747 311.282L127.411 171.136L192.67 146.649L224.671 142.801L240.758 139.798L252.24 142.801C252.24 142.801 298.19 154.288 300.487 162.712C302.785 171.136 291.297 240.061 291.297 240.061L280.576 296.731L304.316 398.586C304.316 398.586 205.525 432.282 135.835 416.966H134.304Z" fill="#F7F7F7"/>
<path opacity="0.1" d="M163.022 209.81V238.146L253.383 238.269L167.617 228.956L163.022 209.81Z" fill="#3E1E1E"/>
<path opacity="0.1" d="M155.261 288.067L268.705 271.842L155.261 303.973V288.067Z" fill="#3E1E1E"/>
<path opacity="0.1" d="M335.332 213.639L323.17 257.464L343.756 215.085L335.332 213.639Z" fill="#3E1E1E"/>
<path d="M238.027 50.0167L245.632 46.9722C245.632 46.9722 229.731 29.4664 207.609 30.9887L213.831 24.1386C213.831 24.1386 198.621 18.0497 184.795 34.0331C177.526 42.4353 169.117 52.3116 163.874 63.4371H155.73L159.129 70.9214L147.232 78.4057L159.443 77.0613C158.716 81.1598 158.604 85.344 159.112 89.4754C159.636 93.6082 161.745 97.3757 164.994 99.983V99.983C164.994 99.983 174.425 80.4613 174.425 77.4168V85.028C174.425 85.028 182.029 78.178 182.029 73.6113L186.177 78.9391L188.251 70.5668L213.831 78.9391L209.683 72.0891L225.583 74.3724L219.361 66.0001C219.361 66.0001 237.336 75.8946 238.027 84.267C238.719 92.6392 243.98 100.572 243.98 100.572C243.98 100.572 258.076 61.4334 238.027 50.0167Z" fill="#2F2E41"/>
<path d="M572.737 202.918H278.661V510.013H572.737V202.918Z" fill="#FFFCFC"/>
<path d="M526.788 270.311H309.294V300.943H526.788V270.311Z" fill="#E85654"/>
<path d="M489.123 351.488H346.684V366.805H489.123V351.488Z" fill="#E85654"/>
<path d="M489.398 378.292H346.959V393.608H489.398V378.292Z" fill="#E85654"/>
<path d="M418.454 405.095H347.234V420.412H418.454V405.095Z" fill="#E85654"/>
<path d="M530.617 482.444H497.687V497.76H530.617V482.444Z" fill="#E85654"/>
<path d="M257.601 241.592C257.601 241.592 324.228 231.637 334.183 246.187C344.139 260.738 263.728 268.396 263.728 268.396L257.601 241.592Z" fill="#A0616A"/>
<path d="M135.069 170.371H130.271C128.297 170.365 126.395 171.106 124.944 172.444C120.389 176.673 110.757 187.588 106.734 207.13C101.373 233.168 92.1833 283.713 112.861 287.542C133.538 291.371 269.088 272.991 269.088 272.991L259.133 237.763L161.107 238.529C161.107 238.529 162.639 221.681 159.576 210.959C156.512 200.238 135.069 170.371 135.069 170.371Z" fill="#F7F7F7"/>
<path d="M413.446 126.336C430.787 126.336 444.845 112.278 444.845 94.9371C444.845 77.596 430.787 63.5383 413.446 63.5383C396.105 63.5383 382.047 77.596 382.047 94.9371C382.047 112.278 396.105 126.336 413.446 126.336Z" fill="#FFFCFC"/>
<path d="M556.655 126.336C573.996 126.336 588.054 112.278 588.054 94.9371C588.054 77.596 573.996 63.5383 556.655 63.5383C539.314 63.5383 525.256 77.596 525.256 94.9371C525.256 112.278 539.314 126.336 556.655 126.336Z" fill="#A5A5A5"/>
<path d="M409.118 108.295L395.511 90.1537L400.412 86.477L409.78 98.9675L452.849 55.8992L457.181 60.2307L409.118 108.295Z" fill="#A5A5A5"/>
<path d="M738 508.402H112.633V510.533H738V508.402Z" fill="#A5A5A5"/>
<path d="M576.24 85.19L569.345 79.9994L572.351 76.0921L567.334 72.1547L564.199 76.1281L557.109 70.7932C556.839 70.5905 556.51 70.481 556.173 70.481C555.835 70.481 555.507 70.5905 555.237 70.7932L536.443 84.7843C535.73 85.3854 535.063 86.0737 535.057 87.6486H535.036L534.988 109.205V110.164C534.987 110.472 535.047 110.778 535.164 111.064C535.282 111.349 535.454 111.609 535.672 111.827C535.89 112.046 536.148 112.22 536.433 112.339C536.718 112.458 537.024 112.519 537.332 112.52H538.258L556.078 112.559L574.827 112.601C575.136 112.602 575.442 112.542 575.727 112.425C576.013 112.307 576.272 112.135 576.491 111.917C576.71 111.699 576.884 111.441 577.002 111.156C577.121 110.871 577.183 110.566 577.184 110.257L577.235 87.7809H577.274C577.274 86.2029 576.952 85.7912 576.24 85.19Z" fill="url(#paint0_linear)"/>
<path d="M575.422 88.1084C575.422 86.6718 575.122 86.3051 574.479 85.749L557.025 72.6235C556.778 72.4384 556.478 72.3384 556.17 72.3384C555.861 72.3384 555.561 72.4384 555.315 72.6235L538.168 85.3914C537.755 85.686 537.423 86.0796 537.203 86.536C536.982 86.9924 536.88 87.497 536.905 88.0033H536.887L536.842 107.672V108.547C536.841 109.115 537.066 109.661 537.468 110.064C537.869 110.467 538.414 110.694 538.982 110.696H539.827L556.087 110.732L573.192 110.771C573.761 110.772 574.306 110.547 574.709 110.145C575.112 109.744 575.34 109.199 575.341 108.631L575.386 88.1235L575.422 88.1084Z" fill="url(#paint1_linear)"/>
<path d="M537.202 88.082L575.022 88.1678L574.975 108.976C574.974 109.141 574.941 109.304 574.878 109.456C574.815 109.608 574.722 109.747 574.605 109.863C574.488 109.98 574.349 110.072 574.197 110.135C574.044 110.197 573.881 110.23 573.716 110.229L538.55 110.149C538.182 110.149 537.83 110.002 537.571 109.741C537.312 109.481 537.167 109.128 537.167 108.761L537.214 88.0821L537.202 88.082Z" fill="#E85654"/>
<path opacity="0.2" d="M537.202 88.082L575.022 88.1678L574.975 108.976C574.974 109.141 574.941 109.304 574.878 109.456C574.815 109.608 574.722 109.747 574.605 109.863C574.488 109.98 574.349 110.072 574.197 110.135C574.044 110.197 573.881 110.23 573.716 110.229L538.55 110.149C538.182 110.149 537.83 110.002 537.571 109.741C537.312 109.481 537.167 109.128 537.167 108.761L537.214 88.0821L537.202 88.082Z" fill="white"/>
<path d="M537.206 88.0754L537.164 107.188C537.163 107.574 537.238 107.956 537.385 108.312C537.532 108.669 537.748 108.993 538.02 109.266C538.292 109.54 538.615 109.756 538.971 109.905C539.327 110.053 539.709 110.13 540.094 110.131L572.041 110.203" fill="#F5F5F5"/>
<path d="M575.028 88.1592L574.986 107.284C574.986 107.67 574.909 108.051 574.76 108.407C574.612 108.763 574.395 109.086 574.122 109.359C573.849 109.631 573.525 109.846 573.168 109.993C572.811 110.14 572.429 110.215 572.044 110.214L540.097 110.142" fill="white"/>
<path d="M555.312 73.1224L538.48 85.5356C538.076 85.8199 537.75 86.2018 537.533 86.6459C537.316 87.0899 537.215 87.5817 537.239 88.0753L575.077 88.1956C575.077 86.798 574.776 86.4313 574.151 85.9023L557.004 73.1284C556.761 72.9444 556.464 72.8444 556.159 72.8433C555.854 72.8422 555.557 72.9401 555.312 73.1224V73.1224Z" fill="#E85654"/>
<path opacity="0.2" d="M555.312 73.1224L538.48 85.5356C538.076 85.8199 537.75 86.2018 537.533 86.6459C537.316 87.0899 537.215 87.5817 537.239 88.0753L575.077 88.1956C575.077 86.798 574.776 86.4313 574.151 85.9023L557.004 73.1284C556.761 72.9444 556.464 72.8444 556.159 72.8433C555.854 72.8422 555.557 72.9401 555.312 73.1224V73.1224Z" fill="#3E1E1E"/>
<path d="M570.932 77.4417L566.354 73.853L555.29 87.8652L549.345 83.2546L545.621 87.9884L554.274 94.5978L556.421 96.32L570.932 77.4417Z" fill="url(#paint2_linear)"/>
<path d="M570.595 77.3543L566.447 74.1743L555.456 88.5081L549.351 83.8283L546.168 87.9761L554.347 94.2398L556.445 95.8117L570.595 77.3543Z" fill="white"/>
<defs>
<linearGradient id="paint0_linear" x1="556.129" y1="112.598" x2="556.129" y2="70.4776" gradientUnits="userSpaceOnUse">
<stop stop-opacity="0.12"/>
<stop offset="0.55" stop-opacity="0.09"/>
<stop offset="1" stop-opacity="0.02"/>
</linearGradient>
<linearGradient id="paint1_linear" x1="21549.5" y1="13134" x2="21549.5" y2="8220.01" gradientUnits="userSpaceOnUse">
<stop stop-color="#808080" stop-opacity="0.25"/>
<stop offset="0.54" stop-color="#808080" stop-opacity="0.12"/>
<stop offset="1" stop-color="#808080" stop-opacity="0.1"/>
</linearGradient>
<linearGradient id="paint2_linear" x1="14425.9" y1="6642.77" x2="14429.7" y2="4961.57" gradientUnits="userSpaceOnUse">
<stop stop-opacity="0.12"/>
<stop offset="0.55" stop-opacity="0.09"/>
<stop offset="1" stop-opacity="0.02"/>
</linearGradient>
</defs>
</svg>
